<svg width="48" height="42" viewBox="0 0 48 42" fill="none" xmlns="http://www.w3.org/2000/svg">
<path d="M26.752 23.625C25.4821 22.7773 24.1128 22.1279 22.644 21.6768C21.1753 21.2256 19.6377 21 18.0312 21C16.6849 21 15.3844 21.1572 14.1299 21.4717C12.8753 21.7861 11.7049 22.2236 10.6187 22.7842C9.53239 23.3447 8.54557 24.0283 7.6582 24.835C6.77083 25.6416 6.00586 26.5303 5.36328 27.501C4.7207 28.4717 4.22347 29.5176 3.87158 30.6387C3.51969 31.7598 3.34375 32.9219 3.34375 34.125H0.40625C0.40625 32.4844 0.673991 30.9053 1.20947 29.3877C1.74495 27.8701 2.51758 26.4688 3.52734 25.1836C4.53711 23.8984 5.73047 22.7568 7.10742 21.7588C8.48438 20.7607 10.0449 19.9746 11.7891 19.4004C10.9323 18.9219 10.1673 18.3613 9.49414 17.7188C8.82096 17.0762 8.23958 16.3652 7.75 15.5859C7.26042 14.8066 6.90088 13.9932 6.67139 13.1455C6.44189 12.2979 6.31185 11.416 6.28125 10.5C6.28125 9.05078 6.58724 7.69043 7.19922 6.41895C7.8112 5.14746 8.65267 4.04004 9.72363 3.09668C10.7946 2.15332 12.0415 1.40137 13.4644 0.84082C14.8872 0.280273 16.4095 0 18.0312 0C19.653 0 21.1753 0.273438 22.5981 0.820312C24.021 1.36719 25.2603 2.11914 26.3159 3.07617C27.3716 4.0332 28.2131 5.14746 28.8403 6.41895C29.4676 7.69043 29.7812 9.05078 29.7812 10.5C29.7812 11.4023 29.6589 12.2842 29.4141 13.1455C29.1693 14.0068 28.8021 14.8203 28.3125 15.5859C27.8229 16.3516 27.2415 17.0557 26.5684 17.6982C25.8952 18.3408 25.1226 18.9082 24.2505 19.4004C25.1685 19.7148 26.0329 20.084 26.8438 20.5078V23.625H26.752ZM9.21875 10.5C9.21875 11.5938 9.44824 12.6123 9.90723 13.5557C10.3662 14.499 10.9935 15.333 11.7891 16.0576C12.5846 16.7822 13.5179 17.3496 14.5889 17.7598C15.6598 18.1699 16.8073 18.375 18.0312 18.375C19.2399 18.375 20.3797 18.1699 21.4507 17.7598C22.5216 17.3496 23.4549 16.7891 24.2505 16.0781C25.0461 15.3672 25.681 14.5332 26.1553 13.5762C26.6296 12.6191 26.859 11.5938 26.8438 10.5C26.8438 9.41992 26.6143 8.40137 26.1553 7.44434C25.6963 6.4873 25.069 5.65332 24.2734 4.94238C23.4779 4.23145 22.5369 3.66406 21.4507 3.24023C20.3644 2.81641 19.2246 2.61133 18.0312 2.625C16.8073 2.625 15.6675 2.83008 14.6118 3.24023C13.5562 3.65039 12.6229 4.21094 11.812 4.92188C11.0011 5.63281 10.3662 6.47363 9.90723 7.44434C9.44824 8.41504 9.21875 9.43359 9.21875 10.5ZM47.4062 26.25V42H23.9062V26.25H29.7812V21H41.5312V26.25H47.4062ZM32.7188 26.25H38.5938V23.625H32.7188V26.25ZM44.4688 34.125H41.5312V36.75H38.5938V34.125H32.7188V36.75H29.7812V34.125H26.8438V39.375H44.4688V34.125ZM44.4688 28.875H26.8438V31.5H44.4688V28.875Z" fill="#0F53FF"/>
</svg>
