<svg width="42" height="42" viewBox="0 0 42 42" fill="none" xmlns="http://www.w3.org/2000/svg">
<path d="M42 39.8034L30.268 28.0713C33.0873 24.6868 34.4931 20.3455 34.1931 15.9508C33.8932 11.5561 31.9104 7.44615 28.6574 4.47606C25.4043 1.50596 21.1315 -0.0956418 16.7276 0.00442153C12.3238 0.104485 8.12808 1.89851 5.01329 5.01329C1.89851 8.12808 0.104485 12.3238 0.00442153 16.7276C-0.0956418 21.1315 1.50596 25.4043 4.47606 28.6574C7.44615 31.9104 11.5561 33.8932 15.9508 34.1931C20.3455 34.4931 24.6868 33.0873 28.0713 30.268L39.8034 42L42 39.8034ZM3.16255 17.144C3.16255 14.3788 3.98255 11.6756 5.51885 9.37634C7.05516 7.07709 9.23877 5.28505 11.7936 4.22683C14.3483 3.1686 17.1595 2.89172 19.8717 3.4312C22.5838 3.97068 25.0751 5.30229 27.0304 7.25763C28.9858 9.21298 30.3174 11.7042 30.8569 14.4164C31.3963 17.1285 31.1195 19.9397 30.0612 22.4945C29.003 25.0493 27.211 27.2329 24.9117 28.7692C22.6125 30.3055 19.9093 31.1255 17.144 31.1255C13.4372 31.1214 9.88332 29.647 7.26217 27.0259C4.64103 24.4047 3.16666 20.8509 3.16255 17.144Z" fill="#0F53FF"/>
</svg>
