<svg width="34" height="31" viewBox="0 0 34 31" fill="none" xmlns="http://www.w3.org/2000/svg">
<path d="M29.8928 11.8316C31.4096 10.9713 32.1696 10.5411 32.584 9.84671C33 9.15392 33 8.31775 33 6.6454V5.53372C33 3.39736 33 2.32757 32.296 1.66378C31.5952 1 30.464 1 28.2 1H5.8C3.5376 1 2.4064 1 1.704 1.66378C1.0016 2.32757 1 3.39736 1 5.53533V6.64701C1 8.31775 1 9.15392 1.416 9.84671C1.832 10.5395 2.5888 10.9713 4.1072 11.8316L8.768 14.4739C9.7856 15.0507 10.296 15.339 10.6608 15.658C11.4192 16.3202 11.8864 17.1 12.0976 18.0586C12.2 18.5162 12.2 19.0543 12.2 20.1289V24.4306C12.2 25.8952 12.2 26.6282 12.6032 27.1986C13.0064 27.7705 13.7232 28.0525 15.1536 28.6164C18.16 29.7989 19.6624 30.3902 20.7312 29.7168C21.8 29.0433 21.8 27.5063 21.8 24.429V20.1273C21.8 19.0543 21.8 18.5162 21.9024 18.057C22.1033 17.118 22.6095 16.2732 23.3408 15.6564" stroke="#0F53FF" stroke-width="1.5" stroke-linecap="round"/>
</svg>
