<svg width="29" height="31" viewBox="0 0 29 31" fill="none" xmlns="http://www.w3.org/2000/svg">
<path d="M1.09102 1.72596C0.846859 1.72596 0.642819 1.64369 0.4789 1.47915C0.314981 1.31461 0.232449 1.10922 0.231302 0.862981C0.230156 0.616744 0.312116 0.411354 0.477181 0.246812C0.642246 0.0822707 0.847432 0 1.09274 0H4.0364C4.28056 0 4.48517 0.0822707 4.65024 0.246812C4.81531 0.411354 4.89726 0.616744 4.89612 0.862981C4.89497 1.10922 4.81301 1.31461 4.65024 1.47915C4.48747 1.64369 4.28228 1.72596 4.03468 1.72596H1.09102ZM2.38747 25.0264L1.79942 28.0124C1.73294 28.346 1.80458 28.6395 2.01435 28.8926C2.22412 29.148 2.49407 29.2758 2.8242 29.2758H13.6566V25.0264H2.38747ZM3.60826 8.94048L5.70425 6.83826C5.86473 6.67717 6.06017 6.59663 6.29058 6.59663C6.52098 6.59663 6.72043 6.67717 6.88894 6.83826C7.07808 7.00625 7.16691 7.21107 7.15545 7.4527C7.14399 7.69434 7.05515 7.89973 6.88894 8.06887L4.79123 10.1745C4.63075 10.3356 4.43531 10.4162 4.20491 10.4162C3.9745 10.4162 3.77562 10.3356 3.60826 10.1745C3.41913 10.0054 3.32972 9.79944 3.34003 9.55665C3.35035 9.31386 3.43976 9.10733 3.60826 8.94048ZM2.74511 23.3005H13.6566V18.9511H4.45766C4.21465 18.9511 3.99399 19.0345 3.79568 19.2013C3.59737 19.367 3.47644 19.5718 3.43288 19.8158L2.74511 23.3005ZM14.5163 6.93837C12.7533 6.93837 11.2259 6.36362 9.93405 5.21413C8.64333 4.06579 7.88678 2.64532 7.6644 0.952731C7.63804 0.713398 7.69707 0.50283 7.8415 0.321029C7.98594 0.139228 8.17737 0.0356699 8.41579 0.0103558C8.65422 -0.0149583 8.86514 0.0442996 9.04854 0.18813C9.23195 0.33196 9.33741 0.523542 9.36492 0.762875C9.54145 2.01707 10.1157 3.07221 11.0878 3.92829C12.0598 4.78437 13.2027 5.21183 14.5163 5.21068C15.83 5.20953 16.9728 4.78206 17.9449 3.92829C18.9169 3.07451 19.4912 2.01938 19.6678 0.762875C19.6941 0.524692 19.7996 0.333111 19.9841 0.18813C20.1675 0.043149 20.3784 -0.0161089 20.6169 0.0103558C20.8553 0.0368206 21.0467 0.140378 21.1912 0.321029C21.3356 0.50168 21.3946 0.712247 21.3683 0.952731C21.1459 2.64532 20.3893 4.06637 19.0986 5.21586C17.8079 6.36305 16.2805 6.93837 14.5163 6.93837ZM13.6566 13.2761V10.323C13.6566 10.0767 13.7386 9.87135 13.9025 9.70681C14.0664 9.54227 14.271 9.46 14.5163 9.46C14.7616 9.46 14.9663 9.54227 15.1302 9.70681C15.2941 9.87135 15.3761 10.0767 15.3761 10.323V13.2761C15.3761 13.5223 15.2941 13.7277 15.1302 13.8923C14.9663 14.0568 14.7616 14.1391 14.5163 14.1391C14.271 14.1391 14.0664 14.0568 13.9025 13.8923C13.7386 13.7277 13.6566 13.5223 13.6566 13.2761ZM15.3761 29.2758H26.1741C26.5065 29.2758 26.777 29.1486 26.9856 28.8943C27.1954 28.6389 27.2671 28.3455 27.2006 28.0141L26.6125 25.0264H15.3761V29.2758ZM15.3761 23.3005H26.2549L25.5671 19.814C25.5236 19.5724 25.4026 19.3682 25.2043 19.2013C25.0049 19.0356 24.7842 18.9528 24.5423 18.9528H15.3761V23.3005ZM24.2741 10.1642L22.1455 8.02572C21.985 7.86463 21.9082 7.66845 21.915 7.43717C21.9219 7.20589 22.0096 7.00568 22.1781 6.83653C22.3386 6.67545 22.5306 6.5949 22.7541 6.5949C22.9765 6.5949 23.1679 6.67545 23.3284 6.83653L25.5018 8.94221C25.6909 9.1033 25.7855 9.29948 25.7855 9.53076C25.7855 9.76204 25.6909 9.97318 25.5018 10.1642C25.3126 10.3552 25.108 10.4501 24.8879 10.449C24.6679 10.4478 24.4632 10.3529 24.2741 10.1642ZM27.9417 1.72596H24.998C24.7538 1.72596 24.5492 1.64369 24.3841 1.47915C24.2191 1.31461 24.1371 1.10922 24.1383 0.862981C24.1394 0.616744 24.2219 0.411354 24.3859 0.246812C24.5498 0.0822707 24.7538 0 24.998 0H27.9417C28.1858 0 28.3904 0.0822707 28.5555 0.246812C28.7206 0.411354 28.8025 0.616744 28.8014 0.862981C28.8002 1.10922 28.7183 1.31461 28.5555 1.47915C28.3927 1.64369 28.1881 1.72596 27.9417 1.72596ZM0.0559203 27.6551L1.68938 19.4568C1.83267 18.8067 2.15477 18.2722 2.6557 17.8533C3.15663 17.4345 3.74582 17.2257 4.42327 17.2268H24.575C25.2513 17.2268 25.8405 17.4357 26.3426 17.8533C26.8447 18.271 27.1673 18.8055 27.3106 19.4568L28.9441 27.6551C29.1069 28.5273 28.9143 29.3028 28.3664 29.9817C27.8184 30.6606 27.0991 31 26.2085 31H2.78982C1.9003 31 1.18157 30.6606 0.633649 29.9817C0.0857241 29.3028 -0.106853 28.5273 0.0559203 27.6551Z" fill="#0F53FF"/>
</svg>
