<svg width="50" height="66" viewBox="0 0 50 66" fill="none" xmlns="http://www.w3.org/2000/svg">
<path d="M24.7486 56.375L23.5523 55.187C19.3036 50.9878 16.4986 48.2185 16.4986 44.8195C16.466 44.1956 16.5582 43.5714 16.7696 42.9835C16.9811 42.3955 17.3075 41.8556 17.73 41.3953C18.1524 40.935 18.6624 40.5634 19.23 40.3024C19.7977 40.0414 20.4116 39.8961 21.0361 39.875C21.7563 39.8884 22.4643 40.0643 23.1071 40.3895C23.75 40.7147 24.3111 41.1809 24.7486 41.7532C25.1861 41.1809 25.7472 40.7147 26.39 40.3895C27.0328 40.0643 27.7408 39.8884 28.4611 39.875C29.0855 39.8961 29.6995 40.0414 30.2671 40.3024C30.8348 40.5634 31.3447 40.935 31.7671 41.3953C32.1896 41.8556 32.516 42.3955 32.7275 42.9835C32.9389 43.5714 33.0311 44.1956 32.9986 44.8195C32.9986 48.2185 30.1936 50.9878 25.9448 55.198L24.7486 56.375ZM21.9986 11H27.4986V13.75H21.9986V11Z" fill="#0F53FF"/>
<path d="M16.5 13.75C18.0188 13.75 19.25 12.5188 19.25 11C19.25 9.48122 18.0188 8.25 16.5 8.25C14.9812 8.25 13.75 9.48122 13.75 11C13.75 12.5188 14.9812 13.75 16.5 13.75Z" fill="#0F53FF"/>
<path d="M33 13.75C34.5188 13.75 35.75 12.5188 35.75 11C35.75 9.48122 34.5188 8.25 33 8.25C31.4812 8.25 30.25 9.48122 30.25 11C30.25 12.5188 31.4812 13.75 33 13.75Z" fill="#0F53FF"/>
<path d="M25.5 27.5V29.5H27.5L41.2467 29.5C41.247 29.5 41.2474 29.5 41.2478 29.5C42.905 29.503 44.4935 30.1627 45.6654 31.3346C46.837 32.5062 47.4967 34.0944 47.5 35.7512C47.5 35.7519 47.5 35.7526 47.5 35.7533L47.5 57.7473C47.4978 59.405 46.8383 60.9941 45.6662 62.1662C44.4941 63.3383 42.905 63.9978 41.2473 64H8.25266C6.59503 63.9978 5.00592 63.3383 3.8338 62.1662C2.66197 60.9944 2.00254 59.4058 2 57.7486V35.7518C2.00316 34.0947 2.66283 32.5064 3.8346 31.3346C5.00647 30.1627 6.59499 29.503 8.25223 29.5C8.2526 29.5 8.25296 29.5 8.25333 29.5L22 29.5H24V27.5V22V20H22L13.7527 20C13.7522 20 13.7518 20 13.7513 20C12.0942 19.9974 10.5056 19.338 9.3338 18.1662C8.16199 16.9944 7.50256 15.4058 7.5 13.7487V8.25133C7.50256 6.59418 8.16199 5.00561 9.3338 3.8338C10.5056 2.66197 12.0942 2.00254 13.7514 2H35.7486C37.4058 2.00254 38.9944 2.66197 40.1662 3.8338C41.3383 5.00592 41.9978 6.59503 42 8.25266V13.7473C41.9949 15.4011 41.3345 16.9854 40.1635 18.1533C38.9919 19.3218 37.4047 19.978 35.75 19.978L35.7447 19.978L27.4947 20L25.5 20.0053V22V27.5ZM13.7505 3.5H13.75L35.728 5.5055L35.7285 3.5055L35.7266 3.5055L13.7505 3.5ZM44.6088 61.1088C45.4996 60.218 46 59.0098 46 57.75V35.75C46 34.4902 45.4996 33.282 44.6088 32.3912C43.718 31.5004 42.5098 31 41.25 31H8.25C6.99022 31 5.78204 31.5004 4.89124 32.3912C4.00045 33.282 3.5 34.4902 3.5 35.75V57.75C3.5 59.0098 4.00044 60.218 4.89124 61.1088C5.78204 61.9996 6.99023 62.5 8.25 62.5H41.25C42.5098 62.5 43.718 61.9996 44.6088 61.1088Z" stroke="#0F53FF" stroke-width="4"/>
</svg>
