<svg width="22" height="22" viewBox="0 0 22 22" fill="none" xmlns="http://www.w3.org/2000/svg">
<path d="M5.5 16.5V13.5M10.5 16.5V7.5M15.5 16.5V12.5M20.5 4.5C20.5 5.29565 20.1839 6.05871 19.6213 6.62132C19.0587 7.18393 18.2956 7.5 17.5 7.5C16.7044 7.5 15.9413 7.18393 15.3787 6.62132C14.8161 6.05871 14.5 5.29565 14.5 4.5C14.5 3.70435 14.8161 2.94129 15.3787 2.37868C15.9413 1.81607 16.7044 1.5 17.5 1.5C18.2956 1.5 19.0587 1.81607 19.6213 2.37868C20.1839 2.94129 20.5 3.70435 20.5 4.5Z" stroke="black" stroke-width="1.5" stroke-linecap="round" stroke-linejoin="round"/>
<path d="M20.496 10C20.496 10 20.5 10.34 20.5 11C20.5 15.478 20.5 17.718 19.109 19.109C17.718 20.5 15.479 20.5 11 20.5C6.522 20.5 4.282 20.5 2.891 19.109C1.5 17.718 1.5 15.479 1.5 11C1.5 6.522 1.5 4.283 2.891 2.891C4.282 1.5 6.521 1.5 11 1.5H12" stroke="black" stroke-width="1.5" stroke-linecap="round" stroke-linejoin="round"/>
</svg>
