<svg width="52" height="67" viewBox="0 0 52 67" fill="none" xmlns="http://www.w3.org/2000/svg">
<path d="M45.3871 10.8066H45.0197V15.1292H45.3871C45.9603 15.1292 46.51 15.3569 46.9154 15.7622C47.3207 16.1676 47.5484 16.7173 47.5484 17.2905V60.5163C47.5484 61.0895 47.3207 61.6393 46.9154 62.0446C46.51 62.4499 45.9603 62.6776 45.3871 62.6776H6.48387C5.91066 62.6776 5.36093 62.4499 4.95561 62.0446C4.55029 61.6393 4.32258 61.0895 4.32258 60.5163V17.2905C4.32258 16.7173 4.55029 16.1676 4.95561 15.7622C5.36093 15.3569 5.91066 15.1292 6.48387 15.1292H6.85129V10.8066H6.48387C4.76424 10.8066 3.11504 11.4898 1.89908 12.7057C0.68312 13.9217 0 15.5709 0 17.2905V60.5163C0 62.2359 0.68312 63.8851 1.89908 65.1011C3.11504 66.3171 4.76424 67.0002 6.48387 67.0002H45.3871C47.1067 67.0002 48.7559 66.3171 49.9719 65.1011C51.1879 63.8851 51.871 62.2359 51.871 60.5163V17.2905C51.871 15.5709 51.1879 13.9217 49.9719 12.7057C48.7559 11.4898 47.1067 10.8066 45.3871 10.8066Z" fill="#0F53FF"/>
<path d="M41.0667 6.48387H34.5828V0H17.2925V6.48387H10.8086V19.4516H41.0667V6.48387ZM36.7441 15.129H15.1312V10.8065H21.615V4.32258H30.2602V10.8065H36.7441V15.129Z" fill="#0F53FF"/>
<path d="M12.9688 28.0972H38.9042V32.4197H12.9688V28.0972ZM12.9688 38.9036H38.9042V43.2262H12.9688V38.9036ZM12.9688 49.7101H38.9042V54.0327H12.9688V49.7101Z" fill="#0F53FF"/>
</svg>
