<svg width="30" height="32" viewBox="0 0 30 32" fill="none" xmlns="http://www.w3.org/2000/svg">
<path d="M16 18V16H14V18H2V24H4V20H14V24H16V20H26V24H28V18H16Z" fill="#0F53FF"/>
<path d="M3 32C2.20435 32 1.44129 31.6839 0.87868 31.1213C0.31607 30.5587 0 29.7956 0 29C0 28.2044 0.31607 27.4413 0.87868 26.8787C1.44129 26.3161 2.20435 26 3 26C3.79565 26 4.55871 26.3161 5.12132 26.8787C5.68393 27.4413 6 28.2044 6 29C6 29.7956 5.68393 30.5587 5.12132 31.1213C4.55871 31.6839 3.79565 32 3 32ZM3 28C2.73478 28 2.48043 28.1054 2.29289 28.2929C2.10536 28.4804 2 28.7348 2 29C2 29.2652 2.10536 29.5196 2.29289 29.7071C2.48043 29.8946 2.73478 30 3 30C3.26522 30 3.51957 29.8946 3.70711 29.7071C3.89464 29.5196 4 29.2652 4 29C4 28.7348 3.89464 28.4804 3.70711 28.2929C3.51957 28.1054 3.26522 28 3 28ZM15 32C14.2044 32 13.4413 31.6839 12.8787 31.1213C12.3161 30.5587 12 29.7956 12 29C12 28.2044 12.3161 27.4413 12.8787 26.8787C13.4413 26.3161 14.2044 26 15 26C15.7956 26 16.5587 26.3161 17.1213 26.8787C17.6839 27.4413 18 28.2044 18 29C18 29.7956 17.6839 30.5587 17.1213 31.1213C16.5587 31.6839 15.7956 32 15 32ZM15 28C14.7348 28 14.4804 28.1054 14.2929 28.2929C14.1054 28.4804 14 28.7348 14 29C14 29.2652 14.1054 29.5196 14.2929 29.7071C14.4804 29.8946 14.7348 30 15 30C15.2652 30 15.5196 29.8946 15.7071 29.7071C15.8946 29.5196 16 29.2652 16 29C16 28.7348 15.8946 28.4804 15.7071 28.2929C15.5196 28.1054 15.2652 28 15 28ZM27 32C26.2044 32 25.4413 31.6839 24.8787 31.1213C24.3161 30.5587 24 29.7956 24 29C24 28.2044 24.3161 27.4413 24.8787 26.8787C25.4413 26.3161 26.2044 26 27 26C27.7956 26 28.5587 26.3161 29.1213 26.8787C29.6839 27.4413 30 28.2044 30 29C30 29.7956 29.6839 30.5587 29.1213 31.1213C28.5587 31.6839 27.7956 32 27 32ZM27 28C26.7348 28 26.4804 28.1054 26.2929 28.2929C26.1054 28.4804 26 28.7348 26 29C26 29.2652 26.1054 29.5196 26.2929 29.7071C26.4804 29.8946 26.7348 30 27 30C27.2652 30 27.5196 29.8946 27.7071 29.7071C27.8946 29.5196 28 29.2652 28 29C28 28.7348 27.8946 28.4804 27.7071 28.2929C27.5196 28.1054 27.2652 28 27 28ZM22 8V6H19.9C19.7705 5.37544 19.5227 4.78143 19.17 4.25L20.66 2.76L19.24 1.34L17.75 2.83C17.2186 2.47727 16.6246 2.22948 16 2.1V0H14V2.1C13.3754 2.22948 12.7814 2.47727 12.25 2.83L10.76 1.34L9.34 2.76L10.83 4.25C10.4773 4.78143 10.2295 5.37544 10.1 6H8V8H10.1C10.2295 8.62456 10.4773 9.21857 10.83 9.75L9.34 11.24L10.75 12.65L12.24 11.16C12.7737 11.5174 13.3712 11.7687 14 11.9V14H16V11.9C16.6246 11.7705 17.2186 11.5227 17.75 11.17L19.24 12.66L20.65 11.25L19.17 9.75C19.5227 9.21857 19.7705 8.62456 19.9 8H22ZM15 10C14.606 10 14.2159 9.9224 13.8519 9.77164C13.488 9.62087 13.1573 9.3999 12.8787 9.12132C12.6001 8.84274 12.3791 8.51203 12.2284 8.14805C12.0776 7.78407 12 7.39397 12 7C12 6.60603 12.0776 6.21593 12.2284 5.85195C12.3791 5.48797 12.6001 5.15726 12.8787 4.87868C13.1573 4.6001 13.488 4.37913 13.8519 4.22836C14.2159 4.0776 14.606 4 15 4C15.7956 4 16.5587 4.31607 17.1213 4.87868C17.6839 5.44129 18 6.20435 18 7C18 7.79565 17.6839 8.55871 17.1213 9.12132C16.5587 9.68393 15.7956 10 15 10Z" fill="#0F53FF"/>
<path d="M15.0036 8.00002C14.7384 8.00002 14.484 7.89466 14.2965 7.70712C14.1089 7.51959 14.0036 7.26523 14.0036 7.00002C13.9988 6.93344 13.9988 6.8666 14.0036 6.80002C14.0153 6.73757 14.0355 6.67702 14.0636 6.62002C14.0847 6.556 14.1151 6.49537 14.1536 6.44002C14.1911 6.38812 14.2312 6.33807 14.2736 6.29002C14.3669 6.19667 14.4795 6.12498 14.6036 6.08002C14.7857 6.00344 14.9864 5.98252 15.1804 6.01989C15.3744 6.05726 15.553 6.15126 15.6936 6.29002L15.8136 6.44002C15.851 6.49599 15.8813 6.55647 15.9036 6.62002C15.947 6.67381 15.9809 6.7347 16.0036 6.80002C16.0087 6.86659 16.0087 6.93345 16.0036 7.00002C16.0036 7.26523 15.8982 7.51959 15.7107 7.70712C15.5231 7.89466 15.2688 8.00002 15.0036 8.00002Z" fill="#0F53FF"/>
</svg>
