<svg width="51" height="67" viewBox="0 0 51 67" fill="none" xmlns="http://www.w3.org/2000/svg">
<path d="M21.6937 51.1392L39.6665 33.1665L37.0565 30.5565L21.672 45.9446L13.9217 38.1907L11.3335 40.779L21.6937 51.1392ZM5.983 66.125C4.31308 66.125 2.91987 65.5668 1.80337 64.4503C0.686874 63.3338 0.127417 61.9405 0.125 60.2706V6.72937C0.125 5.06187 0.684458 3.66988 1.80337 2.55338C2.92229 1.43688 4.3155 0.877417 5.983 0.875H34.5625L50.875 17.1875V60.2706C50.875 61.9381 50.3168 63.3313 49.2003 64.4503C48.0838 65.5692 46.6893 66.1274 45.017 66.125H5.983ZM32.75 19V4.5H5.983C5.42475 4.5 4.91242 4.732 4.446 5.196C3.97958 5.66 3.74758 6.17112 3.75 6.72937V60.2706C3.75 60.8265 3.982 61.3376 4.446 61.804C4.91 62.2704 5.42112 62.5024 5.97937 62.5H45.0206C45.5765 62.5 46.0876 62.268 46.554 61.804C47.0204 61.34 47.2524 60.8277 47.25 60.267V19H32.75Z" fill="#0F53FF"/>
</svg>
