<svg width="44" height="31" viewBox="0 0 44 31" fill="none" xmlns="http://www.w3.org/2000/svg">
<path d="M9.75 30.3333C7.04744 30.3333 4.74717 29.3937 2.84917 27.5145C0.949722 25.6338 0 23.335 0 20.618C0 18.0527 0.883278 15.8282 2.64983 13.9447C4.41639 12.0611 6.49133 11.0486 8.87467 10.907C9.36144 7.75089 10.8131 5.14367 13.2297 3.08533C15.6462 1.027 18.4586 -0.00144293 21.6667 1.5194e-06C25.2879 1.5194e-06 28.3602 1.26172 30.8837 3.78517C33.4057 6.30717 34.6667 9.37878 34.6667 13V15.1667H36.0013C38.0756 15.2331 39.8161 15.9951 41.223 17.4525C42.6299 18.9099 43.3333 20.6758 43.3333 22.75C43.3333 24.8748 42.6147 26.6702 41.1775 28.1363C39.7403 29.601 37.9593 30.3333 35.8345 30.3333H24.0825C23.0858 30.3333 22.2538 29.9997 21.5865 29.3323C20.9192 28.665 20.5848 27.8316 20.5833 26.832V14.2588L16.0333 18.7828L14.4993 17.2922L21.6667 10.1248L28.834 17.2922L27.3 18.7828L22.75 14.2588V26.8342C22.75 27.1664 22.8887 27.4719 23.166 27.7507C23.4433 28.0294 23.7496 28.1681 24.0847 28.1667H35.75C37.2667 28.1667 38.5486 27.6431 39.5958 26.5958C40.6431 25.5486 41.1667 24.2667 41.1667 22.75C41.1667 21.2333 40.6431 19.9514 39.5958 18.9042C38.5486 17.8569 37.2667 17.3333 35.75 17.3333H32.5V13C32.5 10.0028 31.4434 7.44756 29.3302 5.33433C27.2169 3.22111 24.6624 2.16522 21.6667 2.16667C18.6709 2.16811 16.1164 3.22472 14.0032 5.3365C11.8899 7.44828 10.8333 10.0028 10.8333 13H9.66767C7.65555 13 5.90272 13.7403 4.40917 15.2208C2.91561 16.7014 2.16811 18.4889 2.16667 20.5833C2.16522 22.6778 2.9055 24.4653 4.3875 25.9458C5.8695 27.4264 7.657 28.1667 9.75 28.1667H15.1667V30.3333H9.75Z" fill="#0F53FF"/>
</svg>
