<svg width="61" height="62" viewBox="0 0 61 62" fill="none" xmlns="http://www.w3.org/2000/svg">
<g clip-path="url(#clip0_391_281)">
<g clip-path="url(#clip1_391_281)">
<g clip-path="url(#clip2_391_281)">
<mask id="mask0_391_281" style="mask-type:luminance" maskUnits="userSpaceOnUse" x="0" y="0" width="61" height="61">
<path d="M60.9755 0.791016H0.976562V60.7899H60.9755V0.791016Z" fill="white"/>
</mask>
<g mask="url(#mask0_391_281)">
<mask id="mask1_391_281" style="mask-type:luminance" maskUnits="userSpaceOnUse" x="0" y="0" width="61" height="61">
<path d="M60.9755 0.791016H0.976562V60.7899H60.9755V0.791016Z" fill="white"/>
</mask>
<g mask="url(#mask1_391_281)">
<path d="M21.4533 41.4703L20.9959 41.6841L20.806 41.2768C20.1495 41.0294 19.5588 40.6338 19.0801 40.1208C18.0928 40.3402 17.0725 40.3675 16.075 40.201C15.8588 40.1646 15.6367 40.205 15.4472 40.3156C15.2579 40.426 15.1132 40.5995 15.0387 40.8057L14.6177 41.9649L13.2293 41.4606L13.6511 40.3008C13.7259 40.0948 13.7262 39.8691 13.652 39.663C13.5778 39.4568 13.4337 39.2831 13.2447 39.1721C12.279 38.6076 11.4444 37.8444 10.796 36.933C10.6688 36.7545 10.4831 36.6262 10.2712 36.5704C10.0593 36.5145 9.83453 36.5346 9.63591 36.6273L8.5203 37.1481L7.89546 35.8099L9.01201 35.289C9.21058 35.1962 9.37034 35.0367 9.46351 34.8383C9.55669 34.6399 9.57738 34.4151 9.522 34.203C9.23976 33.1209 9.19087 31.9913 9.37857 30.889C9.41466 30.6727 9.37396 30.4509 9.2635 30.2615C9.15306 30.0722 8.97984 29.9275 8.77389 29.8525L7.61469 29.4317L8.11906 28.0432L9.27919 28.4651C9.48521 28.5392 9.71064 28.5392 9.91661 28.4649C10.1226 28.3907 10.2962 28.2468 10.4075 28.0582C10.9722 27.0929 11.7354 26.2585 12.6466 25.6101C12.825 25.4828 12.9534 25.2971 13.0091 25.0852C13.065 24.8733 13.0448 24.6485 12.9523 24.4499L12.4315 23.3342L13.7697 22.7094L14.2905 23.826C14.3831 24.0248 14.5426 24.1846 14.7411 24.2779C14.9396 24.3711 15.1644 24.3916 15.3765 24.336C16.3841 24.0759 17.4333 24.0182 18.4633 24.1663C18.8619 23.4777 19.4331 22.9048 20.1207 22.5041L20.1479 22.4291L20.2088 22.4507C20.8799 22.0789 21.6344 21.8841 22.4016 21.8845H23.2111C23.0234 21.5982 22.7486 21.38 22.4274 21.2619L20.5383 20.5757C20.3399 20.5034 20.1291 20.4708 19.9181 20.48C19.7071 20.4892 19.4999 20.5398 19.3085 20.629C19.117 20.7183 18.945 20.8444 18.8024 21.0001C18.6597 21.1558 18.549 21.3381 18.4768 21.5367L18.2199 22.2435C17.3697 22.1682 16.5133 22.2055 15.6729 22.3541L15.3554 21.6745C15.2662 21.483 15.14 21.3111 14.9842 21.1686C14.8284 21.0259 14.6461 20.9154 14.4477 20.8433C14.2491 20.7711 14.0385 20.7388 13.8275 20.7481C13.6165 20.7575 13.4094 20.8084 13.218 20.8977L11.396 21.748C11.0099 21.9288 10.7112 22.2553 10.5654 22.656C10.4196 23.0568 10.4387 23.4989 10.6184 23.8855L10.9357 24.5647C10.2823 25.1138 9.70396 25.7464 9.21544 26.4463L8.50764 26.1898C8.10685 26.0453 7.66511 26.0653 7.27905 26.2455C6.89298 26.4258 6.59401 26.7516 6.44752 27.1517L5.76129 29.0408C5.68895 29.2392 5.65643 29.45 5.66557 29.661C5.67473 29.872 5.72536 30.0791 5.8146 30.2706C5.90383 30.4621 6.02992 30.6341 6.18565 30.7767C6.34139 30.9194 6.52371 31.0301 6.72221 31.1023L7.42907 31.3591C7.35383 32.2094 7.39103 33.0658 7.53969 33.9062L6.86001 34.2236C6.66864 34.3129 6.49673 34.439 6.35412 34.5948C6.21152 34.7506 6.10098 34.9329 6.02885 35.1314C5.95673 35.3299 5.92441 35.5407 5.93375 35.7517C5.9431 35.9627 5.99392 36.1698 6.08332 36.3611L6.93361 38.1831C7.1144 38.5692 7.44093 38.8679 7.84161 39.0137C8.24229 39.1595 8.68442 39.1404 9.07107 38.9607L9.75027 38.6434C10.2993 39.2969 10.9321 39.8754 11.6323 40.3637L11.3754 41.0714C11.2306 41.4722 11.2505 41.9141 11.4308 42.3002C11.611 42.6863 11.937 42.9853 12.3373 43.1315L14.2262 43.8178C14.4248 43.8902 14.6355 43.9226 14.8466 43.9135C15.0576 43.9044 15.2647 43.8537 15.4561 43.7645C15.6477 43.6753 15.8195 43.5492 15.9623 43.3934C16.105 43.2377 16.2156 43.0554 16.2879 42.8569L16.5446 42.15C17.395 42.2252 18.2514 42.1881 19.0918 42.0394L19.4091 42.7191C19.4985 42.9104 19.6246 43.0823 19.7804 43.225C19.9361 43.3676 20.1185 43.4781 20.317 43.5502C20.5155 43.6224 20.7262 43.6546 20.9372 43.6453C21.1482 43.636 21.3553 43.5852 21.5467 43.4957L23.3686 42.6455C23.5855 42.5434 23.7767 42.394 23.9281 42.2081C24.0793 42.0222 24.1869 41.8047 24.2428 41.5716H22.4021C22.0832 41.5712 21.7652 41.5373 21.4533 41.4703Z" fill="black"/>
<path d="M15.7955 28.794C16.4351 28.4882 17.1503 28.3765 17.8528 28.473V26.589C17.0973 26.528 16.3373 26.6202 15.6183 26.86C14.8994 27.0998 14.2362 27.4823 13.6685 27.9845C13.1009 28.4869 12.6406 29.0985 12.3151 29.7831C11.9896 30.4675 11.8057 31.2107 11.7744 31.9679C11.743 32.7252 11.8649 33.481 12.1326 34.1901C12.4004 34.8991 12.8086 35.5467 13.3327 36.0943C13.8569 36.6417 14.4861 37.0777 15.1829 37.3761C15.8796 37.6746 16.6293 37.8292 17.3873 37.8309C17.5669 37.8309 17.7459 37.8187 17.9244 37.8014C17.8782 37.5439 17.8542 37.2829 17.8528 37.0214V35.9222C16.9645 36.0346 16.0655 35.8258 15.3176 35.3338C14.5697 34.8417 14.0223 34.0985 13.7739 33.2384C13.5257 32.3782 13.5929 31.4577 13.9636 30.6427C14.3343 29.8278 14.9839 29.1722 15.7955 28.794ZM44.1023 26.4353V27.9784H45.0398C45.1015 27.9782 45.163 27.9719 45.2235 27.9596C45.2516 27.9545 45.2774 27.9438 45.3046 27.9362C45.3706 27.9219 45.4334 27.8955 45.4898 27.8584C45.5131 27.8458 45.5371 27.8354 45.5596 27.8209C45.6111 27.7865 45.6592 27.7471 45.703 27.7032L48.2479 25.1585C48.2722 25.1604 48.2961 25.1659 48.321 25.1659H51.2975C51.5186 25.7915 51.9538 26.3187 52.526 26.6543C53.0982 26.99 53.7708 27.1126 54.4246 27.0004C55.0785 26.8882 55.6717 26.5485 56.0994 26.0412C56.5269 25.534 56.7615 24.8919 56.7615 24.2285C56.7615 23.5651 56.5269 22.923 56.0994 22.4156C55.6717 21.9084 55.0785 21.5687 54.4246 21.4565C53.7708 21.3443 53.0982 21.4669 52.526 21.8027C51.9538 22.1383 51.5186 22.6655 51.2975 23.291H47.8522C47.7291 23.2908 47.6071 23.3151 47.4934 23.3622C47.3797 23.4093 47.2763 23.4785 47.1894 23.5656L44.6516 26.1035H44.0854C44.0934 26.2136 44.1023 26.3238 44.1023 26.4353ZM53.9459 23.291C54.1313 23.291 54.3125 23.346 54.4666 23.449C54.6209 23.552 54.741 23.6984 54.812 23.8697C54.883 24.0411 54.9015 24.2295 54.8653 24.4114C54.8292 24.5933 54.7399 24.7603 54.6087 24.8914C54.4776 25.0225 54.3106 25.1118 54.1288 25.1479C53.9469 25.1841 53.7584 25.1656 53.5871 25.0946C53.4158 25.0236 53.2693 24.9035 53.1663 24.7493C53.0633 24.5952 53.0083 24.4139 53.0083 24.2285C53.0088 23.9799 53.1077 23.7417 53.2833 23.566C53.4591 23.3903 53.6973 23.2914 53.9459 23.291Z" fill="black"/>
<path d="M58.1631 10.166H3.78901C3.04337 10.1669 2.32852 10.4635 1.80127 10.9907C1.27402 11.518 0.977431 12.2328 0.976562 12.9785V48.6029C0.977431 49.3485 1.27402 50.0633 1.80127 50.5906C2.32852 51.1178 3.04337 51.4144 3.78901 51.4152H58.1631C58.9086 51.4144 59.6235 51.1178 60.1508 50.5906C60.678 50.0633 60.9746 49.3485 60.9755 48.6029V12.9785C60.9746 12.2328 60.678 11.518 60.1508 10.9907C59.6235 10.4635 58.9086 10.1669 58.1631 10.166ZM3.78901 12.041H58.1631C58.4115 12.0414 58.6497 12.1403 58.8255 12.316C59.0013 12.4917 59.1002 12.7299 59.1005 12.9785V16.7284H2.85153V12.9785C2.8519 12.7299 2.95079 12.4917 3.12652 12.316C3.30225 12.1403 3.54049 12.0414 3.78901 12.041ZM58.1631 49.5403H3.78901C3.54049 49.5399 3.30225 49.4411 3.12652 49.2653C2.95079 49.0896 2.8519 48.8513 2.85153 48.6029V18.6034H59.1005V48.6029C59.1002 48.8513 59.0013 49.0896 58.8255 49.2653C58.6497 49.4411 58.4115 49.5399 58.1631 49.5403Z" fill="black"/>
<path d="M7.53905 15.3222C8.0568 15.3222 8.47653 14.9026 8.47653 14.3848C8.47653 13.867 8.0568 13.4473 7.53905 13.4473C7.02129 13.4473 6.60156 13.867 6.60156 14.3848C6.60156 14.9026 7.02129 15.3222 7.53905 15.3222Z" fill="black"/>
<path d="M13.1641 15.3222C13.6818 15.3222 14.1015 14.9026 14.1015 14.3848C14.1015 13.867 13.6818 13.4473 13.1641 13.4473C12.6463 13.4473 12.2266 13.867 12.2266 14.3848C12.2266 14.9026 12.6463 15.3222 13.1641 15.3222Z" fill="black"/>
<path d="M18.789 15.3222C19.3068 15.3222 19.7265 14.9026 19.7265 14.3848C19.7265 13.867 19.3068 13.4473 18.789 13.4473C18.2713 13.4473 17.8516 13.867 17.8516 14.3848C17.8516 14.9026 18.2713 15.3222 18.789 15.3222Z" fill="black"/>
<path d="M42.2262 26.4354C42.2254 25.726 41.9433 25.0459 41.4417 24.5442C40.9401 24.0426 40.26 23.7605 39.5505 23.7598H22.4022C21.6927 23.7605 21.0126 24.0426 20.511 24.5442C20.0094 25.0459 19.7273 25.726 19.7266 26.4354V37.0214C19.7273 37.7307 20.0094 38.4108 20.511 38.9125C21.0126 39.4141 21.6927 39.6963 22.4022 39.6969H39.5505C40.26 39.6963 40.9401 39.4141 41.4417 38.9125C41.9433 38.4108 42.2254 37.7307 42.2262 37.0214V26.4354ZM40.3512 37.0214C40.351 37.2336 40.2665 37.4372 40.1164 37.5872C39.9663 37.7373 39.7629 37.8217 39.5505 37.822H22.4022C22.1899 37.8217 21.9864 37.7373 21.8363 37.5872C21.6862 37.4372 21.6018 37.2336 21.6015 37.0214V26.4354C21.6018 26.2231 21.6862 26.0196 21.8363 25.8695C21.9864 25.7194 22.1899 25.635 22.4022 25.6347H39.5505C39.7629 25.635 39.9663 25.7194 40.1164 25.8695C40.2665 26.0196 40.351 26.2231 40.3512 26.4354V37.0214Z" fill="black"/>
<path d="M27.8487 30.268C27.8525 30.1418 27.8548 30.0162 27.8548 29.8902C27.8548 29.787 27.8468 29.6403 27.8323 29.4519C27.8216 29.2931 27.7993 29.1353 27.7657 28.9799L23.158 30.8562C23.0842 31.1202 23.0469 31.393 23.0469 31.6671C23.0485 31.9627 23.0857 32.257 23.1575 32.5437L27.7657 34.4201C27.7807 34.354 27.7933 34.2775 27.8041 34.1927C27.8157 34.1074 27.8251 34.0203 27.8323 33.9317C27.8395 33.8429 27.8449 33.7577 27.8487 33.6761C27.8521 33.6097 27.8541 33.5431 27.8548 33.4765C27.8548 33.3509 27.8525 33.2215 27.8487 33.0879C27.8438 32.9455 27.8233 32.804 27.7878 32.666L24.9007 31.7004L27.7882 30.6785C27.8231 30.5443 27.8433 30.4066 27.8487 30.268ZM32.2844 27.5693C32.1397 27.5693 31.9952 27.5769 31.8513 27.5919C31.7107 27.6064 31.5631 27.6289 31.4074 27.658L28.7197 35.5971C28.8921 35.6314 29.0664 35.6555 29.2418 35.6692C29.3974 35.6805 29.5381 35.6861 29.6636 35.6861C29.8083 35.6861 29.9529 35.6786 30.0967 35.6636C30.2374 35.6486 30.3855 35.6266 30.5406 35.5971L33.228 27.658C33.0555 27.624 32.8811 27.6 32.7058 27.5862C32.5655 27.5756 32.4251 27.5699 32.2844 27.5693ZM34.1828 28.9799C34.1488 29.1353 34.1265 29.2931 34.1162 29.4519C34.0925 29.7231 34.087 29.9955 34.0998 30.2675C34.1052 30.4063 34.1257 30.5442 34.1608 30.6785L37.0477 31.7004L34.1603 32.666C34.1249 32.804 34.1047 32.9455 34.0998 33.0879C34.0956 33.2215 34.0942 33.3503 34.0942 33.4769C34.0942 33.5285 34.0956 33.5946 34.0998 33.6761C34.1036 33.7577 34.109 33.8429 34.1162 33.9317C34.1238 34.0207 34.1331 34.1074 34.1443 34.1927C34.1556 34.278 34.1678 34.354 34.1832 34.4201L38.791 32.5437C38.8628 32.2569 38.9 31.9627 38.9021 31.6671C38.9019 31.393 38.8646 31.1203 38.791 30.8562L34.1828 28.9799ZM55.3488 40.1654H44.099C43.6019 40.1659 43.1253 40.3637 42.7737 40.7151C42.4223 41.0666 42.2245 41.5433 42.2241 42.0404V45.7903C42.2245 46.2874 42.4223 46.7641 42.7737 47.1155C43.1253 47.4671 43.6019 47.6647 44.099 47.6653H55.3488C55.8459 47.6647 56.3226 47.4671 56.674 47.1155C57.0256 46.7641 57.2233 46.2874 57.2238 45.7903V42.0404C57.2233 41.5433 57.0256 41.0666 56.674 40.7151C56.3226 40.3637 55.8459 40.1659 55.3488 40.1654ZM44.099 45.7903V42.0404H55.3488L55.3503 45.7903H44.099Z" fill="black"/>
<path d="M53.4764 42.5091C53.172 42.5112 52.8715 42.5786 52.5954 42.7067C52.3192 42.8349 52.0738 43.0208 51.8756 43.252C51.6806 43.4465 51.6713 43.4465 51.5995 43.4465C51.5283 43.4465 51.5184 43.4465 51.3244 43.2525C51.1278 43.0195 50.8827 42.8323 50.6061 42.7038C50.3297 42.5754 50.0285 42.5089 49.7237 42.5089C49.4188 42.5089 49.1176 42.5754 48.8411 42.7038C48.5647 42.8323 48.3195 43.0195 48.1229 43.2525C47.9293 43.4465 47.9199 43.4465 47.8496 43.4465C47.7793 43.4465 47.7699 43.4465 47.5764 43.2529C47.3785 43.0216 47.1333 42.8355 46.8573 42.7072C46.5813 42.5788 46.2809 42.5113 45.9765 42.5091C45.7279 42.5091 45.4894 42.6078 45.3137 42.7836C45.1378 42.9595 45.039 43.1979 45.039 43.4465C45.039 43.6951 45.1378 43.9336 45.3137 44.1095C45.4894 44.2852 45.7279 44.384 45.9765 44.384C46.0469 44.384 46.0562 44.384 46.2499 44.5776C46.4462 44.8106 46.6912 44.9978 46.9675 45.1262C47.2437 45.2547 47.5448 45.3213 47.8495 45.3213C48.1543 45.3213 48.4553 45.2549 48.7316 45.1266C49.0079 44.9981 49.2529 44.811 49.4495 44.578C49.643 44.384 49.6524 44.384 49.7231 44.384C49.7949 44.384 49.8042 44.384 49.9988 44.5786C50.1956 44.8112 50.4408 44.9983 50.7172 45.1266C50.9937 45.2549 51.2948 45.3213 51.5995 45.3213C51.9043 45.3213 52.2054 45.2549 52.4819 45.1266C52.7584 44.9983 53.0035 44.8112 53.2003 44.5786C53.3953 44.384 53.4047 44.384 53.4764 44.384C53.7251 44.384 53.9635 44.2852 54.1393 44.1095C54.3152 43.9336 54.4139 43.6951 54.4139 43.4465C54.4139 43.1979 54.3152 42.9595 54.1393 42.7836C53.9635 42.6078 53.7251 42.5091 53.4764 42.5091ZM49.7265 28.9155C49.1455 28.9165 48.579 29.0973 48.1049 29.433C47.6307 29.7687 47.2721 30.2428 47.0781 30.7905H44.1016V32.6655H47.0781C47.2502 33.1512 47.5525 33.5803 47.952 33.9058C48.3515 34.2313 48.8328 34.4408 49.3432 34.5112C49.8538 34.5816 50.3738 34.5105 50.8465 34.3054C51.3193 34.1003 51.7265 33.7692 52.0239 33.3482C52.3211 32.9273 52.497 32.4328 52.5322 31.9187C52.5674 31.4045 52.4605 30.8906 52.2234 30.4331C51.9863 29.9756 51.628 29.5921 51.1877 29.3244C50.7472 29.0567 50.2418 28.9153 49.7265 28.9155ZM49.7265 32.6655C49.541 32.6655 49.3598 32.6105 49.2056 32.5075C49.0515 32.4045 48.9313 32.258 48.8604 32.0868C48.7894 31.9155 48.7708 31.7269 48.807 31.5451C48.8431 31.3633 48.9325 31.1962 49.0636 31.065C49.1947 30.9339 49.3617 30.8447 49.5436 30.8085C49.7255 30.7724 49.9139 30.7909 50.0852 30.8618C50.2566 30.9328 50.4029 31.053 50.506 31.2072C50.609 31.3614 50.664 31.5426 50.664 31.728C50.6636 31.9765 50.5647 32.2148 50.389 32.3905C50.2132 32.5662 49.975 32.6651 49.7265 32.6655Z" fill="black"/>
</g>
</g>
</g>
</g>
</g>
<defs>
<clipPath id="clip0_391_281">
<rect width="60" height="61.11" fill="white" transform="translate(0.976562 0.439941)"/>
</clipPath>
<clipPath id="clip1_391_281">
<rect width="60" height="61.11" fill="white" transform="translate(0.976562 0.439941)"/>
</clipPath>
<clipPath id="clip2_391_281">
<rect width="59.9989" height="61.11" fill="white" transform="translate(0.976562 0.439941)"/>
</clipPath>
</defs>
</svg>
