<svg width="48" height="49" viewBox="0 0 48 49" fill="none" xmlns="http://www.w3.org/2000/svg">
<g clip-path="url(#clip0_670_250)">
<g clip-path="url(#clip1_670_250)">
<g clip-path="url(#clip2_670_250)">
<path opacity="0.2" d="M24 29.3017C17.6831 29.3116 11.4759 27.6509 6.00781 24.488V39.798C6.00781 39.9949 6.04659 40.1899 6.12195 40.3718C6.1973 40.5537 6.30776 40.719 6.447 40.8583C6.58623 40.9975 6.75153 41.1079 6.93346 41.1833C7.11538 41.2587 7.31038 41.2975 7.50729 41.2975H40.4957C40.6926 41.2975 40.8876 41.2587 41.0695 41.1833C41.2514 41.1079 41.4167 40.9975 41.556 40.8583C41.6953 40.719 41.8057 40.5537 41.881 40.3718C41.9564 40.1899 41.9952 39.9949 41.9952 39.798V24.4863C36.5265 27.6503 30.3181 29.3116 24 29.3017Z" fill="#F249C8"/>
<path d="M40.4957 14.3071H7.50729C6.67915 14.3071 6.00781 14.9785 6.00781 15.8066V39.7982C6.00781 40.6263 6.67915 41.2977 7.50729 41.2977H40.4957C41.3238 41.2977 41.9952 40.6263 41.9952 39.7982V15.8066C41.9952 14.9785 41.3238 14.3071 40.4957 14.3071Z" stroke="#F249C8" stroke-width="2.57053" stroke-linecap="round" stroke-linejoin="round"/>
<path d="M31.4986 14.307V11.3081C31.4986 10.5126 31.1827 9.74989 30.6203 9.18746C30.0579 8.62502 29.2951 8.30908 28.4997 8.30908H19.5029C18.7074 8.30908 17.9447 8.62502 17.3823 9.18746C16.8198 9.74989 16.5039 10.5126 16.5039 11.3081V14.307" stroke="#F249C8" stroke-width="2.57053" stroke-linecap="round" stroke-linejoin="round"/>
<path d="M41.9955 24.4863C36.5267 27.6503 30.3183 29.3116 24.0002 29.3017C17.6833 29.3116 11.476 27.6509 6.00781 24.4879" stroke="#F249C8" stroke-width="2.57053" stroke-linecap="round" stroke-linejoin="round"/>
<path d="M21.75 23.3037H26.2484" stroke="#F249C8" stroke-width="2.57053" stroke-linecap="round" stroke-linejoin="round"/>
</g>
</g>
</g>
<defs>
<clipPath id="clip0_670_250">
<rect width="48" height="48.84" fill="white"/>
</clipPath>
<clipPath id="clip1_670_250">
<rect width="48" height="48.84" fill="white"/>
</clipPath>
<clipPath id="clip2_670_250">
<rect width="48" height="48.84" fill="white"/>
</clipPath>
</defs>
</svg>
