<svg width="60" height="60" viewBox="0 0 60 60" fill="none" xmlns="http://www.w3.org/2000/svg">
<path d="M26.9474 43.1001L18.014 34.1668C17.741 33.848 17.5983 33.4378 17.6145 33.0184C17.6307 32.5989 17.8046 32.201 18.1014 31.9042C18.3983 31.6074 18.7962 31.4335 19.2156 31.4173C19.6351 31.4011 20.0452 31.5438 20.364 31.8168L26.9474 38.3335L41.3474 23.9335C41.6662 23.6604 42.0763 23.5178 42.4958 23.534C42.9153 23.5502 43.3132 23.724 43.61 24.0209C43.9068 24.3177 44.0807 24.7156 44.0969 25.1351C44.1131 25.5545 43.9704 25.9646 43.6974 26.2835L26.9474 43.1001Z" fill="#0F53FF"/>
<path d="M53.7491 10H48.3325V13.3333H53.3325V50H6.66579V13.3333H11.6658V10H6.24913C5.85952 10.0065 5.47502 10.0897 5.11757 10.2448C4.76013 10.4 4.43674 10.624 4.1659 10.9042C3.89505 11.1843 3.68204 11.515 3.53904 11.8775C3.39603 12.24 3.32584 12.6271 3.33246 13.0167V50.3167C3.32584 50.7063 3.39603 51.0934 3.53904 51.4558C3.68204 51.8183 3.89505 52.1491 4.1659 52.4292C4.43674 52.7093 4.76013 52.9334 5.11757 53.0885C5.47502 53.2436 5.85952 53.3268 6.24913 53.3333H53.7491C54.1387 53.3268 54.5232 53.2436 54.8807 53.0885C55.2381 52.9334 55.5615 52.7093 55.8324 52.4292C56.1032 52.1491 56.3162 51.8183 56.4592 51.4558C56.6022 51.0934 56.6724 50.7063 56.6658 50.3167V13.0167C56.6724 12.6271 56.6022 12.24 56.4592 11.8775C56.3162 11.515 56.1032 11.1843 55.8324 10.9042C55.5615 10.624 55.2381 10.4 54.8807 10.2448C54.5232 10.0897 54.1387 10.0065 53.7491 10Z" fill="#0F53FF"/>
<path d="M16.6667 16.6663C17.1087 16.6663 17.5326 16.4907 17.8452 16.1782C18.1577 15.8656 18.3333 15.4417 18.3333 14.9997V4.99967C18.3333 4.55765 18.1577 4.13372 17.8452 3.82116C17.5326 3.5086 17.1087 3.33301 16.6667 3.33301C16.2246 3.33301 15.8007 3.5086 15.4882 3.82116C15.1756 4.13372 15 4.55765 15 4.99967V14.9997C15 15.4417 15.1756 15.8656 15.4882 16.1782C15.8007 16.4907 16.2246 16.6663 16.6667 16.6663Z" fill="#0F53FF"/>
<path d="M43.3307 16.6663C43.7728 16.6663 44.1967 16.4907 44.5092 16.1782C44.8218 15.8656 44.9974 15.4417 44.9974 14.9997V4.99967C44.9974 4.55765 44.8218 4.13372 44.5092 3.82116C44.1967 3.5086 43.7728 3.33301 43.3307 3.33301C42.8887 3.33301 42.4648 3.5086 42.1522 3.82116C41.8397 4.13372 41.6641 4.55765 41.6641 4.99967V14.9997C41.6641 15.4417 41.8397 15.8656 42.1522 16.1782C42.4648 16.4907 42.8887 16.6663 43.3307 16.6663Z" fill="#0F53FF"/>
<path d="M21.6641 10H38.3307V13.3333H21.6641V10Z" fill="#0F53FF"/>
</svg>
