<svg width="24" height="24" viewBox="0 0 24 24" fill="none" xmlns="http://www.w3.org/2000/svg">
<g clip-path="url(#clip0_2310_444)">
<path d="M19.9994 6.14604C19.7854 6.09613 19.5682 6.06038 19.3494 6.03904C19.0486 4.51527 18.2817 3.12265 17.1547 2.05387C16.0277 0.9851 14.5964 0.293006 13.0588 0.0733527C11.5213 -0.146301 9.95342 0.117346 8.57226 0.827813C7.1911 1.53828 6.06488 2.66045 5.34945 4.03904C4.88838 4.09476 4.43535 4.20383 3.99945 4.36404C2.83043 4.77437 1.81771 5.53768 1.10126 6.54846C0.384815 7.55924 0 8.7676 0 10.0065C0 11.2455 0.384815 12.4538 1.10126 13.4646C1.81771 14.4754 2.83043 15.2387 3.99945 15.649V13.445C3.39164 13.0971 2.88653 12.5947 2.53524 11.9888C2.18396 11.3829 1.99895 10.6949 1.99895 9.99454C1.99895 9.29416 2.18396 8.60621 2.53524 8.0003C2.88653 7.3944 3.39164 6.89203 3.99945 6.54404C4.47698 6.26356 5.00878 6.088 5.55945 6.02904L6.62945 5.91904L7.12945 4.96904C7.65192 3.95688 8.47644 3.13241 9.48863 2.60999C10.5008 2.08757 11.6505 1.89311 12.7782 2.05358C13.9059 2.21406 14.9557 2.7215 15.782 3.50553C16.6083 4.28957 17.1701 5.31131 17.3894 6.42904L17.6894 7.92904L19.2194 8.03904C19.4859 8.06103 19.7482 8.11854 19.9994 8.21004C20.583 8.4107 21.0894 8.78856 21.4479 9.29088C21.8063 9.79321 21.999 10.3949 21.999 11.012C21.999 11.6292 21.8063 12.2309 21.4479 12.7332C21.0894 13.2355 20.583 13.6134 19.9994 13.814V15.898C21.1271 15.6732 22.142 15.0644 22.8713 14.1753C23.6006 13.2863 23.9991 12.1719 23.9991 11.022C23.9991 9.87215 23.6006 8.75781 22.8713 7.86876C22.142 6.97971 21.1271 6.37091 19.9994 6.14604Z" fill="#484747"/>
<path d="M12 11C8.182 11 6 11.758 6 13.167V21.833C6 23.242 9.087 24 12 24C14.913 24 18 23.242 18 21.833V13.167C18 11.758 15.818 11 12 11ZM12 12C14.711 12 16.91 12.81 16.91 13.708C16.91 14.606 14.71 15.333 12 15.333C9.29 15.333 7.09 14.606 7.09 13.708C7.09 12.81 9.29 12 12 12ZM7.09 19.924V18.781C8.64652 19.4171 10.3193 19.7189 12 19.667C13.6807 19.7189 15.3535 19.4171 16.91 18.781V19.96C15.3421 20.5469 13.6729 20.8155 12 20.75C10.325 20.7987 8.65682 20.5181 7.09 19.924Z" fill="#5B5959"/>
</g>
<defs>
<clipPath id="clip0_2310_444">
<rect width="24" height="24" fill="white"/>
</clipPath>
</defs>
</svg>
