<svg width="40" height="39" viewBox="0 0 40 39" fill="none" xmlns="http://www.w3.org/2000/svg">
<path d="M12.0038 24.9425L10.0038 22.9425L3.80379 24.9225H3.60379C3.50639 24.928 3.40893 24.913 3.31766 24.8785C3.22639 24.8441 3.14332 24.791 3.07379 24.7225L1.62379 23.2925C1.50666 23.1811 1.43171 23.0326 1.41166 22.8722C1.39161 22.7118 1.42769 22.5494 1.51379 22.4125L3.20379 19.5025C4.25056 17.7111 5.71091 16.1963 7.46278 15.0846C9.21466 13.973 11.2072 13.2968 13.2738 13.1125L15.7638 12.8925M15.7638 12.8925C17.2105 11.1725 18.5438 9.6992 19.7638 8.47254C22.0786 6.02058 24.8418 4.03479 27.9038 2.62254C31.0246 1.45516 34.3434 0.908269 37.6738 1.01254C37.8751 1.01533 38.0679 1.09388 38.2138 1.23254C38.283 1.29614 38.3383 1.37341 38.3762 1.45948C38.4141 1.54554 38.4337 1.63851 38.4338 1.73254C38.5013 5.07281 37.9065 8.39336 36.6838 11.5025C35.3077 14.5735 33.3442 17.3455 30.9038 19.6625C29.6738 20.9025 28.1938 22.2325 26.4838 23.6625L26.2638 26.1425C26.0843 28.2081 25.4134 30.2008 24.307 31.9543C23.2007 33.7079 21.6909 35.1713 19.9038 36.2225L17.0138 37.9125C16.8995 37.9719 16.7726 38.0028 16.6438 38.0025C16.4524 37.9986 16.2685 37.9278 16.1238 37.8025L14.6738 36.3425C14.5802 36.253 14.5136 36.139 14.4818 36.0134C14.45 35.8878 14.4541 35.7558 14.4938 35.6325L16.4238 29.3625M15.7638 12.8925L10.0538 22.9925M16.4238 29.3625L14.4838 27.4225M16.4238 29.3625L26.5238 23.6625M33.3238 10.2025C33.3265 9.11688 32.8984 8.07448 32.1335 7.30399C31.3687 6.5335 30.3294 6.09783 29.2438 6.09254C28.6877 6.06508 28.1318 6.15091 27.6098 6.34481C27.0879 6.53872 26.6108 6.83665 26.2075 7.22054C25.8042 7.60442 25.4831 8.06625 25.2637 8.578C25.0443 9.08975 24.9311 9.64074 24.9311 10.1975C24.9311 10.7543 25.0443 11.3053 25.2637 11.8171C25.4831 12.3288 25.8042 12.7907 26.2075 13.1745C26.6108 13.5584 27.0879 13.8564 27.6098 14.0503C28.1318 14.2442 28.6877 14.33 29.2438 14.3025C30.3216 14.303 31.3562 13.8791 32.1238 13.1225C32.5096 12.7418 32.8141 12.2867 33.0187 11.7847C33.2232 11.2828 33.3236 10.7445 33.3138 10.2025H33.3238Z" stroke="#0F53FF" stroke-width="2" stroke-linecap="round" stroke-linejoin="round"/>
</svg>
