<svg width="43" height="42" viewBox="0 0 43 42" fill="none" xmlns="http://www.w3.org/2000/svg">
<path d="M12.9236 41H30.7014C33.6482 41 36.4744 39.8294 38.5581 37.7456C40.6419 35.6619 41.8125 32.8357 41.8125 29.8889V23.2222C41.8125 21.4541 41.1101 19.7584 39.8599 18.5082C38.6096 17.2579 36.9139 16.5556 35.1458 16.5556H32.9236V12.1111C32.9236 9.16426 31.753 6.33811 29.6692 4.25437C27.5855 2.17063 24.7594 1 21.8125 1H12.9236C9.97676 1 7.15061 2.17063 5.06687 4.25437C2.98313 6.33811 1.8125 9.16426 1.8125 12.1111V29.8889C1.8125 32.8357 2.98313 35.6619 5.06687 37.7456C7.15061 39.8294 9.97676 41 12.9236 41Z" stroke="#0F53FF" stroke-width="2" stroke-linecap="round" stroke-linejoin="round"/>
<path d="M10.6953 13.2222C10.6953 12.3382 11.0465 11.4903 11.6716 10.8652C12.2967 10.2401 13.1446 9.88892 14.0286 9.88892H20.6953C21.5794 9.88892 22.4272 10.2401 23.0523 10.8652C23.6775 11.4903 24.0286 12.3382 24.0286 13.2222C24.0286 14.1063 23.6775 14.9542 23.0523 15.5793C22.4272 16.2044 21.5794 16.5556 20.6953 16.5556H14.0286C13.1446 16.5556 12.2967 16.2044 11.6716 15.5793C11.0465 14.9542 10.6953 14.1063 10.6953 13.2222ZM10.6953 28.7778C10.6953 27.8937 11.0465 27.0459 11.6716 26.4208C12.2967 25.7957 13.1446 25.4445 14.0286 25.4445H29.5842C30.4683 25.4445 31.3161 25.7957 31.9412 26.4208C32.5663 27.0459 32.9175 27.8937 32.9175 28.7778C32.9175 29.6619 32.5663 30.5097 31.9412 31.1348C31.3161 31.7599 30.4683 32.1111 29.5842 32.1111H14.0286C13.1446 32.1111 12.2967 31.7599 11.6716 31.1348C11.0465 30.5097 10.6953 29.6619 10.6953 28.7778Z" stroke="#0F53FF" stroke-width="2" stroke-linecap="round" stroke-linejoin="round"/>
</svg>
