<svg width="40" height="48" viewBox="0 0 40 48" fill="none" xmlns="http://www.w3.org/2000/svg">
<path d="M35.8109 20.3301L34.3055 19.2987C36.0635 16.696 37.0873 13.6627 37.2678 10.5214C37.4484 7.38013 36.779 4.24837 35.3309 1.4592L35.0255 0.899657L36.6109 0L36.9382 0.610743C38.5404 3.69308 39.2817 7.15463 39.0832 10.627C38.8847 14.0994 37.7538 17.4527 35.8109 20.3301ZM40 46.4091V48H0V46.4091H9.04727L14.68 20.2057C14.7681 19.7974 14.9926 19.4317 15.3161 19.1695C15.6396 18.9073 16.0427 18.7645 16.4582 18.7648H19.0945V13.6229C18.1888 13.4112 17.3801 12.8995 16.7984 12.1699C16.2167 11.4403 15.8958 10.5352 15.8873 9.6C15.8707 9.03411 15.9673 8.47064 16.1712 7.94295C16.3751 7.41526 16.6822 6.93409 17.0743 6.52793C17.4665 6.12177 17.9357 5.79889 18.4541 5.5784C18.9726 5.35791 19.5298 5.2443 20.0927 5.2443C20.6556 5.2443 21.2128 5.35791 21.7313 5.5784C22.2498 5.79889 22.719 6.12177 23.1111 6.52793C23.5033 6.93409 23.8104 7.41526 24.0143 7.94295C24.2182 8.47064 24.3147 9.03411 24.2982 9.6C24.2902 10.5665 23.9485 11.5002 23.3316 12.2414C22.7147 12.9825 21.861 13.4851 20.9164 13.6631V18.7648H23.5382C23.9543 18.7637 24.3582 18.9061 24.6825 19.1683C25.0068 19.4306 25.2318 19.7967 25.32 20.2057L30.9455 46.4091H40ZM23.4436 28.8037H16.5564L15.3818 34.2638H24.6218L23.4436 28.8037ZM14.9855 36.0923L13.8109 41.5598H26.1855L25.0109 36.0923H14.9855ZM17.9236 22.4219L16.9418 26.9751H23.0509L22.0727 22.4219H17.9236ZM12.7673 46.4128H27.2291L26.5782 43.3883H13.4145L12.7673 46.4128ZM11.6473 15.1333C10.5599 13.475 9.98509 11.53 9.99545 9.5436C10.0058 7.5572 10.6008 5.61837 11.7055 3.97166L10.2 2.94766C8.8944 4.89378 8.1911 7.18516 8.1788 9.53279C8.16651 11.8804 8.84577 14.1791 10.1309 16.139L11.6473 15.1333ZM31.8182 9.6C31.8211 7.27848 31.1459 5.00724 29.8764 3.06834L28.3564 4.07406C29.4412 5.73228 30.0138 7.67626 30.0021 9.66116C29.9905 11.6461 29.3951 13.5831 28.2909 15.2283L29.7964 16.245C31.1175 14.284 31.822 11.9688 31.8182 9.6ZM5.55273 19.1744C3.7904 16.4835 2.80527 13.3534 2.70704 10.1327C2.60881 6.912 3.40134 3.72709 4.99636 0.932571L3.42182 0.0182857C1.65826 3.10753 0.782252 6.62858 0.8914 10.1891C1.00055 13.7496 2.09057 17.2097 4.04 20.1838L5.55273 19.1744Z" fill="#0F53FF"/>
</svg>
