<svg width="51" height="51" viewBox="0 0 51 51" fill="none" xmlns="http://www.w3.org/2000/svg">
<path d="M2 25.5C2 19.2674 4.47589 13.2901 8.88299 8.88299C13.2901 4.47589 19.2674 2 25.5 2C31.7326 2 37.7099 4.47589 42.117 8.88299C46.5241 13.2901 49 19.2674 49 25.5V40.4519C49 42.9429 49 44.1825 48.6299 45.1783C48.3356 45.9674 47.875 46.684 47.2795 47.2795C46.684 47.875 45.9674 48.3356 45.1783 48.6299C44.1825 49 42.9399 49 40.4519 49H25.5C19.2674 49 13.2901 46.5241 8.88299 42.117C4.47589 37.7099 2 31.7326 2 25.5Z" stroke="#0F53FF" stroke-width="3"/>
<path d="M16.6875 22.5625H34.3125M25.5 34.3125H34.3125" stroke="#0F53FF" stroke-width="3" stroke-linecap="round" stroke-linejoin="round"/>
</svg>
