<svg width="22" height="22" viewBox="0 0 22 22" fill="none" xmlns="http://www.w3.org/2000/svg">
<path d="M11 1C5.477 1 1 5.477 1 11C1 16.523 5.477 21 11 21C16.523 21 21 16.523 21 11C21 5.477 16.523 1 11 1Z" stroke="#0F53FF" stroke-width="1.5" stroke-linecap="round" stroke-linejoin="round"/>
<path d="M3.27344 17.346C3.27344 17.346 5.50244 14.5 11.0024 14.5C16.5024 14.5 18.7324 17.346 18.7324 17.346M11.0024 11C11.7981 11 12.5611 10.6839 13.1238 10.1213C13.6864 9.55871 14.0024 8.79565 14.0024 8C14.0024 7.20435 13.6864 6.44129 13.1238 5.87868C12.5611 5.31607 11.7981 5 11.0024 5C10.2068 5 9.44373 5.31607 8.88112 5.87868C8.31851 6.44129 8.00244 7.20435 8.00244 8C8.00244 8.79565 8.31851 9.55871 8.88112 10.1213C9.44373 10.6839 10.2068 11 11.0024 11Z" stroke="#0F53FF" stroke-width="1.5" stroke-linecap="round" stroke-linejoin="round"/>
</svg>
