<svg width="20" height="20" viewBox="0 0 20 20" fill="none" xmlns="http://www.w3.org/2000/svg">
<path d="M4.00003 11.9998L16 11.9998L16 9.99976L4.00003 9.99976L4.00003 11.9998ZM4.00003 8.99976L16 8.99976L16 6.99976L4.00003 6.99976L4.00003 8.99976ZM4.00003 5.99976L16 5.99976L16 3.99976L4.00003 3.99976L4.00003 5.99976ZM2.00003 15.9998C1.45003 15.9998 0.979364 15.8041 0.588031 15.4128C0.196697 15.0214 0.000697185 14.5504 3.05186e-05 13.9998L3.05177e-05 1.99976C3.05177e-05 1.44976 0.196031 0.979089 0.588031 0.587756C0.980031 0.196423 1.4507 0.000422526 2.00003 -0.000244141L18 -0.000244142C18.55 -0.000244142 19.021 0.195756 19.413 0.587756C19.805 0.979756 20.0007 1.45042 20 1.99976L20 19.9998L16 15.9998L2.00003 15.9998Z" fill="#9E9E9E"/>
</svg>
