<svg width="41" height="31" viewBox="0 0 41 31" fill="none" xmlns="http://www.w3.org/2000/svg">
<path d="M31.7738 12.1494C33.2824 13.6053 35.6296 13.7393 37.2926 12.5515V23.2526C37.2926 24.8051 35.9729 26.129 34.2758 26.129H20.438C20.4549 25.9806 20.4638 25.8293 20.4638 25.6754C20.4638 24.0978 19.5679 22.7498 18.2667 22.0467C18.8957 22.223 19.5519 22.3145 20.2169 22.3145C22.0689 22.3145 23.8518 21.6049 25.1718 20.331C26.493 19.056 27.2422 17.319 27.2422 15.5C27.2422 13.681 26.493 11.944 25.1718 10.669C24.616 10.1326 23.9782 9.69629 23.2876 9.37085C23.5928 9.43852 23.9096 9.47416 24.2337 9.47416H30.5237C30.5892 10.4503 31.0074 11.4043 31.7711 12.1468L31.7738 12.1494ZM15.262 20.331C15.8178 20.8674 16.4557 21.3037 17.1462 21.6292C16.841 21.5615 16.5242 21.5258 16.2001 21.5258H9.91015C9.84463 20.5497 9.4264 19.5957 8.66274 18.8532L8.66002 18.8506C7.15143 17.3947 4.8042 17.2607 3.14122 18.4485V7.74735C3.14122 6.19486 4.46094 4.87103 6.15804 4.87103H19.9958C19.9789 5.01942 19.9701 5.17073 19.9701 5.32465C19.9701 6.90224 20.866 8.25024 22.1672 8.95332C21.5381 8.77703 20.882 8.68551 20.2169 8.68551C18.365 8.68551 16.582 9.39513 15.262 10.669C13.9408 11.944 13.1917 13.681 13.1917 15.5C13.1917 17.319 13.9408 19.056 15.262 20.331ZM5.27252 22.8188L5.28279 22.8287L4.58495 23.5022L2.80305 25.2217H5.27937H16.2001C16.5164 25.2217 16.7064 25.4553 16.7064 25.6754C16.7064 25.8954 16.5164 26.129 16.2001 26.129H5.27309H2.79677L4.57868 27.8486L6.02222 29.2416C6.20693 29.4199 6.20126 29.6847 6.02608 29.852C5.81571 30.0528 5.47581 30.0434 5.28722 29.8594L5.28282 29.8551L1.26656 25.9854C1.1781 25.9001 1.13281 25.7898 1.13281 25.6754C1.13281 25.5609 1.1781 25.4506 1.26656 25.3653L5.28338 21.489C5.48799 21.2915 5.82517 21.2968 6.01839 21.4852C6.20702 21.6692 6.19619 21.9369 6.02608 22.0993L5.27252 22.8188ZM35.1403 1.1406L35.1442 1.14431L39.161 5.02064C39.2495 5.106 39.2948 5.21628 39.2948 5.33071C39.2948 5.44513 39.2495 5.55541 39.161 5.64078L35.1442 9.5171C34.9396 9.71455 34.6024 9.70929 34.4092 9.52082C34.2205 9.33683 34.2314 9.06913 34.4015 8.90673L34.4053 8.90302L35.8489 7.50996L37.6279 5.79313L35.1556 5.79039L24.2348 5.77827H24.2337C23.9174 5.77827 23.7274 5.54465 23.7274 5.32465C23.7274 5.10465 23.9174 4.87103 24.2337 4.87103H35.1607H37.6448L35.8536 3.14995L34.4053 1.75839C34.4051 1.7582 34.4049 1.758 34.4047 1.75781C34.2206 1.57957 34.2265 1.31509 34.4015 1.14801C34.6119 0.947165 34.9518 0.956637 35.1403 1.1406ZM11.1749 7.74735V6.74735H10.1749H6.15804H5.15804V7.74735V11.6237V12.6237H6.15804C8.892 12.6237 11.1749 10.4709 11.1749 7.74735ZM35.2758 19.3763V18.3763H34.2758C31.5418 18.3763 29.259 20.5291 29.259 23.2526V24.2526H30.259H34.2758H35.2758V23.2526V19.3763Z" stroke="#0F53FF" stroke-width="2"/>
</svg>
