<svg width="25" height="25" viewBox="0 0 25 25" fill="none" xmlns="http://www.w3.org/2000/svg">
<path d="M0 5.20833C0 3.827 0.548734 2.50224 1.52549 1.52549C2.50224 0.548734 3.827 0 5.20833 0H19.7917C21.173 0 22.4978 0.548734 23.4745 1.52549C24.4513 2.50224 25 3.827 25 5.20833V19.7917C25 21.173 24.4513 22.4978 23.4745 23.4745C22.4978 24.4513 21.173 25 19.7917 25H5.20833C3.827 25 2.50224 24.4513 1.52549 23.4745C0.548734 22.4978 0 21.173 0 19.7917V5.20833ZM5.20833 2.08333C4.37953 2.08333 3.58468 2.41257 2.99862 2.99862C2.41257 3.58468 2.08333 4.37953 2.08333 5.20833V19.7917C2.08333 20.6205 2.41257 21.4153 2.99862 22.0014C3.58468 22.5874 4.37953 22.9167 5.20833 22.9167H19.7917C20.6205 22.9167 21.4153 22.5874 22.0014 22.0014C22.5874 21.4153 22.9167 20.6205 22.9167 19.7917V5.20833C22.9167 4.37953 22.5874 3.58468 22.0014 2.99862C21.4153 2.41257 20.6205 2.08333 19.7917 2.08333H5.20833ZM4.16667 19.7917C4.16667 19.5154 4.27641 19.2504 4.47176 19.0551C4.66711 18.8597 4.93207 18.75 5.20833 18.75H11.4583C11.7346 18.75 11.9996 18.8597 12.1949 19.0551C12.3903 19.2504 12.5 19.5154 12.5 19.7917C12.5 20.0679 12.3903 20.3329 12.1949 20.5282C11.9996 20.7236 11.7346 20.8333 11.4583 20.8333H5.20833C4.93207 20.8333 4.66711 20.7236 4.47176 20.5282C4.27641 20.3329 4.16667 20.0679 4.16667 19.7917ZM5.20833 14.5833C4.93207 14.5833 4.66711 14.6931 4.47176 14.8884C4.27641 15.0838 4.16667 15.3487 4.16667 15.625C4.16667 15.9013 4.27641 16.1662 4.47176 16.3616C4.66711 16.5569 4.93207 16.6667 5.20833 16.6667H11.4583C11.7346 16.6667 11.9996 16.5569 12.1949 16.3616C12.3903 16.1662 12.5 15.9013 12.5 15.625C12.5 15.3487 12.3903 15.0838 12.1949 14.8884C11.9996 14.6931 11.7346 14.5833 11.4583 14.5833H5.20833ZM4.16667 6.25C4.16667 5.69747 4.38616 5.16756 4.77686 4.77686C5.16756 4.38616 5.69747 4.16667 6.25 4.16667H18.75C19.3025 4.16667 19.8324 4.38616 20.2231 4.77686C20.6138 5.16756 20.8333 5.69747 20.8333 6.25V10.4167C20.8333 10.9692 20.6138 11.4991 20.2231 11.8898C19.8324 12.2805 19.3025 12.5 18.75 12.5H6.25C5.69747 12.5 5.16756 12.2805 4.77686 11.8898C4.38616 11.4991 4.16667 10.9692 4.16667 10.4167V6.25ZM18.75 6.25H6.25V10.4167H18.75V6.25ZM16.6667 14.5833C16.1141 14.5833 15.5842 14.8028 15.1935 15.1935C14.8028 15.5842 14.5833 16.1141 14.5833 16.6667V18.75C14.5833 19.3025 14.8028 19.8324 15.1935 20.2231C15.5842 20.6138 16.1141 20.8333 16.6667 20.8333H18.75C19.3025 20.8333 19.8324 20.6138 20.2231 20.2231C20.6138 19.8324 20.8333 19.3025 20.8333 18.75V16.6667C20.8333 16.1141 20.6138 15.5842 20.2231 15.1935C19.8324 14.8028 19.3025 14.5833 18.75 14.5833H16.6667ZM16.6667 16.6667H18.75V18.75H16.6667V16.6667Z" fill="black"/>
</svg>
