<svg width="35" height="40" viewBox="0 0 35 40" fill="none" xmlns="http://www.w3.org/2000/svg">
<path d="M31.6667 13.3333H27.35L25.6833 11.6667H21.6667C20.7834 11.6693 19.9371 12.0213 19.3126 12.6459C18.688 13.2704 18.336 14.1168 18.3333 15V21.6667C18.336 22.5499 18.688 23.3962 19.3126 24.0208C19.9371 24.6453 20.7834 24.9974 21.6667 25H31.6667C32.5499 24.9974 33.3962 24.6453 34.0208 24.0208C34.6453 23.3962 34.9974 22.5499 35 21.6667V16.6667C34.9974 15.7834 34.6453 14.9371 34.0208 14.3126C33.3962 13.688 32.5499 13.336 31.6667 13.3333ZM31.6667 21.6667H21.6667V15H25L26.6667 16.6667H31.6667V21.6667ZM31.6667 28.3333H27.35L25.6833 26.6667H21.6667C20.7834 26.6693 19.9371 27.0213 19.3126 27.6459C18.688 28.2704 18.336 29.1168 18.3333 30V36.6667C18.336 37.5499 18.688 38.3962 19.3126 39.0208C19.9371 39.6453 20.7834 39.9974 21.6667 40H31.6667C32.5499 39.9974 33.3962 39.6453 34.0208 39.0208C34.6453 38.3962 34.9974 37.5499 35 36.6667V31.6667C34.9974 30.7834 34.6453 29.9371 34.0208 29.3126C33.3962 28.688 32.5499 28.336 31.6667 28.3333ZM31.6667 36.6667H21.6667V30H25L26.6667 31.6667H31.6667V36.6667ZM10 31.6667V20H18.3333V16.6667H10V13.3333H6.66667V35H18.3333V31.6667H10ZM13.3333 1.66667H9.01667L7.35 0H3.33333C2.45009 0.00263788 1.60378 0.354674 0.979225 0.979225C0.354674 1.60378 0.00263788 2.45009 0 3.33333V10C0.00263788 10.8832 0.354674 11.7296 0.979225 12.3541C1.60378 12.9787 2.45009 13.3307 3.33333 13.3333H13.3333C14.2166 13.3307 15.0629 12.9787 15.6874 12.3541C16.312 11.7296 16.664 10.8832 16.6667 10V5C16.664 4.11676 16.312 3.27044 15.6874 2.64589C15.0629 2.02134 14.2166 1.6693 13.3333 1.66667ZM13.3333 10H3.33333V3.33333H6.66667L8.33333 5H13.3333V10Z" fill="#0F53FF"/>
</svg>
