<svg width="68" height="72" viewBox="0 0 68 72" fill="none" xmlns="http://www.w3.org/2000/svg">
<path d="M66.5899 57.6L53.6905 70.5753L50.0776 66.8762L55.0197 61.905L56.7148 60.2H54.3105H33.2105V55H54.3105H56.6883L55.0252 53.3006L50.0783 48.2455L53.6842 44.6184L66.5899 57.6ZM42.4105 8.2H63.4211V31.4H58.2632V14.4V13.4H57.2632H50.1053H49.1053V14.4V24.2H15.3158V14.4V13.4H14.3158H7.15789H6.15789V14.4V64.8V65.8H7.15789H24.0526V71H1V8.2H22.1H22.8352L23.0545 7.49823C23.6409 5.62133 24.7831 4.07401 26.5245 2.84348C28.2702 1.6099 30.1577 1.00227 32.2111 1C34.3942 1.0001 36.3216 1.61389 38.0261 2.83885C39.7401 4.07065 40.8703 5.61879 41.4558 7.49755L41.6748 8.2H42.4105ZM32.2129 15.4C33.4801 15.3995 34.5889 14.956 35.4715 14.0682C36.3545 13.1801 36.7924 12.0673 36.7895 10.7977C36.7865 9.53067 36.3481 8.4202 35.4691 7.533C34.5879 6.64349 33.4788 6.2 32.2105 6.2C30.9422 6.2 29.8332 6.64349 28.9519 7.533C28.073 8.4202 27.6346 9.53067 27.6316 10.7977C27.6286 12.0683 28.0685 13.182 28.9531 14.0718C29.8376 14.9615 30.9463 15.4055 32.2129 15.4Z" stroke="#0F53FF" stroke-width="2"/>
</svg>
