<svg width="64" height="60" viewBox="0 0 64 60" fill="none" xmlns="http://www.w3.org/2000/svg">
<path d="M55 45.6875C56.375 46.375 57.6146 47.2188 58.7188 48.2188C59.8229 49.2188 60.7604 50.3333 61.5312 51.5625C62.3021 52.7917 62.9062 54.125 63.3438 55.5625C63.7812 57 64 58.4792 64 60H60C60 58.3542 59.6875 56.8021 59.0625 55.3438C58.4375 53.8854 57.5833 52.6146 56.5 51.5312C55.4167 50.4479 54.1354 49.5833 52.6562 48.9375C51.1771 48.2917 49.625 47.9792 48 48C46.3333 48 44.7812 48.3125 43.3438 48.9375C41.9062 49.5625 40.6354 50.4167 39.5312 51.5C38.4271 52.5833 37.5625 53.8646 36.9375 55.3438C36.3125 56.8229 36 58.375 36 60H32C32 58.4792 32.2083 57 32.625 55.5625C33.0417 54.125 33.6458 52.7917 34.4375 51.5625C35.2292 50.3333 36.1771 49.2188 37.2812 48.2188C38.3854 47.2188 39.625 46.375 41 45.6875C39.4375 44.5625 38.2188 43.1562 37.3438 41.4688C36.4688 39.7812 36.0208 37.9583 36 36C36 34.3542 36.3125 32.8021 36.9375 31.3438C37.5625 29.8854 38.4167 28.6146 39.5 27.5312C40.5833 26.4479 41.8542 25.5833 43.3125 24.9375C44.7708 24.2917 46.3333 23.9792 48 24C49.6458 24 51.1979 24.3125 52.6562 24.9375C54.1146 25.5625 55.3854 26.4167 56.4688 27.5C57.5521 28.5833 58.4167 29.8646 59.0625 31.3438C59.7083 32.8229 60.0208 34.375 60 36C60 37.9583 59.5625 39.7812 58.6875 41.4688C57.8125 43.1562 56.5833 44.5625 55 45.6875ZM48 44C49.1042 44 50.1354 43.7917 51.0938 43.375C52.0521 42.9583 52.9062 42.3854 53.6562 41.6562C54.4062 40.9271 54.9792 40.0833 55.375 39.125C55.7708 38.1667 55.9792 37.125 56 36C56 34.8958 55.7917 33.8646 55.375 32.9062C54.9583 31.9479 54.3854 31.0938 53.6562 30.3438C52.9271 29.5938 52.0833 29.0208 51.125 28.625C50.1667 28.2292 49.125 28.0208 48 28C46.8958 28 45.8646 28.2083 44.9062 28.625C43.9479 29.0417 43.0938 29.6146 42.3438 30.3438C41.5938 31.0729 41.0208 31.9167 40.625 32.875C40.2292 33.8333 40.0208 34.875 40 36C40 37.1042 40.2083 38.1354 40.625 39.0938C41.0417 40.0521 41.6146 40.9062 42.3438 41.6562C43.0729 42.4062 43.9167 42.9792 44.875 43.375C45.8333 43.7708 46.875 43.9792 48 44ZM32 46.5C31.3333 47.2708 30.7292 48.0729 30.1875 48.9062C29.6458 49.7396 29.1667 50.6354 28.75 51.5938C27.6458 50.4479 26.3125 49.5625 24.75 48.9375C23.1875 48.3125 21.6042 48 20 48H8V8H4V52H28.5938C28.3021 52.6458 28.0625 53.3021 27.875 53.9688C27.6875 54.6354 27.5312 55.3125 27.4062 56H0V4H8V0H20C21.8333 0 23.5938 0.28125 25.2812 0.84375C26.9688 1.40625 28.5417 2.25 30 3.375C31.4375 2.25 33 1.40625 34.6875 0.84375C36.375 0.28125 38.1458 0 40 0H52V4H60V24C58.7917 22.8125 57.4583 21.8229 56 21.0312V8H52V19.5312C51.3333 19.3438 50.6667 19.2083 50 19.125C49.3333 19.0417 48.6667 19 48 19V4H40C38.5417 4 37.125 4.25 35.75 4.75C34.375 5.25 33.125 5.98958 32 6.96875V46.5ZM28 46.0938V6.96875C26.875 6.01042 25.625 5.28125 24.25 4.78125C22.875 4.28125 21.4583 4.02083 20 4H12V44H20C21.3958 44 22.7708 44.1771 24.125 44.5312C25.4792 44.8854 26.7708 45.4062 28 46.0938Z" fill="#0F53FF"/>
</svg>
