<svg width="35" height="38" viewBox="0 0 35 38" fill="none" xmlns="http://www.w3.org/2000/svg">
<path d="M34.9375 8.0625C34.9375 7.70612 34.7959 7.36433 34.5439 7.11233C34.2919 6.86032 33.9501 6.71875 33.5938 6.71875H28.2188C27.8624 6.71875 27.5206 6.86032 27.2686 7.11233C27.0166 7.36433 26.875 7.70612 26.875 8.0625V17.4688H24.1875V1.34375C24.1875 0.987365 24.0459 0.645577 23.7939 0.393575C23.5419 0.141573 23.2001 0 22.8438 0H17.4688C17.1124 0 16.7706 0.141573 16.5186 0.393575C16.2666 0.645577 16.125 0.987365 16.125 1.34375V17.4688H13.4375V4.03125C13.4375 3.67487 13.2959 3.33308 13.0439 3.08108C12.7919 2.82907 12.4501 2.6875 12.0938 2.6875H6.71875C6.36237 2.6875 6.02058 2.82907 5.76858 3.08108C5.51657 3.33308 5.375 3.67487 5.375 4.03125V17.4688H0V33.5938C0 33.9501 0.141573 34.2919 0.393575 34.5439C0.645577 34.7959 0.987365 34.9375 1.34375 34.9375H6.71875C7.07513 34.9375 7.41692 34.7959 7.66892 34.5439C7.92093 34.2919 8.0625 33.9501 8.0625 33.5938V20.1562H10.75V26.875C10.75 27.2314 10.8916 27.5732 11.1436 27.8252C11.3956 28.0772 11.7374 28.2188 12.0938 28.2188H17.4688C17.8251 28.2188 18.1669 28.0772 18.4189 27.8252C18.6709 27.5732 18.8125 27.2314 18.8125 26.875V20.1562H21.5V36.2812C21.5 36.6376 21.6416 36.9794 21.8936 37.2314C22.1456 37.4834 22.4874 37.625 22.8438 37.625H28.2188C28.5751 37.625 28.9169 37.4834 29.1689 37.2314C29.4209 36.9794 29.5625 36.6376 29.5625 36.2812V20.1562H34.9375V8.0625ZM5.375 32.25H2.6875V20.1562H5.375V32.25ZM16.125 25.5312H13.4375V20.1562H16.125V25.5312ZM18.8125 17.4688V2.6875H21.5V17.4688H18.8125ZM32.25 17.4688H29.5625V9.40625H32.25V17.4688Z" fill="#0F53FF"/>
</svg>
