<svg width="43" height="39" viewBox="0 0 43 39" fill="none" xmlns="http://www.w3.org/2000/svg">
<path d="M17.5477 19.5C17.0305 19.5 16.5345 19.7054 16.1688 20.0711C15.8031 20.4368 15.5977 20.9328 15.5977 21.45C15.5977 21.9672 15.8031 22.4632 16.1688 22.8289C16.5345 23.1946 17.0305 23.4 17.5477 23.4H25.3477C25.8648 23.4 26.3608 23.1946 26.7265 22.8289C27.0922 22.4632 27.2977 21.9672 27.2977 21.45C27.2977 20.9328 27.0922 20.4368 26.7265 20.0711C26.3608 19.7054 25.8648 19.5 25.3477 19.5H17.5477Z" fill="#0F53FF"/>
<path fill-rule="evenodd" clip-rule="evenodd" d="M5.85 0C4.29848 0 2.81051 0.616338 1.71343 1.71343C0.616337 2.81051 0 4.29848 0 5.85V33.15C0 34.7015 0.616337 36.1895 1.71343 37.2866C2.81051 38.3837 4.29848 39 5.85 39H37.05C38.6015 39 40.0895 38.3837 41.1866 37.2866C42.2837 36.1895 42.9 34.7015 42.9 33.15V5.85C42.9 4.29848 42.2837 2.81051 41.1866 1.71343C40.0895 0.616338 38.6015 0 37.05 0H5.85ZM37.05 3.9H5.85C5.33283 3.9 4.83684 4.10545 4.47114 4.47114C4.10545 4.83684 3.9 5.33283 3.9 5.85V11.7H39V5.85C39 5.33283 38.7946 4.83684 38.4289 4.47114C38.0632 4.10545 37.5672 3.9 37.05 3.9ZM3.9 33.15V15.6H39V33.15C39 33.6672 38.7946 34.1632 38.4289 34.5289C38.0632 34.8946 37.5672 35.1 37.05 35.1H5.85C5.33283 35.1 4.83684 34.8946 4.47114 34.5289C4.10545 34.1632 3.9 33.6672 3.9 33.15Z" fill="#0F53FF"/>
</svg>
