<svg width="61" height="62" viewBox="0 0 61 62" fill="none" xmlns="http://www.w3.org/2000/svg">
<g clip-path="url(#clip0_391_303)">
<g clip-path="url(#clip1_391_303)">
<path d="M14.1014 16.728C9.923 16.728 2.85156 17.5182 2.85156 20.478V42.9775C2.85156 45.9372 9.923 46.7275 14.1014 46.7275C18.2797 46.7275 25.3512 45.9372 25.3512 42.9775V20.478C25.3512 17.5182 18.2797 16.728 14.1014 16.728ZM14.1014 18.603C19.6494 18.603 23.074 19.7973 23.4603 20.4742C23.4509 20.492 23.4359 20.5098 23.4219 20.5285C23.405 20.5511 23.39 20.5745 23.3665 20.598C23.345 20.6195 23.3159 20.642 23.2886 20.6645C23.2586 20.6898 23.2315 20.7142 23.195 20.7404C23.1631 20.763 23.1227 20.7864 23.0862 20.8098C23.044 20.837 23.0038 20.8632 22.954 20.8904C22.9119 20.9138 22.8612 20.9382 22.8134 20.9616C22.7581 20.9898 22.7055 21.0169 22.6446 21.0451C22.5921 21.0695 22.5303 21.0938 22.4731 21.1182C22.4065 21.1464 22.3419 21.1745 22.2687 21.2026C22.2059 21.2269 22.1347 21.2514 22.0671 21.2748C21.9884 21.3029 21.9115 21.3311 21.8262 21.3592C21.7531 21.3835 21.6706 21.4069 21.5928 21.4314C21.5028 21.4585 21.4166 21.4866 21.3209 21.5138C21.2356 21.5382 21.1419 21.5607 21.0528 21.585C20.9535 21.6114 20.8578 21.6376 20.7528 21.6629C20.6544 21.6864 20.5485 21.7088 20.4454 21.7323C20.3385 21.7566 20.2354 21.781 20.1237 21.8035C20.014 21.826 19.8959 21.8476 19.7806 21.8692C19.6654 21.8907 19.5528 21.9142 19.4319 21.9348C19.31 21.9554 19.1797 21.975 19.0532 21.9948C18.9304 22.0145 18.8113 22.0342 18.6838 22.0519C18.5478 22.0716 18.4025 22.0876 18.2609 22.1054C18.1325 22.1214 18.0088 22.1392 17.8766 22.1532C17.7256 22.17 17.5654 22.1841 17.4097 22.1991C17.2775 22.2123 17.1501 22.2264 17.0141 22.2376C16.8416 22.2516 16.6598 22.2629 16.4806 22.2741C16.3522 22.2826 16.2285 22.2929 16.0963 22.3004C15.8948 22.3116 15.6838 22.3181 15.4757 22.3257C15.3576 22.3304 15.2451 22.3369 15.1241 22.3398C14.438 22.357 13.7516 22.3567 13.0655 22.3388C8.0574 22.201 5.0209 21.0864 4.73684 20.493C5.06778 19.8199 8.50084 18.603 14.1014 18.603ZM4.72653 22.7129C4.77715 22.7373 4.83903 22.756 4.89059 22.7795C5.20532 22.9224 5.52767 23.0479 5.8562 23.1554C6.11213 23.2398 6.37743 23.3185 6.65212 23.3916C6.71961 23.4095 6.78337 23.43 6.85275 23.4469C7.19679 23.5331 7.55304 23.611 7.91771 23.6813C8.01428 23.7 8.11272 23.716 8.21022 23.7338C8.60752 23.8051 9.00636 23.8677 9.40644 23.9213C9.74113 23.9663 10.0767 24.0057 10.4114 24.0395L10.5474 24.0544C11.0244 24.1006 11.5023 24.1368 11.9808 24.1631C12.2611 24.1791 12.5348 24.1922 12.8039 24.2016L13.1039 24.2119C13.4489 24.2213 13.7855 24.2279 14.1014 24.2279C14.4172 24.2279 14.7538 24.2213 15.0988 24.2119L15.3988 24.2016C16.1523 24.1752 16.9049 24.1261 17.6554 24.0544L17.7913 24.0395C18.127 24.0057 18.4616 23.9653 18.7963 23.9213C18.9097 23.9063 19.0213 23.8895 19.1347 23.8735C19.4244 23.8313 19.7094 23.7845 19.9925 23.7338C20.09 23.716 20.1885 23.7 20.285 23.6813C20.6487 23.611 21.005 23.5341 21.35 23.4469C21.4184 23.43 21.4821 23.4095 21.5506 23.3916C21.9174 23.2937 22.2802 23.181 22.6381 23.0541C22.8753 22.9688 23.0984 22.8769 23.3121 22.7795C23.3637 22.756 23.4255 22.7373 23.4762 22.7129V27.9468C23.1903 28.6171 19.745 29.8528 14.1014 29.8528C8.43521 29.8528 4.98246 28.6068 4.72653 27.9778V22.7129ZM4.72653 30.2071C7.1143 31.3621 11.2692 31.7278 14.1014 31.7278C16.9335 31.7278 21.0885 31.3621 23.4762 30.2071V35.4467C23.1903 36.117 19.745 37.3526 14.1014 37.3526C8.43521 37.3526 4.98246 36.1067 4.72653 35.4777V30.2071ZM14.1014 44.8525C8.43521 44.8525 4.98246 43.6065 4.72653 42.9775V37.707C7.1143 38.862 11.2692 39.2276 14.1014 39.2276C16.9335 39.2276 21.0885 38.862 23.4762 37.707V42.9466C23.1903 43.6169 19.745 44.8525 14.1014 44.8525Z" fill="black"/>
<path d="M9.41406 26.1031H11.289V27.9781H9.41406V26.1031ZM13.164 26.1031H15.0389V27.9781H13.164V26.1031ZM16.914 26.1031H18.7888V27.9781H16.914V26.1031ZM9.41406 33.603H11.289V35.478H9.41406V33.603ZM13.164 33.603H15.0389V35.478H13.164V33.603ZM16.914 33.603H18.7888V35.478H16.914V33.603ZM9.41406 41.1028H11.289V42.9778H9.41406V41.1028ZM13.164 41.1028H15.0389V42.9778H13.164V41.1028ZM16.914 41.1028H18.7888V42.9778H16.914V41.1028ZM58.1632 2.66602H43.1635C42.9148 2.66602 42.6764 2.76478 42.5005 2.9406C42.3247 3.11641 42.226 3.35486 42.226 3.6035V14.8533C42.226 15.1019 42.3247 15.3404 42.5005 15.5162C42.6764 15.692 42.9148 15.7908 43.1635 15.7908H58.1632C58.4118 15.7908 58.6502 15.692 58.8261 15.5162C59.0019 15.3404 59.1007 15.1019 59.1007 14.8533V3.6035C59.1007 3.35486 59.0019 3.11641 58.8261 2.9406C58.6502 2.76478 58.4118 2.66602 58.1632 2.66602ZM57.2257 13.9158H44.1009V4.54098H57.2257V13.9158ZM58.1632 24.2282H43.1635C42.9148 24.2282 42.6764 24.3269 42.5005 24.5027C42.3247 24.6785 42.226 24.9169 42.226 25.1656V36.4154C42.226 36.664 42.3247 36.9025 42.5005 37.0783C42.6764 37.2541 42.9148 37.3529 43.1635 37.3529H58.1632C58.4118 37.3529 58.6502 37.2541 58.8261 37.0783C59.0019 36.9025 59.1007 36.664 59.1007 36.4154V25.1656C59.1007 24.9169 59.0019 24.6785 58.8261 24.5027C58.6502 24.3269 58.4118 24.2282 58.1632 24.2282ZM57.2257 35.478H44.1009V26.1031H57.2257V35.478ZM58.1632 45.7902H43.1635C42.9148 45.7902 42.6764 45.889 42.5005 46.0648C42.3247 46.2406 42.226 46.4791 42.226 46.7277V57.9775C42.226 58.2261 42.3247 58.4646 42.5005 58.6404C42.6764 58.8162 42.9148 58.915 43.1635 58.915H58.1632C58.4118 58.915 58.6502 58.8162 58.8261 58.6404C59.0019 58.4646 59.1007 58.2261 59.1007 57.9775V46.7277C59.1007 46.4791 59.0019 46.2406 58.8261 46.0648C58.6502 45.889 58.4118 45.7902 58.1632 45.7902ZM57.2257 57.04H44.1009V47.6652H57.2257V57.04ZM32.8511 9.2284V23.2906H27.2262V25.1656H32.8511V37.3529H27.2262V39.2279H32.8511V52.3526C32.8511 52.6012 32.9499 52.8397 33.1257 53.0155C33.3016 53.1913 33.54 53.2901 33.7886 53.2901H40.351V51.4151H34.7261V31.728H40.351V29.8531H34.7261V10.1659H40.351V8.29091H33.7886C33.54 8.29091 33.3016 8.38968 33.1257 8.5655C32.9499 8.7413 32.8511 8.97976 32.8511 9.2284Z" fill="black"/>
<path d="M45.9766 8.29102H47.8515V10.166H45.9766V8.29102ZM49.7265 8.29102H51.6015V10.166H49.7265V8.29102ZM53.4764 8.29102H55.3514V10.166H53.4764V8.29102ZM45.9766 29.8532H47.8515V31.7281H45.9766V29.8532ZM49.7265 29.8532H51.6015V31.7281H49.7265V29.8532ZM53.4764 29.8532H55.3514V31.7281H53.4764V29.8532ZM45.9766 51.4152H47.8515V53.2902H45.9766V51.4152ZM49.7265 51.4152H51.6015V53.2902H49.7265V51.4152ZM53.4764 51.4152H55.3514V53.2902H53.4764V51.4152Z" fill="black"/>
</g>
</g>
<defs>
<clipPath id="clip0_391_303">
<rect width="60" height="61.11" fill="white" transform="translate(0.976562 0.439941)"/>
</clipPath>
<clipPath id="clip1_391_303">
<rect width="60" height="61.11" fill="white" transform="translate(0.976562 0.439941)"/>
</clipPath>
</defs>
</svg>
