<svg width="36" height="38" viewBox="0 0 36 38" fill="none" xmlns="http://www.w3.org/2000/svg">
<path d="M17.2858 1.26724C17.4842 1.0949 17.7381 1 18.0009 1C18.2637 1 18.5176 1.0949 18.716 1.26724L22.256 4.34201C22.3662 4.43787 22.4946 4.51059 22.6336 4.55586C22.7725 4.60113 22.9191 4.61801 23.0646 4.60551L27.7386 4.19845C28.0003 4.17597 28.2613 4.24871 28.4736 4.40329C28.6859 4.55787 28.8354 4.7839 28.8944 5.03983L29.952 9.60837C29.9846 9.75114 30.0457 9.88586 30.1316 10.0045C30.2174 10.1232 30.3263 10.2233 30.4517 10.2989L34.4715 12.7159C34.6964 12.8513 34.8649 13.0633 34.946 13.3131C35.0272 13.5628 35.0155 13.8334 34.9131 14.0752L33.0813 18.3929C33.0243 18.5274 32.9949 18.6721 32.9949 18.8181C32.9949 18.9642 33.0243 19.1089 33.0813 19.2434L34.9131 23.5611C35.016 23.8031 35.0279 24.0742 34.9468 24.3243C34.8656 24.5744 34.6968 24.7868 34.4715 24.9223L30.4517 27.3392C30.3265 27.4146 30.2178 27.5145 30.1319 27.6328C30.0461 27.7511 29.9849 27.8855 29.952 28.0279L28.8944 32.5965C28.8354 32.8524 28.6859 33.0784 28.4736 33.233C28.2613 33.3876 28.0003 33.4603 27.7386 33.4378L23.0646 33.0308C22.9192 33.018 22.7727 33.0346 22.6338 33.0796C22.4949 33.1245 22.3664 33.1969 22.256 33.2925L18.7142 36.3691C18.5158 36.5414 18.2619 36.6363 17.9991 36.6363C17.7363 36.6363 17.4824 36.5414 17.284 36.3691L13.744 33.2925C13.6336 33.1969 13.5051 33.1245 13.3662 33.0796C13.2273 33.0346 13.0808 33.018 12.9354 33.0308L8.26141 33.4378C7.99973 33.4603 7.73873 33.3876 7.52639 33.233C7.31405 33.0784 7.16465 32.8524 7.10564 32.5965L6.04801 28.0279C6.01536 27.8852 5.95428 27.7504 5.86842 27.6318C5.78256 27.5131 5.67367 27.413 5.54827 27.3374L1.52853 24.9204C1.3036 24.785 1.13509 24.573 1.05396 24.3232C0.97284 24.0735 0.984549 23.8029 1.08694 23.5611L2.91872 19.2434C2.9757 19.1089 3.00506 18.9642 3.00506 18.8181C3.00506 18.6721 2.9757 18.5274 2.91872 18.3929L1.08694 14.0752C0.984047 13.8332 0.97207 13.5621 1.05322 13.312C1.13436 13.0619 1.30317 12.8495 1.52853 12.714L5.54827 10.2971C5.67348 10.2217 5.78225 10.1218 5.8681 10.0035C5.95395 9.88518 6.01513 9.75081 6.04801 9.60837L7.10564 5.03983C7.16465 4.7839 7.31405 4.55787 7.52639 4.40329C7.73873 4.24871 7.99973 4.17597 8.26141 4.19845L12.9354 4.60551C13.0809 4.61801 13.2275 4.60113 13.3664 4.55586C13.5054 4.51059 13.6338 4.43787 13.744 4.34201L17.2858 1.26724Z" stroke="#0F53FF" stroke-width="1.5"/>
<path d="M12.5508 20.6353L16.1853 24.2698L25.2715 15.1836" stroke="#0F53FF" stroke-width="1.5" stroke-linecap="round" stroke-linejoin="round"/>
</svg>
