<svg width="184" height="166" viewBox="0 0 184 166" fill="none" xmlns="http://www.w3.org/2000/svg">
<path d="M144.576 124.355L144.638 124.391L144.692 124.344C152.094 117.817 163.079 116.419 172.091 121.631C183.394 128.179 187.254 142.672 180.722 154.03L180.722 154.031C174.212 165.388 159.749 169.265 148.446 162.718C139.454 157.506 135.149 147.229 137.079 137.545L137.093 137.475L137.031 137.439L126.66 131.417L126.61 131.388L126.559 131.417L96.638 148.631C96.6379 148.631 96.6379 148.631 96.6378 148.631C95.2048 149.452 93.6034 149.873 92.0024 149.873C90.4015 149.873 88.8001 149.452 87.3671 148.631C87.367 148.631 87.367 148.631 87.3669 148.631L57.4241 131.395L57.374 131.367L57.324 131.396L46.9526 137.418L46.8908 137.453L46.9048 137.523C48.8347 147.229 44.5505 157.484 35.5378 162.697L35.5879 162.783L35.5378 162.697C24.2348 169.244 9.79304 165.346 3.26117 154.009C-3.24941 142.673 0.610395 128.179 11.9562 121.61L11.9061 121.524L11.9563 121.61C20.9477 116.398 31.9539 117.796 39.3551 124.322L39.4091 124.37L39.4713 124.334L50.7585 117.801L50.8084 117.772V117.715V85.4559C50.8084 82.1507 52.5784 79.0772 55.4434 77.4354L55.4435 77.4353L84.4069 60.774L84.457 60.7452V60.6873V46.4092V46.3375L84.3891 46.3145C75.0153 43.136 68.2716 34.2786 68.2716 23.8323C68.2716 10.716 78.8963 0.1 92.0237 0.1C105.151 0.1 115.776 10.716 115.776 23.8323C115.776 34.2786 109.032 43.136 99.6584 46.3145L99.5905 46.3375V46.4092V60.6873V60.7452L99.6406 60.774L128.604 77.4353L128.604 77.4354C131.469 79.0772 133.239 82.1507 133.239 85.4559V117.736V117.794L133.289 117.822L144.576 124.355ZM118.034 118.865L118.084 118.836V118.779V88.9031V88.8453L118.034 88.8164L92.0523 73.8574L92.0024 73.8287L91.9526 73.8574L65.9708 88.8164L65.9207 88.8453V88.9031V118.779V118.836L65.9708 118.865L91.9526 133.824L92.0024 133.853L92.0523 133.824L118.034 118.865ZM81.68 23.8303L81.6801 23.8344C81.7353 26.5333 82.847 29.1032 84.7769 30.9924C86.7067 32.8817 89.3007 33.9398 92.0024 33.9398C94.7042 33.9398 97.2982 32.8817 99.228 30.9924C101.158 29.1032 102.27 26.5333 102.325 23.8344L102.325 23.8303C102.27 21.1313 101.158 18.5615 99.228 16.6722C97.2982 14.783 94.7042 13.7248 92.0024 13.7248C89.3007 13.7248 86.7067 14.783 84.7769 16.6722C82.847 18.5615 81.7353 21.1313 81.68 23.8303ZM169.161 147.321L169.161 147.321C172 142.379 170.323 136.083 165.398 133.247C160.494 130.41 154.214 132.108 151.376 137.028C148.537 141.949 150.236 148.266 155.139 151.103C160.043 153.939 166.323 152.241 169.161 147.321ZM25.0687 152.372C26.407 152.196 27.6974 151.757 28.8655 151.081C33.7906 148.245 35.4677 141.928 32.6291 137.007C31.9601 135.836 31.0659 134.808 29.9979 133.983C28.9298 133.159 27.7089 132.553 26.4057 132.202C25.1024 131.85 23.7424 131.76 22.404 131.935C21.0657 132.111 19.7753 132.549 18.6072 133.225C13.6822 136.062 12.0051 142.379 14.8435 147.3C15.5125 148.471 16.4068 149.499 17.4748 150.323C18.5429 151.148 19.7638 151.754 21.067 152.105C22.3703 152.457 23.7303 152.547 25.0687 152.372Z" fill="#4E4A4A" stroke="#998E8E" stroke-width="0.2"/>
</svg>
