<svg width="54" height="54" viewBox="0 0 54 54" fill="none" xmlns="http://www.w3.org/2000/svg">
<g clip-path="url(#clip0_751_1352)">
<path d="M9.86536 0.530711C10.2049 0.693953 10.4914 0.949761 10.6919 1.26868C10.8924 1.5876 10.9987 1.95667 10.9987 2.33338C10.9987 4.54671 11.8307 5.82138 12.8734 7.37338L12.9507 7.48538C13.836 8.80271 14.9987 10.528 14.9987 13C14.9987 15.5227 13.7267 17.7467 11.788 19.0667C12.2983 19.4934 12.748 20.0205 13.1374 20.648C14.4067 22.7014 14.9987 25.84 14.9987 30.3467C14.9987 34.912 14.3854 40.3947 13.3854 44.7734C12.8894 46.9494 12.2734 48.9574 11.54 50.464C11.1954 51.2146 10.7366 51.9072 10.18 52.5174C9.6307 53.08 8.78536 53.68 7.66536 53.68C6.54536 53.68 5.70003 53.08 5.15336 52.5174C4.59676 51.9072 4.13799 51.2146 3.79337 50.464C3.05736 48.9547 2.44136 46.9494 1.94536 44.7707C0.904254 40.0315 0.363513 35.1961 0.332031 30.344C0.332031 25.8374 0.924031 22.7014 2.19336 20.648C2.55396 20.0509 3.00975 19.5168 3.5427 19.0667C2.55326 18.3941 1.7434 17.4896 1.18377 16.4322C0.624135 15.3748 0.331722 14.1964 0.332031 13C0.332031 12.0187 0.332031 10.3307 1.35336 8.15204C2.35336 6.01871 4.2547 3.56804 7.74803 0.770711C8.04245 0.535202 8.39745 0.38771 8.77207 0.345246C9.1467 0.302782 9.5257 0.367075 9.86536 0.530711ZM4.33203 12.9974C4.33203 13.8814 4.68322 14.7319 5.30834 15.3571C5.93346 15.9822 6.78131 16.3334 7.66536 16.3334C8.54942 16.3334 9.39727 15.9822 10.0224 15.3571C10.6475 14.7319 10.9987 13.8841 10.9987 13C10.9987 11.8294 10.5054 11.0187 9.55336 9.60271L9.52136 9.55471C8.9107 8.64804 8.18803 7.57338 7.67603 6.19471C6.22803 7.66671 5.42803 8.88804 4.97737 9.84804C4.33203 11.224 4.33203 12.2054 4.33203 12.9974ZM5.59603 22.7467C4.9347 23.8187 4.33203 26.016 4.33203 30.344C4.33203 34.6134 4.91336 39.7974 5.84403 43.88C6.31336 45.9334 6.8467 47.6 7.38803 48.7094C7.48759 48.9138 7.58003 49.0872 7.66536 49.2294C7.7507 49.0872 7.84314 48.9138 7.9427 48.7094C8.48403 47.6 9.01736 45.9307 9.4867 43.88C10.42 39.8 10.9987 34.616 10.9987 30.344C10.9987 26.016 10.396 23.8187 9.7347 22.7467C9.5335 22.3871 9.23249 22.0935 8.86803 21.9014C8.48992 21.7345 8.07819 21.6578 7.66536 21.6774C7.13203 21.6774 6.7507 21.76 6.4627 21.9014C6.09824 22.0935 5.79723 22.3871 5.59603 22.7467ZM21.6654 34.7814C20.2529 34.543 18.8789 34.1161 17.58 33.512C17.6583 31.9996 17.6805 30.4848 17.6467 28.9707C18.8494 29.7787 20.2067 30.3734 21.6654 30.704V23C21.6654 21.9392 22.0868 20.9218 22.8369 20.1716C23.5871 19.4215 24.6045 19 25.6654 19H36.332C36.3319 16.7619 35.7059 14.5684 34.5246 12.6673C33.3433 10.7663 31.654 9.2335 29.6474 8.24212C27.6408 7.25074 25.3969 6.8403 23.1693 7.05717C20.9416 7.27404 18.8191 8.10958 17.0414 9.46938C16.508 7.99471 15.748 6.86671 15.22 6.08271L15.1134 5.92271C17.5092 4.23377 20.3231 3.23548 23.2477 3.03681C26.1723 2.83815 29.0953 3.44675 31.6975 4.79618C34.2998 6.14561 36.4814 8.184 38.0041 10.6888C39.5267 13.1937 40.332 16.0687 40.332 19H49.6654C50.7262 19 51.7436 19.4215 52.4938 20.1716C53.2439 20.9218 53.6654 21.9392 53.6654 23V47C53.6654 48.0609 53.2439 49.0783 52.4938 49.8285C51.7436 50.5786 50.7262 51 49.6654 51H25.6654C24.6045 51 23.5871 50.5786 22.8369 49.8285C22.0868 49.0783 21.6654 48.0609 21.6654 47V34.7814ZM25.6654 34.9494V47.0027H49.6654V23.0027H39.8254C38.996 26.2169 37.1874 29.0935 34.6504 31.234C32.1133 33.3745 28.9733 34.6729 25.6654 34.9494ZM35.6494 23.0027H25.6654V30.9307C27.9063 30.6807 30.0314 29.8044 31.7973 28.4022C33.5631 27 34.8981 25.1287 35.6494 23.0027Z" fill="#0F53FF"/>
</g>
<defs>
<clipPath id="clip0_751_1352">
<rect width="54" height="54" fill="white"/>
</clipPath>
</defs>
</svg>
