<svg width="61" height="61" viewBox="0 0 61 61" fill="none" xmlns="http://www.w3.org/2000/svg">
<g clip-path="url(#clip0_3_247)">
<g clip-path="url(#clip1_3_247)">
<mask id="mask0_3_247" style="mask-type:luminance" maskUnits="userSpaceOnUse" x="1" y="0" width="60" height="60">
<path d="M60.6166 0.404785H1.70752V59.3139H60.6166V0.404785Z" fill="white"/>
</mask>
<g mask="url(#mask0_3_247)">
<path d="M52.4383 29.3101H54.632C54.873 29.3063 55.1028 29.2079 55.2719 29.0362C55.4409 28.8643 55.5356 28.6331 55.5356 28.392C55.5356 28.151 55.4408 27.9197 55.2719 27.7479C55.1028 27.5762 54.8729 27.4778 54.6319 27.474H50.2316C49.9881 27.474 49.7547 27.5707 49.5825 27.7429C49.4103 27.915 49.3136 28.1486 49.3135 28.3921V32.7924C49.3175 33.0334 49.4159 33.2632 49.5876 33.4322C49.7594 33.6013 49.9907 33.6961 50.2316 33.6961C50.4727 33.696 50.704 33.6013 50.8758 33.4322C51.0475 33.2631 51.1459 33.0334 51.1497 32.7924V30.6192C53.6509 33.1803 55.0427 36.6234 55.0239 40.2032C55.0051 43.783 53.5772 47.2112 51.0494 49.7461C37.7562 61.9801 19.5825 43.7894 31.8113 30.5078C34.7025 27.6102 36.3263 23.6839 36.3263 19.5906C36.3263 15.4972 34.7025 11.571 31.8113 8.67342C16.8029 -5.15572 -3.81792 15.2763 9.88607 30.4076L7.69228 30.4075C7.45131 30.4114 7.2215 30.5098 7.05244 30.6816C6.88339 30.8533 6.78865 31.0847 6.78866 31.3256C6.78867 31.5666 6.88344 31.798 7.05251 31.9697C7.22157 32.1415 7.45139 32.2399 7.69236 32.2438H12.0927C12.3362 32.2436 12.5696 32.147 12.7418 31.9747C12.914 31.8026 13.0107 31.5691 13.0107 31.3256V26.9252C13.0069 26.6843 12.9085 26.4545 12.7368 26.2854C12.5649 26.1163 12.3337 26.0216 12.0926 26.0216C11.8516 26.0216 11.6203 26.1164 11.4485 26.2854C11.2768 26.4545 11.1784 26.6844 11.1746 26.9254V29.0986C-0.854469 15.7649 17.2955 -2.20574 30.5132 9.9717C33.0604 12.5249 34.4908 15.9842 34.4908 19.5907C34.4908 23.1973 33.0603 26.6566 30.5131 29.2097C27.6218 32.1074 25.9981 36.0336 25.9981 40.127C25.9981 44.2204 27.6218 48.1466 30.5131 51.0443C45.5223 64.8755 66.1418 44.4397 52.4383 29.3101Z" fill="black"/>
<path d="M27.6233 27.3617L28.657 26.3279C28.9649 26.0194 29.1378 25.6015 29.1378 25.1657C29.1378 24.73 28.9649 24.3119 28.657 24.0035L28.1019 23.4481C28.6899 22.3435 29.0183 21.1193 29.0622 19.8685L29.8256 19.6628C30.2457 19.5492 30.6037 19.2739 30.8213 18.897C31.0388 18.5201 31.0981 18.0724 30.9862 17.6518L30.6087 16.2376C30.4942 15.8176 30.2186 15.4596 29.8417 15.2418C29.4648 15.0238 29.0171 14.9635 28.596 15.0738L27.8375 15.2769C27.1763 14.214 26.2802 13.317 25.2182 12.6544L25.4227 11.8924C25.5335 11.4713 25.4736 11.0235 25.2561 10.6464C25.0385 10.2692 24.6807 9.99332 24.2606 9.87864L22.8454 9.49981C22.4244 9.38766 21.9762 9.447 21.5988 9.6648C21.2216 9.88261 20.946 10.2411 20.8326 10.6617L20.6286 11.4229C19.3774 11.4634 18.1521 11.79 17.0468 12.3778L16.4892 11.8201C16.1807 11.5123 15.7626 11.3394 15.3267 11.3394C14.8909 11.3394 14.4729 11.5123 14.1644 11.8201L13.1306 12.8539C12.8228 13.1623 12.6499 13.5802 12.6499 14.016C12.6499 14.4519 12.8228 14.8698 13.1306 15.1782L13.6861 15.7337C13.0978 16.8382 12.7692 18.0624 12.7254 19.3132L11.9615 19.5193C11.5417 19.6331 11.184 19.9085 10.9666 20.2853C10.7492 20.662 10.6898 21.1095 10.8014 21.5299L11.1789 22.9443C11.2934 23.3643 11.5691 23.7221 11.9459 23.94C12.3228 24.1579 12.7705 24.2182 13.1916 24.1079L13.9501 23.9049C14.6114 24.9678 15.5075 25.8651 16.5694 26.5278L16.365 27.2895C16.2541 27.7105 16.314 28.1584 16.5318 28.5356C16.7494 28.9127 17.1073 29.1885 17.5274 29.3032C18.2813 29.4442 19.4641 30.0425 20.1888 29.5182C20.8345 29.2028 21.0036 28.3915 21.1594 27.7592C22.4105 27.7186 23.6357 27.3919 24.7407 26.804L25.2989 27.3617C25.6073 27.6695 26.0253 27.8424 26.461 27.8424C26.8968 27.8424 27.3147 27.6695 27.6233 27.3617ZM24.379 24.8849C23.2366 25.6368 21.8813 25.9981 20.5161 25.9146C19.4904 25.8284 19.4631 27.1823 19.2313 27.8588L18.1882 27.5795C18.3303 26.8698 18.9741 25.6975 18.0511 25.2551C16.8285 24.6418 15.8374 23.6491 15.2259 22.4256C14.7863 21.499 13.6051 22.1448 12.9034 22.2844L12.625 21.2421C13.3153 21.0047 14.6406 20.9844 14.5679 19.9591C14.4887 18.5932 14.8525 17.238 15.6053 16.0954C16.1871 15.2589 15.0332 14.5475 14.5652 14.0158L15.3269 13.2541L16.2529 14.1803C16.4027 14.3299 16.5995 14.4232 16.8101 14.4444C17.0206 14.4657 17.232 14.4136 17.4086 14.2968C18.5505 13.5433 19.9066 13.182 21.272 13.2676C22.3083 13.3391 22.3189 12.0093 22.5563 11.3229L23.5994 11.6023C23.4573 12.312 22.8139 13.4833 23.7361 13.9266C24.959 14.5397 25.9503 15.5324 26.5617 16.7562C27.0049 17.6847 28.1807 17.0362 28.8842 16.8973L29.1626 17.9396C28.4724 18.1769 27.147 18.1975 27.2197 19.2226C27.2988 20.5885 26.9352 21.9436 26.1829 23.0864C25.6014 23.9226 26.7545 24.634 27.2225 25.1655L26.4608 25.9271C25.925 25.4528 25.2126 24.3046 24.379 24.8849Z" fill="black"/>
<path d="M17.6778 16.3747C13.549 20.7276 19.7592 26.9362 24.1103 22.807C28.2396 18.4549 22.0294 12.246 17.6778 16.3747ZM22.812 21.5088C22.3015 22.0089 21.6143 22.2873 20.8998 22.2836C20.1852 22.2799 19.501 21.9944 18.9957 21.4891C18.4905 20.9838 18.205 20.2995 18.2013 19.585C18.1976 18.8705 18.476 18.1833 18.9761 17.6729C19.4866 17.173 20.1737 16.8948 20.8881 16.8985C21.6026 16.9023 22.2867 17.1878 22.7919 17.693C23.2971 18.1982 23.5826 18.8823 23.5864 19.5968C23.5901 20.3112 23.3118 20.9984 22.812 21.5088ZM34.7009 32.3564L33.6671 33.3901C33.3593 33.6985 33.1864 34.1166 33.1864 34.5523C33.1864 34.9881 33.3593 35.406 33.6671 35.7145L34.2222 36.2699C33.6342 37.3746 33.3057 38.5988 33.2619 39.8494L32.4984 40.0553C32.0784 40.1688 31.7204 40.4442 31.5029 40.8211C31.2854 41.198 31.226 41.6457 31.3379 42.0662L31.7154 43.4805C31.8299 43.9005 32.1056 44.2583 32.4825 44.4763C32.8593 44.6941 33.307 44.7545 33.7281 44.6443L34.4866 44.4413C35.1479 45.504 36.0439 46.4011 37.1059 47.0637L36.9015 47.8258C36.7906 48.2468 36.8504 48.6946 37.068 49.0717C37.2857 49.4489 37.6434 49.7247 38.0634 49.8394L39.4786 50.2183C39.8996 50.3295 40.3474 50.2698 40.7246 50.0521C41.1016 49.8345 41.3773 49.4765 41.4915 49.0563L41.6955 48.2951C42.9466 48.2546 44.1719 47.928 45.2772 47.3402L45.8349 47.8979C46.1434 48.2058 46.5615 48.3787 46.9974 48.3787C47.4332 48.3787 47.8512 48.2058 48.1598 47.8979L49.1935 46.8642C49.5014 46.5558 49.6743 46.1378 49.6743 45.702C49.6743 45.2662 49.5014 44.8483 49.1935 44.5399L48.6381 43.9844C49.2264 42.8798 49.5549 41.6556 49.5988 40.4049L50.3626 40.1987C50.7824 40.0849 51.1401 39.8096 51.3575 39.4328C51.575 39.0561 51.6343 38.6086 51.5228 38.1882L51.1452 36.7738C51.0308 36.3538 50.7551 35.9959 50.3782 35.778C50.0013 35.5601 49.5536 35.4997 49.1325 35.61L48.374 35.8131C47.7127 34.7503 46.8166 33.853 45.7547 33.1902C45.9047 32.8776 45.9859 32.5364 45.9929 32.1898C45.9998 31.8431 45.9323 31.4989 45.795 31.1806C45.6875 30.9932 45.544 30.8291 45.3727 30.6977C45.2013 30.5662 45.0055 30.4701 44.7967 30.4149C44.0436 30.2742 42.8585 29.676 42.1353 30.1998C41.4896 30.5151 41.3204 31.3266 41.1647 31.9587C39.9137 31.9994 38.6886 32.3262 37.5834 32.9141L37.0253 32.3564C36.7169 32.0485 36.2988 31.8756 35.8631 31.8756C35.4273 31.8756 35.0093 32.0485 34.7009 32.3564ZM37.9451 34.8332C39.0871 34.0803 40.4428 33.7189 41.8079 33.8035C42.8343 33.8891 42.8607 32.5359 43.0928 31.8593L44.1359 32.1385C43.9938 32.8483 43.35 34.0206 44.2731 34.4628C45.4956 35.0762 46.4867 36.0689 47.0982 37.2925C47.5396 38.2212 48.7175 37.5726 49.4207 37.4337L49.6991 38.4759C49.0087 38.7133 47.6836 38.7336 47.7562 39.759C47.8354 41.1249 47.4716 42.48 46.7189 43.6226C46.137 44.4591 47.2908 45.1705 47.7588 45.7022L46.9973 46.4639L46.0712 45.5377C45.9216 45.3877 45.7248 45.2942 45.5142 45.273C45.3034 45.2518 45.0919 45.3041 44.9155 45.4212C43.7727 46.1725 42.4173 46.5336 41.0522 46.4504C40.026 46.3577 39.9999 47.7213 39.7678 48.395L38.7247 48.1158C38.8668 47.4059 39.5102 46.2347 38.588 45.7915C37.3651 45.1784 36.3738 44.1857 35.7624 42.9619C35.3223 42.036 34.1417 42.6809 33.4399 42.8207L33.1615 41.7785C33.8517 41.5412 35.1772 41.5206 35.1044 40.4954C35.0253 39.1295 35.3889 37.7745 36.1412 36.6317C36.7228 35.7955 35.5697 35.084 35.1017 34.5525L35.8633 33.7909C36.3997 34.2654 37.1104 35.4135 37.9451 34.8332Z" fill="black"/>
<path d="M41.43 44.6728C42.1778 44.6728 42.9142 44.4883 43.5738 44.1358C44.2333 43.7832 44.7957 43.2735 45.2112 42.6516C45.6266 42.0298 45.8823 41.3152 45.9555 40.5708C46.0288 39.8266 45.9174 39.0757 45.6311 38.3849C45.3448 37.694 44.8927 37.0843 44.3145 36.61C43.7363 36.1356 43.0501 35.8112 42.3166 35.6654C41.5831 35.5196 40.8249 35.5569 40.1094 35.7742C39.3937 35.9914 38.7427 36.3817 38.214 36.9107C37.5892 37.5509 37.1662 38.3603 36.9971 39.2387C36.828 40.117 36.9203 41.0258 37.2627 41.8521C37.6052 42.6785 38.1825 43.3861 38.9232 43.8875C39.6639 44.3889 40.5356 44.662 41.43 44.6728ZM39.5122 38.2089C40.0227 37.7091 40.7099 37.4307 41.4243 37.4345C42.1389 37.4382 42.823 37.7237 43.3283 38.2289C43.8335 38.7342 44.119 39.4184 44.1227 40.1328C44.1264 40.8474 43.8481 41.5344 43.3482 42.045C42.8376 42.5448 42.1506 42.8232 41.436 42.8194C40.7215 42.8157 40.0374 42.5302 39.5322 42.025C39.0268 41.5197 38.7414 40.8356 38.7376 40.1211C38.7339 39.4065 39.0123 38.7195 39.5122 38.2089Z" fill="black"/>
</g>
</g>
</g>
<defs>
<clipPath id="clip0_3_247">
<rect width="60" height="60" fill="white" transform="translate(0.980103 0.0600586)"/>
</clipPath>
<clipPath id="clip1_3_247">
<rect width="60" height="60" fill="white" transform="translate(0.980103 0.0600586)"/>
</clipPath>
</defs>
</svg>
