<svg width="31" height="35" viewBox="0 0 31 35" fill="none" xmlns="http://www.w3.org/2000/svg">
<path d="M4.42857 4.375C4.42857 3.21468 4.89515 2.10188 5.72567 1.28141C6.55619 0.460936 7.68261 0 8.85714 0H22.1429C23.3174 0 24.4438 0.460936 25.2743 1.28141C26.1048 2.10188 26.5714 3.21468 26.5714 4.375V11.1234C25.8551 10.8732 25.0735 10.8732 24.3571 11.1234V4.375C24.3571 3.79484 24.1239 3.23844 23.7086 2.8282C23.2933 2.41797 22.7301 2.1875 22.1429 2.1875H8.85714C8.26988 2.1875 7.70667 2.41797 7.29141 2.8282C6.87615 3.23844 6.64286 3.79484 6.64286 4.375V11.1234C5.92649 10.8732 5.14494 10.8732 4.42857 11.1234V4.375ZM4.42857 26.0641C5.14379 26.3134 5.92764 26.3134 6.64286 26.0641V30.625C6.64286 31.2052 6.87615 31.7616 7.29141 32.1718C7.70667 32.582 8.26988 32.8125 8.85714 32.8125H22.1429C22.7301 32.8125 23.2933 32.582 23.7086 32.1718C24.1239 31.7616 24.3571 31.2052 24.3571 30.625V26.0641C25.0724 26.3134 25.8562 26.3134 26.5714 26.0641V30.625C26.5714 31.7853 26.1048 32.8981 25.2743 33.7186C24.4438 34.5391 23.3174 35 22.1429 35H8.85714C7.68261 35 6.55619 34.5391 5.72567 33.7186C4.89515 32.8981 4.42857 31.7853 4.42857 30.625V26.0641ZM0.3255 17.8194L4.75407 13.4444C4.85701 13.3428 4.97919 13.2623 5.11362 13.2074C5.24806 13.1525 5.39213 13.1243 5.5376 13.1244C5.68308 13.1245 5.8271 13.1529 5.96146 13.208C6.09582 13.2631 6.21789 13.3438 6.32068 13.4455C6.42347 13.5472 6.50498 13.6679 6.56056 13.8007C6.61613 13.9335 6.64468 14.0758 6.64458 14.2195C6.64448 14.3632 6.61572 14.5055 6.55996 14.6383C6.50419 14.771 6.42251 14.8916 6.31957 14.9931L3.77979 17.5H9.96428C10.2579 17.5 10.5395 17.6152 10.7472 17.8204C10.9548 18.0255 11.0714 18.3037 11.0714 18.5938C11.0714 18.8838 10.9548 19.162 10.7472 19.3671C10.5395 19.5723 10.2579 19.6875 9.96428 19.6875H3.77979L6.31957 22.1944C6.52746 22.3998 6.64426 22.6783 6.64426 22.9688C6.64426 23.2592 6.52746 23.5377 6.31957 23.7431C6.11168 23.9485 5.82972 24.0639 5.53571 24.0639C5.24171 24.0639 4.95975 23.9485 4.75186 23.7431L0.323285 19.3681C0.117398 19.1642 0.00123067 18.8883 0 18.6003V18.5872C0.00178904 18.3021 0.1162 18.0289 0.318857 17.8259L0.3255 17.8194ZM26.2481 23.7431L30.6767 19.3681L30.6811 19.3616C30.8838 19.1586 30.9982 18.8854 31 18.6003V18.5872C30.9982 18.2999 30.8821 18.0249 30.6767 17.8216L26.2481 13.4466C26.0405 13.2412 25.7589 13.1257 25.4651 13.1255C25.1713 13.1253 24.8894 13.2404 24.6815 13.4455C24.4736 13.6506 24.3567 13.9288 24.3565 14.2191C24.3563 14.5093 24.4728 14.7877 24.6804 14.9931L27.2202 17.5H21.0357C20.7421 17.5 20.4605 17.6152 20.2528 17.8204C20.0452 18.0255 19.9286 18.3037 19.9286 18.5938C19.9286 18.8838 20.0452 19.162 20.2528 19.3671C20.4605 19.5723 20.7421 19.6875 21.0357 19.6875H27.2202L24.6804 22.1944C24.4725 22.3998 24.3557 22.6783 24.3557 22.9688C24.3557 23.2592 24.4725 23.5377 24.6804 23.7431C24.8883 23.9485 25.1703 24.0639 25.4643 24.0639C25.7583 24.0639 26.0403 23.9485 26.2481 23.7431Z" fill="#0F53FF"/>
</svg>
