<svg width="44" height="50" viewBox="0 0 44 50" fill="none" xmlns="http://www.w3.org/2000/svg">
<path d="M39.0893 21.875C39.7768 21.875 40.4152 21.9971 41.0045 22.2412C41.5938 22.4854 42.1176 22.8271 42.5759 23.2666C43.0342 23.7061 43.378 24.2188 43.6071 24.8047C43.8363 25.3906 43.9673 26.0254 44 26.709C44 27.3438 43.8772 27.9622 43.6317 28.5645C43.3862 29.1667 43.0342 29.6956 42.5759 30.1514L24.971 47.7051L15.7143 50L18.0223 40.7959L35.6272 23.2666C36.0856 22.8109 36.6176 22.4691 37.2232 22.2412C37.8289 22.0133 38.4509 21.8913 39.0893 21.875ZM40.3415 27.9541C40.6853 27.6123 40.8571 27.1973 40.8571 26.709C40.8571 26.2044 40.6935 25.7975 40.3661 25.4883C40.0387 25.179 39.6131 25.0163 39.0893 25C38.8601 25 38.6391 25.0326 38.4263 25.0977C38.2135 25.1628 38.0253 25.2848 37.8616 25.4639L20.8705 42.4072L20.0357 45.7031L23.3504 44.873L40.3415 27.9541ZM9.42857 21.875H6.28571V18.75H9.42857V21.875ZM31.4286 21.875H12.5714V18.75H31.4286V21.875ZM6.28571 28.125H9.42857V31.25H6.28571V28.125ZM9.42857 12.5H6.28571V9.375H9.42857V12.5ZM31.4286 12.5H12.5714V9.375H31.4286V12.5ZM3.14286 40.625H14.0201L13.2344 43.75H0V0H37.7143V18.1396C36.6176 18.3024 35.5699 18.6605 34.5714 19.2139V3.125H3.14286V40.625ZM12.5714 28.125H25.192L22.0491 31.25H12.5714V28.125Z" fill="#0F53FF"/>
</svg>
