<svg width="24" height="25" viewBox="0 0 24 25" fill="none" xmlns="http://www.w3.org/2000/svg">
<path fill-rule="evenodd" clip-rule="evenodd" d="M7.665 3.74573C5.135 3.74573 3.5 5.47873 3.5 8.16173V16.3297C3.5 19.0127 5.135 20.7457 7.665 20.7457H16.333C18.864 20.7457 20.5 19.0127 20.5 16.3297V8.16173C20.5 5.47873 18.864 3.74573 16.334 3.74573H7.665ZM16.333 22.2457H7.665C4.276 22.2457 2 19.8677 2 16.3297V8.16173C2 4.62373 4.276 2.24573 7.665 2.24573H16.334C19.723 2.24573 22 4.62373 22 8.16173V16.3297C22 19.8677 19.723 22.2457 16.333 22.2457Z" fill="white"/>
<path fill-rule="evenodd" clip-rule="evenodd" d="M10.8152 15.3687C10.6242 15.3687 10.4312 15.2957 10.2852 15.1487L7.91116 12.7757C7.61816 12.4827 7.61816 12.0087 7.91116 11.7157C8.20416 11.4227 8.67816 11.4227 8.97116 11.7157L10.8152 13.5577L15.0312 9.34267C15.3242 9.04967 15.7982 9.04967 16.0912 9.34267C16.3842 9.63567 16.3842 10.1097 16.0912 10.4027L11.3452 15.1487C11.1992 15.2957 11.0072 15.3687 10.8152 15.3687Z" fill="white"/>
</svg>
