<svg width="32" height="32" viewBox="0 0 32 32" fill="none" xmlns="http://www.w3.org/2000/svg">
<path fill-rule="evenodd" clip-rule="evenodd" d="M24.8889 8.88889C24.8889 13.7982 20.9093 17.7778 16 17.7778C11.0907 17.7778 7.11111 13.7982 7.11111 8.88889C7.11111 3.97956 11.0907 0 16 0C20.9093 0 24.8889 3.97956 24.8889 8.88889ZM23.1111 8.88889C23.1111 10.7749 22.3619 12.5836 21.0283 13.9172C19.6947 15.2508 17.886 16 16 16C14.114 16 12.3053 15.2508 10.9717 13.9172C9.63809 12.5836 8.88889 10.7749 8.88889 8.88889C8.88889 7.0029 9.63809 5.19417 10.9717 3.86057C12.3053 2.52698 14.114 1.77778 16 1.77778C17.886 1.77778 19.6947 2.52698 21.0283 3.86057C22.3619 5.19417 23.1111 7.0029 23.1111 8.88889ZM10.5902 20.3156L10.6 20.3351L10.6667 20.4658H21.1102C21.3138 20.08 21.7751 19.4649 22.2222 19.5671C23.2267 19.7956 24.2382 20.1138 25.2098 20.5058L25.2391 20.4916L25.2489 20.5111L25.256 20.5244C28.9138 22.0107 32 24.5298 32 27.1733V32H0V27.1733C0 23.8178 4.97422 20.6604 9.77778 19.5671C10.1698 19.4782 10.4027 19.9404 10.5902 20.3156ZM23.7369 21.8516C23.3556 21.7179 22.9699 21.5972 22.5804 21.4898L22.184 22.2436H9.59378L9.22578 21.544L8.90578 21.64C8.89926 21.6981 8.89452 21.7644 8.89156 21.8391C8.88 22.1458 8.90311 22.5093 8.95378 22.8791C9.00544 23.2648 9.08869 23.6457 9.20267 24.0178C9.82708 24.0918 10.4053 24.384 10.8351 24.8429C11.265 25.3018 11.5189 25.8978 11.5519 26.5258C11.585 27.1537 11.3951 27.7731 11.0158 28.2746C10.6365 28.776 10.0921 29.1274 9.47894 29.2665C8.86574 29.4056 8.2231 29.3236 7.66452 29.0349C7.10594 28.7462 6.66734 28.2694 6.42618 27.6887C6.18502 27.108 6.15682 26.4607 6.34656 25.8613C6.53629 25.2618 6.93176 24.7486 7.46311 24.4124L7.456 24.3876C7.3373 23.972 7.24907 23.5484 7.192 23.12C7.15431 22.8463 7.12939 22.5711 7.11733 22.2951C6.01867 22.7644 4.99378 23.3316 4.13511 23.9573C2.42667 25.2053 1.77778 26.3716 1.77778 27.1733V30.2222H30.2222V27.1733C30.2222 26.3707 29.5733 25.2044 27.8649 23.9582C27.1198 23.4227 26.3265 22.9579 25.4951 22.5698C25.4588 23.0515 25.385 23.5297 25.2747 24H25.7778C25.9428 24.0001 26.1046 24.0461 26.2449 24.1329C26.3853 24.2198 26.4987 24.3439 26.5724 24.4916L27.4613 26.2693C27.5236 26.3929 27.5556 26.5289 27.5556 26.6667V28.4444C27.5556 28.6802 27.4619 28.9063 27.2952 29.073C27.1285 29.2397 26.9024 29.3333 26.6667 29.3333H24.8889V27.5556H25.7778V26.8764L25.2284 25.7778H22.7716L22.2222 26.8764V27.5556H23.1111V29.3333H21.3333C21.0976 29.3333 20.8715 29.2397 20.7048 29.073C20.5381 28.9063 20.4444 28.6802 20.4444 28.4444V26.6667C20.4444 26.5289 20.4764 26.3929 20.5387 26.2693L21.4276 24.4916C21.5013 24.3439 21.6147 24.2198 21.7551 24.1329C21.8954 24.0461 22.0572 24.0001 22.2222 24H23.4329L23.4658 23.8898C23.5493 23.6044 23.624 23.2498 23.6747 22.88C23.7244 22.5138 23.7476 22.1556 23.7369 21.8516ZM9.77778 26.6667C9.77778 27.1769 9.36711 27.5689 8.88889 27.5689C8.41067 27.5689 8 27.1778 8 26.6667C8 26.1564 8.41067 25.7644 8.88889 25.7644C9.36711 25.7644 9.77778 26.1556 9.77778 26.6667Z" fill="#0F53FF"/>
</svg>
