<svg width="46" height="51" viewBox="0 0 46 51" fill="none" xmlns="http://www.w3.org/2000/svg">
<path d="M1 30V20.3333C1 11.2201 1 6.66225 3.83233 3.83233C6.66467 1.00242 11.2201 1 20.3333 1H25.1667C34.2799 1 38.8377 1 41.6677 3.83233C43.2482 5.41042 43.9466 7.525 44.2535 10.6667M44.5 20.3333V30C44.5 39.1132 44.5 43.6711 41.6677 46.501C38.8353 49.3309 34.2799 49.3333 25.1667 49.3333H20.3333C11.2201 49.3333 6.66225 49.3333 3.83233 46.501C2.25183 44.9229 1.55342 42.8083 1.2465 39.6667M13.0833 30H25.1667M13.0833 20.3333H15.5M32.4167 20.3333H22.75" stroke="#0F53FF" stroke-width="2" stroke-linecap="round"/>
</svg>
