<svg width="13" height="22" viewBox="0 0 13 22" fill="none" xmlns="http://www.w3.org/2000/svg">
<path d="M10.8333 7.4478H13C13 4.46895 10.0154 3.11025 7.58333 2.79735V0.622803H5.41667V2.79735C2.98458 3.11025 0 4.46895 0 7.4478C0 10.2891 2.88817 11.7665 5.41667 12.0993V17.3178C3.848 17.0543 2.16667 16.2426 2.16667 14.7978H0C0 17.5163 2.62708 19.1228 5.41667 19.4556V21.6228H7.58333V19.4493C10.0154 19.1364 13 17.7767 13 14.7978C13 11.819 10.0154 10.4603 7.58333 10.1474V4.9278C9.02417 5.17875 10.8333 5.91585 10.8333 7.4478ZM2.16667 7.4478C2.16667 5.91585 3.97583 5.17875 5.41667 4.9278V9.96675C3.93142 9.7011 2.16667 8.91465 2.16667 7.4478ZM10.8333 14.7978C10.8333 16.3298 9.02417 17.0669 7.58333 17.3178V12.2778C9.02417 12.5288 10.8333 13.2659 10.8333 14.7978Z" fill="white"/>
</svg>
