<svg width="34" height="36" viewBox="0 0 34 36" fill="none" xmlns="http://www.w3.org/2000/svg">
<path d="M14 5C14 4.73478 14.1054 4.48043 14.2929 4.29289C14.4804 4.10536 14.7348 4 15 4H19C19.2652 4 19.5196 4.10536 19.7071 4.29289C19.8946 4.48043 20 4.73478 20 5C20 5.26522 19.8946 5.51957 19.7071 5.70711C19.5196 5.89464 19.2652 6 19 6H15C14.7348 6 14.4804 5.89464 14.2929 5.70711C14.1054 5.51957 14 5.26522 14 5Z" fill="#0F53FF"/>
<path fill-rule="evenodd" clip-rule="evenodd" d="M26.3626 12.52C25.9996 12.805 25.5286 13.033 24.9606 13.218C24.9859 13.4753 24.9986 13.736 24.9986 14C24.9982 15.0833 24.7777 16.1552 24.3507 17.1507C23.9236 18.1462 23.2988 19.0447 22.5142 19.7915C21.7295 20.5384 20.8014 21.1181 19.786 21.4955C18.7706 21.873 17.6891 22.0402 16.6071 21.9872C15.5252 21.9342 14.4652 21.662 13.4916 21.1871C12.518 20.7123 11.6509 20.0446 10.943 19.2246C10.2351 18.4047 9.70116 17.4495 9.37345 16.4169C9.04574 15.3844 8.93115 14.2961 9.0366 13.218C8.4686 13.033 7.9976 12.805 7.6356 12.52C7.1656 12.15 6.8506 11.656 6.8136 11.062C6.7786 10.511 6.9966 10.043 7.2146 9.713C7.42972 9.40036 7.68527 9.11757 7.9746 8.872C8.11594 8.74933 8.25127 8.64033 8.3806 8.545C8.34194 8.339 8.30127 8.09233 8.2586 7.805C8.08235 6.54438 7.99547 5.27288 7.9986 4C7.9986 3.686 8.1326 3.452 8.1946 3.353C8.2726 3.228 8.3646 3.121 8.4486 3.035C8.6156 2.86 8.8316 2.682 9.0686 2.511C9.5486 2.163 10.2086 1.772 10.9926 1.406C12.5556 0.676 14.7026 0 16.9986 0C19.2946 0 21.4416 0.677 23.0046 1.406C23.6787 1.71413 24.3228 2.08404 24.9286 2.511C25.1656 2.682 25.3816 2.861 25.5486 3.035C25.6326 3.121 25.7246 3.228 25.8026 3.353C25.8646 3.452 25.9986 3.686 25.9986 4C25.9986 5.602 25.8686 6.9 25.7386 7.805C25.6959 8.093 25.6553 8.33967 25.6166 8.545C25.7446 8.64 25.8836 8.749 26.0236 8.872C26.2736 9.091 26.5596 9.376 26.7826 9.713C27.0016 10.043 27.2186 10.511 27.1846 11.063C27.1476 11.656 26.8326 12.15 26.3626 12.52ZM10.0006 4.318C10.0156 5.666 10.1276 6.756 10.2386 7.518C10.2653 7.698 10.2906 7.85867 10.3146 8H23.6826C23.7073 7.858 23.7326 7.69733 23.7586 7.518C23.8686 6.756 23.9816 5.666 23.9966 4.318C23.9187 4.25229 23.8383 4.18957 23.7556 4.13C23.3946 3.869 22.8466 3.54 22.1586 3.219C20.7756 2.573 18.9226 2 16.9986 2C15.0746 2 13.2216 2.573 11.8386 3.219C11.1506 3.54 10.6026 3.869 10.2426 4.129C10.1595 4.18921 10.0788 4.25259 10.0006 4.319M9.7866 10L9.7836 10.002C9.61096 10.1169 9.44565 10.2425 9.2886 10.378C9.1106 10.534 8.9686 10.686 8.8826 10.818C8.86261 10.848 8.84425 10.879 8.8276 10.911L8.8716 10.948C9.0216 11.066 9.3436 11.239 9.9716 11.41C10.0956 11.4433 10.2286 11.476 10.3706 11.508L10.3796 11.51C10.8816 11.621 11.4996 11.72 12.2526 11.798C13.3196 11.909 14.6626 11.982 16.3406 11.998L16.9986 12C20.2256 12 22.3126 11.799 23.6186 11.51L23.6266 11.508C23.7693 11.4767 23.9026 11.444 24.0266 11.41C24.6536 11.24 24.9766 11.066 25.1256 10.948L25.1696 10.911C25.1533 10.8791 25.1353 10.848 25.1156 10.818C24.9989 10.6549 24.8621 10.5071 24.7086 10.378C24.5519 10.2426 24.3869 10.117 24.2146 10.002L24.2106 10H9.7866ZM16.7266 14C19.3686 14 21.4166 13.86 22.9866 13.616C22.9946 13.7427 22.9986 13.8707 22.9986 14C22.9979 14.8007 22.8369 15.5932 22.5251 16.3308C22.2134 17.0684 21.7571 17.7361 21.1833 18.2945C20.6094 18.853 19.9296 19.291 19.1839 19.5826C18.4381 19.8742 17.6415 20.0136 16.8411 19.9926C16.0406 19.9716 15.2524 19.7906 14.523 19.4602C13.7936 19.1298 13.1377 18.6567 12.594 18.0689C12.0502 17.4811 11.6297 16.7904 11.357 16.0374C11.0844 15.2845 10.9653 14.4847 11.0066 13.685C12.4696 13.887 14.3446 14 16.7266 14ZM9.0766 32.877C9.02427 33.249 8.9982 33.6243 8.9986 34V35C8.99872 35.2198 8.92639 35.4336 8.7928 35.6082C8.65922 35.7828 8.47183 35.9085 8.25962 35.9658C8.04741 36.0232 7.8222 36.0091 7.61884 35.9256C7.41547 35.8421 7.24529 35.6939 7.1346 35.504C6.46033 35.8686 5.67206 35.9613 4.9316 35.763L2.9996 35.245C2.23136 35.0388 1.57646 34.5359 1.17891 33.8469C0.78136 33.158 0.6737 32.3393 0.879604 31.571L1.6556 28.673C1.8616 27.9046 2.36439 27.2494 3.05338 26.8517C3.74237 26.4539 4.56114 26.3461 5.3296 26.552L7.2616 27.069C7.9336 27.249 8.4916 27.644 8.8796 28.16C9.80549 26.8716 11.0249 25.8223 12.437 25.0989C13.849 24.3755 15.413 23.9988 16.9996 24C18.5853 23.9992 20.1484 24.3759 21.5597 25.0989C22.971 25.8219 24.1899 26.8705 25.1156 28.158C25.5182 27.6257 26.0869 27.2428 26.7316 27.07L28.6636 26.553C29.4319 26.3471 30.2506 26.4548 30.9395 26.8523C31.6285 27.2499 32.1314 27.9048 32.3376 28.673L33.1146 31.572C33.2165 31.9526 33.2425 32.3495 33.191 32.7401C33.1395 33.1307 33.0116 33.5073 32.8145 33.8485C32.6175 34.1897 32.3552 34.4887 32.0426 34.7285C31.73 34.9682 31.3732 35.1441 30.9926 35.246L29.0616 35.763C28.3225 35.9614 27.5354 35.8698 26.8616 35.507C26.7506 35.6967 26.5802 35.8445 26.3767 35.9276C26.1732 36.0107 25.9481 36.0244 25.736 35.9667C25.524 35.909 25.3368 35.783 25.2035 35.6083C25.0702 35.4336 24.9982 35.2198 24.9986 35V34C24.999 33.6243 24.9729 33.249 24.9206 32.877L19.7166 34.272C19.475 34.789 19.091 35.2265 18.6096 35.5329C18.1282 35.8394 17.5693 36.0022 16.9986 36.0022C16.4279 36.0022 15.8691 35.8394 15.3876 35.5329C14.9062 35.2265 14.5222 34.789 14.2806 34.272L9.0766 32.877ZM14.1186 32.157C14.2523 31.7009 14.4925 31.283 14.8193 30.9379C15.1462 30.5928 15.5504 30.3303 15.9986 30.172V26.062C14.596 26.2394 13.2653 26.7849 12.1418 27.6431C11.0182 28.5012 10.1418 29.6415 9.6016 30.948L14.1186 32.157ZM24.3956 30.947C23.8552 29.6407 22.9788 28.5006 21.8552 27.6427C20.7317 26.7847 19.4011 26.2393 17.9986 26.062V30.171C18.9026 30.491 19.6086 31.231 19.8786 32.158L24.3956 30.947ZM26.5426 30.227C26.5086 30.1001 26.4999 29.9678 26.517 29.8376C26.5341 29.7074 26.5767 29.5818 26.6424 29.4681C26.708 29.3543 26.7954 29.2546 26.8996 29.1746C27.0038 29.0947 27.1227 29.036 27.2496 29.002L29.1816 28.484C29.4377 28.4156 29.7104 28.4516 29.9399 28.5842C30.1694 28.7167 30.3369 28.935 30.4056 29.191L31.1826 32.089C31.2166 32.2159 31.2253 32.3482 31.2082 32.4784C31.1911 32.6086 31.1485 32.7342 31.0829 32.8479C31.0172 32.9617 30.9298 33.0614 30.8256 33.1414C30.7214 33.2213 30.6025 33.28 30.4756 33.314L28.5436 33.832C28.4167 33.866 28.2843 33.8747 28.154 33.8575C28.0238 33.8403 27.8981 33.7976 27.7844 33.7319C27.6706 33.6661 27.5709 33.5786 27.491 33.4743C27.4111 33.37 27.3525 33.251 27.3186 33.124L26.5426 30.227ZM4.8126 28.484C4.68568 28.4498 4.55326 28.441 4.42293 28.458C4.29259 28.4751 4.1669 28.5177 4.05303 28.5833C3.93916 28.649 3.83935 28.7365 3.75932 28.8407C3.67929 28.945 3.6206 29.064 3.5866 29.191L2.8106 32.088C2.77658 32.2149 2.76787 32.3472 2.78499 32.4774C2.8021 32.6076 2.8447 32.7332 2.91036 32.847C2.97601 32.9607 3.06343 33.0604 3.16762 33.1404C3.27181 33.2203 3.39074 33.279 3.5176 33.313L5.4496 33.831C5.57646 33.865 5.70878 33.8737 5.839 33.8566C5.96922 33.8395 6.0948 33.7969 6.20855 33.7312C6.32231 33.6656 6.42202 33.5782 6.50198 33.474C6.58195 33.3698 6.6406 33.2509 6.6746 33.124L7.4506 30.226C7.48478 30.0991 7.4936 29.9667 7.47656 29.8363C7.45952 29.706 7.41694 29.5803 7.35128 29.4664C7.28561 29.3526 7.19815 29.2528 7.09387 29.1727C6.9896 29.0927 6.87058 29.034 6.7436 29L4.8126 28.484ZM17.9986 33C17.9986 33.2652 17.8932 33.5196 17.7057 33.7071C17.5182 33.8946 17.2638 34 16.9986 34C16.7334 34 16.479 33.8946 16.2915 33.7071C16.104 33.5196 15.9986 33.2652 15.9986 33C15.9986 32.7348 16.104 32.4804 16.2915 32.2929C16.479 32.1054 16.7334 32 16.9986 32C17.2638 32 17.5182 32.1054 17.7057 32.2929C17.8932 32.4804 17.9986 32.7348 17.9986 33Z" fill="#0F53FF"/>
</svg>
