<svg width="23" height="28" viewBox="0 0 23 28" fill="none" xmlns="http://www.w3.org/2000/svg">
<path d="M23 0.893617C23 1.13062 22.9068 1.35791 22.7409 1.5255C22.575 1.69309 22.35 1.78723 22.1154 1.78723H17.797C16.8993 1.78726 16.03 2.10557 15.3408 2.68667C14.6516 3.26776 14.1861 4.07478 14.0256 4.96702L12.5601 13.1064H19.7564C19.991 13.1064 20.216 13.2005 20.3819 13.3681C20.5478 13.5357 20.641 13.763 20.641 14C20.641 14.237 20.5478 14.4643 20.3819 14.6319C20.216 14.7995 19.991 14.8936 19.7564 14.8936H12.2372L10.7142 23.3532C10.4794 24.657 9.79922 25.8362 8.7921 26.6854C7.78499 27.5345 6.51484 27.9998 5.20301 28H0.884615C0.650001 28 0.424995 27.9059 0.259098 27.7383C0.0932002 27.5707 0 27.3434 0 27.1064C0 26.8694 0.0932002 26.6421 0.259098 26.4745C0.424995 26.3069 0.650001 26.2128 0.884615 26.2128H5.20301C6.10074 26.2127 6.96999 25.8944 7.6592 25.3133C8.34841 24.7322 8.81387 23.9252 8.97442 23.033L10.4399 14.8936H3.24359C3.00898 14.8936 2.78397 14.7995 2.61807 14.6319C2.45218 14.4643 2.35897 14.237 2.35897 14C2.35897 13.763 2.45218 13.5357 2.61807 13.3681C2.78397 13.2005 3.00898 13.1064 3.24359 13.1064H10.7628L12.2858 4.64681C12.5206 3.34302 13.2008 2.16379 14.2079 1.31463C15.215 0.465468 16.4852 0.000231164 17.797 0H22.1154C22.35 0 22.575 0.0941486 22.7409 0.261734C22.9068 0.42932 23 0.656615 23 0.893617Z" fill="#0F53FF"/>
</svg>
