<svg width="54" height="54" viewBox="0 0 54 54" fill="none" xmlns="http://www.w3.org/2000/svg">
<path d="M27 53C41.3594 53 53 41.3594 53 27C53 12.6406 41.3594 1 27 1C12.6406 1 1 12.6406 1 27C1 41.3594 12.6406 53 27 53Z" stroke="#0F53FF" stroke-width="2" stroke-linecap="round" stroke-linejoin="round"/>
<path d="M27 40C34.1797 40 40 34.1797 40 27C40 19.8203 34.1797 14 27 14C19.8203 14 14 19.8203 14 27C14 34.1797 19.8203 40 27 40Z" stroke="#0F53FF" stroke-width="2" stroke-linecap="round" stroke-linejoin="round"/>
<path d="M36.75 17.25L44.875 9.125M36.75 36.75L44.875 44.875M17.25 36.75L9.125 44.875M17.25 17.25L9.125 9.125" stroke="#0F53FF" stroke-width="2" stroke-linecap="round" stroke-linejoin="round"/>
</svg>
