<svg width="34" height="34" viewBox="0 0 34 34" fill="none" xmlns="http://www.w3.org/2000/svg">
<path d="M26.6478 3.29028H11.7317C11.2372 3.29028 10.763 3.49663 10.4133 3.86392C10.0636 4.23122 9.86719 4.72938 9.86719 5.24881H26.6478V28.7511H11.7317V19.1543H9.86719V28.7511C9.86719 29.2705 10.0636 29.7687 10.4133 30.136C10.763 30.5033 11.2372 30.7096 11.7317 30.7096H26.6478C27.1423 30.7096 27.6166 30.5033 27.9662 30.136C28.3159 29.7687 28.5123 29.2705 28.5123 28.7511V5.24881C28.5123 4.72938 28.3159 4.23122 27.9662 3.86392C27.6166 3.49663 27.1423 3.29028 26.6478 3.29028Z" fill="#0F53FF"/>
<path d="M14.2977 17.0595C14.2026 17.1403 14.1254 17.2397 14.0709 17.3515C14.0163 17.4633 13.9857 17.5851 13.9809 17.7092C13.976 17.8334 13.9971 17.9571 14.0428 18.0728C14.0884 18.1884 14.1577 18.2934 14.2462 18.3813C14.3347 18.4691 14.4406 18.5378 14.5572 18.5831C14.6737 18.6284 14.7985 18.6494 14.9235 18.6446C15.0486 18.6398 15.1714 18.6094 15.2841 18.5553C15.3968 18.5012 15.497 18.4246 15.5784 18.3302L20.8375 13.1122L15.5875 7.89419C15.4137 7.74655 15.1902 7.6694 14.9616 7.67816C14.733 7.68692 14.5162 7.78095 14.3544 7.94145C14.1926 8.10195 14.0979 8.3171 14.089 8.54392C14.0802 8.77073 14.158 8.9925 14.3068 9.1649L17.3677 12.1389H4.19736C3.95647 12.1389 3.72544 12.2338 3.5551 12.4029C3.38476 12.5719 3.28906 12.8011 3.28906 13.0401C3.28906 13.2791 3.38476 13.5084 3.5551 13.6774C3.72544 13.8464 3.95647 13.9413 4.19736 13.9413H17.3677L14.2977 17.0595Z" fill="#0F53FF"/>
</svg>
