<svg width="100" height="100" viewBox="0 0 100 100" fill="none" xmlns="http://www.w3.org/2000/svg">
<path fill-rule="evenodd" clip-rule="evenodd" d="M83.117 0C76.237 0 70.419 4.735 68.738 11.092L66.887 10.232C66.5568 10.0785 66.1971 9.99895 65.833 9.99895C65.4689 9.99895 65.1092 10.0785 64.779 10.232L34.166 24.453L3.553 10.233C3.17208 10.0561 2.75273 9.97802 2.33367 10.006C1.91461 10.0339 1.50934 10.167 1.15528 10.3929C0.801219 10.6188 0.509778 10.9303 0.307864 11.2985C0.10595 11.6668 7.05324e-05 12.08 6.74255e-08 12.5V82.787C-0.000110613 83.2637 0.136044 83.7304 0.392417 84.1322C0.648789 84.5341 1.01469 84.8542 1.447 85.055L33.113 99.764C33.4432 99.9175 33.8029 99.997 34.167 99.997C34.5311 99.997 34.8908 99.9175 35.221 99.764L65.834 85.544L96.447 99.764C98.104 100.533 100 99.324 100 97.498V27.211C100 26.7343 99.864 26.2676 99.6076 25.8658C99.3512 25.4639 98.9853 25.1438 98.553 24.943L95.323 23.441L96.334 21.719C96.564 21.302 96.747 20.858 96.904 20.404C97.6267 18.6387 97.999 16.7495 98 14.842C98 6.685 91.298 0 83.117 0ZM83.117 6.953C87.522 6.953 91.025 10.449 91.025 14.842C91.025 19.234 87.522 22.727 83.117 22.727C78.712 22.727 75.209 19.234 75.209 14.842C75.209 10.449 78.712 6.953 83.117 6.953ZM66.951 15.775L68.328 16.416C68.5955 18.915 69.4993 21.3038 70.953 23.354L81.301 41.244C82.751 43.138 83.715 42.778 84.92 41.144L92.777 27.771L95 28.805V93.58L67.322 80.723L67.096 41.047C67.504 41.135 67.911 41.22 68.32 41.317L69.24 37.426C68.5201 37.2558 67.7973 37.0981 67.072 36.953L66.951 15.775ZM63.953 16.129L64.068 36.465C63.0352 36.3237 61.9964 36.2299 60.955 36.184L60.807 40.18C61.895 40.22 62.992 40.338 64.092 40.498L64.322 80.732L35.646 94.055L35.277 29.451L63.953 16.129ZM5 16.418L32.275 29.088L32.646 94.035L5 81.191V16.418ZM56.543 36.457C55.166 36.704 53.757 37.145 52.445 37.908C50.8755 38.8167 49.5848 40.1378 48.713 41.728L52.215 43.66C52.7366 42.71 53.5059 41.9189 54.441 41.371L54.447 41.367L54.453 41.363C55.26 40.893 56.221 40.577 57.25 40.393L56.543 36.457ZM73.209 38.488L72.076 42.322C74.579 43.062 77.058 43.912 79.523 44.832L80.922 41.084C78.39 40.14 75.822 39.26 73.209 38.488ZM47.207 46.084L47.177 46.242L47.174 46.256C46.675 49.087 46.728 51.873 46.84 54.521L50.836 54.351C50.727 51.782 50.704 49.296 51.113 46.963L51.137 46.838L47.207 46.084ZM51.074 58.294L47.084 58.564C47.264 61.233 47.456 63.849 47.449 66.414L51.449 66.424C51.457 63.654 51.254 60.946 51.074 58.294ZM47.25 70.184C47.14 71.137 46.976 72.064 46.736 72.954L46.734 72.959L46.732 72.967C46.382 74.302 45.793 75.538 44.971 76.506L48.018 79.096C49.306 77.581 50.123 75.798 50.598 73.994L50.6 73.988C50.9 72.872 51.095 71.748 51.223 70.638L47.25 70.184ZM13.482 74.082L11.686 77.656C14.166 78.903 16.731 79.934 19.314 80.826L20.619 77.045C18.164 76.198 15.767 75.23 13.482 74.082ZM24.318 78.195L23.254 82.051C25.9 82.782 28.62 83.363 31.4 83.676L31.846 79.701C29.325 79.418 26.811 78.884 24.318 78.195ZM42.459 78.477C40.467 79.497 38.062 79.874 35.589 79.904L35.639 83.904C38.473 83.87 41.503 83.46 44.281 82.037L42.459 78.477Z" fill="#0F53FF"/>
</svg>
