<svg width="24" height="24" viewBox="0 0 24 24" fill="none" xmlns="http://www.w3.org/2000/svg">
<path d="M8.7 1H2.1C1.80826 1 1.52847 1.11589 1.32218 1.32218C1.11589 1.52847 1 1.80826 1 2.1V8.7C1 8.99174 1.11589 9.27153 1.32218 9.47782C1.52847 9.68411 1.80826 9.8 2.1 9.8H8.7C8.99174 9.8 9.27153 9.68411 9.47782 9.47782C9.68411 9.27153 9.8 8.99174 9.8 8.7V2.1C9.8 1.80826 9.68411 1.52847 9.47782 1.32218C9.27153 1.11589 8.99174 1 8.7 1ZM8.7 14.2H2.1C1.80826 14.2 1.52847 14.3159 1.32218 14.5222C1.11589 14.7285 1 15.0083 1 15.3V21.9C1 22.1917 1.11589 22.4715 1.32218 22.6778C1.52847 22.8841 1.80826 23 2.1 23H8.7C8.99174 23 9.27153 22.8841 9.47782 22.6778C9.68411 22.4715 9.8 22.1917 9.8 21.9V15.3C9.8 15.0083 9.68411 14.7285 9.47782 14.5222C9.27153 14.3159 8.99174 14.2 8.7 14.2ZM21.9 1H15.3C15.0083 1 14.7285 1.11589 14.5222 1.32218C14.3159 1.52847 14.2 1.80826 14.2 2.1V8.7C14.2 8.99174 14.3159 9.27153 14.5222 9.47782C14.7285 9.68411 15.0083 9.8 15.3 9.8H21.9C22.1917 9.8 22.4715 9.68411 22.6778 9.47782C22.8841 9.27153 23 8.99174 23 8.7V2.1C23 1.80826 22.8841 1.52847 22.6778 1.32218C22.4715 1.11589 22.1917 1 21.9 1Z" stroke="black" stroke-linejoin="round"/>
<path d="M14.2031 14.1992H23.0031M18.6031 18.5992H23.0031M14.2031 22.9992H23.0031" stroke="black" stroke-linecap="round" stroke-linejoin="round"/>
</svg>
