<svg width="29" height="24" viewBox="0 0 29 24" fill="none" xmlns="http://www.w3.org/2000/svg">
<path d="M26.4062 0H2.40625C1.87582 0 1.36711 0.210714 0.992036 0.585786C0.616964 0.960859 0.40625 1.46957 0.40625 2V22C0.40625 22.5304 0.616964 23.0391 0.992036 23.4142C1.36711 23.7893 1.87582 24 2.40625 24H26.4062C26.9367 24 27.4454 23.7893 27.8205 23.4142C28.1955 23.0391 28.4062 22.5304 28.4062 22V2C28.4062 1.46957 28.1955 0.960859 27.8205 0.585786C27.4454 0.210714 26.9367 0 26.4062 0ZM26.4062 2V8H2.40625V2H26.4062ZM2.40625 22V10H26.4062V22H2.40625Z" fill="#0F53FF"/>
</svg>
