<svg width="28" height="28" viewBox="0 0 28 28" fill="none" xmlns="http://www.w3.org/2000/svg">
<path d="M18.6673 9.33106V0H9.33545V9.33106H0V18.6689H9.33545V28H18.6673V18.6689H28V9.33106H18.6673ZM3.2373 15.8928H1.35958V12.1081H3.19189V12.7212H2.0916V13.6289H3.08472V14.2366H2.0916V15.2965H3.23776L3.2373 15.8928ZM6.68712 15.8928H6.00097V13.4416H5.97781L5.26896 14.8824L4.5542 13.4475V15.8928H3.83944V12.1081H4.52559L5.26896 13.5434L6.00097 12.1081H6.68758L6.68712 15.8928ZM9.31456 15.8928H7.4373V12.1081H9.26961V12.7212H8.16795V13.6289H9.16199V14.2366H8.16795V15.2965H9.31456V15.8928ZM12.288 15.8928H11.5229L11.1759 14.5647C11.1478 14.457 11.1251 14.4061 11.0288 14.4061H10.6487V15.8928H9.91671V12.1308C10.2691 12.094 10.6232 12.0769 10.9775 12.0795C11.749 12.0795 12.2535 12.4317 12.2535 13.208C12.2535 13.7539 12.0324 14.0425 11.6972 14.1734V14.1793C11.7772 14.202 11.8053 14.2588 11.828 14.3547L12.288 15.8928ZM15.3746 14.2407C15.3746 15.0638 15.1702 15.9551 14.1444 15.9551C13.0941 15.9551 12.748 14.9397 12.748 14.0084C12.748 13.0667 13.129 12.0454 14.2007 12.0454C14.603 12.0454 14.9032 12.2108 15.1938 12.4994L14.7906 13.0385C14.6262 12.8344 14.4845 12.6703 14.1898 12.6703C13.5604 12.6703 13.5146 13.5434 13.5146 14.0039C13.5146 14.4688 13.5314 15.3706 14.1662 15.3706C14.6539 15.3706 14.7102 14.9283 14.7102 14.5361V14.4007H14.1953V13.7998H15.3746V14.2407ZM17.8826 15.8928H16.0049V12.1081H17.8376V12.7212H16.7355V13.6289H17.7295V14.2366H16.7355V15.2965H17.8826V15.8928ZM21.0708 15.8928H20.4301L19.2158 13.5557H19.199V15.8928H18.4843V12.1081H19.1931L20.3515 14.3493H20.362V12.1081H21.0708V15.8928ZM23.1257 15.9551C22.0821 15.9551 21.7075 15.0306 21.7075 14.0034C21.7075 13.0321 22.1107 12.0449 23.1602 12.0449C23.602 12.0449 23.8913 12.2445 24.1819 12.5899L23.7441 13.1071C23.5802 12.8567 23.4272 12.6699 23.1484 12.6699C22.6311 12.6699 22.4722 13.3221 22.4722 14.0034C22.4722 14.5143 22.5748 15.336 23.1647 15.336C23.4726 15.336 23.6415 15.1492 23.8286 14.8992L24.2032 15.4328C23.9535 15.7392 23.5902 15.9551 23.1252 15.9546L23.1257 15.9551ZM26.0537 14.4461V15.8928H25.3271V14.4856L24.3395 12.1077H25.1228L25.6963 13.8325L26.269 12.1077H27.0128L26.0542 14.4456L26.0537 14.4461Z" fill="#0F53FF"/>
</svg>
