<svg width="50" height="50" viewBox="0 0 50 50" fill="none" xmlns="http://www.w3.org/2000/svg">
<path d="M33.3243 39.5833H16.3843C16.1776 38.853 15.8768 38.1526 15.4895 37.5L37.4865 15.4792C38.7392 16.2487 40.1789 16.6595 41.6487 16.6667C43.2067 16.6717 44.7349 16.239 46.0595 15.4175C47.384 14.5961 48.4516 13.4191 49.141 12.0203C49.8303 10.6215 50.1136 9.05709 49.9588 7.50506C49.8039 5.95302 49.217 4.47565 48.2649 3.241C47.3128 2.00636 46.0336 1.06399 44.573 0.52111C43.1123 -0.0217707 41.5288 -0.143376 40.0025 0.170129C38.4762 0.483633 37.0685 1.21966 35.9394 2.29449C34.8103 3.36931 34.0052 4.73979 33.6157 6.25002H16.3843C15.8778 4.28615 14.6732 2.57462 12.9963 1.43627C11.3194 0.297907 9.28537 -0.189132 7.27543 0.0664395C5.26549 0.322011 3.41766 1.30265 2.0783 2.82453C0.738935 4.34642 0 6.30507 0 8.33335C0 10.3616 0.738935 12.3203 2.0783 13.8422C3.41766 15.3641 5.26549 16.3447 7.27543 16.6003C9.28537 16.8558 11.3194 16.3688 12.9963 15.2304C14.6732 14.0921 15.8778 12.3806 16.3843 10.4167H33.6157C33.8224 11.147 34.1232 11.8474 34.5105 12.5L12.5135 34.5208C11.2608 33.7513 9.82113 33.3405 8.35135 33.3333C6.79328 33.3283 5.26507 33.7611 3.94055 34.5825C2.61603 35.4039 1.54838 36.5809 0.859047 37.9797C0.169711 39.3785 -0.113635 40.9429 0.0412376 42.495C0.196111 44.047 0.782986 45.5244 1.73511 46.759C2.68723 47.9937 3.96637 48.936 5.42702 49.4789C6.88768 50.0218 8.47121 50.1434 9.99749 49.8299C11.5238 49.5164 12.9315 48.7804 14.0606 47.7055C15.1897 46.6307 15.9948 45.2602 16.3843 43.75H33.3243V50H49.973V33.3333H33.3243V39.5833ZM8.35135 12.5C7.52815 12.5 6.72344 12.2556 6.03897 11.7978C5.35451 11.34 4.82103 10.6892 4.50601 9.92786C4.19098 9.1665 4.10856 8.32873 4.26916 7.52047C4.42976 6.71222 4.82616 5.96979 5.40825 5.38707C5.99034 4.80435 6.73197 4.40752 7.53935 4.24675C8.34673 4.08597 9.1836 4.16849 9.94414 4.48385C10.7047 4.79922 11.3547 5.33327 11.8121 6.01848C12.2694 6.70368 12.5135 7.50926 12.5135 8.33335C12.5135 9.43842 12.075 10.4982 11.2944 11.2796C10.5139 12.061 9.45522 12.5 8.35135 12.5ZM41.6487 4.16669C42.4719 4.16669 43.2766 4.41106 43.961 4.8689C44.6455 5.32673 45.179 5.97748 45.494 6.73884C45.809 7.50019 45.8914 8.33797 45.7309 9.14623C45.5703 9.95448 45.1738 10.6969 44.5918 11.2796C44.0097 11.8623 43.268 12.2592 42.4607 12.42C41.6533 12.5807 40.8164 12.4982 40.0559 12.1828C39.2953 11.8675 38.6453 11.3334 38.188 10.6482C37.7306 9.96302 37.4865 9.15744 37.4865 8.33335C37.4865 7.22828 37.925 6.16847 38.7056 5.38707C39.4861 4.60567 40.5448 4.16669 41.6487 4.16669ZM8.35135 45.8333C7.52815 45.8333 6.72344 45.589 6.03897 45.1311C5.35451 44.6733 4.82103 44.0225 4.50601 43.2612C4.19098 42.4998 4.10856 41.662 4.26916 40.8538C4.42976 40.0455 4.82616 39.3031 5.40825 38.7204C5.99034 38.1377 6.73197 37.7408 7.53935 37.5801C8.34673 37.4193 9.1836 37.5018 9.94414 37.8172C10.7047 38.1325 11.3547 38.6666 11.8121 39.3518C12.2694 40.037 12.5135 40.8426 12.5135 41.6667C12.5135 42.7717 12.075 43.8315 11.2944 44.6129C10.5139 45.3943 9.45522 45.8333 8.35135 45.8333ZM37.4865 37.5H45.8108V45.8333H37.4865V37.5Z" fill="#0F53FF"/>
</svg>
