<svg width="27" height="26" viewBox="0 0 27 26" fill="none" xmlns="http://www.w3.org/2000/svg">
<path opacity="0.2" d="M19.4978 7.27698L13.5438 12.7457L7.58984 7.27698H19.4978Z" fill="white"/>
<path d="M22.0133 19.441L14.7226 12.7457L22.0133 6.05041C22.0175 6.04599 22.022 6.04175 22.0266 6.03772C22.2542 5.8192 22.4093 5.54086 22.4721 5.23786C22.5348 4.93486 22.5026 4.6208 22.3794 4.33538C22.2561 4.04996 22.0474 3.80599 21.7797 3.63429C21.512 3.46259 21.1972 3.37087 20.8751 3.37073H6.21417C5.8921 3.37087 5.5773 3.46259 5.30955 3.63429C5.0418 3.80599 4.83313 4.04996 4.7099 4.33538C4.58666 4.6208 4.55441 4.93486 4.6172 5.23786C4.67999 5.54086 4.83501 5.8192 5.06268 6.03772C5.06729 6.04175 5.07171 6.04599 5.07592 6.05041L12.3667 12.7457L5.07592 19.441C5.07171 19.4455 5.06729 19.4497 5.06268 19.4537C4.83501 19.6723 4.67999 19.9506 4.6172 20.2536C4.55441 20.5566 4.58666 20.8707 4.7099 21.1561C4.83313 21.4415 5.0418 21.6855 5.30955 21.8572C5.5773 22.0289 5.8921 22.1206 6.21417 22.1207H20.8751C21.1972 22.1208 21.5122 22.0292 21.7801 21.8576C22.048 21.6859 22.2568 21.442 22.3802 21.1565C22.5035 20.8711 22.5359 20.5569 22.4731 20.2538C22.4104 19.9507 22.2553 19.6723 22.0276 19.4537C22.0226 19.4497 22.0179 19.4455 22.0133 19.441ZM9.61774 8.05823H17.4715L13.5446 11.6637L9.61774 8.05823ZM20.8751 4.93323L19.1748 6.49573H7.91647L6.21417 4.93323H20.8751ZM6.21417 20.5582L13.5446 13.8278L20.8751 20.5582H6.21417Z" fill="white"/>
</svg>
