<svg width="38" height="38" viewBox="0 0 38 38" fill="none" xmlns="http://www.w3.org/2000/svg">
<path d="M2.6875 0H0V34.9375C0 35.6503 0.283146 36.3338 0.78715 36.8378C1.29115 37.3419 1.97473 37.625 2.6875 37.625H37.625V34.9375H2.6875V0Z" fill="#0F53FF"/>
<path d="M37.625 9.40625H28.2188V12.0938H33.0428L22.8438 22.2928L17.0791 16.5147C16.9541 16.3887 16.8055 16.2888 16.6418 16.2206C16.478 16.1523 16.3024 16.1172 16.125 16.1172C15.9476 16.1172 15.772 16.1523 15.6082 16.2206C15.4445 16.2888 15.2959 16.3887 15.1709 16.5147L5.375 26.3241L7.26969 28.2188L16.125 19.3634L21.8897 25.1416C22.0146 25.2675 22.1632 25.3675 22.327 25.4357C22.4907 25.5039 22.6664 25.539 22.8438 25.539C23.0211 25.539 23.1968 25.5039 23.3605 25.4357C23.5243 25.3675 23.6729 25.2675 23.7978 25.1416L34.9375 13.9884V18.8125H37.625V9.40625Z" fill="#0F53FF"/>
</svg>
