<svg width="49" height="58" viewBox="0 0 49 58" fill="none" xmlns="http://www.w3.org/2000/svg">
<mask id="path-1-inside-1_1022_898" fill="white">
<path d="M38.5 9.28H10.5C10.1906 9.28 9.89383 9.40221 9.67504 9.61976C9.45625 9.8373 9.33333 10.1323 9.33333 10.44V24.36C9.33333 24.6677 9.45625 24.9627 9.67504 25.1802C9.89383 25.3978 10.1906 25.52 10.5 25.52H38.5C38.8094 25.52 39.1062 25.3978 39.325 25.1802C39.5438 24.9627 39.6667 24.6677 39.6667 24.36V10.44C39.6667 10.1323 39.5438 9.8373 39.325 9.61976C39.1062 9.40221 38.8094 9.28 38.5 9.28ZM37.3333 23.2H11.6667V11.6H37.3333V23.2ZM45.5 0H3.5C2.57174 0 1.6815 0.366642 1.02513 1.01927C0.368748 1.6719 0 2.55705 0 3.48V54.52C0 55.443 0.368748 56.3281 1.02513 56.9807C1.6815 57.6334 2.57174 58 3.5 58H45.5C46.4283 58 47.3185 57.6334 47.9749 56.9807C48.6312 56.3281 49 55.443 49 54.52V3.48C49 2.55705 48.6312 1.6719 47.9749 1.01927C47.3185 0.366642 46.4283 0 45.5 0ZM46.6667 54.52C46.6667 54.8276 46.5438 55.1227 46.325 55.3402C46.1062 55.5578 45.8094 55.68 45.5 55.68H3.5C3.19058 55.68 2.89383 55.5578 2.67504 55.3402C2.45625 55.1227 2.33333 54.8276 2.33333 54.52V3.48C2.33333 3.17235 2.45625 2.8773 2.67504 2.65976C2.89383 2.44221 3.19058 2.32 3.5 2.32H45.5C45.8094 2.32 46.1062 2.44221 46.325 2.65976C46.5438 2.8773 46.6667 3.17235 46.6667 3.48V54.52ZM15.1667 34.8C15.1667 35.2589 15.0298 35.7074 14.7734 36.0889C14.517 36.4704 14.1526 36.7678 13.7263 36.9434C13.2999 37.119 12.8307 37.1649 12.3781 37.0754C11.9255 36.9859 11.5097 36.7649 11.1834 36.4405C10.8571 36.116 10.6349 35.7026 10.5448 35.2526C10.4548 34.8026 10.501 34.3361 10.6776 33.9122C10.8542 33.4883 11.1533 33.1259 11.537 32.871C11.9207 32.6161 12.3718 32.48 12.8333 32.48C13.4522 32.48 14.0457 32.7244 14.4832 33.1595C14.9208 33.5946 15.1667 34.1847 15.1667 34.8ZM26.8333 34.8C26.8333 35.2589 26.6965 35.7074 26.4401 36.0889C26.1837 36.4704 25.8193 36.7678 25.3929 36.9434C24.9666 37.119 24.4974 37.1649 24.0448 37.0754C23.5922 36.9859 23.1764 36.7649 22.8501 36.4405C22.5238 36.116 22.3015 35.7026 22.2115 35.2526C22.1215 34.8026 22.1677 34.3361 22.3443 33.9122C22.5209 33.4883 22.82 33.1259 23.2037 32.871C23.5874 32.6161 24.0385 32.48 24.5 32.48C25.1188 32.48 25.7123 32.7244 26.1499 33.1595C26.5875 33.5946 26.8333 34.1847 26.8333 34.8ZM38.5 34.8C38.5 35.2589 38.3632 35.7074 38.1068 36.0889C37.8504 36.4704 37.486 36.7678 37.0596 36.9434C36.6332 37.119 36.1641 37.1649 35.7115 37.0754C35.2588 36.9859 34.8431 36.7649 34.5167 36.4405C34.1904 36.116 33.9682 35.7026 33.8782 35.2526C33.7881 34.8026 33.8343 34.3361 34.0109 33.9122C34.1875 33.4883 34.4866 33.1259 34.8703 32.871C35.254 32.6161 35.7052 32.48 36.1667 32.48C36.7855 32.48 37.379 32.7244 37.8166 33.1595C38.2542 33.5946 38.5 34.1847 38.5 34.8ZM15.1667 46.4C15.1667 46.8589 15.0298 47.3074 14.7734 47.6889C14.517 48.0704 14.1526 48.3678 13.7263 48.5434C13.2999 48.719 12.8307 48.7649 12.3781 48.6754C11.9255 48.5859 11.5097 48.3649 11.1834 48.0405C10.8571 47.716 10.6349 47.3026 10.5448 46.8526C10.4548 46.4026 10.501 45.9361 10.6776 45.5122C10.8542 45.0882 11.1533 44.7259 11.537 44.471C11.9207 44.2161 12.3718 44.08 12.8333 44.08C13.4522 44.08 14.0457 44.3244 14.4832 44.7595C14.9208 45.1946 15.1667 45.7847 15.1667 46.4ZM26.8333 46.4C26.8333 46.8589 26.6965 47.3074 26.4401 47.6889C26.1837 48.0704 25.8193 48.3678 25.3929 48.5434C24.9666 48.719 24.4974 48.7649 24.0448 48.6754C23.5922 48.5859 23.1764 48.3649 22.8501 48.0405C22.5238 47.716 22.3015 47.3026 22.2115 46.8526C22.1215 46.4026 22.1677 45.9361 22.3443 45.5122C22.5209 45.0882 22.82 44.7259 23.2037 44.471C23.5874 44.2161 24.0385 44.08 24.5 44.08C25.1188 44.08 25.7123 44.3244 26.1499 44.7595C26.5875 45.1946 26.8333 45.7847 26.8333 46.4ZM38.5 46.4C38.5 46.8589 38.3632 47.3074 38.1068 47.6889C37.8504 48.0704 37.486 48.3678 37.0596 48.5434C36.6332 48.719 36.1641 48.7649 35.7115 48.6754C35.2588 48.5859 34.8431 48.3649 34.5167 48.0405C34.1904 47.716 33.9682 47.3026 33.8782 46.8526C33.7881 46.4026 33.8343 45.9361 34.0109 45.5122C34.1875 45.0882 34.4866 44.7259 34.8703 44.471C35.254 44.2161 35.7052 44.08 36.1667 44.08C36.7855 44.08 37.379 44.3244 37.8166 44.7595C38.2542 45.1946 38.5 45.7847 38.5 46.4Z"/>
</mask>
<path d="M38.5 9.28H10.5C10.1906 9.28 9.89383 9.40221 9.67504 9.61976C9.45625 9.8373 9.33333 10.1323 9.33333 10.44V24.36C9.33333 24.6677 9.45625 24.9627 9.67504 25.1802C9.89383 25.3978 10.1906 25.52 10.5 25.52H38.5C38.8094 25.52 39.1062 25.3978 39.325 25.1802C39.5438 24.9627 39.6667 24.6677 39.6667 24.36V10.44C39.6667 10.1323 39.5438 9.8373 39.325 9.61976C39.1062 9.40221 38.8094 9.28 38.5 9.28ZM37.3333 23.2H11.6667V11.6H37.3333V23.2ZM45.5 0H3.5C2.57174 0 1.6815 0.366642 1.02513 1.01927C0.368748 1.6719 0 2.55705 0 3.48V54.52C0 55.443 0.368748 56.3281 1.02513 56.9807C1.6815 57.6334 2.57174 58 3.5 58H45.5C46.4283 58 47.3185 57.6334 47.9749 56.9807C48.6312 56.3281 49 55.443 49 54.52V3.48C49 2.55705 48.6312 1.6719 47.9749 1.01927C47.3185 0.366642 46.4283 0 45.5 0ZM46.6667 54.52C46.6667 54.8276 46.5438 55.1227 46.325 55.3402C46.1062 55.5578 45.8094 55.68 45.5 55.68H3.5C3.19058 55.68 2.89383 55.5578 2.67504 55.3402C2.45625 55.1227 2.33333 54.8276 2.33333 54.52V3.48C2.33333 3.17235 2.45625 2.8773 2.67504 2.65976C2.89383 2.44221 3.19058 2.32 3.5 2.32H45.5C45.8094 2.32 46.1062 2.44221 46.325 2.65976C46.5438 2.8773 46.6667 3.17235 46.6667 3.48V54.52ZM15.1667 34.8C15.1667 35.2589 15.0298 35.7074 14.7734 36.0889C14.517 36.4704 14.1526 36.7678 13.7263 36.9434C13.2999 37.119 12.8307 37.1649 12.3781 37.0754C11.9255 36.9859 11.5097 36.7649 11.1834 36.4405C10.8571 36.116 10.6349 35.7026 10.5448 35.2526C10.4548 34.8026 10.501 34.3361 10.6776 33.9122C10.8542 33.4883 11.1533 33.1259 11.537 32.871C11.9207 32.6161 12.3718 32.48 12.8333 32.48C13.4522 32.48 14.0457 32.7244 14.4832 33.1595C14.9208 33.5946 15.1667 34.1847 15.1667 34.8ZM26.8333 34.8C26.8333 35.2589 26.6965 35.7074 26.4401 36.0889C26.1837 36.4704 25.8193 36.7678 25.3929 36.9434C24.9666 37.119 24.4974 37.1649 24.0448 37.0754C23.5922 36.9859 23.1764 36.7649 22.8501 36.4405C22.5238 36.116 22.3015 35.7026 22.2115 35.2526C22.1215 34.8026 22.1677 34.3361 22.3443 33.9122C22.5209 33.4883 22.82 33.1259 23.2037 32.871C23.5874 32.6161 24.0385 32.48 24.5 32.48C25.1188 32.48 25.7123 32.7244 26.1499 33.1595C26.5875 33.5946 26.8333 34.1847 26.8333 34.8ZM38.5 34.8C38.5 35.2589 38.3632 35.7074 38.1068 36.0889C37.8504 36.4704 37.486 36.7678 37.0596 36.9434C36.6332 37.119 36.1641 37.1649 35.7115 37.0754C35.2588 36.9859 34.8431 36.7649 34.5167 36.4405C34.1904 36.116 33.9682 35.7026 33.8782 35.2526C33.7881 34.8026 33.8343 34.3361 34.0109 33.9122C34.1875 33.4883 34.4866 33.1259 34.8703 32.871C35.254 32.6161 35.7052 32.48 36.1667 32.48C36.7855 32.48 37.379 32.7244 37.8166 33.1595C38.2542 33.5946 38.5 34.1847 38.5 34.8ZM15.1667 46.4C15.1667 46.8589 15.0298 47.3074 14.7734 47.6889C14.517 48.0704 14.1526 48.3678 13.7263 48.5434C13.2999 48.719 12.8307 48.7649 12.3781 48.6754C11.9255 48.5859 11.5097 48.3649 11.1834 48.0405C10.8571 47.716 10.6349 47.3026 10.5448 46.8526C10.4548 46.4026 10.501 45.9361 10.6776 45.5122C10.8542 45.0882 11.1533 44.7259 11.537 44.471C11.9207 44.2161 12.3718 44.08 12.8333 44.08C13.4522 44.08 14.0457 44.3244 14.4832 44.7595C14.9208 45.1946 15.1667 45.7847 15.1667 46.4ZM26.8333 46.4C26.8333 46.8589 26.6965 47.3074 26.4401 47.6889C26.1837 48.0704 25.8193 48.3678 25.3929 48.5434C24.9666 48.719 24.4974 48.7649 24.0448 48.6754C23.5922 48.5859 23.1764 48.3649 22.8501 48.0405C22.5238 47.716 22.3015 47.3026 22.2115 46.8526C22.1215 46.4026 22.1677 45.9361 22.3443 45.5122C22.5209 45.0882 22.82 44.7259 23.2037 44.471C23.5874 44.2161 24.0385 44.08 24.5 44.08C25.1188 44.08 25.7123 44.3244 26.1499 44.7595C26.5875 45.1946 26.8333 45.7847 26.8333 46.4ZM38.5 46.4C38.5 46.8589 38.3632 47.3074 38.1068 47.6889C37.8504 48.0704 37.486 48.3678 37.0596 48.5434C36.6332 48.719 36.1641 48.7649 35.7115 48.6754C35.2588 48.5859 34.8431 48.3649 34.5167 48.0405C34.1904 47.716 33.9682 47.3026 33.8782 46.8526C33.7881 46.4026 33.8343 45.9361 34.0109 45.5122C34.1875 45.0882 34.4866 44.7259 34.8703 44.471C35.254 44.2161 35.7052 44.08 36.1667 44.08C36.7855 44.08 37.379 44.3244 37.8166 44.7595C38.2542 45.1946 38.5 45.7847 38.5 46.4Z" fill="#0F53FF" stroke="#0F53FF" stroke-width="3" mask="url(#path-1-inside-1_1022_898)"/>
</svg>
