<svg width="40" height="34" viewBox="0 0 40 34" fill="none" xmlns="http://www.w3.org/2000/svg">
<path d="M4.67963 17.2991L18.9393 31.2648C19.4384 31.7536 19.69 32 19.9994 32C20.3087 32 20.5603 31.7576 21.0594 31.2648L35.3191 17.2991C38.4045 14.2773 38.883 9.54268 36.4617 5.98765C32.6874 0.449067 24.2768 0.731854 20.9027 6.51283L20.3211 7.5147C20.2885 7.57008 20.2417 7.61608 20.1852 7.64807C20.1287 7.68005 20.0646 7.6969 19.9994 7.6969C19.9341 7.6969 19.87 7.68005 19.8135 7.64807C19.757 7.61608 19.7102 7.57008 19.6776 7.5147L19.096 6.51686C15.7219 0.731852 7.31129 0.449069 3.53704 5.99169C1.11575 9.54673 1.59836 14.2773 4.67963 17.2991Z" stroke="#0F53FF" stroke-width="3"/>
</svg>
