<svg width="66" height="59" viewBox="0 0 66 59" fill="none" xmlns="http://www.w3.org/2000/svg">
<path d="M6.07767 59C4.34657 59 2.90022 58.414 1.73863 57.2419C0.577041 56.0699 -0.00250073 54.6105 8.11046e-06 52.8638V33.4376C8.11046e-06 32.8984 0.17939 32.4479 0.538154 32.0859C0.896918 31.7239 1.34474 31.5416 1.88164 31.5391C2.41853 31.5365 2.86635 31.7188 3.22512 32.0859C3.58388 32.4529 3.76326 32.9035 3.76326 33.4376V52.8638C3.76326 53.446 4.00411 53.9814 4.48581 54.47C4.97001 54.956 5.50064 55.1991 6.07767 55.1991H32.857C33.3914 55.1991 33.838 55.3813 34.1967 55.7458C34.5555 56.1104 34.7361 56.561 34.7386 57.0976C34.7411 57.6343 34.5605 58.0862 34.1967 58.4532C33.8329 58.8203 33.3864 59.0013 32.857 58.9962L6.07767 59ZM20.2651 44.6848C18.5315 44.6848 17.0852 44.1 15.9261 42.9305C14.767 41.761 14.1862 40.3016 14.1837 38.5524V19.1262C14.1837 18.587 14.3631 18.1352 14.7219 17.7706C15.0806 17.4061 15.5285 17.2264 16.0653 17.2314C16.6022 17.2365 17.0501 17.4175 17.4088 17.7744C17.7676 18.1314 17.947 18.5832 17.947 19.13V38.5562C17.947 39.1384 18.1878 39.6738 18.6695 40.1624C19.1512 40.6509 19.6818 40.894 20.2614 40.8914H47.0407C47.5751 40.8914 48.0229 41.0724 48.3842 41.4344C48.7455 41.7964 48.9248 42.2483 48.9223 42.79C48.9198 43.3317 48.7392 43.7836 48.3804 44.1456C48.0217 44.5076 47.5751 44.6886 47.0407 44.6886L20.2651 44.6848ZM34.4489 30.3695C32.7178 30.3695 31.2714 29.7848 30.1098 28.6153C28.9482 27.4457 28.3674 25.9864 28.3674 24.2372V6.13239C28.3674 4.38571 28.9482 2.92634 30.1098 1.75429C31.2714 0.582236 32.7178 -0.00252324 34.4489 8.1835e-06H59.9223C61.6534 8.1835e-06 63.0998 0.584768 64.2614 1.75429C65.423 2.92381 66.0025 4.38318 66 6.13239V24.2448C66 25.9914 65.4204 27.4495 64.2614 28.6191C63.1023 29.7886 61.6559 30.3746 59.9223 30.3771L34.4489 30.3695ZM34.4489 26.5724H59.9223C60.4994 26.5724 61.03 26.3307 61.5142 25.8472C61.9959 25.3586 62.2367 24.8232 62.2367 24.241V11.3838H32.1307V24.2372C32.1307 24.8194 32.3715 25.3548 32.8532 25.8434C33.3349 26.3319 33.8655 26.5749 34.4451 26.5724" fill="#0F53FF"/>
</svg>
