<svg width="31" height="33" viewBox="0 0 31 33" fill="none" xmlns="http://www.w3.org/2000/svg">
<mask id="path-1-inside-1_852_151" fill="white">
<path d="M7.90507 15.783V8.88106C7.90507 8.46959 8.04692 8.11849 8.33062 7.82775C8.61312 7.53701 8.95692 7.39165 9.36203 7.39165C9.76714 7.39165 10.1109 7.53701 10.3934 7.82775C10.6771 8.11849 10.819 8.46959 10.819 8.88106V15.783C10.819 16.1945 10.6771 16.5456 10.3934 16.8363C10.1097 17.1271 9.76594 17.2724 9.36203 17.2724C8.95812 17.2724 8.61432 17.1271 8.33062 16.8363C8.04692 16.5456 7.90507 16.1945 7.90507 15.783ZM15.7434 18.2056V1.49311C15.7434 1.07918 15.8847 0.726845 16.1672 0.436107C16.4509 0.145369 16.7947 0 17.1986 0C17.6037 0 17.9475 0.145369 18.23 0.436107C18.5137 0.726845 18.6555 1.07918 18.6555 1.49311V18.2056C18.6555 18.7033 18.5065 19.0766 18.2084 19.3255C17.909 19.5743 17.5742 19.6987 17.204 19.6987C16.8337 19.6987 16.4971 19.5743 16.1942 19.3255C15.8913 19.0766 15.741 18.7033 15.7434 18.2056ZM0 22.1638V16.2764C0 15.8625 0.141248 15.5101 0.423744 15.2194C0.707442 14.9287 1.05185 14.7833 1.45696 14.7833C1.86207 14.7833 2.20587 14.9287 2.48837 15.2194C2.77086 15.5101 2.91211 15.8625 2.91211 16.2764V22.1657C2.91211 22.6634 2.76305 23.0361 2.46493 23.2837C2.1668 23.5325 1.83201 23.657 1.46056 23.657C1.09031 23.657 0.753723 23.5325 0.450791 23.2837C0.150264 23.0361 0 22.6634 0 22.1657M1.95643 33C1.55373 33 1.27544 32.8121 1.12157 32.4364C0.967698 32.0619 1.03742 31.7237 1.33074 31.4219L8.3775 24.2021C8.63836 23.9335 8.95992 23.7839 9.34219 23.7531C9.72447 23.7223 10.0641 23.8411 10.361 24.1097L15.7434 28.8496L27.9202 16.3688H24.6889C24.4329 16.3688 24.2189 16.2801 24.047 16.1027C23.8751 15.9253 23.7885 15.7054 23.7873 15.443C23.7861 15.1806 23.8727 14.9613 24.047 14.7851C24.2213 14.609 24.4353 14.5209 24.6889 14.5209H29.543C29.9566 14.5209 30.3028 14.6638 30.5817 14.9496C30.8606 15.2354 31 15.5902 31 16.014V20.9886C31 21.251 30.9135 21.4703 30.7403 21.6464C30.5672 21.8226 30.3527 21.9113 30.0966 21.9125C29.8406 21.9138 29.6266 21.8251 29.4547 21.6464C29.2828 21.4678 29.1968 21.2485 29.1968 20.9886V17.6771L16.7478 30.4351C16.4869 30.7024 16.1654 30.8515 15.7831 30.8823C15.4008 30.9131 15.0612 30.7942 14.7643 30.5257L9.38186 25.7858L2.60738 32.7302C2.53044 32.8041 2.43367 32.8676 2.31707 32.9205C2.20046 32.9735 2.08025 33 1.95643 33Z"/>
</mask>
<path d="M7.90507 15.783V8.88106C7.90507 8.46959 8.04692 8.11849 8.33062 7.82775C8.61312 7.53701 8.95692 7.39165 9.36203 7.39165C9.76714 7.39165 10.1109 7.53701 10.3934 7.82775C10.6771 8.11849 10.819 8.46959 10.819 8.88106V15.783C10.819 16.1945 10.6771 16.5456 10.3934 16.8363C10.1097 17.1271 9.76594 17.2724 9.36203 17.2724C8.95812 17.2724 8.61432 17.1271 8.33062 16.8363C8.04692 16.5456 7.90507 16.1945 7.90507 15.783ZM15.7434 18.2056V1.49311C15.7434 1.07918 15.8847 0.726845 16.1672 0.436107C16.4509 0.145369 16.7947 0 17.1986 0C17.6037 0 17.9475 0.145369 18.23 0.436107C18.5137 0.726845 18.6555 1.07918 18.6555 1.49311V18.2056C18.6555 18.7033 18.5065 19.0766 18.2084 19.3255C17.909 19.5743 17.5742 19.6987 17.204 19.6987C16.8337 19.6987 16.4971 19.5743 16.1942 19.3255C15.8913 19.0766 15.741 18.7033 15.7434 18.2056ZM0 22.1638V16.2764C0 15.8625 0.141248 15.5101 0.423744 15.2194C0.707442 14.9287 1.05185 14.7833 1.45696 14.7833C1.86207 14.7833 2.20587 14.9287 2.48837 15.2194C2.77086 15.5101 2.91211 15.8625 2.91211 16.2764V22.1657C2.91211 22.6634 2.76305 23.0361 2.46493 23.2837C2.1668 23.5325 1.83201 23.657 1.46056 23.657C1.09031 23.657 0.753723 23.5325 0.450791 23.2837C0.150264 23.0361 0 22.6634 0 22.1657M1.95643 33C1.55373 33 1.27544 32.8121 1.12157 32.4364C0.967698 32.0619 1.03742 31.7237 1.33074 31.4219L8.3775 24.2021C8.63836 23.9335 8.95992 23.7839 9.34219 23.7531C9.72447 23.7223 10.0641 23.8411 10.361 24.1097L15.7434 28.8496L27.9202 16.3688H24.6889C24.4329 16.3688 24.2189 16.2801 24.047 16.1027C23.8751 15.9253 23.7885 15.7054 23.7873 15.443C23.7861 15.1806 23.8727 14.9613 24.047 14.7851C24.2213 14.609 24.4353 14.5209 24.6889 14.5209H29.543C29.9566 14.5209 30.3028 14.6638 30.5817 14.9496C30.8606 15.2354 31 15.5902 31 16.014V20.9886C31 21.251 30.9135 21.4703 30.7403 21.6464C30.5672 21.8226 30.3527 21.9113 30.0966 21.9125C29.8406 21.9138 29.6266 21.8251 29.4547 21.6464C29.2828 21.4678 29.1968 21.2485 29.1968 20.9886V17.6771L16.7478 30.4351C16.4869 30.7024 16.1654 30.8515 15.7831 30.8823C15.4008 30.9131 15.0612 30.7942 14.7643 30.5257L9.38186 25.7858L2.60738 32.7302C2.53044 32.8041 2.43367 32.8676 2.31707 32.9205C2.20046 32.9735 2.08025 33 1.95643 33Z" fill="#0F53FF"/>
<path d="M8.33062 7.82775L9.04634 8.52614L9.04782 8.52462L8.33062 7.82775ZM10.3934 7.82775L9.67624 8.52462L9.67772 8.52614L10.3934 7.82775ZM15.7434 18.2056L16.7434 18.2105V18.2056H15.7434ZM16.1672 0.436107L15.4515 -0.262283L15.45 -0.26076L16.1672 0.436107ZM18.23 0.436107L17.5128 1.13298L17.5143 1.1345L18.23 0.436107ZM18.2084 19.3255L18.8477 20.0944L18.8492 20.0932L18.2084 19.3255ZM16.1942 19.3255L15.5595 20.0982L16.1942 19.3255ZM0.423744 15.2194L-0.291977 14.521L-0.293456 14.5225L0.423744 15.2194ZM2.46493 23.2837L1.82598 22.5144L1.82411 22.516L2.46493 23.2837ZM0.450791 23.2837L-0.185111 24.0555L-0.183972 24.0564L0.450791 23.2837ZM1.95643 33V32V33ZM1.12157 32.4364L2.04698 32.0574L2.04654 32.0564L1.12157 32.4364ZM1.33074 31.4219L0.615104 30.7234L0.61359 30.725L1.33074 31.4219ZM8.3775 24.2021L9.09313 24.9006L9.09482 24.8988L8.3775 24.2021ZM10.361 24.1097L9.69012 24.8514L9.70009 24.8602L10.361 24.1097ZM15.7434 28.8496L15.0825 29.6001L15.7956 30.2281L16.4592 29.5479L15.7434 28.8496ZM27.9202 16.3688L28.636 17.0671L30.2929 15.3688H27.9202V16.3688ZM29.1968 17.6771H30.1968V15.2204L28.4811 16.9787L29.1968 17.6771ZM16.7478 30.4351L17.4635 31.1335L16.7478 30.4351ZM14.7643 30.5257L15.4352 29.7839L15.4252 29.7752L14.7643 30.5257ZM9.38186 25.7858L10.0428 25.0353L9.32961 24.4073L8.66605 25.0875L9.38186 25.7858ZM2.60738 32.7302L3.30019 33.4513L3.31188 33.4401L3.32319 33.4285L2.60738 32.7302ZM8.90507 15.783V8.88106H6.90507V15.783H8.90507ZM8.90507 8.88106C8.90507 8.72679 8.94752 8.62741 9.04634 8.52614L7.6149 7.12936C7.14632 7.60957 6.90507 8.2124 6.90507 8.88106H8.90507ZM9.04782 8.52462C9.14216 8.42753 9.22732 8.39165 9.36203 8.39165V6.39165C8.68651 6.39165 8.08407 6.6465 7.61342 7.13089L9.04782 8.52462ZM9.36203 8.39165C9.49673 8.39165 9.5819 8.42753 9.67624 8.52462L11.1106 7.13089C10.64 6.6465 10.0375 6.39165 9.36203 6.39165V8.39165ZM9.67772 8.52614C9.77654 8.62741 9.81898 8.72679 9.81898 8.88106H11.819C11.819 8.2124 11.5777 7.60957 11.1092 7.12936L9.67772 8.52614ZM9.81898 8.88106V15.783H11.819V8.88106H9.81898ZM9.81898 15.783C9.81898 15.9373 9.77654 16.0367 9.67772 16.1379L11.1092 17.5347C11.5777 17.0545 11.819 16.4517 11.819 15.783H9.81898ZM9.67772 16.1379C9.581 16.2371 9.49474 16.2724 9.36203 16.2724V18.2724C10.0371 18.2724 10.6385 18.0171 11.1092 17.5347L9.67772 16.1379ZM9.36203 16.2724C9.22932 16.2724 9.14306 16.2371 9.04634 16.1379L7.6149 17.5347C8.08557 18.0171 8.68692 18.2724 9.36203 18.2724V16.2724ZM9.04634 16.1379C8.94752 16.0367 8.90507 15.9373 8.90507 15.783H6.90507C6.90507 16.4517 7.14632 17.0545 7.6149 17.5347L9.04634 16.1379ZM16.7434 18.2056V1.49311H14.7434V18.2056H16.7434ZM16.7434 1.49311C16.7434 1.33329 16.7875 1.23272 16.8844 1.13297L15.45 -0.26076C14.9819 0.220968 14.7434 0.825068 14.7434 1.49311H16.7434ZM16.8829 1.1345C16.9796 1.03537 17.0659 1 17.1986 1V-1C16.5235 -1 15.9221 -0.744635 15.4515 -0.262281L16.8829 1.1345ZM17.1986 1C17.3333 1 17.4185 1.03588 17.5128 1.13297L18.9472 -0.26076C18.4765 -0.745142 17.8741 -1 17.1986 -1V1ZM17.5143 1.1345C17.6119 1.23452 17.6555 1.33462 17.6555 1.49311H19.6555C19.6555 0.823745 19.4155 0.219166 18.9457 -0.262281L17.5143 1.1345ZM17.6555 1.49311V18.2056H19.6555V1.49311H17.6555ZM17.6555 18.2056C17.6555 18.4969 17.5769 18.5499 17.5675 18.5578L18.8492 20.0932C19.436 19.6033 19.6555 18.9097 19.6555 18.2056H17.6555ZM17.5691 18.5565C17.4393 18.6643 17.328 18.6987 17.204 18.6987V20.6987C17.8204 20.6987 18.3787 20.4843 18.8476 20.0944L17.5691 18.5565ZM17.204 18.6987C17.0795 18.6987 16.9644 18.664 16.829 18.5527L15.5595 20.0982C16.0299 20.4846 16.5879 20.6987 17.204 20.6987V18.6987ZM16.829 18.5527C16.8191 18.5446 16.742 18.4954 16.7434 18.2105L14.7434 18.2008C14.74 18.9112 14.9635 19.6086 15.5595 20.0982L16.829 18.5527ZM1 22.1638V16.2764H-1V22.1638H1ZM1 16.2764C1 16.1166 1.04403 16.016 1.14094 15.9163L-0.293456 14.5225C-0.761529 15.0043 -1 15.6084 -1 16.2764H1ZM1.13946 15.9178C1.23555 15.8193 1.32214 15.7833 1.45696 15.7833V13.7833C0.781549 13.7833 0.179333 14.038 -0.291975 14.521L1.13946 15.9178ZM1.45696 15.7833C1.59166 15.7833 1.67683 15.8192 1.77117 15.9163L3.20557 14.5225C2.73492 14.0381 2.13247 13.7833 1.45696 13.7833V15.7833ZM1.77117 15.9163C1.86808 16.016 1.91211 16.1166 1.91211 16.2764H3.91211C3.91211 15.6084 3.67364 15.0043 3.20557 14.5225L1.77117 15.9163ZM1.91211 16.2764V22.1657H3.91211V16.2764H1.91211ZM1.91211 22.1657C1.91211 22.4573 1.83342 22.5083 1.82598 22.5144L3.10387 24.0529C3.69268 23.5639 3.91211 22.8695 3.91211 22.1657H1.91211ZM1.82411 22.516C1.69693 22.6222 1.5865 22.657 1.46056 22.657V24.657C2.07753 24.657 2.63668 24.4429 3.10574 24.0514L1.82411 22.516ZM1.46056 22.657C1.33612 22.657 1.22095 22.6222 1.08555 22.511L-0.183972 24.0564C0.286497 24.4429 0.844507 24.657 1.46056 24.657V22.657ZM1.08669 22.5119C1.07815 22.5049 1 22.4546 1 22.1657H-1C-1 22.8722 -0.77762 23.5673 -0.18511 24.0555L1.08669 22.5119ZM1.95643 32C1.9333 32 1.93105 31.9973 1.94367 32.0008C1.95762 32.0046 1.98031 32.0135 2.00521 32.0303C2.03006 32.0471 2.04606 32.0643 2.05387 32.0745C2.06084 32.0836 2.05657 32.0808 2.04698 32.0574L0.196157 32.8154C0.332089 33.1473 0.551755 33.4622 0.886163 33.6879C1.22116 33.9141 1.59608 34 1.95643 34V32ZM2.04654 32.0564C2.03827 32.0362 2.03978 32.0332 2.04119 32.0451C2.04274 32.0582 2.04291 32.0793 2.03786 32.1038C2.03286 32.1281 2.02524 32.1436 2.02248 32.1485C2.02032 32.1523 2.02556 32.1418 2.04788 32.1188L0.61359 30.725C0.363367 30.9824 0.160065 31.307 0.079057 31.7C-0.00258704 32.0959 0.0573361 32.4775 0.196594 32.8164L2.04654 32.0564ZM2.04637 32.1204L9.09313 24.9006L7.66187 23.5036L0.615105 30.7234L2.04637 32.1204ZM9.09482 24.8988C9.18228 24.8088 9.27546 24.7617 9.4225 24.7498L9.26189 22.7563C8.64439 22.806 8.09444 23.0583 7.66018 23.5054L9.09482 24.8988ZM9.4225 24.7498C9.51663 24.7422 9.58763 24.7586 9.69018 24.8513L11.0318 23.3681C10.5405 22.9237 9.9323 22.7023 9.26189 22.7563L9.4225 24.7498ZM9.70009 24.8602L15.0825 29.6001L16.4043 28.0991L11.0219 23.3592L9.70009 24.8602ZM16.4592 29.5479L28.636 17.0671L27.2044 15.6705L15.0277 28.1513L16.4592 29.5479ZM27.9202 15.3688H24.6889V17.3688H27.9202V15.3688ZM24.6889 15.3688C24.6784 15.3688 24.6927 15.3675 24.7193 15.3785C24.7316 15.3836 24.7425 15.3897 24.7515 15.3959C24.7603 15.402 24.7647 15.4064 24.7651 15.4068L23.3288 16.7986C23.6967 17.1782 24.1733 17.3688 24.6889 17.3688V15.3688ZM24.7651 15.4068C24.7651 15.4067 24.7681 15.4099 24.7723 15.4164C24.7766 15.423 24.7806 15.4306 24.7837 15.4385C24.7867 15.4462 24.7879 15.4515 24.7881 15.4528C24.7883 15.454 24.7874 15.4496 24.7873 15.4384L22.7874 15.4476C22.7897 15.9504 22.9653 16.4234 23.3288 16.7986L24.7651 15.4068ZM24.7873 15.4384C24.7873 15.4285 24.7881 15.4258 24.7876 15.4287C24.787 15.4319 24.7854 15.4392 24.7815 15.4489C24.7777 15.4586 24.7727 15.468 24.7675 15.476C24.7623 15.4839 24.7584 15.488 24.7579 15.4885L23.3361 14.0818C22.9636 14.4583 22.785 14.9375 22.7874 15.4476L24.7873 15.4384ZM24.7579 15.4885C24.7586 15.4877 24.7554 15.4911 24.7478 15.4962C24.7401 15.5015 24.7302 15.507 24.7189 15.5117C24.694 15.5219 24.6801 15.5209 24.6889 15.5209V13.5209C24.1753 13.5209 23.7032 13.7108 23.3361 14.0818L24.7579 15.4885ZM24.6889 15.5209H29.543V13.5209H24.6889V15.5209ZM29.543 15.5209C29.6978 15.5209 29.7826 15.5626 29.8659 15.648L31.2974 14.2512C30.8229 13.765 30.2153 13.5209 29.543 13.5209V15.5209ZM29.8659 15.648C29.9506 15.7347 30 15.8335 30 16.014H32C32 15.3469 31.7705 14.7361 31.2974 14.2512L29.8659 15.648ZM30 16.014V20.9886H32V16.014H30ZM30 20.9886C30 20.9991 29.9991 21.0026 29.9995 21.0004C30 20.9981 30.0014 20.9917 30.0049 20.9827C30.0085 20.9737 30.0131 20.9649 30.018 20.9574C30.0229 20.9499 30.0266 20.946 30.0271 20.9456L31.4536 22.3473C31.8228 21.9716 32 21.495 32 20.9886H30ZM30.0271 20.9456C30.027 20.9456 30.0307 20.9419 30.0386 20.9365C30.0467 20.931 30.0566 20.9255 30.0676 20.9209C30.0917 20.911 30.1037 20.9125 30.0918 20.9125L30.1014 22.9125C30.6131 22.9101 31.0861 22.7213 31.4536 22.3473L30.0271 20.9456ZM30.0918 20.9125C30.0827 20.9126 30.0988 20.9114 30.127 20.9232C30.14 20.9285 30.1516 20.935 30.161 20.9415C30.1702 20.9479 30.1748 20.9526 30.1752 20.953L28.7341 22.3398C29.1026 22.7228 29.582 22.915 30.1014 22.9125L30.0918 20.9125ZM30.1752 20.953C30.1745 20.9522 30.1771 20.9549 30.1811 20.961C30.1852 20.9673 30.1891 20.9749 30.1923 20.9831C30.1955 20.9912 30.1968 20.997 30.1972 20.9994C30.1976 21.0015 30.1968 20.9983 30.1968 20.9886H28.1968C28.1968 21.4932 28.3735 21.9651 28.7341 22.3398L30.1752 20.953ZM30.1968 20.9886V17.6771H28.1968V20.9886H30.1968ZM28.4811 16.9787L16.0321 29.7367L17.4635 31.1335L29.9126 18.3755L28.4811 16.9787ZM16.0321 29.7367C15.9449 29.8261 15.8512 29.8736 15.7028 29.8855L15.8634 31.8791C16.4795 31.8294 17.029 31.5788 17.4635 31.1335L16.0321 29.7367ZM15.7028 29.8855C15.6087 29.8931 15.5377 29.8768 15.4351 29.784L14.0935 31.2673C14.5848 31.7117 15.193 31.9331 15.8634 31.8791L15.7028 29.8855ZM15.4252 29.7752L10.0428 25.0353L8.72097 26.5362L14.1034 31.2761L15.4252 29.7752ZM8.66605 25.0875L1.89156 32.0319L3.32319 33.4285L10.0977 26.484L8.66605 25.0875ZM1.91456 32.0091C1.9338 31.9906 1.937 31.9948 1.90345 32.0101L2.73068 33.831C2.93034 33.7403 3.12708 33.6176 3.30019 33.4513L1.91456 32.0091ZM1.90345 32.0101C1.90623 32.0088 1.91341 32.006 1.92429 32.0036C1.93526 32.0011 1.94641 32 1.95643 32V34C2.22787 34 2.48875 33.9409 2.73068 33.831L1.90345 32.0101Z" fill="#0F53FF" mask="url(#path-1-inside-1_852_151)"/>
</svg>
