<svg width="81" height="43" viewBox="0 0 81 43" fill="none" xmlns="http://www.w3.org/2000/svg">
<path d="M69.66 0H0V43H81V0H69.66ZM77.76 31.8713C75.9239 32.3756 74.2498 33.3636 72.9053 34.7362C71.5608 36.1088 70.5931 37.8178 70.099 39.6923H10.901C10.4069 37.8178 9.43921 36.1088 8.09471 34.7362C6.75021 33.3636 5.07611 32.3756 3.24 31.8713V11.1287C5.07611 10.6244 6.75021 9.63642 8.09471 8.26383C9.43921 6.89124 10.4069 5.18216 10.901 3.30769H70.1363C70.6745 5.149 71.6532 6.82458 72.9842 8.18331C74.3151 9.54205 75.9564 10.5412 77.76 11.0907V31.8713ZM43.9279 24.8987C43.5553 24.6671 43.74 24.4538 42.12 24.257V29.0482L43.0078 28.8795C44.2098 28.4484 44.8114 27.6484 44.8124 26.4797C44.8124 25.8033 44.516 25.2708 43.9279 24.8987ZM36.6363 17.0809C36.6363 17.8185 36.9641 18.3698 37.6196 18.7348C37.8724 18.8792 38.2919 19.0385 38.8784 19.2127V14.6795C38.4366 14.7779 38.015 14.9542 37.6326 15.2005C36.9684 15.6514 36.6363 16.2783 36.6363 17.0809ZM40.5 4.96154C32.447 4.96154 25.92 12.3675 25.92 21.5C25.92 30.6309 32.447 38.0385 40.5 38.0385C48.553 38.0385 55.08 30.6309 55.08 21.5C55.08 12.3675 48.553 4.96154 40.5 4.96154ZM46.7435 30.8508C45.6435 31.8101 43.74 32.3972 42.12 32.6188V34.7308H38.88V32.5808C37.1887 32.3459 35.7874 32.0846 34.6874 31.1998C33.9854 30.633 33.4159 29.9137 33.0202 29.0941C32.6246 28.2745 32.4127 27.3752 32.4 26.4615H36.4306C36.5618 26.4615 36.8177 27.7863 37.2001 28.2543C37.597 28.7356 38.1607 28.7918 38.88 28.9952V23.3639C36.9085 22.8992 35.5347 22.398 34.7717 21.8589C33.4098 20.9074 32.7289 19.4189 32.7289 17.3935C32.7289 15.5467 33.3952 14.0119 34.7279 12.7892C35.7464 11.8564 37.1304 11.2798 38.88 11.0593V8.26923H42.12V11.1469C43.74 11.3933 44.8351 12.1607 45.846 12.9265C47.3672 14.0792 48.438 14.8846 48.5109 18.1923H44.4512C44.375 16.5385 43.5618 15.824 42.5525 15.3014C42.3992 15.1999 42.2545 15.0854 42.12 14.959V20.1571L43.5812 20.4448C45.1348 20.8186 46.5718 21.3181 47.3461 21.9416C48.5514 22.914 49.018 24.3182 49.018 26.1539C49.0212 28.0393 48.1691 29.6038 46.7435 30.8508Z" fill="#0F53FF"/>
</svg>
