<svg width="42" height="37" viewBox="0 0 42 37" fill="none" xmlns="http://www.w3.org/2000/svg">
<path d="M29.1361 13.166L28.4677 12.5653C28.2092 12.333 27.8867 12.1788 27.5389 12.1231C27.1912 12.0674 26.8348 12.1129 26.5134 12.2535C26.1922 12.394 25.9209 12.6229 25.7313 12.9109C25.5417 13.1987 25.4415 13.5336 25.4415 13.875C25.4415 14.2164 25.5417 14.5513 25.7313 14.8391C25.9209 15.1271 26.1922 15.356 26.5134 15.4965C26.8348 15.6371 27.1912 15.6826 27.5389 15.6269C27.8867 15.5712 28.2092 15.417 28.4677 15.1847L29.1361 14.5841L29.8045 15.1847C30.0216 15.3798 30.2845 15.5203 30.5707 15.5932C30.8569 15.6661 31.157 15.6688 31.4447 15.6012C31.7322 15.5335 31.9978 15.3977 32.2185 15.2066C32.4392 15.0155 32.6084 14.775 32.7125 14.5064C32.8165 14.238 32.8526 13.949 32.8179 13.6642C32.7833 13.3795 32.6788 13.1065 32.5126 12.8692C32.3464 12.6318 32.1234 12.4369 31.8619 12.3025C31.6005 12.168 31.3091 12.0983 31.0132 12.1L29.1361 13.166ZM29.1361 13.166L29.8046 12.5653M29.1361 13.166L29.8046 12.5653M29.8046 12.5653C30.1338 12.2694 30.5642 12.1026 31.0132 12.1L29.8046 12.5653ZM14.9473 3.53073L15.6503 4.24185L14.9472 3.53073C14.4076 4.06431 14.1023 4.79043 14.1023 5.55V18.5C14.1023 19.2596 14.4076 19.9857 14.9472 20.5193C15.4866 21.0525 16.2156 21.35 16.9734 21.35H35.6853C36.4431 21.35 37.1722 21.0525 37.7115 20.5193C38.2511 19.9857 38.5564 19.2596 38.5564 18.5V5.55C38.5564 4.79044 38.2511 4.06431 37.7115 3.53073C37.1722 2.99753 36.4431 2.7 35.6853 2.7H16.9734C16.2156 2.7 15.4866 2.99753 14.9473 3.53073ZM3.87518 23.05H2.87518V24.05V31.45C2.87518 32.2096 3.18047 32.9357 3.72016 33.4693C4.25947 34.0025 4.98852 34.3 5.74636 34.3H24.4582C25.216 34.3 25.9451 34.0025 26.4844 33.4693C27.0241 32.9357 27.3294 32.2096 27.3294 31.45V29.6C27.3294 29.3783 27.4183 29.1633 27.5805 29.003C27.743 28.8423 27.9658 28.75 28.2005 28.75C28.4352 28.75 28.6581 28.8423 28.8206 29.003C28.9827 29.1633 29.0717 29.3783 29.0717 29.6V31.45C29.0717 32.653 28.5884 33.8091 27.7245 34.6633C26.8601 35.5179 25.6854 36 24.4582 36H5.74636C4.51912 36 3.34441 35.5179 2.48005 34.6633C1.61608 33.8091 1.13281 32.653 1.13281 31.45V18.5C1.13281 17.297 1.61608 16.1409 2.48005 15.2867C3.34441 14.4321 4.51912 13.95 5.74636 13.95C5.98106 13.95 6.20389 14.0423 6.36641 14.203C6.52855 14.3633 6.61754 14.5783 6.61754 14.8C6.61754 15.0217 6.52855 15.2367 6.36641 15.397L6.92951 15.9666L6.36641 15.397C6.20389 15.5577 5.98106 15.65 5.74636 15.65C4.98852 15.65 4.25946 15.9475 3.72016 16.4807L4.42323 17.1919L3.72016 16.4807C3.18047 17.0143 2.87518 17.7404 2.87518 18.5V20.35V21.35H3.87518H5.74636C5.98106 21.35 6.20389 21.4423 6.36641 21.603C6.52855 21.7633 6.61754 21.9783 6.61754 22.2C6.61754 22.4217 6.52855 22.6367 6.36641 22.797C6.20388 22.9577 5.98106 23.05 5.74636 23.05H3.87518ZM16.9734 1H35.6853C36.9125 1 38.0872 1.48211 38.9516 2.33668C39.8155 3.19087 40.2988 4.34696 40.2988 5.55V18.5C40.2988 19.703 39.8155 20.8591 38.9516 21.7133C38.0872 22.5679 36.9125 23.05 35.6853 23.05H16.9734C15.7462 23.05 14.5715 22.5679 13.7071 21.7133C12.8432 20.8591 12.3599 19.703 12.3599 18.5V5.55C12.3599 4.34696 12.8432 3.19087 13.7071 2.33668C14.5715 1.48211 15.7462 1 16.9734 1ZM11.3599 28.6H9.48872C9.25402 28.6 9.03119 28.5077 8.86867 28.347C8.70652 28.1867 8.61754 27.9717 8.61754 27.75C8.61754 27.5283 8.70652 27.3133 8.86866 27.153C9.03119 26.9923 9.25402 26.9 9.48872 26.9H11.3599C11.5946 26.9 11.8174 26.9923 11.98 27.153C12.1421 27.3133 12.2311 27.5283 12.2311 27.75C12.2311 27.9717 12.1421 28.1867 11.98 28.347C11.8174 28.5077 11.5946 28.6 11.3599 28.6Z" stroke="#0F53FF" stroke-width="2"/>
</svg>
