<svg width="39" height="38" viewBox="0 0 39 38" fill="none" xmlns="http://www.w3.org/2000/svg">
<path d="M11.2227 36.0778H28.1967M14.7057 1.7998H29.4197M29.4587 1.8098C34.6657 5.1938 37.8947 11.6178 37.8947 18.5898C37.8947 26.0268 34.2247 32.7948 28.4767 35.9578M26.2507 9.4558H35.6867M28.2017 19.2398H37.7217M25.6597 28.8418L35.3277 28.8128M11.7427 13.1888H21.9197M11.8537 13.1828H12.1497M14.7517 1.8538C19.5027 5.3318 22.4847 11.6088 22.4847 18.2738C22.4447 25.3938 19.5077 32.4438 15.4157 35.0548C14.3287 35.7488 13.1057 36.0328 11.9267 36.0808" stroke="#0F53FF" stroke-width="2" stroke-linecap="round" stroke-linejoin="round"/>
<path d="M11.8877 13.1787C16.3467 13.2657 19.1337 23.0737 14.8827 27.0637C14.5267 27.3937 13.9307 27.7337 13.6767 27.8787C12.9517 28.2927 12.3517 28.3307 11.7857 28.3887C10.9447 28.4757 10.2137 28.1687 9.77774 27.9587C9.34174 27.7487 8.50674 27.1527 7.99374 26.4437C6.68174 24.6317 6.41574 21.4017 10.0727 19.5607" stroke="#0F53FF" stroke-width="2" stroke-linecap="round" stroke-linejoin="round"/>
<path d="M11.269 36.0796C5.369 35.7836 1 30.7326 1 24.6246C1 18.9986 4.342 14.1986 9.608 13.2576C9.791 13.2256 9.533 13.2546 9.842 13.2156C10.295 13.1616 11.414 13.1976 11.691 13.1836" stroke="#0F53FF" stroke-width="2" stroke-linecap="round" stroke-linejoin="round"/>
</svg>
