<svg width="61" height="60" viewBox="0 0 61 60" fill="none" xmlns="http://www.w3.org/2000/svg">
<g clip-path="url(#clip0_391_267)">
<g clip-path="url(#clip1_391_267)">
<mask id="mask0_391_267" style="mask-type:luminance" maskUnits="userSpaceOnUse" x="1" y="0" width="60" height="60">
<path d="M60.6122 0.890137H1.70312V59.7992H60.6122V0.890137Z" fill="white"/>
</mask>
<g mask="url(#mask0_391_267)">
<path d="M55.3431 45.5976H6.96884C5.52377 45.5976 4.34766 44.4215 4.34766 42.9763V16.0246C4.34766 14.5794 5.52377 13.4033 6.96884 13.4033H12.278C12.7871 13.4033 13.1989 13.8151 13.1989 14.3242C13.1989 14.8332 12.7871 15.245 12.278 15.245H6.96884C6.53881 15.245 6.18932 15.5945 6.18932 16.0246V42.9763C6.18932 43.4064 6.53881 43.7559 6.96884 43.7559H55.3431C55.7731 43.7559 56.1225 43.4064 56.1225 42.9763V16.0246C56.1225 15.5945 55.7731 15.245 55.3431 15.245H50.0354C49.5262 15.245 49.1145 14.8332 49.1145 14.3242C49.1145 13.8151 49.5262 13.4033 50.0354 13.4033H55.3431C56.7881 13.4033 57.9642 14.5794 57.9642 16.0246V42.9763C57.9642 44.4215 56.7881 45.5976 55.3431 45.5976Z" fill="black"/>
<path d="M27.8193 50.6394C27.3103 50.6394 26.8984 50.2276 26.8984 49.7186V44.6767C26.8984 44.1677 27.3103 43.7559 27.8193 43.7559C28.3283 43.7559 28.7401 44.1677 28.7401 44.6767V49.7186C28.7401 50.2276 28.3283 50.6394 27.8193 50.6394ZM34.4915 50.6394C33.9825 50.6394 33.5707 50.2276 33.5707 49.7186V44.6767C33.5707 44.1677 33.9825 43.7559 34.4915 43.7559C35.0006 43.7559 35.4123 44.1677 35.4123 44.6767V49.7186C35.4123 50.2276 35.0006 50.6394 34.4915 50.6394Z" fill="black"/>
<path d="M41.6915 55.9835H20.6203C20.1113 55.9835 19.6995 55.5717 19.6995 55.0627V53.1101C19.6995 50.7335 21.6338 48.7992 24.0103 48.7992H38.3015C40.6781 48.7992 42.6124 50.7335 42.6124 53.1101V55.0627C42.6124 55.5702 42.2007 55.9835 41.6915 55.9835ZM40.7722 54.1418V53.1085C40.7722 51.7471 39.6645 50.6394 38.3031 50.6394H24.0118C22.6504 50.6394 21.5427 51.7471 21.5427 53.1085V54.1418C21.8815 54.1418 40.4349 54.1418 40.7722 54.1418ZM57.0434 39.4709H5.26849C4.75944 39.4709 4.34766 39.059 4.34766 38.55C4.34766 38.0409 4.75944 37.6292 5.26849 37.6292H57.0434C57.5524 37.6292 57.9642 38.0409 57.9642 38.55C57.9642 39.059 57.5524 39.4709 57.0434 39.4709ZM53.3357 42.5341H51.5017C50.9926 42.5341 50.5808 42.1224 50.5808 41.6133C50.5808 41.1043 50.9926 40.6926 51.5017 40.6926H53.3357C53.8448 40.6926 54.2565 41.1043 54.2565 41.6133C54.2565 42.1224 53.8448 42.5341 53.3357 42.5341ZM47.0661 42.5341H45.2321C44.7231 42.5341 44.3113 42.1224 44.3113 41.6133C44.3113 41.1043 44.7231 40.6926 45.2321 40.6926H47.0661C47.5753 40.6926 47.987 41.1043 47.987 41.6133C47.987 42.1224 47.5753 42.5341 47.0661 42.5341ZM40.7966 42.5341H38.9625C38.4535 42.5341 38.0417 42.1224 38.0417 41.6133C38.0417 41.1043 38.4535 40.6926 38.9625 40.6926H40.7966C41.3056 40.6926 41.7174 41.1043 41.7174 41.6133C41.7174 42.1224 41.3056 42.5341 40.7966 42.5341ZM50.0354 33.5417H12.278C11.769 33.5417 11.3572 33.1298 11.3572 32.6208V3.32123C11.3572 2.81219 11.769 2.40039 12.278 2.40039H50.0354C50.5444 2.40039 50.9562 2.81219 50.9562 3.32123V32.6208C50.9562 33.1298 50.5444 33.5417 50.0354 33.5417ZM13.1974 31.7H49.1145V4.24206H13.1974V31.7Z" fill="black"/>
<path d="M24.4115 29.1517C24.0438 28.8008 24.0301 28.2188 24.3811 27.8511L25.6074 26.5655L24.3811 25.28C24.0301 24.9123 24.0438 24.3288 24.4115 23.9793C24.7792 23.6283 25.3627 23.642 25.7122 24.0097L27.5432 25.9304C27.8821 26.2859 27.8821 26.8451 27.5432 27.2008L25.7122 29.1214C25.3627 29.4892 24.7808 29.5028 24.4115 29.1517ZM16.9718 29.1214L15.1408 27.2008C14.802 26.8451 14.802 26.2859 15.1408 25.9304L16.9718 24.0097C17.3229 23.642 17.9049 23.6283 18.2726 23.9793C18.6403 24.3304 18.654 24.9123 18.303 25.28L17.0767 26.5655L18.303 27.8511C18.654 28.2188 18.6403 28.8023 18.2726 29.1517C17.9064 29.5028 17.3229 29.4907 16.9718 29.1214ZM20.2328 29.7732C19.7526 29.6076 19.4973 29.0835 19.6645 28.6017L21.2812 23.9276C21.4468 23.4475 21.9711 23.1922 22.4528 23.3593C22.933 23.5249 23.1883 24.0492 23.0211 24.5309L21.4043 29.205C21.2387 29.6837 20.7144 29.9389 20.2328 29.7732ZM44.0423 29.1517C43.6746 28.8008 43.6609 28.2188 44.0119 27.8511L45.2382 26.5655L44.0119 25.28C43.6609 24.9123 43.6746 24.3288 44.0423 23.9793C44.41 23.6283 44.9935 23.642 45.343 24.0097L47.174 25.9304C47.5129 26.2859 47.5129 26.8451 47.174 27.2008L45.3445 29.1214C44.9935 29.4892 44.41 29.5028 44.0423 29.1517ZM36.6026 29.1214L34.7716 27.2008C34.4328 26.8451 34.4328 26.2859 34.7716 25.9304L36.6026 24.0097C36.9537 23.642 37.5357 23.6283 37.9033 23.9793C38.2711 24.3304 38.2848 24.9123 37.9338 25.28L36.7075 26.5655L37.9338 27.8511C38.2848 28.2188 38.2711 28.8023 37.9033 29.1517C37.5372 29.5028 36.9537 29.4907 36.6026 29.1214ZM40.1644 29.8234C39.5353 29.8234 39.0871 29.2019 39.2952 28.6017L40.912 23.9276C41.0776 23.4475 41.6019 23.1922 42.0836 23.3593C42.5638 23.5249 42.8191 24.0492 42.6519 24.5309L41.0351 29.205C40.9029 29.5848 40.5458 29.8234 40.1644 29.8234Z" fill="black"/>
<path d="M46.2397 8.73376H16.0771C15.5681 8.73376 15.1562 8.32197 15.1562 7.81293C15.1562 7.30389 15.5681 6.89209 16.0771 6.89209H46.2397C46.7489 6.89209 47.1606 7.30389 47.1606 7.81293C47.1606 8.32197 46.7489 8.73376 46.2397 8.73376ZM46.2397 13.812H16.0771C15.5681 13.812 15.1562 13.4003 15.1562 12.8911C15.1562 12.3821 15.5681 11.9703 16.0771 11.9703H46.2397C46.7489 11.9703 47.1606 12.3821 47.1606 12.8911C47.1606 13.4003 46.7489 13.812 46.2397 13.812ZM46.2397 18.8918H16.0771C15.5681 18.8918 15.1562 18.48 15.1562 17.971C15.1562 17.4619 15.5681 17.0501 16.0771 17.0501H46.2397C46.7489 17.0501 47.1606 17.4619 47.1606 17.971C47.1606 18.48 46.7489 18.8918 46.2397 18.8918Z" fill="black"/>
</g>
</g>
</g>
<defs>
<clipPath id="clip0_391_267">
<rect width="60" height="60" fill="white" transform="translate(0.976562)"/>
</clipPath>
<clipPath id="clip1_391_267">
<rect width="60" height="60" fill="white" transform="translate(0.976562)"/>
</clipPath>
</defs>
</svg>
