<svg width="59" height="54" viewBox="0 0 59 54" fill="none" xmlns="http://www.w3.org/2000/svg">
<path d="M56.3182 26H55.3182V27V48.6C55.3182 49.7691 54.8568 50.889 54.0377 51.7137C53.2188 52.5381 52.1097 53 50.9545 53H8.04545C6.89034 53 5.78115 52.5381 4.96228 51.7137C4.14319 50.889 3.68182 49.7691 3.68182 48.6V27V26H2.68182C2.23796 26 1.81091 25.8225 1.49498 25.5045C1.17882 25.1862 1 24.753 1 24.3V16.2C1 15.0309 1.46137 13.911 2.28046 13.0863C3.09933 12.2619 4.20852 11.8 5.36364 11.8H13.865H15.2737L14.809 10.4701C14.5432 9.7093 14.4079 8.90828 14.4091 8.10147V8.1C14.4091 6.21479 15.153 4.40815 16.475 3.07715C17.7969 1.74638 19.5882 1 21.4545 1C23.7906 1 25.8629 2.17562 27.1668 3.94193L28.9714 6.38629V6.36914L29.5 7.08811L30.0286 6.36914V6.38629L31.8332 3.94193C33.1371 2.17562 35.2094 1 37.5455 1C39.4118 1 41.2032 1.74638 42.525 3.07715C43.847 4.40815 44.5909 6.21479 44.5909 8.1L44.5909 8.10147C44.5921 8.90828 44.4568 9.7093 44.191 10.4701L43.7263 11.8H45.135H53.6364C54.7915 11.8 55.9007 12.2619 56.7195 13.0863C57.5386 13.911 58 15.0309 58 16.2V24.3C58 24.753 57.8212 25.1862 57.505 25.5045C57.1891 25.8225 56.762 26 56.3182 26ZM7.04545 48.6V49.6H8.04545H26.8182H27.8182V48.6V27V26H26.8182H8.04545H7.04545V27V48.6ZM50.9545 49.6H51.9545V48.6V27V26H50.9545H32.1818H31.1818V27V48.6V49.6H32.1818H50.9545ZM5.36364 15.2H4.36364V16.2V21.6V22.6H5.36364H26.8182H27.8182V21.6V16.2V15.2H26.8182H5.36364ZM32.1818 15.2H31.1818V16.2V21.6V22.6H32.1818H53.6364H54.6364V21.6V16.2V15.2H53.6364H32.1818ZM21.4545 4.4C20.4759 4.4 19.5387 4.79147 18.8487 5.4861C18.159 6.18049 17.7727 7.12087 17.7727 8.1C17.7727 9.07913 18.159 10.0195 18.8487 10.7139C19.5387 11.4085 20.4759 11.8 21.4545 11.8C22.4332 11.8 23.3704 11.4085 24.0604 10.7139C24.7501 10.0195 25.1364 9.07913 25.1364 8.1C25.1364 7.12087 24.7501 6.18049 24.0604 5.4861C23.3704 4.79147 22.4332 4.4 21.4545 4.4ZM37.5455 4.4C36.5668 4.4 35.6296 4.79147 34.9396 5.4861C34.2499 6.18049 33.8636 7.12087 33.8636 8.1C33.8636 9.07913 34.2499 10.0195 34.9396 10.7139C35.6296 11.4085 36.5668 11.8 37.5455 11.8C38.5241 11.8 39.4613 11.4085 40.1513 10.7139C40.841 10.0195 41.2273 9.07913 41.2273 8.1C41.2273 7.12087 40.841 6.18049 40.1513 5.4861C39.4613 4.79147 38.5241 4.4 37.5455 4.4Z" stroke="#0F53FF" stroke-width="2"/>
</svg>
