<svg width="22" height="19" viewBox="0 0 22 19" fill="none" xmlns="http://www.w3.org/2000/svg">
<path d="M13 16C13 16 14 16 15 18C15 18 18.177 13 21 12M4.5 9H4.491M10 17H9.5C5.741 17 3.862 17 2.607 16.01C2.40756 15.852 2.2222 15.677 2.053 15.487C1 14.307 1 12.537 1 9C1 5.463 1 3.694 2.053 2.513C2.22167 2.32367 2.40633 2.14967 2.607 1.991C3.862 1 5.741 1 9.5 1H12.5C16.259 1 18.138 1 19.392 1.99C19.5933 2.15 19.7783 2.32433 19.947 2.513C20.896 3.577 20.99 5.118 21 8V8.5" stroke="#0F53FF" stroke-width="1.5" stroke-linecap="round" stroke-linejoin="round"/>
<path d="M13.5 9C13.5 9.66304 13.2366 10.2989 12.7678 10.7678C12.2989 11.2366 11.663 11.5 11 11.5C10.337 11.5 9.70107 11.2366 9.23223 10.7678C8.76339 10.2989 8.5 9.66304 8.5 9C8.5 8.33696 8.76339 7.70107 9.23223 7.23223C9.70107 6.76339 10.337 6.5 11 6.5C11.663 6.5 12.2989 6.76339 12.7678 7.23223C13.2366 7.70107 13.5 8.33696 13.5 9Z" stroke="#0F53FF" stroke-width="1.5" stroke-linecap="round" stroke-linejoin="round"/>
</svg>
