<svg width="29" height="30" viewBox="0 0 29 30" fill="none" xmlns="http://www.w3.org/2000/svg">
<path d="M12.8848 12.8952V7.25342H16.1086V12.8952H21.7504V16.1191H16.1086L16.1078 21.7608H12.884V16.1191H7.24219V12.8952H12.8848Z" fill="#0F53FF"/>
<path fill-rule="evenodd" clip-rule="evenodd" d="M6.29031 24.9773C8.26332 26.7593 10.4249 28.231 12.8654 29.3916C14.1727 30.0122 15.7234 29.9558 16.9766 29.2409C19.0907 28.0351 20.9307 26.5836 22.7095 24.9773C26.4806 21.5713 28.6785 16.8846 28.8227 11.9416L28.9912 6.17811C29.0105 5.50754 28.992 4.0294 28.992 4.0294C28.1452 3.89587 27.2955 3.7814 26.4435 3.68605C23.808 3.37012 21.1838 3.05659 18.8811 1.64857L17.2394 0.645139C16.5421 0.223108 15.7425 0 14.9275 0C14.1124 0 13.3129 0.223108 12.6155 0.645139L11.0431 1.60666C8.41 3.21537 5.20145 3.52003 2.09605 3.81501C1.39244 3.8819 0.693669 3.9488 0.00859699 4.0294C0.00859699 4.0294 -0.0107462 5.51641 0.00859699 6.19664L0.177044 11.9416C0.321312 16.8846 2.51919 21.5713 6.29031 24.9773ZM1.61247 5.48094C1.61247 5.73885 1.61489 5.97661 1.62053 6.1499L1.78817 11.8948C1.91955 16.3841 3.91593 20.6605 7.3703 23.7812C9.2337 25.4633 11.2655 26.8455 13.5577 27.9352C13.9705 28.1296 14.4237 28.2225 14.8797 28.2061C15.3356 28.1897 15.781 28.0644 16.1787 27.8409C18.1574 26.7125 19.9015 25.3416 21.6295 23.7812C25.0839 20.6605 27.0802 16.3849 27.2116 11.8948L27.3801 6.13136C27.3849 5.95082 27.3881 5.69694 27.3881 5.42614C27.0109 5.37832 26.6268 5.33103 26.2356 5.28429L26.1921 5.27945C25.2968 5.17892 24.404 5.05664 23.5146 4.91274C21.7061 4.60647 19.8136 4.10758 18.0405 3.02436L16.3988 2.02012C15.9546 1.75277 15.4459 1.6115 14.9275 1.6115C14.409 1.6115 13.9004 1.75277 13.4562 2.02012L11.8837 2.98164C10.0139 4.12369 7.9506 4.66531 5.96228 4.98527C4.72915 5.18354 3.40091 5.31008 2.15731 5.42936L1.61247 5.48094Z" fill="#0F53FF"/>
</svg>
