<svg width="34" height="17" viewBox="0 0 34 17" fill="none" xmlns="http://www.w3.org/2000/svg">
<path d="M31.5714 0H24.2857V17H26.7143V12.1429H31.5714C32.2152 12.1419 32.8324 11.8857 33.2876 11.4305C33.7429 10.9752 33.999 10.3581 34 9.71429V2.42857C34 1.78447 33.7441 1.16676 33.2887 0.711313C32.8332 0.255867 32.2155 0 31.5714 0ZM26.7143 9.71429V2.42857H31.5714V9.71429H26.7143ZM19.4286 0H12.1429V17H14.5714V12.1429H19.4286C20.0724 12.1419 20.6895 11.8857 21.1448 11.4305C21.6 10.9752 21.8562 10.3581 21.8571 9.71429V2.42857C21.8571 1.78447 21.6013 1.16676 21.1458 0.711313C20.6904 0.255867 20.0727 0 19.4286 0ZM14.5714 9.71429V2.42857H19.4286V9.71429H14.5714ZM7.28571 0H1.21429V2.42857H7.28571V4.85714H2.42857C1.78447 4.85714 1.16676 5.11301 0.711312 5.56846C0.255866 6.0239 0 6.64162 0 7.28571V9.71429C0 10.3584 0.255866 10.9761 0.711312 11.4315C1.16676 11.887 1.78447 12.1429 2.42857 12.1429H9.71429V2.42857C9.71429 1.78447 9.45842 1.16676 9.00297 0.711313C8.54753 0.255867 7.92981 0 7.28571 0ZM7.28571 9.71429H2.42857V7.28571H7.28571V9.71429Z" fill="#0F53FF"/>
</svg>
