<svg width="68" height="68" viewBox="0 0 68 68" fill="none" xmlns="http://www.w3.org/2000/svg">
<path d="M24.7 3H6.1C5.27783 3 4.48933 3.32661 3.90797 3.90797C3.32661 4.48933 3 5.27783 3 6.1V24.7C3 25.5222 3.32661 26.3107 3.90797 26.892C4.48933 27.4734 5.27783 27.8 6.1 27.8H24.7C25.5222 27.8 26.3107 27.4734 26.892 26.892C27.4734 26.3107 27.8 25.5222 27.8 24.7V6.1C27.8 5.27783 27.4734 4.48933 26.892 3.90797C26.3107 3.32661 25.5222 3 24.7 3ZM24.7 40.2H6.1C5.27783 40.2 4.48933 40.5266 3.90797 41.108C3.32661 41.6893 3 42.4778 3 43.3V61.9C3 62.7222 3.32661 63.5107 3.90797 64.092C4.48933 64.6734 5.27783 65 6.1 65H24.7C25.5222 65 26.3107 64.6734 26.892 64.092C27.4734 63.5107 27.8 62.7222 27.8 61.9V43.3C27.8 42.4778 27.4734 41.6893 26.892 41.108C26.3107 40.5266 25.5222 40.2 24.7 40.2ZM61.9 3H43.3C42.4778 3 41.6893 3.32661 41.108 3.90797C40.5266 4.48933 40.2 5.27783 40.2 6.1V24.7C40.2 25.5222 40.5266 26.3107 41.108 26.892C41.6893 27.4734 42.4778 27.8 43.3 27.8H61.9C62.7222 27.8 63.5107 27.4734 64.092 26.892C64.6734 26.3107 65 25.5222 65 24.7V6.1C65 5.27783 64.6734 4.48933 64.092 3.90797C63.5107 3.32661 62.7222 3 61.9 3Z" stroke="#0F53FF" stroke-width="6" stroke-linejoin="round"/>
<path d="M40.1992 40.1997H64.9992M52.5992 52.5997H64.9992M40.1992 64.9997H64.9992" stroke="#0F53FF" stroke-width="6" stroke-linecap="round" stroke-linejoin="round"/>
</svg>
