<svg width="28" height="28" viewBox="0 0 28 28" fill="none" xmlns="http://www.w3.org/2000/svg">
<path d="M2 0H0V26C0 26.5304 0.210714 27.0391 0.585786 27.4142C0.960859 27.7893 1.46957 28 2 28H28V26H2V0Z" fill="#0F53FF"/>
<path d="M28 7H21V9H24.59L17 16.59L12.71 12.29C12.617 12.1963 12.5064 12.1219 12.3846 12.0711C12.2627 12.0203 12.132 11.9942 12 11.9942C11.868 11.9942 11.7373 12.0203 11.6154 12.0711C11.4936 12.1219 11.383 12.1963 11.29 12.29L4 19.59L5.41 21L12 14.41L16.29 18.71C16.383 18.8037 16.4936 18.8781 16.6154 18.9289C16.7373 18.9797 16.868 19.0058 17 19.0058C17.132 19.0058 17.2627 18.9797 17.3846 18.9289C17.5064 18.8781 17.617 18.8037 17.71 18.71L26 10.41V14H28V7Z" fill="#0F53FF"/>
</svg>
