<svg width="31" height="27" viewBox="0 0 31 27" fill="none" xmlns="http://www.w3.org/2000/svg">
<path d="M28.7857 5.02326H3.47959C3.06012 5.02326 2.65782 4.85787 2.36121 4.56348C2.06459 4.26909 1.89796 3.86982 1.89796 3.45349C1.89796 3.03716 2.06459 2.63788 2.36121 2.3435C2.65782 2.04911 3.06012 1.88372 3.47959 1.88372H24.9898C25.2415 1.88372 25.4829 1.78449 25.6608 1.60786C25.8388 1.43122 25.9388 1.19166 25.9388 0.94186C25.9388 0.692064 25.8388 0.452498 25.6608 0.275864C25.4829 0.0992313 25.2415 0 24.9898 0H3.47959C2.55675 0 1.6717 0.363848 1.01915 1.0115C0.366599 1.65916 0 2.53757 0 3.45349V23.5465C0 24.4624 0.366599 25.3408 1.01915 25.9885C1.6717 26.6362 2.55675 27 3.47959 27H28.7857C29.373 27 29.9362 26.7685 30.3514 26.3563C30.7667 25.9442 31 25.3852 31 24.8023V7.22093C31 6.63807 30.7667 6.07908 30.3514 5.66694C29.9362 5.2548 29.373 5.02326 28.7857 5.02326ZM29.102 24.8023C29.102 24.8856 29.0687 24.9654 29.0094 25.0243C28.9501 25.0832 28.8696 25.1163 28.7857 25.1163H3.47959C3.06012 25.1163 2.65782 24.9509 2.36121 24.6565C2.06459 24.3621 1.89796 23.9628 1.89796 23.5465V6.52866C2.3873 6.77795 2.92955 6.90765 3.47959 6.90698H28.7857C28.8696 6.90698 28.9501 6.94005 29.0094 6.99893C29.0687 7.05781 29.102 7.13766 29.102 7.22093V24.8023ZM24.6735 15.3837C24.6735 15.6942 24.5807 15.9977 24.4069 16.2558C24.2331 16.514 23.9861 16.7152 23.6971 16.834C23.4081 16.9528 23.0901 16.9839 22.7833 16.9233C22.4765 16.8628 22.1946 16.7133 21.9735 16.4937C21.7523 16.2742 21.6016 15.9945 21.5406 15.69C21.4796 15.3855 21.5109 15.0698 21.6306 14.783C21.7503 14.4962 21.953 14.251 22.2131 14.0785C22.4732 13.906 22.779 13.814 23.0918 13.814C23.5113 13.814 23.9136 13.9793 24.2102 14.2737C24.5068 14.5681 24.6735 14.9674 24.6735 15.3837Z" fill="#0F53FF"/>
</svg>
