<svg width="32" height="32" viewBox="0 0 32 32" fill="none" xmlns="http://www.w3.org/2000/svg">
<path d="M23.586 21.414L27.166 25L23.584 28.587L25 30L30 25L25 20L23.586 21.414ZM20.414 21.414L16.834 25L20.416 28.587L19 30L14 25L19 20L20.414 21.414ZM22 6H24V14H22V6ZM18 6H20V14H18V6ZM14 14H12C10.897 14 10 13.103 10 12V8C10 6.897 10.897 6 12 6H14C15.103 6 16 6.897 16 8V12C16 13.103 15.103 14 14 14ZM12 8V12H14V8H12ZM6 6H8V14H6V6Z" fill="#474545"/>
<path d="M10 28H4C2.897 28 2 27.103 2 26V4C2 2.897 2.897 2 4 2H26C27.103 2 28 2.897 28 4V16H26V4H4V26H10V28Z" fill="#504D4D"/>
</svg>
