<svg width="37" height="45" viewBox="0 0 37 45" fill="none" xmlns="http://www.w3.org/2000/svg">
<path d="M4.93333 2.64706H24.6667C25.3209 2.64706 25.9483 2.92594 26.4109 3.42236C26.8735 3.91878 27.1333 4.59207 27.1333 5.29412V18.5876C27.9819 18.6706 28.8041 18.8338 29.6 19.0774V5.29412C29.6 3.89003 29.0802 2.54345 28.1551 1.55061C27.2299 0.557771 25.9751 0 24.6667 0H4.93333C3.62493 0 2.37012 0.557771 1.44494 1.55061C0.51976 2.54345 0 3.89003 0 5.29412V37.0588C0 38.4629 0.51976 39.8095 1.44494 40.8023C2.37012 41.7952 3.62493 42.3529 4.93333 42.3529H15.4339C14.8056 41.5365 14.2622 40.6489 13.8133 39.7059H4.93333C4.27913 39.7059 3.65173 39.427 3.18914 38.9306C2.72655 38.4342 2.46667 37.7609 2.46667 37.0588H12.8439C12.616 36.1935 12.4632 35.3073 12.3876 34.4118H2.46667V5.29412C2.46667 4.59207 2.72655 3.91878 3.18914 3.42236C3.65173 2.92594 4.27913 2.64706 4.93333 2.64706ZM7.4 5.29412C6.7458 5.29412 6.11839 5.573 5.6558 6.06942C5.19321 6.56584 4.93333 7.23913 4.93333 7.94118V10.5882C4.93333 11.2903 5.19321 11.9636 5.6558 12.46C6.11839 12.9564 6.7458 13.2353 7.4 13.2353H22.2C22.8542 13.2353 23.4816 12.9564 23.9442 12.46C24.4068 11.9636 24.6667 11.2903 24.6667 10.5882V7.94118C24.6667 7.23913 24.4068 6.56584 23.9442 6.06942C23.4816 5.573 22.8542 5.29412 22.2 5.29412H7.4ZM22.2 7.94118V10.5882H7.4V7.94118H22.2ZM37 33.0882C37 36.2474 35.8305 39.2772 33.7489 41.5111C31.6672 43.745 28.8439 45 25.9 45C22.9561 45 20.1328 43.745 18.0511 41.5111C15.9695 39.2772 14.8 36.2474 14.8 33.0882C14.8 29.929 15.9695 26.8992 18.0511 24.6653C20.1328 22.4315 22.9561 21.1765 25.9 21.1765C28.8439 21.1765 31.6672 22.4315 33.7489 24.6653C35.8305 26.8992 37 29.929 37 33.0882ZM24.716 27.8841C24.5562 27.7657 24.3704 27.6944 24.1769 27.6772C23.9834 27.66 23.7891 27.6976 23.6134 27.7862C23.4702 27.8545 23.3404 27.9516 23.2311 28.0721C23.1162 28.1964 23.0254 28.3439 22.964 28.5061C22.9026 28.6683 22.8718 28.842 22.8734 29.0171V37.1568C22.8715 37.3323 22.9021 37.5065 22.9635 37.6691C23.0249 37.8318 23.1159 37.9798 23.2311 38.1044C23.3448 38.2231 23.4755 38.3214 23.6183 38.3956C23.8686 38.5186 24.1526 38.5375 24.4151 38.4485C24.5291 38.4091 24.6371 38.352 24.7357 38.2791L30.3992 34.1312C30.5714 34.0092 30.7102 33.8402 30.8013 33.6415C30.8942 33.441 30.942 33.2199 30.9407 32.996C30.9394 32.772 30.8891 32.5516 30.7939 32.3524C30.6963 32.1573 30.5546 31.9917 30.3819 31.8706L24.716 27.8841Z" fill="#0F53FF"/>
</svg>
