<svg width="24" height="24" viewBox="0 0 24 24" fill="none" xmlns="http://www.w3.org/2000/svg">
<path d="M20.27 16.265L20.975 12.185C21.0163 11.9458 21.005 11.7005 20.9416 11.4663C20.8783 11.232 20.7646 11.0144 20.6084 10.8286C20.4522 10.6429 20.2573 10.4935 20.0373 10.391C19.8174 10.2884 19.5777 10.2352 19.335 10.235L14.154 10.235C14.0331 10.235 13.9136 10.2087 13.8039 10.1579C13.6941 10.1071 13.5968 10.033 13.5186 9.94082C13.4403 9.84861 13.3831 9.74049 13.3509 9.62395C13.3187 9.50741 13.3122 9.38525 13.332 9.26596L13.995 5.22096C14.1021 4.56416 14.0714 3.89227 13.905 3.24796C13.8331 2.98196 13.6954 2.73836 13.5046 2.53964C13.3137 2.34092 13.0758 2.19349 12.813 2.11096L12.668 2.06396C12.3401 1.95906 11.9845 1.98338 11.674 2.13196C11.334 2.29596 11.086 2.59496 10.994 2.94996L10.518 4.78396C10.3667 5.36767 10.1465 5.9313 9.86197 6.46296C9.44697 7.23996 8.80497 7.86296 8.13697 8.43796L6.69797 9.67796C6.49834 9.85047 6.34243 10.0678 6.243 10.3122C6.14358 10.5566 6.10347 10.8211 6.12597 11.084L6.93797 20.477C6.97376 20.8924 7.16402 21.2793 7.47116 21.5612C7.77831 21.8432 8.18002 21.9997 8.59697 22L13.245 22C16.727 22 19.698 19.574 20.27 16.265Z" fill="#9E9E9E"/>
<path fill-rule="evenodd" clip-rule="evenodd" d="M2.96797 9.48509C3.16123 9.47664 3.35028 9.54319 3.49563 9.67084C3.64098 9.79849 3.73139 9.97736 3.74797 10.1701L4.71797 21.4061C4.7344 21.5734 4.71655 21.7423 4.66551 21.9025C4.61447 22.0627 4.53131 22.2108 4.42111 22.3378C4.31091 22.4648 4.17599 22.5679 4.02458 22.641C3.87316 22.7141 3.70844 22.7555 3.54047 22.7628C3.3725 22.7701 3.20481 22.7431 3.04765 22.6834C2.89048 22.6237 2.74713 22.5326 2.62635 22.4156C2.50557 22.2986 2.40991 22.1583 2.3452 22.0031C2.28048 21.8479 2.24808 21.6812 2.24997 21.5131L2.24997 10.2341C2.25005 10.0408 2.32478 9.85495 2.45856 9.7154C2.59233 9.57585 2.77483 9.49334 2.96797 9.48509Z" fill="#9E9E9E"/>
</svg>
