<svg width="49" height="49" viewBox="0 0 49 49" fill="none" xmlns="http://www.w3.org/2000/svg">
<path d="M13.25 41.375C13.25 42.8668 12.6574 44.2976 11.6025 45.3525C10.5476 46.4074 9.11684 47 7.625 47C6.13316 47 4.70242 46.4074 3.64752 45.3525C2.59263 44.2976 2 42.8668 2 41.375C2 39.8832 2.59263 38.4524 3.64752 37.3975C4.70242 36.3426 6.13316 35.75 7.625 35.75C9.11684 35.75 10.5476 36.3426 11.6025 37.3975C12.6574 38.4524 13.25 39.8832 13.25 41.375ZM47 41.375C47 42.8668 46.4074 44.2976 45.3525 45.3525C44.2976 46.4074 42.8668 47 41.375 47C39.8832 47 38.4524 46.4074 37.3975 45.3525C36.3426 44.2976 35.75 42.8668 35.75 41.375C35.75 39.8832 36.3426 38.4524 37.3975 37.3975C38.4524 36.3426 39.8832 35.75 41.375 35.75C42.8668 35.75 44.2976 36.3426 45.3525 37.3975C46.4074 38.4524 47 39.8832 47 41.375Z" stroke="#0F53FF" stroke-width="3" stroke-linecap="round" stroke-linejoin="round"/>
<path d="M41.375 35.75C40.997 30.2307 38.8888 29 31.7608 29H17.2392C10.1112 29 8.003 30.2307 7.625 35.75M24.5 12.125L26.75 8.75M34.625 12.125C34.625 14.8103 33.5583 17.3856 31.6595 19.2845C29.7606 21.1833 27.1853 22.25 24.5 22.25C21.8147 22.25 19.2394 21.1833 17.3405 19.2845C15.4417 17.3856 14.375 14.8103 14.375 12.125C14.375 9.43968 15.4417 6.86435 17.3405 4.96554C19.2394 3.06674 21.8147 2 24.5 2C27.1853 2 29.7606 3.06674 31.6595 4.96554C33.5583 6.86435 34.625 9.43968 34.625 12.125Z" stroke="#0F53FF" stroke-width="3" stroke-linecap="round" stroke-linejoin="round"/>
</svg>
