<svg width="55" height="49" viewBox="0 0 55 49" fill="none" xmlns="http://www.w3.org/2000/svg">
<path d="M21.3889 32.3921L38.4297 21.4375L21.3889 10.4829V32.3921ZM18.3333 49V42.875H4.93778C3.53019 42.875 2.35583 42.4034 1.41472 41.4601C0.473611 40.5169 0.00203704 39.3388 0 37.926V4.949C0 3.53821 0.471574 2.36119 1.41472 1.41794C2.35787 0.474687 3.5312 0.00204167 4.93472 0H50.0653C51.4708 0 52.6442 0.472645 53.5853 1.41794C54.5264 2.36323 54.998 3.54025 55 4.949V37.9291C55 39.3378 54.5284 40.5148 53.5853 41.4601C52.6421 42.4054 51.4688 42.877 50.0653 42.875H36.6667V49H18.3333ZM4.93778 39.8125H50.0653C50.5338 39.8125 50.9646 39.6165 51.3578 39.2245C51.7509 38.8325 51.9465 38.3997 51.9444 37.926V4.949C51.9444 4.47738 51.7489 4.04454 51.3578 3.6505C50.9667 3.25646 50.5358 3.06046 50.0653 3.0625H4.93472C4.4662 3.0625 4.03537 3.2585 3.64222 3.6505C3.24907 4.0425 3.05352 4.47533 3.05556 4.949V37.9291C3.05556 38.3986 3.25111 38.8305 3.64222 39.2245C4.03333 39.6185 4.46417 39.8145 4.93472 39.8125" fill="#0F53FF"/>
</svg>
