<svg width="55" height="70" viewBox="0 0 55 70" fill="none" xmlns="http://www.w3.org/2000/svg">
<mask id="path-1-inside-1_635_187" fill="white">
<path fill-rule="evenodd" clip-rule="evenodd" d="M28.3491 65.053C32.3026 61.474 35.9615 57.584 39.2906 53.4204C46.3031 44.6307 50.5691 35.9645 50.8578 28.2586C50.9721 25.1268 50.4524 22.0042 49.33 19.0772C48.2075 16.1503 46.5052 13.4791 44.3248 11.2231C42.1444 8.96723 39.5306 7.1729 36.6396 5.94734C33.7485 4.72178 30.6395 4.09014 27.4983 4.09014C24.3571 4.09014 21.2481 4.72178 18.357 5.94734C15.4659 7.1729 12.8521 8.96723 10.6717 11.2231C8.49133 13.4791 6.78905 16.1503 5.66658 19.0772C4.54411 22.0042 4.02449 25.1268 4.13875 28.2586C4.43094 35.9645 8.70031 44.6307 15.7094 53.4204C19.0385 57.584 22.6974 61.474 26.6509 65.053C27.0314 65.396 27.3144 65.6452 27.5 65.8006L28.3491 65.053ZM24.9631 69.0483C24.9631 69.0483 0 48.0739 0 27.4355C0 20.1592 2.89731 13.1808 8.05456 8.03568C13.2118 2.89052 20.2065 0 27.5 0C34.7935 0 41.7882 2.89052 46.9454 8.03568C52.1027 13.1808 55 20.1592 55 27.4355C55 48.0739 30.0369 69.0483 30.0369 69.0483C28.6481 70.3241 26.3622 70.3104 24.9631 69.0483ZM27.5 37.0379C30.0527 37.0379 32.5009 36.0263 34.3059 34.2255C36.1109 32.4246 37.125 29.9822 37.125 27.4355C37.125 24.8888 36.1109 22.4464 34.3059 20.6456C32.5009 18.8448 30.0527 17.8331 27.5 17.8331C24.9473 17.8331 22.4991 18.8448 20.6941 20.6456C18.8891 22.4464 17.875 24.8888 17.875 27.4355C17.875 29.9822 18.8891 32.4246 20.6941 34.2255C22.4991 36.0263 24.9473 37.0379 27.5 37.0379ZM27.5 41.1533C23.8533 41.1533 20.3559 39.708 17.7773 37.1354C15.1987 34.5629 13.75 31.0737 13.75 27.4355C13.75 23.7973 15.1987 20.3082 17.7773 17.7356C20.3559 15.163 23.8533 13.7178 27.5 13.7178C31.1467 13.7178 34.6441 15.163 37.2227 17.7356C39.8013 20.3082 41.25 23.7973 41.25 27.4355C41.25 31.0737 39.8013 34.5629 37.2227 37.1354C34.6441 39.708 31.1467 41.1533 27.5 41.1533Z"/>
</mask>
<path fill-rule="evenodd" clip-rule="evenodd" d="M28.3491 65.053C32.3026 61.474 35.9615 57.584 39.2906 53.4204C46.3031 44.6307 50.5691 35.9645 50.8578 28.2586C50.9721 25.1268 50.4524 22.0042 49.33 19.0772C48.2075 16.1503 46.5052 13.4791 44.3248 11.2231C42.1444 8.96723 39.5306 7.1729 36.6396 5.94734C33.7485 4.72178 30.6395 4.09014 27.4983 4.09014C24.3571 4.09014 21.2481 4.72178 18.357 5.94734C15.4659 7.1729 12.8521 8.96723 10.6717 11.2231C8.49133 13.4791 6.78905 16.1503 5.66658 19.0772C4.54411 22.0042 4.02449 25.1268 4.13875 28.2586C4.43094 35.9645 8.70031 44.6307 15.7094 53.4204C19.0385 57.584 22.6974 61.474 26.6509 65.053C27.0314 65.396 27.3144 65.6452 27.5 65.8006L28.3491 65.053ZM24.9631 69.0483C24.9631 69.0483 0 48.0739 0 27.4355C0 20.1592 2.89731 13.1808 8.05456 8.03568C13.2118 2.89052 20.2065 0 27.5 0C34.7935 0 41.7882 2.89052 46.9454 8.03568C52.1027 13.1808 55 20.1592 55 27.4355C55 48.0739 30.0369 69.0483 30.0369 69.0483C28.6481 70.3241 26.3622 70.3104 24.9631 69.0483ZM27.5 37.0379C30.0527 37.0379 32.5009 36.0263 34.3059 34.2255C36.1109 32.4246 37.125 29.9822 37.125 27.4355C37.125 24.8888 36.1109 22.4464 34.3059 20.6456C32.5009 18.8448 30.0527 17.8331 27.5 17.8331C24.9473 17.8331 22.4991 18.8448 20.6941 20.6456C18.8891 22.4464 17.875 24.8888 17.875 27.4355C17.875 29.9822 18.8891 32.4246 20.6941 34.2255C22.4991 36.0263 24.9473 37.0379 27.5 37.0379ZM27.5 41.1533C23.8533 41.1533 20.3559 39.708 17.7773 37.1354C15.1987 34.5629 13.75 31.0737 13.75 27.4355C13.75 23.7973 15.1987 20.3082 17.7773 17.7356C20.3559 15.163 23.8533 13.7178 27.5 13.7178C31.1467 13.7178 34.6441 15.163 37.2227 17.7356C39.8013 20.3082 41.25 23.7973 41.25 27.4355C41.25 31.0737 39.8013 34.5629 37.2227 37.1354C34.6441 39.708 31.1467 41.1533 27.5 41.1533Z" fill="#0F53FF"/>
<path d="M29.3216 64.0702L29.301 64.0531L26.1047 67.898L26.1253 67.9152L29.3216 64.0702ZM28.3491 65.053L31.6533 68.8056L31.6791 68.7829L31.7047 68.7598L28.3491 65.053ZM39.2906 53.4204L43.1958 56.5428L43.1991 56.5386L39.2906 53.4204ZM50.8578 28.2586L55.8543 28.4458L55.8545 28.4409L50.8578 28.2586ZM27.4983 4.09014L27.4983 -0.909864L27.4983 4.09014ZM4.13875 28.2586L-0.857931 28.4409L-0.85766 28.448L4.13875 28.2586ZM15.7094 53.4204L11.8001 56.5377L11.8042 56.5428L15.7094 53.4204ZM26.6509 65.053L23.2953 68.7598L23.303 68.7667L26.6509 65.053ZM27.5 65.8006L24.2896 69.6338L27.5815 72.3909L30.8042 69.5532L27.5 65.8006ZM24.9631 69.0483L28.3122 65.3357L28.2469 65.2768L28.1796 65.2202L24.9631 69.0483ZM27.5 0L27.5 -5L27.5 0ZM55 27.4355L60 27.4355L55 27.4355ZM30.0369 69.0483L26.8204 65.2202L26.7358 65.2913L26.6543 65.3662L30.0369 69.0483ZM37.125 27.4355L42.125 27.4355L37.125 27.4355ZM27.5 17.8331L27.5 12.8331L27.5 17.8331ZM17.875 27.4355L12.875 27.4355L17.875 27.4355ZM27.5 41.1533L27.5 46.1533L27.5 41.1533ZM13.75 27.4355L8.75 27.4355L13.75 27.4355ZM27.5 13.7178L27.5 8.71776L27.5 13.7178ZM41.25 27.4355L46.25 27.4355L41.25 27.4355ZM31.7047 68.7598C35.8566 65.0011 39.6994 60.9157 43.1958 56.5428L35.3855 50.2979C32.2237 54.2523 28.7485 57.9469 24.9935 61.3463L31.7047 68.7598ZM43.1991 56.5386C50.4733 47.421 55.5066 37.7245 55.8543 28.4458L45.8613 28.0714C45.6315 34.2045 42.133 41.8404 35.3821 50.3021L43.1991 56.5386ZM55.8545 28.4409C55.9933 24.6359 55.362 20.8424 53.9985 17.2869L44.6615 20.8675C45.5429 23.166 45.9508 25.6176 45.8611 28.0763L55.8545 28.4409ZM53.9985 17.2869C52.635 13.7314 50.5674 10.4874 47.92 7.74828L40.7296 14.698C42.443 16.4707 43.7801 18.5691 44.6615 20.8675L53.9985 17.2869ZM47.92 7.74828C45.2726 5.00921 42.0997 2.83125 38.591 1.34389L34.6881 10.5508C36.9616 11.5146 39.0162 12.9252 40.7296 14.698L47.92 7.74828ZM38.591 1.34389C35.0824 -0.143458 31.3098 -0.909864 27.4983 -0.909864L27.4983 9.09014C29.9693 9.09014 32.4146 9.58702 34.6881 10.5508L38.591 1.34389ZM27.4983 -0.909864C23.6868 -0.909864 19.9141 -0.143458 16.4055 1.34389L20.3085 10.5508C22.582 9.58702 25.0273 9.09014 27.4983 9.09014L27.4983 -0.909864ZM16.4055 1.34389C12.8969 2.83125 9.72395 5.00921 7.07655 7.74828L14.2669 14.698C15.9803 12.9252 18.035 11.5146 20.3085 10.5508L16.4055 1.34389ZM7.07655 7.74828C4.42912 10.4874 2.3616 13.7314 0.998101 17.2869L10.3351 20.8675C11.2165 18.5691 12.5535 16.4707 14.2669 14.698L7.07655 7.74828ZM0.998101 17.2869C-0.365408 20.8424 -0.996744 24.6359 -0.857926 28.4409L9.13543 28.0763C9.04572 25.6176 9.45364 23.166 10.3351 20.8675L0.998101 17.2869ZM-0.85766 28.448C-0.505874 37.7258 4.53058 47.4214 11.8001 56.5377L19.6186 50.303C12.87 41.84 9.36775 34.2033 9.13516 28.0691L-0.85766 28.448ZM11.8042 56.5428C15.3006 60.9157 19.1434 65.0011 23.2953 68.7598L30.0065 61.3463C26.2515 57.9469 22.7763 54.2523 19.6145 50.2979L11.8042 56.5428ZM23.303 68.7667C23.6905 69.116 24.03 69.4164 24.2896 69.6338L30.7104 61.9675C30.5987 61.8739 30.3722 61.6759 29.9988 61.3393L23.303 68.7667ZM30.8042 69.5532L31.6533 68.8056L25.0448 61.3004L24.1958 62.0481L30.8042 69.5532ZM24.9631 69.0483C28.1796 65.2202 28.1804 65.2209 28.1811 65.2215C28.1812 65.2216 28.1818 65.2221 28.1821 65.2223C28.1825 65.2227 28.1826 65.2228 28.1823 65.2225C28.1817 65.222 28.1797 65.2203 28.1761 65.2173C28.1691 65.2113 28.1562 65.2004 28.1376 65.1845C28.1004 65.1528 28.0407 65.1015 27.9598 65.0314C27.798 64.891 27.552 64.6751 27.2338 64.389C26.597 63.8163 25.6733 62.9642 24.5586 61.874C22.3232 59.6877 19.3506 56.5743 16.3903 52.8633C10.2883 45.2139 5 35.9616 5 27.4355H-5C-5 39.5478 2.19328 51.1019 8.57285 59.0993C11.8533 63.2117 15.1215 66.6318 17.5666 69.0232C18.7922 70.2219 19.8188 71.1696 20.5472 71.8246C20.9115 72.1523 21.2018 72.4072 21.4057 72.5841C21.5077 72.6726 21.5881 72.7416 21.6454 72.7905C21.6741 72.815 21.697 72.8345 21.7139 72.8488C21.7224 72.856 21.7294 72.8619 21.7348 72.8665C21.7376 72.8688 21.7399 72.8708 21.7419 72.8724C21.7429 72.8733 21.7441 72.8743 21.7446 72.8747C21.7457 72.8756 21.7467 72.8764 24.9631 69.0483ZM5 27.4355C5 21.489 7.36767 15.7837 11.5859 11.5754L4.52318 4.49599C-1.57304 10.5779 -5 18.8293 -5 27.4355H5ZM11.5859 11.5754C15.8046 7.36658 21.5288 5 27.5 5L27.5 -5C18.8842 -5 10.619 -1.58554 4.52318 4.49599L11.5859 11.5754ZM27.5 5C33.4712 5 39.1954 7.36658 43.4141 11.5754L50.4768 4.49599C44.381 -1.58554 36.1158 -5 27.5 -5L27.5 5ZM43.4141 11.5754C47.6323 15.7837 50 21.489 50 27.4355L60 27.4355C60 18.8293 56.573 10.5779 50.4768 4.49599L43.4141 11.5754ZM50 27.4355C50 35.9616 44.7117 45.2139 38.6097 52.8633C35.6494 56.5743 32.6768 59.6877 30.4414 61.874C29.3267 62.9642 28.403 63.8163 27.7662 64.389C27.448 64.6751 27.202 64.891 27.0402 65.0314C26.9593 65.1015 26.8996 65.1528 26.8624 65.1845C26.8438 65.2004 26.8309 65.2113 26.8239 65.2173C26.8203 65.2203 26.8183 65.222 26.8177 65.2225C26.8174 65.2228 26.8175 65.2227 26.8179 65.2223C26.8182 65.2221 26.8188 65.2216 26.8189 65.2215C26.8196 65.2209 26.8204 65.2202 30.0369 69.0483C33.2533 72.8764 33.2543 72.8756 33.2554 72.8747C33.2559 72.8743 33.2571 72.8733 33.2581 72.8724C33.2601 72.8708 33.2624 72.8688 33.2652 72.8665C33.2706 72.8619 33.2776 72.856 33.2861 72.8488C33.303 72.8345 33.3259 72.815 33.3546 72.7905C33.4119 72.7416 33.4923 72.6726 33.5943 72.5841C33.7982 72.4072 34.0885 72.1523 34.4528 71.8246C35.1812 71.1696 36.2078 70.2219 37.4334 69.0232C39.8785 66.6318 43.1467 63.2117 46.4272 59.0993C52.8067 51.1019 60 39.5478 60 27.4355H50ZM26.6543 65.3662C26.9813 65.0658 27.3144 64.9996 27.5132 65C27.7094 65.0004 28.0116 65.0645 28.3122 65.3357L21.6141 72.761C24.8859 75.7123 30.0884 75.7905 33.4194 72.7305L26.6543 65.3662ZM27.5 42.0379C31.375 42.0379 35.0937 40.5023 37.8373 37.7651L30.7745 30.6858C29.9081 31.5502 28.7304 32.0379 27.5 32.0379V42.0379ZM37.8373 37.7651C40.5813 35.0276 42.125 31.3121 42.125 27.4355L32.125 27.4355C32.125 28.6524 31.6406 29.8217 30.7745 30.6858L37.8373 37.7651ZM42.125 27.4355C42.125 23.5589 40.5813 19.8435 37.8373 17.1059L30.7745 24.1852C31.6406 25.0493 32.125 26.2187 32.125 27.4355L42.125 27.4355ZM37.8373 17.1059C35.0937 14.3687 31.375 12.8331 27.5 12.8331L27.5 22.8331C28.7304 22.8331 29.9081 23.3208 30.7745 24.1852L37.8373 17.1059ZM27.5 12.8331C23.625 12.8331 19.9063 14.3687 17.1627 17.1059L24.2255 24.1852C25.0919 23.3208 26.2696 22.8331 27.5 22.8331L27.5 12.8331ZM17.1627 17.1059C14.4187 19.8435 12.875 23.5589 12.875 27.4355L22.875 27.4355C22.875 26.2187 23.3594 25.0493 24.2255 24.1852L17.1627 17.1059ZM12.875 27.4355C12.875 31.3121 14.4187 35.0276 17.1627 37.7651L24.2255 30.6858C23.3594 29.8217 22.875 28.6524 22.875 27.4355L12.875 27.4355ZM17.1627 37.7651C19.9063 40.5023 23.625 42.0379 27.5 42.0379V32.0379C26.2696 32.0379 25.0919 31.5502 24.2255 30.6858L17.1627 37.7651ZM27.5 36.1533C25.1756 36.1533 22.9487 35.2319 21.3087 33.5957L14.2459 40.6751C17.7631 44.1841 22.531 46.1533 27.5 46.1533L27.5 36.1533ZM21.3087 33.5957C19.669 31.9599 18.75 29.7438 18.75 27.4355L8.75 27.4355C8.75 32.4036 10.7283 37.1658 14.2459 40.6751L21.3087 33.5957ZM18.75 27.4355C18.75 25.1272 19.669 22.9111 21.3087 21.2753L14.2459 14.1959C10.7283 17.7053 8.75 22.4675 8.75 27.4355L18.75 27.4355ZM21.3087 21.2753C22.9487 19.6391 25.1756 18.7178 27.5 18.7178L27.5 8.71776C22.531 8.71776 17.7631 10.687 14.2459 14.1959L21.3087 21.2753ZM27.5 18.7178C29.8244 18.7178 32.0513 19.6391 33.6913 21.2753L40.7541 14.1959C37.2369 10.687 32.469 8.71776 27.5 8.71776L27.5 18.7178ZM33.6913 21.2753C35.331 22.9111 36.25 25.1272 36.25 27.4355L46.25 27.4355C46.25 22.4675 44.2717 17.7053 40.7541 14.1959L33.6913 21.2753ZM36.25 27.4355C36.25 29.7438 35.331 31.9599 33.6913 33.5957L40.7541 40.6751C44.2717 37.1658 46.25 32.4036 46.25 27.4355L36.25 27.4355ZM33.6913 33.5957C32.0513 35.2319 29.8244 36.1533 27.5 36.1533L27.5 46.1533C32.469 46.1533 37.2369 44.1841 40.7541 40.6751L33.6913 33.5957Z" fill="#0F53FF" mask="url(#path-1-inside-1_635_187)"/>
</svg>
