<svg width="59" height="59" viewBox="0 0 59 59" fill="none" xmlns="http://www.w3.org/2000/svg">
<path d="M16.1005 45.7783L24.7614 37.1175L21.8846 34.2407L13.2238 42.9016L11.6104 41.2882C11.2289 40.9068 10.7115 40.6925 10.172 40.6925C9.63255 40.6925 9.11516 40.9068 8.73363 41.2882L0.595671 49.4262C0.214263 49.8077 0 50.3251 0 50.8645C0 51.404 0.214263 51.9214 0.595671 52.3029L6.69914 58.4064C7.08067 58.7878 7.59805 59.0021 8.13753 59.0021C8.677 59.0021 9.19439 58.7878 9.57591 58.4064L17.7139 50.2684C18.0953 49.8869 18.3095 49.3695 18.3095 48.8301C18.3095 48.2906 18.0953 47.7732 17.7139 47.3917L16.1005 45.7783ZM8.13753 54.0912L4.91083 50.8645L10.172 45.6034L13.3987 48.8301L8.13753 54.0912Z" fill="#0F53FF"/>
<path d="M46.7937 56.968C43.5574 56.9643 40.4547 55.677 38.1663 53.3885C35.8778 51.1001 34.5905 47.9974 34.5868 44.7611C34.5867 43.6975 34.7304 42.6388 35.014 41.6137L17.3913 23.9889C16.3646 24.268 15.3058 24.4116 14.2419 24.4162C12.253 24.4241 10.2926 23.9441 8.53242 23.018C6.77228 22.092 5.26619 20.7483 4.14619 19.1048C3.0262 17.4612 2.3265 15.568 2.10845 13.5911C1.8904 11.6142 2.16065 9.61405 2.89551 7.76592L4.03076 4.87491L10.769 11.6131C11.1563 11.9835 11.6715 12.1902 12.2074 12.1902C12.7432 12.1902 13.2585 11.9835 13.6458 11.6131C14.0272 11.2316 14.2414 10.7142 14.2414 10.1748C14.2414 9.63528 14.0272 9.11789 13.6458 8.73637L6.90346 1.99407L9.79854 0.860856C11.6469 0.126452 13.6471 -0.143386 15.6239 0.0749914C17.6008 0.293369 19.4939 0.993297 21.1373 2.11343C22.7808 3.23356 24.1244 4.7397 25.0504 6.49984C25.9764 8.25998 26.4566 10.2204 26.4488 12.2092C26.4489 13.2728 26.3052 14.3315 26.0216 15.3566L43.6464 32.9814C44.6724 32.7025 45.7305 32.5589 46.7937 32.5541C48.7826 32.5462 50.743 33.0263 52.5032 33.9523C54.2633 34.8783 55.7694 36.222 56.8894 37.8656C58.0094 39.5091 58.7091 41.4023 58.9271 43.3792C59.1452 45.3561 58.8749 47.3563 58.1401 49.2044L57.0069 52.0954L50.2666 45.3572C49.8794 44.9875 49.3646 44.7811 48.8292 44.7811C48.2938 44.7811 47.7791 44.9875 47.3919 45.3572C47.0102 45.7384 46.7956 46.2557 46.7952 46.7952C46.7948 47.3346 47.0087 47.8522 47.3898 48.234L54.1301 54.9742L51.237 56.1095C49.8224 56.6701 48.3154 56.9613 46.7937 56.968ZM18.439 19.2811L39.7198 40.566L39.2336 41.805C38.7571 42.9961 38.5708 44.2836 38.6901 45.561C38.8095 46.8383 39.231 48.069 39.92 49.1513C40.6089 50.2335 41.5454 51.1364 42.6522 51.7852C43.759 52.4341 45.0042 52.8103 46.2851 52.8828L44.5131 51.1128C43.9462 50.546 43.4965 49.8731 43.1897 49.1325C42.8829 48.392 42.725 47.5982 42.725 46.7966C42.725 45.995 42.8829 45.2012 43.1897 44.4607C43.4965 43.7201 43.9462 43.0472 44.5131 42.4804C45.6753 41.3693 47.2213 40.7492 48.8292 40.7492C50.4372 40.7492 51.9832 41.3693 53.1454 42.4804L54.9154 44.2525C54.8426 42.9715 54.4661 41.7262 53.817 40.6195C53.1679 39.5128 52.2649 38.5763 51.1825 37.8874C50.1001 37.1985 48.8693 36.777 47.5919 36.6576C46.3144 36.5383 45.0269 36.7245 43.8356 37.2009L42.5966 37.6872L21.3158 16.4064L21.8041 15.1654C22.2801 13.974 22.466 12.6865 22.3463 11.4092C22.2267 10.1318 21.8049 8.90126 21.1158 7.81907C20.4268 6.73688 19.4902 5.83411 18.3834 5.18529C17.2766 4.53647 16.0314 4.1602 14.7505 4.08756L16.5205 5.85756C17.0874 6.42434 17.537 7.09722 17.8438 7.8378C18.1506 8.57837 18.3085 9.37213 18.3085 10.1737C18.3085 10.9753 18.1506 11.7691 17.8438 12.5097C17.537 13.2502 17.0874 13.9231 16.5205 14.4899C15.3583 15.6011 13.8123 16.2212 12.2043 16.2212C10.5964 16.2212 9.05039 15.6011 7.88815 14.4899L6.11815 12.7179C6.19066 13.9988 6.56687 15.244 7.21571 16.3508C7.86454 17.4576 8.76739 18.3941 9.84966 19.083C10.9319 19.7719 12.1626 20.1935 13.44 20.3128C14.7173 20.4322 16.0048 20.2459 17.1959 19.7694L18.439 19.2811Z" fill="#0F53FF"/>
<path d="M57.2136 1.73127C56.0514 0.620118 54.5054 0 52.8974 0C51.2895 0 49.7435 0.620118 48.5813 1.73127L33.3633 16.9493L36.2401 19.826L51.458 4.60804C51.8456 4.23817 52.3607 4.03179 52.8964 4.03179C53.4321 4.03179 53.9473 4.23817 54.3348 4.60804C54.7162 4.98956 54.9305 5.50695 54.9305 6.04643C54.9305 6.5859 54.7162 7.10329 54.3348 7.48481L39.1168 22.7028L41.9936 25.5816L57.2116 10.3636C58.3549 9.21817 58.9971 7.66587 58.9971 6.04744C58.9971 4.42902 58.357 2.87672 57.2136 1.73127Z" fill="#0F53FF"/>
</svg>
