<svg width="33" height="31" viewBox="0 0 33 31" fill="none" xmlns="http://www.w3.org/2000/svg">
<path d="M31.1667 0H1.83333C1.3471 0 0.880787 0.192122 0.536971 0.5341C0.193154 0.876078 0 1.3399 0 1.82353V7.29412C0 7.77775 0.193154 8.24157 0.536971 8.58355C0.880787 8.92552 1.3471 9.11765 1.83333 9.11765C2.31956 9.11765 2.78588 8.92552 3.1297 8.58355C3.47351 8.24157 3.66667 7.77775 3.66667 7.29412V3.64706H14.6667V27.3529H11C10.5138 27.3529 10.0475 27.5451 9.70364 27.887C9.35982 28.229 9.16667 28.6928 9.16667 29.1765C9.16667 29.6601 9.35982 30.1239 9.70364 30.4659C10.0475 30.8079 10.5138 31 11 31H22C22.4862 31 22.9525 30.8079 23.2964 30.4659C23.6402 30.1239 23.8333 29.6601 23.8333 29.1765C23.8333 28.6928 23.6402 28.229 23.2964 27.887C22.9525 27.5451 22.4862 27.3529 22 27.3529H18.3333V3.64706H29.3333V7.29412C29.3333 7.77775 29.5265 8.24157 29.8703 8.58355C30.2141 8.92552 30.6804 9.11765 31.1667 9.11765C31.6529 9.11765 32.1192 8.92552 32.463 8.58355C32.8068 8.24157 33 7.77775 33 7.29412V1.82353C33 1.3399 32.8068 0.876078 32.463 0.5341C32.1192 0.192122 31.6529 0 31.1667 0Z" fill="#0F53FF"/>
</svg>
