<svg width="30" height="30" viewBox="0 0 30 30" fill="none" xmlns="http://www.w3.org/2000/svg">
<path d="M25.0052 2.5H11.6719V6.66667H13.3385V4.16667H25.0052C25.5052 4.16667 25.8385 4.5 25.8385 5V14.1667C25.8385 14.6667 25.5052 15 25.0052 15H14.1719V20.8333H9.75521L6.67188 23.25V20.8333H4.17188C3.67188 20.8333 3.33854 20.5 3.33854 20V10.8333C3.33854 10.3333 3.67188 10 4.17188 10H15.0052V8.33333H4.17188C2.75521 8.33333 1.67188 9.41667 1.67188 10.8333V20C1.67188 21.4167 2.75521 22.5 4.17188 22.5H5.00521V26.75L10.2552 22.5H15.8385V16.6667H25.0052C26.4219 16.6667 27.5052 15.5833 27.5052 14.1667V5C27.5052 3.58333 26.4219 2.5 25.0052 2.5Z" fill="#0F53FF"/>
<path d="M5.16406 19.0832H7.16406L7.66406 17.7498H10.2474L10.7474 19.0832H12.7474L9.91406 11.6665H7.91406L5.16406 19.0832ZM8.91406 13.7498L9.7474 16.3332H8.08073L8.91406 13.7498Z" fill="#0F53FF"/>
</svg>
