<svg width="26" height="28" viewBox="0 0 26 28" fill="none" xmlns="http://www.w3.org/2000/svg">
<path d="M20.2233 19.601H23.1124V2.80014H8.66715V5.60027H20.2233V19.601ZM20.2233 22.4011V26.5999C20.2233 27.3741 19.5733 28 18.7687 28H1.45464C1.26409 28.0013 1.07516 27.966 0.898735 27.8962C0.722308 27.8264 0.561869 27.7235 0.42666 27.5934C0.291451 27.4632 0.184143 27.3085 0.110917 27.138C0.0376913 26.9674 -4.66814e-06 26.7846 4.33592e-10 26.5999L0.00288884 7.00174C0.00288884 6.2275 0.652925 5.60027 1.45753 5.60027H5.77665V1.40007C5.77665 1.02875 5.92884 0.672634 6.19975 0.41007C6.47065 0.147507 6.83807 0 7.22118 0H24.5555C24.9386 0 25.306 0.147507 25.5769 0.41007C25.8478 0.672634 26 1.02875 26 1.40007V21.001C26 21.3723 25.8478 21.7285 25.5769 21.991C25.306 22.2536 24.9386 22.4011 24.5555 22.4011H20.2233ZM2.89194 8.40041L2.88905 25.2012H17.3343V8.40041H2.89194ZM5.7781 19.601H12.2785C12.47 19.601 12.6537 19.5272 12.7892 19.3959C12.9246 19.2646 13.0007 19.0866 13.0007 18.9009C13.0007 18.7153 12.9246 18.5372 12.7892 18.4059C12.6537 18.2746 12.47 18.2009 12.2785 18.2009H7.94489C6.98711 18.2009 6.06855 17.8321 5.3913 17.1757C4.71405 16.5193 4.33357 15.629 4.33357 14.7007C4.33357 13.7724 4.71405 12.8821 5.3913 12.2257C6.06855 11.5693 6.98711 11.2005 7.94489 11.2005H8.66715V9.80048H11.5562V11.2005H14.4452V14.0007H7.94489C7.75333 14.0007 7.56962 14.0744 7.43417 14.2057C7.29872 14.337 7.22262 14.5151 7.22262 14.7007C7.22262 14.8864 7.29872 15.0644 7.43417 15.1957C7.56962 15.327 7.75333 15.4008 7.94489 15.4008H12.2785C13.2362 15.4008 14.1548 15.7695 14.832 16.4259C15.5093 17.0823 15.8898 17.9726 15.8898 18.9009C15.8898 19.8292 15.5093 20.7195 14.832 21.3759C14.1548 22.0323 13.2362 22.4011 12.2785 22.4011H11.5562V23.8012H8.66715V22.4011H5.7781V19.601Z" fill="#0F53FF"/>
</svg>
