<svg width="55" height="62" viewBox="0 0 55 62" fill="none" xmlns="http://www.w3.org/2000/svg">
<path d="M54.3802 39.1086L48.6538 33.3213V25.6548C48.6473 20.3567 46.6972 15.2493 43.1806 11.3201C39.664 7.39096 34.8307 4.91916 29.6154 4.38269V0H25.3846V4.38269C20.1693 4.91916 15.336 7.39096 11.8194 11.3201C8.30284 15.2493 6.35271 20.3567 6.34615 25.6548V33.3213L0.619808 39.1086C0.223069 39.5094 0.00011981 40.0531 0 40.6201V47.0338C0 47.6008 0.22287 48.1446 0.619582 48.5455C1.01629 48.9464 1.55435 49.1717 2.11538 49.1717H16.9231V50.8328C16.8761 53.5453 17.8217 56.1798 19.5784 58.231C21.3352 60.2822 23.7794 61.6058 26.4423 61.9478C27.9129 62.0951 29.3977 61.9298 30.8012 61.4624C32.2048 60.9951 33.496 60.236 34.5919 59.234C35.6877 58.232 36.5639 57.0093 37.1641 55.6445C37.7644 54.2797 38.0753 52.8031 38.0769 51.3096V49.1717H52.8846C53.4456 49.1717 53.9837 48.9464 54.3804 48.5455C54.7771 48.1446 55 47.6008 55 47.0338V40.6201C54.9999 40.0531 54.7769 39.5094 54.3802 39.1086ZM33.8462 51.3096C33.8462 53.0106 33.1775 54.6419 31.9874 55.8447C30.7973 57.0475 29.1831 57.7233 27.5 57.7233C25.8169 57.7233 24.2027 57.0475 23.0126 55.8447C21.8225 54.6419 21.1538 53.0106 21.1538 51.3096V49.1717H33.8462V51.3096ZM50.7692 44.8959H4.23077V41.5052L9.95711 35.7179C10.3539 35.317 10.5768 34.7733 10.5769 34.2064V25.6548C10.5769 21.1187 12.3599 16.7685 15.5336 13.561C18.7073 10.3535 23.0117 8.5516 27.5 8.5516C31.9883 8.5516 36.2927 10.3535 39.4664 13.561C42.6401 16.7685 44.4231 21.1187 44.4231 25.6548V34.2064C44.4232 34.7733 44.6461 35.317 45.0429 35.7179L50.7692 41.5052V44.8959Z" fill="#0F53FF"/>
</svg>
