<svg width="12" height="13" viewBox="0 0 12 13" fill="none" xmlns="http://www.w3.org/2000/svg">
<path d="M1.99229 10.6938V10.4438L1.99229 4.84096L1.99229 4.84079M1.99229 10.6938L9.75857 4.84079C9.75857 3.98143 9.39257 3.24982 8.66057 2.64596C7.92857 2.0421 7.04171 1.7404 6 1.74088C4.95829 1.74135 4.07143 2.04304 3.33943 2.64596C2.60743 3.24888 2.24171 3.98049 2.24229 4.84079H1.99229M1.99229 10.6938H2.24229H9.75857H10.0086V10.4438V4.84079C10.0086 3.89841 9.60243 3.09886 8.81966 2.45311C8.03837 1.80859 7.09362 1.49038 5.99989 1.49088C4.90632 1.49137 3.96171 1.80953 3.18049 2.45299C2.39753 3.09788 1.99171 3.89754 1.99229 4.84079M1.99229 10.6938V4.84079M0.25 10.9009V10.6938H1.38514H1.63514V10.4438V4.84009C1.63514 3.98852 1.95858 3.23855 2.62382 2.58045C3.29127 1.92016 4.13992 1.50489 5.18191 1.34011L5.39286 1.30674V1.09317V0.707098C5.39286 0.592974 5.43634 0.494217 5.55138 0.399321L5.5517 0.399053C5.66853 0.302342 5.81248 0.25 5.99829 0.25C6.18407 0.25 6.32896 0.302349 6.44723 0.399588C6.5638 0.495416 6.60714 0.594263 6.60714 0.707098V1.09317V1.30674L6.81809 1.34011C7.86004 1.50488 8.70867 1.92036 9.37612 2.5811C10.0414 3.23972 10.3649 3.98973 10.3649 4.84079V10.4431V10.6931H10.6149H11.75V10.9002L0.25 10.9009ZM5.99743 12.75C5.66848 12.75 5.40071 12.655 5.17998 12.4718C5.04345 12.3584 4.9554 12.238 4.9082 12.108H7.09211C7.04479 12.239 6.95614 12.3595 6.81865 12.4722C6.59499 12.6551 6.32565 12.75 5.99743 12.75Z" fill="#565454" stroke="#565454" stroke-width="0.5"/>
</svg>
