<svg width="28" height="28" viewBox="0 0 28 28" fill="none" xmlns="http://www.w3.org/2000/svg">
<path d="M22.8006 10.136C22.6068 9.2431 22.2766 8.38539 21.8216 7.593L28.0006 1.414L26.5876 0L0.000641623 26.587L1.41464 28L6.41464 23H21.5006C23.1118 23.0017 24.6662 22.4047 25.8619 21.3248C27.0577 20.2449 27.8096 18.7593 27.9716 17.1562C28.1336 15.5532 27.6941 13.9472 26.7386 12.6499C25.7831 11.3526 24.3796 10.4567 22.8006 10.136ZM21.5006 21H8.41464L20.3426 9.072C20.6499 9.72663 20.8524 10.4255 20.9426 11.143L21.0416 11.955L21.8566 12.019C23.013 12.1136 24.0881 12.6514 24.8572 13.52C25.6264 14.3886 26.0302 15.5209 25.9842 16.6802C25.9383 17.8395 25.4461 18.9362 24.6106 19.7412C23.7751 20.5462 22.6609 20.9972 21.5006 21ZM2.29664 21.449L3.72864 20.018C3.01448 19.4627 2.4853 18.7041 2.2108 17.8421C1.93631 16.9801 1.92939 16.0552 2.19096 15.1892C2.45252 14.3232 2.9703 13.5568 3.67607 12.9908C4.38184 12.4249 5.2425 12.0861 6.14464 12.019L6.96064 11.955L7.05964 11.143C7.20161 9.97703 7.63524 8.86566 8.32043 7.91163C9.00563 6.95761 9.92028 6.19172 10.9798 5.68477C12.0394 5.17782 13.2096 4.94617 14.3824 5.01123C15.5552 5.07629 16.6927 5.43596 17.6896 6.057L19.1326 4.614C17.9149 3.76519 16.5059 3.23127 15.0314 3.05993C13.557 2.88859 12.0631 3.08517 10.6831 3.63211C9.3032 4.17905 8.08026 5.05931 7.12356 6.19424C6.16686 7.32917 5.50621 8.68343 5.20064 10.136C4.00599 10.3782 2.90369 10.9519 2.01997 11.7914C1.13624 12.631 0.506817 13.7025 0.203769 14.8831C-0.0992777 16.0638 -0.0636955 17.306 0.306441 18.4673C0.676578 19.6287 1.36631 20.6624 2.29664 21.45" fill="#0F53FF"/>
</svg>
