<svg width="51" height="50" viewBox="0 0 51 50" fill="none" xmlns="http://www.w3.org/2000/svg">
<path fill-rule="evenodd" clip-rule="evenodd" d="M8.60479 6.54629L5.09239 20.3174C3.76738 20.5871 2.57632 21.3065 1.72091 22.3538C0.865495 23.401 0.398299 24.7117 0.398438 26.0639V34.5341C0.398438 36.0892 1.01623 37.5807 2.1159 38.6804C3.21557 39.7801 4.70704 40.3978 6.26221 40.3978H44.3767C45.9319 40.3978 47.4234 39.7801 48.523 38.6804C49.6227 37.5807 50.2405 36.0892 50.2405 34.5341V26.0639C50.2406 24.7117 49.7734 23.401 48.918 22.3538C48.0626 21.3065 46.8716 20.5871 45.5466 20.3174L42.0371 6.54629C41.7731 5.50976 41.2306 4.56519 40.4683 3.81482C39.7061 3.06445 38.7531 2.53687 37.7125 2.28919C33.6543 1.31575 29.4958 0.82177 25.3224 0.817383C21.1865 0.817383 17.0545 1.30799 12.9264 2.28919C11.8858 2.53687 10.9329 3.06445 10.1706 3.81482C9.40835 4.56519 8.86879 5.50976 8.60479 6.54629ZM6.26514 23.132C6.59096 23.1324 6.90764 23.0242 7.16514 22.8246C7.42264 22.625 7.6063 22.3452 7.68711 22.0296L11.4458 7.26753C11.5779 6.74908 11.8494 6.27667 12.2308 5.90147C12.6122 5.52627 13.089 5.26259 13.6095 5.13898C17.446 4.21917 21.3772 3.75274 25.3224 3.74927C29.2218 3.74927 33.1261 4.21348 37.0353 5.14191C37.5553 5.26599 38.0315 5.52989 38.4123 5.90506C38.7932 6.28022 39.0642 6.75238 39.1961 7.27046L42.9548 22.0296C43.0356 22.3452 43.2192 22.625 43.4767 22.8246C43.7342 23.0242 44.0509 23.1324 44.3767 23.132C45.1543 23.132 45.9 23.4409 46.4499 23.9907C46.9997 24.5405 47.3086 25.2863 47.3086 26.0639V34.5341C47.3086 35.3117 46.9997 36.0574 46.4499 36.6072C45.9 37.1571 45.1543 37.466 44.3767 37.466H6.26221C5.48463 37.466 4.73889 37.1571 4.18905 36.6072C3.63922 36.0574 3.33032 35.3117 3.33032 34.5341V26.0639C3.33032 25.2863 3.63922 24.5405 4.18905 23.9907C4.73889 23.4409 5.48756 23.132 6.26514 23.132Z" fill="#0F53FF"/>
<path fill-rule="evenodd" clip-rule="evenodd" d="M12.1238 41.8639C12.1238 40.6975 11.6604 39.5789 10.8357 38.7542C10.0109 37.9294 8.89233 37.4661 7.72595 37.4661C6.55958 37.4661 5.44097 37.9294 4.61622 38.7542C3.79147 39.5789 3.32812 40.6975 3.32812 41.8639V44.7958C3.32812 45.9622 3.79147 47.0808 4.61622 47.9055C5.44097 48.7303 6.55958 49.1936 7.72595 49.1936C8.89233 49.1936 10.0109 48.7303 10.8357 47.9055C11.6604 47.0808 12.1238 45.9622 12.1238 44.7958V41.8639ZM6.26001 41.8639C6.26001 41.4751 6.41446 41.1022 6.68938 40.8273C6.96429 40.5524 7.33716 40.398 7.72595 40.398C8.11475 40.398 8.48761 40.5524 8.76253 40.8273C9.03745 41.1022 9.1919 41.4751 9.1919 41.8639V44.7958C9.1919 45.1846 9.03745 45.5574 8.76253 45.8324C8.48761 46.1073 8.11475 46.2617 7.72595 46.2617C7.33716 46.2617 6.96429 46.1073 6.68938 45.8324C6.41446 45.5574 6.26001 45.1846 6.26001 44.7958V41.8639ZM47.3064 41.8639C47.3064 40.6975 46.8431 39.5789 46.0183 38.7542C45.1936 37.9294 44.075 37.4661 42.9086 37.4661C41.7422 37.4661 40.6236 37.9294 39.7988 38.7542C38.9741 39.5789 38.5107 40.6975 38.5107 41.8639V44.7958C38.5107 45.9622 38.9741 47.0808 39.7988 47.9055C40.6236 48.7303 41.7422 49.1936 42.9086 49.1936C44.075 49.1936 45.1936 48.7303 46.0183 47.9055C46.8431 47.0808 47.3064 45.9622 47.3064 44.7958V41.8639ZM41.4426 41.8639C41.4426 41.4751 41.5971 41.1022 41.872 40.8273C42.1469 40.5524 42.5198 40.398 42.9086 40.398C43.2974 40.398 43.6702 40.5524 43.9452 40.8273C44.2201 41.1022 44.3745 41.4751 44.3745 41.8639V44.7958C44.3745 45.1846 44.2201 45.5574 43.9452 45.8324C43.6702 46.1073 43.2974 46.2617 42.9086 46.2617C42.5198 46.2617 42.1469 46.1073 41.872 45.8324C41.5971 45.5574 41.4426 45.1846 41.4426 44.7958V41.8639ZM39.9767 34.5342C41.1431 34.5342 42.2617 34.0708 43.0864 33.2461C43.9112 32.4213 44.3745 31.3027 44.3745 30.1364C44.3745 28.97 43.9112 27.8514 43.0864 27.0266C42.2617 26.2019 41.1431 25.7385 39.9767 25.7385C38.8103 25.7385 37.6917 26.2019 36.867 27.0266C36.0422 27.8514 35.5789 28.97 35.5789 30.1364C35.5789 31.3027 36.0422 32.4213 36.867 33.2461C37.6917 34.0708 38.8103 34.5342 39.9767 34.5342ZM39.9767 28.6704C40.3655 28.6704 40.7384 28.8249 41.0133 29.0998C41.2882 29.3747 41.4426 29.7476 41.4426 30.1364C41.4426 30.5252 41.2882 30.898 41.0133 31.1729C40.7384 31.4479 40.3655 31.6023 39.9767 31.6023C39.5879 31.6023 39.215 31.4479 38.9401 31.1729C38.6652 30.898 38.5107 30.5252 38.5107 30.1364C38.5107 29.7476 38.6652 29.3747 38.9401 29.0998C39.215 28.8249 39.5879 28.6704 39.9767 28.6704ZM10.6578 34.5342C11.8242 34.5342 12.9428 34.0708 13.7676 33.2461C14.5923 32.4213 15.0557 31.3027 15.0557 30.1364C15.0557 28.97 14.5923 27.8514 13.7676 27.0266C12.9428 26.2019 11.8242 25.7385 10.6578 25.7385C9.49146 25.7385 8.37286 26.2019 7.5481 27.0266C6.72335 27.8514 6.26001 28.97 6.26001 30.1364C6.26001 31.3027 6.72335 32.4213 7.5481 33.2461C8.37286 34.0708 9.49146 34.5342 10.6578 34.5342ZM10.6578 28.6704C11.0466 28.6704 11.4195 28.8249 11.6944 29.0998C11.9693 29.3747 12.1238 29.7476 12.1238 30.1364C12.1238 30.5252 11.9693 30.898 11.6944 31.1729C11.4195 31.4479 11.0466 31.6023 10.6578 31.6023C10.269 31.6023 9.89618 31.4479 9.62126 31.1729C9.34634 30.898 9.1919 30.5252 9.1919 30.1364C9.1919 29.7476 9.34634 29.3747 9.62126 29.0998C9.89618 28.8249 10.269 28.6704 10.6578 28.6704ZM33.0809 8.14722H17.5536C16.5693 8.14715 15.6134 8.47733 14.8389 9.08489C14.0644 9.69246 13.5162 10.5423 13.2819 11.4984L11.8453 17.3621C11.6866 18.0096 11.6772 18.6847 11.8178 19.3363C11.9584 19.9879 12.2453 20.599 12.6567 21.1235C13.0682 21.648 13.5936 22.072 14.193 22.3636C14.7925 22.6552 15.4504 22.8067 16.117 22.8066H34.5175C35.1841 22.8067 35.842 22.6552 36.4415 22.3636C37.041 22.072 37.5663 21.648 37.9778 21.1235C38.3893 20.599 38.6762 19.9879 38.8167 19.3363C38.9573 18.6847 38.9479 18.0096 38.7893 17.3621L37.3527 11.4984C37.1183 10.5418 36.5696 9.69161 35.7945 9.08399C35.0194 8.47637 34.0658 8.14649 33.0809 8.14722ZM16.1287 12.1962C16.2069 11.8773 16.3898 11.5939 16.6481 11.3914C16.9065 11.1888 17.2253 11.0789 17.5536 11.0791H33.0809C33.4087 11.0795 33.7269 11.1898 33.9846 11.3923C34.2424 11.5948 34.4249 11.8778 34.5029 12.1962L35.9395 18.0599C35.9923 18.2756 35.9955 18.5004 35.9487 18.7175C35.902 18.9346 35.8065 19.1382 35.6696 19.3129C35.5326 19.4877 35.3578 19.6291 35.1582 19.7264C34.9586 19.8238 34.7396 19.8745 34.5175 19.8748H16.117C15.8947 19.8749 15.6753 19.8245 15.4754 19.7274C15.2754 19.6303 15.1002 19.4889 14.9629 19.3141C14.8256 19.1393 14.7299 18.9355 14.683 18.7182C14.6361 18.5009 14.6392 18.2758 14.6921 18.0599L16.1287 12.1962Z" fill="#0F53FF"/>
</svg>
