<svg width="27" height="27" viewBox="0 0 27 27" fill="none" xmlns="http://www.w3.org/2000/svg">
<path d="M13.4415 27C9.99994 27 6.99956 25.8806 4.4404 23.6419C1.88237 21.4043 0.402235 18.5861 0 15.1875H1.71345C2.17444 18.09 3.5026 20.5031 5.69795 22.4269C7.89329 24.3506 10.4745 25.3125 13.4415 25.3125C16.7464 25.3125 19.5496 24.1667 21.8512 21.8751C24.1527 19.5834 25.3041 16.7917 25.3052 13.5C25.3063 10.2083 24.155 7.41656 21.8512 5.12494C19.5474 2.83331 16.7441 1.6875 13.4415 1.6875C11.6868 1.6875 10.0384 2.0565 8.49608 2.7945C6.9538 3.53138 5.5923 4.54669 4.41159 5.84044H8.61641V7.52794H1.57787V0.521438H3.27268V4.55119C4.58333 3.11906 6.11882 2.00306 7.87917 1.20319C9.63951 0.403312 11.4936 0.00225 13.4415 0C15.3205 0 17.082 0.352125 18.7259 1.05637C20.3699 1.76062 21.806 2.72475 23.0341 3.94875C24.2623 5.17275 25.2306 6.60262 25.939 8.23837C26.6475 9.87412 27.0011 11.628 27 13.5C26.9989 15.372 26.6452 17.1259 25.939 18.7616C25.2329 20.3974 24.2646 21.8272 23.0341 23.0513C21.8037 24.2752 20.3676 25.2394 18.7259 25.9436C17.0842 26.6479 15.3228 27 13.4415 27ZM18.8717 20.0036L12.6907 13.851V5.0625H14.3855V13.149L20.0699 18.8089L18.8717 20.0036Z" fill="#0F53FF"/>
</svg>
