<svg width="25" height="25" viewBox="0 0 25 25" fill="none" xmlns="http://www.w3.org/2000/svg">
<path d="M18.5708 20.13L17.6611 19.2247C17.5407 19.106 17.3986 19.0467 17.2347 19.0467C17.0699 19.0467 16.9278 19.106 16.8083 19.2247C16.6889 19.3425 16.6292 19.4819 16.6292 19.6429C16.6292 19.8039 16.6889 19.9437 16.8083 20.0624L18.0028 21.2492C18.175 21.4212 18.369 21.5072 18.5847 21.5072C18.8005 21.5072 18.9944 21.4212 19.1667 21.2492L22.0806 18.3967C22.2 18.278 22.2643 18.1414 22.2736 17.9869C22.2829 17.8314 22.2185 17.6856 22.0806 17.5494C21.9611 17.4307 21.8148 17.3714 21.6417 17.3714C21.4685 17.3714 21.3218 17.4312 21.2014 17.5508L18.5708 20.13ZM4.54167 6.52738H17.6833C17.8806 6.52738 18.0454 6.4616 18.1778 6.33004C18.3102 6.19848 18.3768 6.03426 18.3778 5.83738C18.3778 5.62302 18.3111 5.45466 18.1778 5.3323C18.0454 5.20902 17.8806 5.14738 17.6833 5.14738H4.54028C4.34305 5.14738 4.17778 5.21316 4.04444 5.34472C3.91111 5.47628 3.84491 5.6405 3.84583 5.83738C3.84676 6.03426 3.91296 6.19848 4.04444 6.33004C4.17593 6.4616 4.34259 6.52738 4.54167 6.52738ZM19.4444 25C17.8972 25 16.5847 24.4641 15.5069 23.3923C14.4282 22.3214 13.8889 21.0173 13.8889 19.48C13.8889 17.9427 14.4282 16.6381 15.5069 15.5663C16.5856 14.4946 17.8981 13.9591 19.4444 13.96C20.9907 13.961 22.3037 14.4964 23.3833 15.5663C24.463 16.6363 25.0018 17.9409 25 19.48C25 21.0164 24.4611 22.3205 23.3833 23.3923C22.3037 24.4641 20.9907 25 19.4444 25ZM0 2.23007C0 1.61184 0.218519 1.0856 0.655556 0.651358C1.09259 0.217119 1.62222 0 2.24444 0H19.9792C20.5995 0 21.1287 0.217119 21.5667 0.651358C22.0037 1.0856 22.2222 1.61184 22.2222 2.23007V9.56751C22.2222 9.76347 22.156 9.92769 22.0236 10.0602C21.8912 10.1926 21.7259 10.2584 21.5278 10.2575C21.3296 10.2566 21.1643 10.1908 21.0319 10.0602C20.8995 9.92953 20.8333 9.76531 20.8333 9.56751V2.23007C20.8333 2.01755 20.7444 1.82251 20.5667 1.64495C20.3889 1.4674 20.1926 1.37908 19.9778 1.38H2.24444C2.03056 1.38 1.83426 1.46832 1.65556 1.64495C1.47685 1.82159 1.38796 2.01663 1.38889 2.23007V20.7689H10.2C10.2287 20.9548 10.2625 21.1406 10.3014 21.3265C10.3412 21.5123 10.3921 21.6954 10.4542 21.8757C10.5162 22.0404 10.4745 22.1751 10.3292 22.28C10.1829 22.3858 10.044 22.3904 9.9125 22.2938L9.56666 22.0592C9.46389 21.9921 9.35555 21.9585 9.24166 21.9585C9.12778 21.9585 9.01898 21.9921 8.91528 22.0592L7.69722 22.8969C7.59444 22.965 7.48611 22.999 7.37222 22.999C7.25833 22.999 7.14954 22.965 7.04583 22.8969L5.82778 22.0592C5.72407 21.9921 5.61528 21.9585 5.50139 21.9585C5.3875 21.9585 5.27917 21.9921 5.17639 22.0592L3.95833 22.8969C3.85555 22.965 3.74722 22.999 3.63333 22.999C3.51944 22.999 3.41065 22.965 3.30694 22.8969L2.08889 22.0592C1.98519 21.9921 1.87639 21.9585 1.7625 21.9585C1.64861 21.9585 1.54028 21.9921 1.4375 22.0592L0 23.1674V2.23007ZM4.54167 16.9312H9.92222C10.1204 16.9312 10.2856 16.8654 10.4181 16.7338C10.5505 16.6023 10.6167 16.438 10.6167 16.2412C10.6167 16.0443 10.5505 15.8805 10.4181 15.7499C10.2856 15.6193 10.1204 15.553 9.92222 15.5512H4.54167C4.34444 15.5512 4.17917 15.6174 4.04583 15.7499C3.9125 15.8824 3.8463 16.0461 3.84722 16.2412C3.84815 16.4362 3.91435 16.6004 4.04583 16.7338C4.17731 16.8672 4.34259 16.933 4.54167 16.9312ZM4.54167 11.73H14.5472C14.7444 11.73 14.9097 11.6642 15.0431 11.5326C15.1764 11.4011 15.2426 11.2368 15.2417 11.04C15.2407 10.8431 15.1745 10.6789 15.0431 10.5473C14.9116 10.4157 14.7463 10.35 14.5472 10.35H4.54028C4.34305 10.35 4.17778 10.4157 4.04444 10.5473C3.91111 10.6789 3.84537 10.8431 3.84722 11.04C3.84907 11.2368 3.91528 11.4011 4.04583 11.5326C4.17639 11.6642 4.34167 11.73 4.54167 11.73Z" fill="#0F53FF"/>
</svg>
