<svg width="21" height="20" viewBox="0 0 21 20" fill="none" xmlns="http://www.w3.org/2000/svg">
<path d="M10.4988 16.577V19.5001M14.1526 15.1155V18.0385M6.84495 15.1155V18.0385M12.0539 4.72246C11.9706 4.4844 11.8152 4.27821 11.6094 4.13257C11.4035 3.98693 11.1573 3.90908 10.9051 3.90984H9.96241C9.69506 3.91079 9.43743 4.01021 9.23873 4.18909C9.04004 4.36797 8.91421 4.61378 8.88528 4.87956C8.85635 5.14535 8.92635 5.41247 9.08191 5.62991C9.23747 5.84735 9.46768 5.99986 9.72857 6.05831L11.1653 6.374C11.4578 6.43923 11.7161 6.60997 11.8907 6.85358C12.0653 7.09719 12.144 7.3966 12.1118 7.6946C12.0797 7.99259 11.9388 8.26828 11.7162 8.46899C11.4936 8.6697 11.2048 8.78135 10.9051 8.78261H10.0925C9.8403 8.78338 9.59413 8.70553 9.38824 8.55989C9.18235 8.41425 9.02697 8.20806 8.94372 7.97M10.4988 3.90984V2.69238M10.4988 10.0001V8.78261M4.28726 6.71161C4.19035 6.71161 4.09742 6.67312 4.02889 6.6046C3.96037 6.53607 3.92188 6.44313 3.92188 6.34623C3.92188 6.24932 3.96037 6.15639 4.02889 6.08786C4.09742 6.01934 4.19035 5.98084 4.28726 5.98084C4.38417 5.98084 4.4771 6.01934 4.54563 6.08786C4.61415 6.15639 4.65264 6.24932 4.65264 6.34623C4.65264 6.44313 4.61415 6.53607 4.54563 6.6046C4.4771 6.67312 4.38417 6.71161 4.28726 6.71161ZM16.7103 6.71161C16.6134 6.71161 16.5205 6.67312 16.452 6.6046C16.3834 6.53607 16.345 6.44313 16.345 6.34623C16.345 6.24932 16.3834 6.15639 16.452 6.08786C16.5205 6.01934 16.6134 5.98084 16.7103 5.98084C16.8072 5.98084 16.9002 6.01934 16.9687 6.08786C17.0372 6.15639 17.0757 6.24932 17.0757 6.34623C17.0757 6.44313 17.0372 6.53607 16.9687 6.6046C16.9002 6.67312 16.8072 6.71161 16.7103 6.71161Z" stroke="#0F53FF" stroke-linecap="round" stroke-linejoin="round"/>
<path d="M18.5385 0.5H2.46154C2.07391 0.5 1.70217 0.653983 1.42807 0.928075C1.15398 1.20217 1 1.57391 1 1.96154V10.7308C1 11.1184 1.15398 11.4901 1.42807 11.7642C1.70217 12.0383 2.07391 12.1923 2.46154 12.1923H18.5385C18.9261 12.1923 19.2978 12.0383 19.5719 11.7642C19.846 11.4901 20 11.1184 20 10.7308V1.96154C20 1.57391 19.846 1.20217 19.5719 0.928075C19.2978 0.653983 18.9261 0.5 18.5385 0.5Z" stroke="#0F53FF" stroke-linecap="round" stroke-linejoin="round"/>
</svg>
