<svg width="41" height="41" viewBox="0 0 41 41" fill="none" xmlns="http://www.w3.org/2000/svg">
<path fill-rule="evenodd" clip-rule="evenodd" d="M29.9096 7.42765C27.2984 5.54809 24.1842 4.49361 20.9683 4.40011C17.7525 4.3066 14.5823 5.17835 11.8663 6.90303C9.15035 8.62771 7.01302 11.1263 5.72976 14.0768C4.4465 17.0273 4.07612 20.2945 4.66634 23.4574C4.76357 24.0256 4.63359 24.6093 4.30441 25.0826C3.97523 25.5559 3.47324 25.8808 2.90671 25.9872C2.34017 26.0937 1.75449 25.9732 1.27597 25.6518C0.797461 25.3303 0.464462 24.8336 0.348797 24.2688C-0.414518 20.1834 0.0816962 15.9624 1.77166 12.1653C3.46163 8.36833 6.26554 5.17463 9.81171 3.00758C13.3579 0.840534 17.4789 -0.197516 21.6283 0.0310316C25.7778 0.259579 29.7599 1.74393 33.0467 4.28733L34.8393 2.49453C35.044 2.28933 35.3049 2.14947 35.5891 2.09265C35.8732 2.03582 36.1679 2.06458 36.4357 2.1753C36.7035 2.28601 36.9325 2.47369 37.0936 2.7146C37.2547 2.9555 37.3407 3.23879 37.3408 3.52861V10.2457C37.3408 10.6342 37.1865 11.0068 36.9118 11.2814C36.6372 11.5561 36.2646 11.7104 35.8762 11.7104H29.1597C28.8705 11.7098 28.588 11.6236 28.3478 11.4626C28.1075 11.3016 27.9203 11.0731 27.8097 10.8058C27.6991 10.5386 27.6701 10.2446 27.7264 9.96089C27.7826 9.67719 27.9216 9.41649 28.1257 9.21166L29.9096 7.42765ZM38.0848 14.9767C38.6573 14.8688 39.2493 14.9926 39.7305 15.3212C40.2117 15.6497 40.5427 16.1559 40.6507 16.7285C41.4147 20.8145 40.9188 25.0362 39.2287 28.8338C37.5387 32.6314 34.7344 35.8256 31.1876 37.9928C27.6408 40.1601 23.5191 41.1979 19.3691 40.9688C15.219 40.7397 11.2366 39.2545 7.94989 36.71L6.15726 38.5058C5.95243 38.7111 5.69124 38.851 5.40679 38.9078C5.12235 38.9645 4.82747 38.9355 4.55953 38.8244C4.29159 38.7133 4.06267 38.5252 3.90177 38.2839C3.74088 38.0425 3.65527 37.7588 3.65579 37.4687V30.7516C3.65579 30.3631 3.81009 29.9906 4.08475 29.7159C4.35941 29.4412 4.73192 29.2869 5.12035 29.2869H11.8368C12.1269 29.2864 12.4106 29.372 12.6519 29.5329C12.8932 29.6938 13.0813 29.9228 13.1924 30.1907C13.3035 30.4587 13.3325 30.7536 13.2758 31.0381C13.219 31.3225 13.0791 31.5838 12.8738 31.7886L11.087 33.5726C13.6982 35.4522 16.8124 36.5067 20.0282 36.6002C23.2441 36.6937 26.4143 35.8219 29.1302 34.0972C31.8462 32.3726 33.9836 29.874 35.2668 26.9235C36.5501 23.973 36.9205 20.7058 36.3302 17.5429C36.2768 17.259 36.28 16.9673 36.3394 16.6846C36.3989 16.4018 36.5135 16.1336 36.6768 15.8953C36.84 15.6569 37.0487 15.4531 37.2908 15.2955C37.5329 15.1379 37.8037 15.0295 38.0877 14.9767H38.0848ZM22.3349 10.7057C22.3349 10.123 22.1034 9.56414 21.6914 9.15211C21.2794 8.74008 20.7206 8.50861 20.138 8.50861C19.5554 8.50861 18.9966 8.74008 18.5846 9.15211C18.1726 9.56414 17.9412 10.123 17.9412 10.7057V11.7104C16.796 11.8999 15.7527 12.4827 14.9907 13.3584C14.2287 14.2341 13.7957 15.348 13.7663 16.5084C13.7368 17.6689 14.1126 18.8034 14.8292 19.7166C15.5457 20.6299 16.5581 21.2649 17.6922 21.5123L21.3829 22.3178C21.6017 22.3734 21.7932 22.506 21.9221 22.6914C22.051 22.8769 22.1086 23.1026 22.0843 23.3271C22.0601 23.5516 21.9557 23.7598 21.7902 23.9134C21.6247 24.0671 21.4094 24.1558 21.1837 24.1634H19.0923C18.8998 24.1626 18.7122 24.1026 18.555 23.9915C18.3977 23.8804 18.2785 23.7236 18.2136 23.5423C18.1174 23.2702 17.9686 23.0196 17.7756 22.8049C17.5826 22.5903 17.3492 22.4158 17.0888 22.2913C16.8283 22.1669 16.546 22.0949 16.2577 22.0796C15.9695 22.0643 15.6811 22.106 15.4089 22.2021C15.1368 22.2983 14.8862 22.4471 14.6716 22.6402C14.457 22.8332 14.2825 23.0666 14.158 23.327C14.0336 23.5875 13.9617 23.8699 13.9464 24.1582C13.9311 24.4464 13.9727 24.7349 14.0688 25.007C14.3702 25.8596 14.8835 26.6215 15.5604 27.2211C16.2373 27.8207 17.0556 28.2382 17.9382 28.4344V29.4949C17.9382 30.0776 18.1697 30.6364 18.5817 31.0484C18.9937 31.4605 19.5524 31.6919 20.1351 31.6919C20.7177 31.6919 21.2765 31.4605 21.6885 31.0484C22.1005 30.6364 22.3319 30.0776 22.3319 29.4949V28.4344C23.5151 28.1692 24.5726 27.5085 25.3298 26.5614C26.087 25.6142 26.4988 24.4372 26.4971 23.2245C26.4954 22.0118 26.0803 20.8359 25.3204 19.8909C24.5606 18.9459 23.5012 18.2881 22.3173 18.0263L18.6266 17.2177C18.4834 17.1854 18.3571 17.1015 18.2717 16.9821C18.1864 16.8626 18.1481 16.7159 18.164 16.5699C18.18 16.424 18.2491 16.289 18.3581 16.1907C18.4672 16.0925 18.6087 16.0378 18.7555 16.0372H21.1808C21.3733 16.0379 21.5609 16.0979 21.7181 16.209C21.8753 16.3202 21.9945 16.477 22.0595 16.6582C22.2537 17.2079 22.6583 17.6579 23.1843 17.9092C23.4447 18.0337 23.7271 18.1056 24.0154 18.1209C24.3036 18.1362 24.592 18.0946 24.8642 17.9984C25.1363 17.9023 25.3868 17.7534 25.6015 17.5604C25.8161 17.3674 25.9906 17.134 26.1151 16.8735C26.2395 16.6131 26.3114 16.3307 26.3267 16.0424C26.342 15.7541 26.3004 15.4657 26.2042 15.1935C25.9026 14.3406 25.3889 13.5784 24.7114 12.9788C24.034 12.3792 23.2151 11.9619 22.3319 11.7661V10.7115L22.3349 10.7057Z" fill="#0F53FF"/>
</svg>
