<svg width="33" height="30" viewBox="0 0 33 30" fill="none" xmlns="http://www.w3.org/2000/svg">
<path d="M31 14.325V6.5153C31 5.36835 31 4.7956 30.7187 4.204C30.5136 3.81186 30.2355 3.46245 29.8994 3.1745C29.3861 2.7685 28.957 2.67135 28.1 2.47415C26.766 2.16965 25.2957 2 23.75 2C20.9704 2 18.4314 2.5481 16.5 3.45C14.5686 4.3519 12.0297 4.9 9.25 4.9C7.7043 4.9 6.234 4.73035 4.9 4.42585C3.508 4.10685 2 5.08705 2 6.5153V22.1347C2 23.2817 2 23.8559 2.2813 24.446C2.4408 24.7839 2.80765 25.2435 3.10055 25.4755C3.61385 25.8815 4.04305 25.9787 4.9 26.1759C6.234 26.4804 7.7043 26.65 9.25 26.65C11.3801 26.65 13.368 26.3281 15.05 25.7728M19.4 25.2C19.4 25.2 20.85 25.2 22.3 28.1C22.3 28.1 26.9067 20.85 31 19.4" stroke="#0F53FF" stroke-width="3" stroke-linecap="round" stroke-linejoin="round"/>
<path d="M7.07422 15.775V15.788M25.9242 12.8634V12.8779M20.1242 14.325C20.1242 15.2864 19.7423 16.2084 19.0625 16.8882C18.3827 17.568 17.4606 17.95 16.4992 17.95C15.5378 17.95 14.6158 17.568 13.936 16.8882C13.2561 16.2084 12.8742 15.2864 12.8742 14.325C12.8742 13.3635 13.2561 12.4415 13.936 11.7617C14.6158 11.0819 15.5378 10.7 16.4992 10.7C17.4606 10.7 18.3827 11.0819 19.0625 11.7617C19.7423 12.4415 20.1242 13.3635 20.1242 14.325Z" stroke="#0F53FF" stroke-width="3" stroke-linecap="round" stroke-linejoin="round"/>
</svg>
