<svg width="39" height="28" viewBox="0 0 39 28" fill="none" xmlns="http://www.w3.org/2000/svg">
<path d="M22.6425 15.0447C21.4609 15.0447 20.4672 14.6425 19.6613 13.8379C18.8554 13.0333 18.4525 12.0412 18.4525 10.8616C18.4525 9.68193 18.8554 8.68982 19.6613 7.88526C20.4672 7.0807 21.4609 6.67842 22.6425 6.67842C23.824 6.67842 24.8177 7.0807 25.6236 7.88526C26.4295 8.68982 26.8324 9.68193 26.8324 10.8616C26.8324 12.0412 26.4295 13.0333 25.6236 13.8379C24.8177 14.6425 23.824 15.0447 22.6425 15.0447ZM6.28492 21.7232V0H39V21.7211L6.28492 21.7232ZM11.7654 19.6316H33.5196C33.5196 18.6946 33.8513 17.897 34.5147 17.2388C35.1767 16.5807 35.9728 16.2516 36.9029 16.2516V5.47158C35.9672 5.47158 35.1697 5.14111 34.5105 4.48017C33.8499 3.81783 33.5196 3.02233 33.5196 2.09367H11.7654C11.7654 3.02931 11.4337 3.8262 10.7703 4.48435C10.1082 5.1425 9.31215 5.47158 8.38198 5.47158V16.2516C9.31774 16.2516 10.1159 16.5828 10.7765 17.2451C11.4358 17.906 11.7654 18.7029 11.7654 19.6316ZM0 27.9958V6.19735H2.09497V25.9084H32.7947V28L0 27.9958Z" fill="black"/>
</svg>
