<svg width="48" height="28" viewBox="0 0 48 28" fill="none" xmlns="http://www.w3.org/2000/svg">
<path fill-rule="evenodd" clip-rule="evenodd" d="M1.18401 1.01831C1.48841 0.713716 1.90127 0.542399 2.3319 0.541993C2.76252 0.541587 3.1757 0.712124 3.48068 1.01615L11.9718 9.47048C13.0855 10.5776 13.807 11.2905 14.4072 11.7498C14.9705 12.1766 15.2348 12.2265 15.4082 12.2265C15.5815 12.2265 15.848 12.1788 16.4113 11.7498C17.0137 11.2948 17.733 10.5798 18.8488 9.47265L19.4425 8.88115C20.4608 7.87148 21.334 7.00048 22.1292 6.39815C22.9828 5.75031 23.9275 5.26065 25.0953 5.26065C26.261 5.26065 27.2078 5.75031 28.0615 6.39598C28.8567 7.00048 29.732 7.86931 30.7482 8.88115L44.0428 22.0935V13.9836C44.0428 13.5527 44.2141 13.1393 44.5188 12.8346C44.8235 12.5299 45.2369 12.3586 45.6678 12.3586C46.0988 12.3586 46.5121 12.5299 46.8169 12.8346C47.1216 13.1393 47.2928 13.5527 47.2928 13.9836V26C47.2928 26.431 47.1216 26.8443 46.8169 27.149C46.5121 27.4538 46.0988 27.625 45.6678 27.625H33.5735C33.1425 27.625 32.7292 27.4538 32.4245 27.149C32.1197 26.8443 31.9485 26.431 31.9485 26C31.9485 25.569 32.1197 25.1557 32.4245 24.8509C32.7292 24.5462 33.1425 24.375 33.5735 24.375H41.7288L28.5338 11.2601C27.4202 10.1551 26.6987 9.44015 26.0963 8.98515C25.533 8.55831 25.2708 8.51065 25.0953 8.51065C24.922 8.51065 24.6577 8.55831 24.0943 8.98731C23.4942 9.44231 22.7727 10.1551 21.659 11.2623L21.0653 11.8516C20.047 12.8635 19.1717 13.7366 18.3765 14.339C17.5228 14.9868 16.576 15.4765 15.4082 15.4765C14.2403 15.4765 13.2935 14.9846 12.4398 14.3368C11.6447 13.7323 10.7715 12.8591 9.75318 11.8473L9.67735 11.7736L1.18834 3.31498C0.88346 3.01087 0.711753 2.59817 0.71094 2.16754C0.710128 1.73692 0.880276 1.32358 1.18401 1.01831Z" fill="#0F53FF"/>
</svg>
