<svg width="27" height="27" viewBox="0 0 27 27" fill="none" xmlns="http://www.w3.org/2000/svg">
<path d="M6 12H12V6H15V12H21V15H15V21H12V15H6V12Z" fill="#0F53FF"/>
<path fill-rule="evenodd" clip-rule="evenodd" d="M2.25 0C1.65326 0 1.08097 0.237053 0.65901 0.65901C0.237053 1.08097 0 1.65326 0 2.25V24.75C0 25.3467 0.237053 25.919 0.65901 26.341C1.08097 26.7629 1.65326 27 2.25 27H24.75C25.3467 27 25.919 26.7629 26.341 26.341C26.7629 25.919 27 25.3467 27 24.75V2.25C27 1.65326 26.7629 1.08097 26.341 0.65901C25.919 0.237053 25.3467 0 24.75 0H2.25ZM25.5 2.25C25.5 2.05109 25.421 1.86032 25.2803 1.71967C25.1397 1.57902 24.9489 1.5 24.75 1.5H2.25C2.05109 1.5 1.86032 1.57902 1.71967 1.71967C1.57902 1.86032 1.5 2.05109 1.5 2.25V24.75C1.5 24.9489 1.57902 25.1397 1.71967 25.2803C1.86032 25.421 2.05109 25.5 2.25 25.5H24.75C24.9489 25.5 25.1397 25.421 25.2803 25.2803C25.421 25.1397 25.5 24.9489 25.5 24.75V2.25Z" fill="#0F53FF"/>
</svg>
