<svg width="14" height="17" viewBox="0 0 14 17" fill="none" xmlns="http://www.w3.org/2000/svg">
<path d="M7 6.65406C6.17533 6.65406 5.469 6.36039 4.881 5.77306C4.293 5.18572 3.99933 4.47906 4 3.65306C4.00067 2.82706 4.29433 2.12106 4.881 1.53506C5.46767 0.949057 6.174 0.655391 7 0.654057C7.826 0.652724 8.53233 0.94639 9.119 1.53506C9.70567 2.12372 9.99933 2.83006 10 3.65406C10.0007 4.47806 9.707 5.18406 9.119 5.77206C8.531 6.36006 7.82467 6.65406 7 6.65406ZM7 5.65406C7.55 5.65406 8.021 5.45806 8.413 5.06606C8.805 4.67406 9.00067 4.20339 9 3.65406C8.99933 3.10472 8.80367 2.63372 8.413 2.24106C8.02233 1.84839 7.55133 1.65272 7 1.65406C6.44867 1.65539 5.978 1.85106 5.588 2.24106C5.198 2.63106 5.002 3.10206 5 3.65406C4.998 4.20606 5.194 4.67672 5.588 5.06606C5.982 5.45539 6.45267 5.65139 7 5.65406ZM0 16.9621V11.8601C0 11.4467 0.118 11.0601 0.354 10.7001C0.589333 10.3401 0.915 10.0594 1.331 9.85806C2.16767 9.45006 3.07567 9.12172 4.055 8.87306C5.03367 8.62439 6.01533 8.50006 7 8.50006C7.98467 8.50006 8.96633 8.62439 9.945 8.87306C10.9237 9.12172 11.8317 9.45006 12.669 9.85806C13.085 10.0601 13.4107 10.3407 13.646 10.7001C13.882 11.0601 14 11.4467 14 11.8601V15.3461C14 15.8061 13.846 16.1904 13.538 16.4991C13.23 16.8077 12.8457 16.9621 12.385 16.9621H5.25C4.66333 16.9621 4.17333 16.7657 3.78 16.3731C3.388 15.9811 3.192 15.4911 3.192 14.9031C3.192 14.3164 3.38833 13.8271 3.781 13.4351C4.173 13.0424 4.66267 12.8461 5.25 12.8461H8.325L9.817 9.87306C9.36833 9.74239 8.88567 9.64772 8.369 9.58906C7.85233 9.53039 7.396 9.50072 7 9.50006C6.044 9.50006 5.128 9.61372 4.252 9.84106C3.376 10.0691 2.563 10.3671 1.813 10.7351C1.557 10.8564 1.35733 11.0187 1.214 11.2221C1.07067 11.4254 0.999333 11.6381 1 11.8601V16.9621H0ZM5.25 15.9621H6.796L7.842 13.8461H5.25C4.96067 13.8461 4.712 13.9501 4.504 14.1581C4.296 14.3654 4.192 14.6141 4.192 14.9041C4.192 15.1934 4.296 15.4421 4.504 15.6501C4.712 15.8581 4.96067 15.9621 5.25 15.9621ZM7.9 15.9621H12.385C12.5643 15.9621 12.7117 15.9041 12.827 15.7881C12.9423 15.6727 13 15.5254 13 15.3461V11.8601C13 11.6381 12.922 11.4254 12.766 11.2221C12.6107 11.0187 12.4193 10.8564 12.192 10.7351C11.9793 10.6217 11.753 10.5174 11.513 10.4221C11.273 10.3267 11.033 10.2354 10.793 10.1481L7.9 15.9621Z" fill="#0F53FF"/>
</svg>
