<svg width="22" height="22" viewBox="0 0 22 22" fill="none" xmlns="http://www.w3.org/2000/svg">
<path d="M1.5 11C1.5 6.522 1.5 4.282 2.891 2.891C4.282 1.5 6.521 1.5 11 1.5C15.478 1.5 17.718 1.5 19.109 2.891C20.5 4.282 20.5 6.521 20.5 11C20.5 15.478 20.5 17.718 19.109 19.109C17.718 20.5 15.479 20.5 11 20.5C6.522 20.5 4.282 20.5 2.891 19.109C1.5 17.718 1.5 15.479 1.5 11Z" stroke="black" stroke-width="1.5" stroke-linecap="round" stroke-linejoin="round"/>
<path d="M4 11V9C4 8.86739 4.05268 8.74021 4.14645 8.64645C4.24021 8.55268 4.36739 8.5 4.5 8.5H5.75C6.08152 8.5 6.39946 8.6317 6.63388 8.86612C6.8683 9.10054 7 9.41848 7 9.75C7 10.0815 6.8683 10.3995 6.63388 10.6339C6.39946 10.8683 6.08152 11 5.75 11H4ZM4 11V13.5M15 11V9C15 8.86739 15.0527 8.74021 15.1464 8.64645C15.2402 8.55268 15.3674 8.5 15.5 8.5H16.75C17.0815 8.5 17.3995 8.6317 17.6339 8.86612C17.8683 9.10054 18 9.41848 18 9.75C18 10.0815 17.8683 10.3995 17.6339 10.6339C17.3995 10.8683 17.0815 11 16.75 11H15ZM15 11V13.5M9.5 8.5V11M9.5 11V13.5M9.5 11H12.5M12.5 8.5V11M12.5 11V13.5" stroke="black" stroke-width="1.5" stroke-linecap="round" stroke-linejoin="round"/>
</svg>
