<svg width="32" height="32" viewBox="0 0 32 32" fill="none" xmlns="http://www.w3.org/2000/svg">
<path d="M28 28H4C2.897 28 2 27.103 2 26V20H4V26H28V20H30V26C30 27.103 29.103 28 28 28Z" fill="black"/>
<path d="M17 17V21C17 21.2652 17.1054 21.5196 17.2929 21.7071C17.4804 21.8946 17.7348 22 18 22H22C22.2652 22 22.5196 21.8946 22.7071 21.7071C22.8946 21.5196 23 21.2652 23 21V17C23 16.7348 22.8946 16.4804 22.7071 16.2929C22.5196 16.1054 22.2652 16 22 16H18C17.7348 16 17.4804 16.1054 17.2929 16.2929C17.1054 16.4804 17 16.7348 17 17ZM19 18H21V20H19V18ZM9 17V21C9 21.2652 9.10536 21.5196 9.29289 21.7071C9.48043 21.8946 9.73478 22 10 22H14C14.2652 22 14.5196 21.8946 14.7071 21.7071C14.8946 21.5196 15 21.2652 15 21V17C15 16.7348 14.8946 16.4804 14.7071 16.2929C14.5196 16.1054 14.2652 16 14 16H10C9.73478 16 9.48043 16.1054 9.29289 16.2929C9.10536 16.4804 9 16.7348 9 17ZM11 18H13V20H11V18ZM17 9V13C17 13.2652 17.1054 13.5196 17.2929 13.7071C17.4804 13.8946 17.7348 14 18 14H22C22.2652 14 22.5196 13.8946 22.7071 13.7071C22.8946 13.5196 23 13.2652 23 13V9C23 8.73478 22.8946 8.48043 22.7071 8.29289C22.5196 8.10536 22.2652 8 22 8H18C17.7348 8 17.4804 8.10536 17.2929 8.29289C17.1054 8.48043 17 8.73478 17 9ZM19 10H21V12H19V10ZM5 5V13C5 13.2652 5.10536 13.5196 5.29289 13.7071C5.48043 13.8946 5.73478 14 6 14H14C14.2652 14 14.5196 13.8946 14.7071 13.7071C14.8946 13.5196 15 13.2652 15 13V5C15 4.73478 14.8946 4.48043 14.7071 4.29289C14.5196 4.10536 14.2652 4 14 4H6C5.73478 4 5.48043 4.10536 5.29289 4.29289C5.10536 4.48043 5 4.73478 5 5ZM7 6H13V12H7V6Z" fill="black"/>
</svg>
