<svg width="54" height="57" viewBox="0 0 54 57" fill="none" xmlns="http://www.w3.org/2000/svg">
<path d="M25.9497 2.393C26.2415 2.13956 26.6149 2 27.0013 2C27.3878 2 27.7612 2.13956 28.0529 2.393L33.2588 6.91472C33.4209 7.05569 33.6098 7.16264 33.8141 7.2292C34.0184 7.29577 34.2339 7.3206 34.448 7.30222L41.3215 6.7036C41.7063 6.67055 42.0901 6.77752 42.4024 7.00484C42.7146 7.23216 42.9343 7.56456 43.0211 7.94093L44.5765 14.6594C44.6245 14.8693 44.7143 15.0674 44.8406 15.2419C44.9668 15.4164 45.127 15.5636 45.3114 15.6749L51.2228 19.2292C51.5535 19.4284 51.8013 19.7402 51.9206 20.1074C52.0399 20.4747 52.0227 20.8726 51.8721 21.2282L49.1784 27.5778C49.0946 27.7756 49.0514 27.9883 49.0514 28.2032C49.0514 28.418 49.0946 28.6307 49.1784 28.8285L51.8721 35.1782C52.0235 35.534 52.0411 35.9326 51.9217 36.3004C51.8024 36.6682 51.5542 36.9805 51.2228 37.1798L45.3114 40.7341C45.1272 40.845 44.9673 40.9919 44.841 41.1659C44.7148 41.3399 44.6248 41.5375 44.5765 41.7469L43.0211 48.4654C42.9343 48.8418 42.7146 49.1742 42.4024 49.4015C42.0901 49.6288 41.7063 49.7358 41.3215 49.7027L34.448 49.1041C34.2341 49.0854 34.0186 49.1098 33.8144 49.1759C33.6101 49.242 33.4212 49.3484 33.2588 49.4889L28.0503 54.0133C27.7585 54.2668 27.3851 54.4063 26.9987 54.4063C26.6122 54.4063 26.2388 54.2668 25.9471 54.0133L20.7412 49.4889C20.5788 49.3484 20.3899 49.242 20.1856 49.1759C19.9814 49.1098 19.7659 49.0854 19.552 49.1041L12.6785 49.7027C12.2937 49.7358 11.9099 49.6288 11.5976 49.4015C11.2854 49.1742 11.0657 48.8418 10.9789 48.4654L9.42354 41.7469C9.37552 41.537 9.2857 41.3389 9.15944 41.1644C9.03317 40.9899 8.87305 40.8427 8.68863 40.7314L2.77725 37.1771C2.44647 36.9779 2.19866 36.6661 2.07936 36.2989C1.96006 35.9316 1.97728 35.5337 2.12786 35.1782L4.82165 28.8285C4.90544 28.6307 4.94862 28.418 4.94862 28.2032C4.94862 27.9883 4.90544 27.7756 4.82165 27.5778L2.12786 21.2282C1.97654 20.8723 1.95893 20.4737 2.07826 20.1059C2.19759 19.7381 2.44584 19.4258 2.77725 19.2265L8.68863 15.6722C8.87277 15.5613 9.03272 15.4144 9.15897 15.2404C9.28522 15.0664 9.3752 14.8688 9.42354 14.6594L10.9789 7.94093C11.0657 7.56456 11.2854 7.23216 11.5976 7.00484C11.9099 6.77752 12.2937 6.67055 12.6785 6.7036L19.552 7.30222C19.7661 7.3206 19.9816 7.29577 20.1859 7.2292C20.3902 7.16264 20.5791 7.05569 20.7412 6.91472L25.9497 2.393Z" stroke="#0F53FF" stroke-width="4"/>
<path d="M18.9883 30.8756L24.3331 36.2205L37.6952 22.8584" stroke="#0F53FF" stroke-width="4" stroke-linecap="round" stroke-linejoin="round"/>
</svg>
