<svg width="36" height="32" viewBox="0 0 36 32" fill="none" xmlns="http://www.w3.org/2000/svg">
<path d="M31.5 11.4286H33.75V32H31.5V11.4286ZM9 19.4286L11.25 17.1429V32H9V19.4286ZM4.5 24L6.75 21.7143V32H4.5V24ZM13.5 14.8571L15.75 12.5714V32H13.5V14.8571ZM18 12.5714L20.25 14.8571V31.9821H18V12.5714ZM23.625 18.2857L24.75 17.1429V32H22.5V17.1429L23.625 18.2857ZM27 14.8571L29.25 12.5714V32H27V14.8571ZM0 28.5714L2.25 26.2857V32H0V28.5714ZM36 0V9.14286H33.75V3.91071L23.625 14.1786L16.875 7.32143L0 24.4821V21.2321L16.875 4.10714L23.625 10.9643L32.1504 2.28571H27V0H36Z" fill="#0F53FF"/>
</svg>
