<svg width="25" height="31" viewBox="0 0 25 31" fill="none" xmlns="http://www.w3.org/2000/svg">
<path d="M3.875 25.4375V12.5C3.875 10.2125 4.7837 8.01871 6.4012 6.4012C8.01871 4.7837 10.2125 3.875 12.5 3.875C14.7875 3.875 16.9813 4.7837 18.5988 6.4012C20.2163 8.01871 21.125 10.2125 21.125 12.5V25.4375M3.875 25.4375H21.125M3.875 25.4375H1M21.125 25.4375H24M11.0625 29.75H13.9375" stroke="black" stroke-width="2" stroke-linecap="round" stroke-linejoin="round"/>
<path d="M12.5 3.875C13.2939 3.875 13.9375 3.23141 13.9375 2.4375C13.9375 1.64359 13.2939 1 12.5 1C11.7061 1 11.0625 1.64359 11.0625 2.4375C11.0625 3.23141 11.7061 3.875 12.5 3.875Z" stroke="black" stroke-width="2"/>
</svg>
