<svg width="24" height="24" viewBox="0 0 24 24" fill="none" xmlns="http://www.w3.org/2000/svg">
<path fill-rule="evenodd" clip-rule="evenodd" d="M11.943 1.25H12.057C14.366 1.25 16.175 1.25 17.587 1.44C19.031 1.634 20.171 2.04 21.066 2.934C21.961 3.829 22.366 4.969 22.56 6.414C22.75 7.825 22.75 9.634 22.75 11.943V12.057C22.75 14.366 22.75 16.175 22.56 17.587C22.366 19.031 21.96 20.171 21.066 21.066C20.171 21.961 19.031 22.366 17.586 22.56C16.175 22.75 14.366 22.75 12.057 22.75H11.943C9.634 22.75 7.825 22.75 6.413 22.56C4.969 22.366 3.829 21.96 2.934 21.066C2.039 20.171 1.634 19.031 1.44 17.586C1.25 16.175 1.25 14.366 1.25 12.057V11.943C1.25 9.634 1.25 7.825 1.44 6.413C1.634 4.969 2.04 3.829 2.934 2.934C3.829 2.039 4.969 1.634 6.414 1.44C7.825 1.25 9.634 1.25 11.943 1.25ZM6.613 2.926C5.335 3.098 4.564 3.426 3.995 3.995C3.425 4.565 3.098 5.335 2.926 6.614C2.752 7.914 2.75 9.622 2.75 12C2.75 14.378 2.752 16.086 2.926 17.386C3.098 18.665 3.426 19.436 3.995 20.006C4.565 20.575 5.335 20.902 6.614 21.074C7.914 21.248 9.622 21.25 12 21.25C14.378 21.25 16.086 21.248 17.386 21.074C18.665 20.902 19.436 20.574 20.006 20.005C20.575 19.435 20.902 18.665 21.074 17.386C21.248 16.086 21.25 14.378 21.25 12C21.25 9.622 21.248 7.914 21.074 6.614C20.902 5.335 20.574 4.564 20.005 3.994C19.435 3.425 18.665 3.098 17.386 2.926C16.086 2.752 14.378 2.75 12 2.75C9.622 2.75 7.913 2.752 6.613 2.926Z" fill="black"/>
<path fill-rule="evenodd" clip-rule="evenodd" d="M16.047 7.25H16.175C16.56 7.25 16.84 7.25 17.085 7.288C18.058 7.441 18.964 8.07 19.209 9.044C19.269 9.284 19.269 9.552 19.269 9.836V13.783C19.269 14.067 19.269 14.335 19.209 14.575C19.167 14.7439 19.1031 14.9066 19.019 15.059L19.465 15.412C19.5457 15.4718 19.6135 15.5473 19.6644 15.6338C19.7154 15.7204 19.7484 15.8163 19.7616 15.9158C19.7748 16.0154 19.7678 16.1166 19.7412 16.2134C19.7145 16.3103 19.6686 16.4007 19.6064 16.4795C19.5441 16.5583 19.4666 16.6237 19.3785 16.672C19.2904 16.7203 19.1936 16.7504 19.0936 16.7605C18.9937 16.7706 18.8928 16.7605 18.7968 16.7309C18.7009 16.7013 18.6118 16.6527 18.535 16.588L17.895 16.083C17.64 16.203 17.365 16.287 17.085 16.331C16.84 16.369 16.56 16.369 16.175 16.369H16.047C15.662 16.369 15.383 16.369 15.137 16.331C14.165 16.178 13.258 15.55 13.013 14.575C12.953 14.335 12.953 14.067 12.953 13.783V9.836C12.953 9.552 12.953 9.284 13.013 9.044C13.258 8.07 14.165 7.441 15.137 7.288C15.383 7.25 15.662 7.25 16.047 7.25ZM17.766 14.067L17.539 13.888C17.4009 13.7786 17.2286 13.7213 17.0525 13.7263C16.8763 13.7312 16.7076 13.7979 16.5757 13.9148C16.4439 14.0318 16.3575 14.1914 16.3315 14.3656C16.3056 14.5399 16.3419 14.7178 16.434 14.868L16.111 14.869C15.635 14.869 15.484 14.867 15.371 14.849C14.815 14.761 14.527 14.444 14.468 14.209C14.459 14.175 14.454 14.113 14.454 13.714V9.904C14.454 9.506 14.459 9.444 14.468 9.409C14.528 9.175 14.815 8.858 15.37 8.77C15.484 8.752 15.635 8.75 16.111 8.75C16.587 8.75 16.738 8.752 16.851 8.77C17.407 8.858 17.695 9.175 17.754 9.41C17.763 9.444 17.768 9.506 17.768 9.905V13.715C17.768 13.886 17.768 13.995 17.766 14.067ZM6 7.25C6.19891 7.25 6.38968 7.32902 6.53033 7.46967C6.67098 7.61032 6.75 7.80109 6.75 8V11.25H10.065V8C10.065 7.80109 10.144 7.61032 10.2847 7.46967C10.4253 7.32902 10.6161 7.25 10.815 7.25C11.0139 7.25 11.2047 7.32902 11.3453 7.46967C11.486 7.61032 11.565 7.80109 11.565 8V15.62C11.565 15.8189 11.486 16.0097 11.3453 16.1503C11.2047 16.291 11.0139 16.37 10.815 16.37C10.6161 16.37 10.4253 16.291 10.2847 16.1503C10.144 16.0097 10.065 15.8189 10.065 15.62V12.75H6.75V15.62C6.75 15.8189 6.67098 16.0097 6.53033 16.1503C6.38968 16.291 6.19891 16.37 6 16.37C5.80109 16.37 5.61032 16.291 5.46967 16.1503C5.32902 16.0097 5.25 15.8189 5.25 15.62V8C5.25 7.80109 5.32902 7.61032 5.46967 7.46967C5.61032 7.32902 5.80109 7.25 6 7.25Z" fill="black"/>
</svg>
