<svg width="47" height="47" viewBox="0 0 47 47" fill="none" xmlns="http://www.w3.org/2000/svg">
<path d="M7.34375 0C5.39607 0 3.52815 0.773714 2.15093 2.15093C0.773714 3.52815 0 5.39607 0 7.34375V33.7812C0 35.7289 0.773714 37.5968 2.15093 38.9741C3.52815 40.3513 5.39607 41.125 7.34375 41.125H19.3875C18.9077 40.1859 18.5211 39.202 18.2331 38.1875H7.34375C6.17514 38.1875 5.05439 37.7233 4.22806 36.8969C3.40173 36.0706 2.9375 34.9499 2.9375 33.7812V7.34375C2.9375 6.17514 3.40173 5.05439 4.22806 4.22806C5.05439 3.40173 6.17514 2.9375 7.34375 2.9375H33.7812C34.9499 2.9375 36.0706 3.40173 36.8969 4.22806C37.7233 5.05439 38.1875 6.17514 38.1875 7.34375V18.2331C39.2137 18.5249 40.1928 18.9097 41.125 19.3875V7.34375C41.125 5.39607 40.3513 3.52815 38.9741 2.15093C37.5968 0.773714 35.7289 0 33.7812 0H7.34375ZM18.2331 29.375C18.5249 28.3488 18.9097 27.3697 19.3875 26.4375H7.34375C6.95421 26.4375 6.58063 26.5922 6.30519 26.8677C6.02974 27.1431 5.875 27.5167 5.875 27.9062C5.875 28.2958 6.02974 28.6694 6.30519 28.9448C6.58063 29.2203 6.95421 29.375 7.34375 29.375H18.2331ZM16.1562 35.25C16.5458 35.25 16.9194 35.0953 17.1948 34.8198C17.4703 34.5444 17.625 34.1708 17.625 33.7812C17.625 33.3917 17.4703 33.0181 17.1948 32.7427C16.9194 32.4672 16.5458 32.3125 16.1562 32.3125H7.34375C6.95421 32.3125 6.58063 32.4672 6.30519 32.7427C6.02974 33.0181 5.875 33.3917 5.875 33.7812C5.875 34.1708 6.02974 34.5444 6.30519 34.8198C6.58063 35.0953 6.95421 35.25 7.34375 35.25H16.1562ZM14.6875 5.875C14.9717 5.87496 15.2498 5.95737 15.488 6.11222C15.7263 6.26708 15.9146 6.48773 16.0299 6.74744L21.9049 19.9662C21.9832 20.1425 22.0261 20.3325 22.031 20.5253C22.0358 20.7181 22.0027 20.9101 21.9334 21.0901C21.8641 21.2701 21.7601 21.4347 21.6271 21.5746C21.4942 21.7144 21.3351 21.8266 21.1588 21.9049C20.9825 21.9832 20.7925 22.0261 20.5997 22.031C20.4069 22.0358 20.2149 22.0027 20.0349 21.9334C19.8549 21.8641 19.6903 21.7601 19.5504 21.6271C19.4106 21.4942 19.2984 21.3351 19.2201 21.1588L17.6485 17.625H11.7265L10.1549 21.1588C9.99679 21.5149 9.70368 21.7935 9.34009 21.9334C8.9765 22.0733 8.57222 22.0631 8.21619 21.9049C7.86015 21.7468 7.58152 21.4537 7.4416 21.0901C7.30167 20.7265 7.31191 20.3222 7.47006 19.9662L13.3451 6.74744C13.4604 6.48773 13.6487 6.26708 13.887 6.11222C14.1252 5.95737 14.4033 5.87496 14.6875 5.875ZM16.3442 14.6875L14.6875 10.9598L13.0307 14.6875H16.3442ZM30.8438 7.34375C30.8438 6.95421 30.689 6.58063 30.4136 6.30519C30.1381 6.02974 29.7645 5.875 29.375 5.875C28.9855 5.875 28.6119 6.02974 28.3364 6.30519C28.061 6.58063 27.9062 6.95421 27.9062 7.34375V10.2812H24.9688C24.5792 10.2812 24.2056 10.436 23.9302 10.7114C23.6547 10.9869 23.5 11.3605 23.5 11.75C23.5 12.1395 23.6547 12.5131 23.9302 12.7886C24.2056 13.064 24.5792 13.2188 24.9688 13.2188H27.9062V16.1562C27.9062 16.5458 28.061 16.9194 28.3364 17.1948C28.6119 17.4703 28.9855 17.625 29.375 17.625C29.7645 17.625 30.1381 17.4703 30.4136 17.1948C30.689 16.9194 30.8438 16.5458 30.8438 16.1562V13.2188H33.7812C34.1708 13.2188 34.5444 13.064 34.8198 12.7886C35.0953 12.5131 35.25 12.1395 35.25 11.75C35.25 11.3605 35.0953 10.9869 34.8198 10.7114C34.5444 10.436 34.1708 10.2812 33.7812 10.2812H30.8438V7.34375ZM47 33.7812C47 37.2871 45.6073 40.6493 43.1283 43.1283C40.6493 45.6073 37.2871 47 33.7812 47C30.2754 47 26.9132 45.6073 24.4342 43.1283C21.9552 40.6493 20.5625 37.2871 20.5625 33.7812C20.5625 30.2754 21.9552 26.9132 24.4342 24.4342C26.9132 21.9552 30.2754 20.5625 33.7812 20.5625C37.2871 20.5625 40.6493 21.9552 43.1283 24.4342C45.6073 26.9132 47 30.2754 47 33.7812ZM35.25 27.9062C35.25 27.5167 35.0953 27.1431 34.8198 26.8677C34.5444 26.5922 34.1708 26.4375 33.7812 26.4375C33.3917 26.4375 33.0181 26.5922 32.7427 26.8677C32.4672 27.1431 32.3125 27.5167 32.3125 27.9062V32.3125H27.9062C27.5167 32.3125 27.1431 32.4672 26.8677 32.7427C26.5922 33.0181 26.4375 33.3917 26.4375 33.7812C26.4375 34.1708 26.5922 34.5444 26.8677 34.8198C27.1431 35.0953 27.5167 35.25 27.9062 35.25H32.3125V39.6562C32.3125 40.0458 32.4672 40.4194 32.7427 40.6948C33.0181 40.9703 33.3917 41.125 33.7812 41.125C34.1708 41.125 34.5444 40.9703 34.8198 40.6948C35.0953 40.4194 35.25 40.0458 35.25 39.6562V35.25H39.6562C40.0458 35.25 40.4194 35.0953 40.6948 34.8198C40.9703 34.5444 41.125 34.1708 41.125 33.7812C41.125 33.3917 40.9703 33.0181 40.6948 32.7427C40.4194 32.4672 40.0458 32.3125 39.6562 32.3125H35.25V27.9062Z" fill="#0F53FF"/>
</svg>
