<svg width="22" height="20" viewBox="0 0 22 20" fill="none" xmlns="http://www.w3.org/2000/svg">
<path d="M5.357 7C2.72 7.68 1 8.845 1 10.175C1 12.282 5.405 14 10.85 14C11.59 14 12.11 13.961 12.8 13.903" stroke="#6F6B6B" stroke-linecap="round" stroke-linejoin="round"/>
<path d="M8.83614 13.9002C8.42314 13.3042 8.03014 12.7672 7.65614 12.1002C4.90514 7.20022 4.16814 2.33022 6.02614 1.22722C7.17614 0.530222 9.07314 1.48022 11.0001 3.48122" stroke="#6F6B6B" stroke-linecap="round" stroke-linejoin="round"/>
<path d="M5.42873 13.387C4.72673 16.075 4.86873 18.103 5.98873 18.782C7.77173 19.862 11.3757 16.824 14.0317 11.978C14.3917 11.308 14.7144 10.6487 14.9997 10" stroke="#6F6B6B" stroke-linecap="round" stroke-linejoin="round"/>
<path d="M11 16.5196C12.928 18.5196 14.817 19.4696 15.978 18.7726C17.828 17.6706 17.099 12.8006 14.345 7.89961C13.961 7.22261 13.568 6.69561 13.165 6.09961" stroke="#6F6B6B" stroke-linecap="round" stroke-linejoin="round"/>
<path d="M16.6631 13C19.2751 12.313 21.0031 11.15 21.0031 9.824C21.0031 7.714 16.5951 6 11.1581 6C10.4111 6 9.89213 6.029 9.20312 6.087" stroke="#6F6B6B" stroke-linecap="round" stroke-linejoin="round"/>
<path d="M7 9.99976C7.285 9.33976 7.607 8.69176 7.968 8.02176C10.615 3.17776 14.221 0.131759 16.014 1.22076C17.124 1.89976 17.276 3.92676 16.574 6.61376M11.26 10.0148H11.25C11.24 10.1448 11.13 10.2548 10.99 10.2548C10.923 10.2514 10.8599 10.2227 10.8134 10.1744C10.7669 10.126 10.7407 10.0618 10.74 9.99476C10.74 9.85476 10.85 9.74476 10.98 9.74476H10.97C11.1 9.73476 11.22 9.85476 11.22 9.98476" stroke="#6F6B6B" stroke-linecap="round" stroke-linejoin="round"/>
</svg>
