<svg width="54" height="53" viewBox="0 0 54 53" fill="none" xmlns="http://www.w3.org/2000/svg">
<path fill-rule="evenodd" clip-rule="evenodd" d="M27 0C27.4996 0 27.9787 0.194788 28.332 0.541512C28.6853 0.888236 28.8837 1.3585 28.8837 1.84884V5.00912C34.0426 5.44461 38.8791 7.6539 42.5404 11.2474C46.2017 14.8409 48.4527 19.5879 48.8964 24.6512H52.1163C52.6159 24.6512 53.095 24.846 53.4483 25.1927C53.8015 25.5394 54 26.0097 54 26.5C54 26.9903 53.8015 27.4606 53.4483 27.8073C53.095 28.154 52.6159 28.3488 52.1163 28.3488H48.8964C48.4527 33.4121 46.2017 38.1591 42.5404 41.7526C38.8791 45.3461 34.0426 47.5554 28.8837 47.9909V51.1512C28.8837 51.6415 28.6853 52.1118 28.332 52.4585C27.9787 52.8052 27.4996 53 27 53C26.5004 53 26.0213 52.8052 25.668 52.4585C25.3147 52.1118 25.1163 51.6415 25.1163 51.1512V47.9909C19.9574 47.5554 15.1209 45.3461 11.4596 41.7526C7.79831 38.1591 5.54734 33.4121 5.10363 28.3488H1.88372C1.38413 28.3488 0.904995 28.154 0.551729 27.8073C0.198463 27.4606 0 26.9903 0 26.5C0 26.0097 0.198463 25.5394 0.551729 25.1927C0.904995 24.846 1.38413 24.6512 1.88372 24.6512H5.10363C5.54734 19.5879 7.79831 14.8409 11.4596 11.2474C15.1209 7.6539 19.9574 5.44461 25.1163 5.00912V1.84884C25.1163 1.3585 25.3147 0.888236 25.668 0.541512C26.0213 0.194788 26.5004 0 27 0ZM27 8.62791C24.6087 8.62791 22.2409 9.09018 20.0316 9.98834C17.8223 10.8865 15.815 12.2029 14.1241 13.8625C12.4332 15.5221 11.0919 17.4923 10.1768 19.6606C9.26169 21.829 8.7907 24.153 8.7907 26.5C8.7907 28.847 9.26169 31.171 10.1768 33.3394C11.0919 35.5077 12.4332 37.4779 14.1241 39.1375C15.815 40.7971 17.8223 42.1135 20.0316 43.0117C22.2409 43.9098 24.6087 44.3721 27 44.3721C31.8294 44.3721 36.461 42.4891 39.8759 39.1375C43.2908 35.7858 45.2093 31.24 45.2093 26.5C45.2093 21.76 43.2908 17.2142 39.8759 13.8625C36.461 10.5109 31.8294 8.62791 27 8.62791ZM27 20.9535C25.5012 20.9535 24.0638 21.5379 23.004 22.578C21.9442 23.6182 21.3488 25.029 21.3488 26.5C21.3488 27.971 21.9442 29.3818 23.004 30.422C24.0638 31.4621 25.5012 32.0465 27 32.0465C28.4988 32.0465 29.9362 31.4621 30.996 30.422C32.0558 29.3818 32.6512 27.971 32.6512 26.5C32.6512 25.029 32.0558 23.6182 30.996 22.578C29.9362 21.5379 28.4988 20.9535 27 20.9535ZM17.5814 26.5C17.5814 24.0483 18.5737 21.697 20.34 19.9634C22.1064 18.2298 24.502 17.2558 27 17.2558C29.498 17.2558 31.8936 18.2298 33.66 19.9634C35.4263 21.697 36.4186 24.0483 36.4186 26.5C36.4186 28.9517 35.4263 31.303 33.66 33.0366C31.8936 34.7702 29.498 35.7442 27 35.7442C24.502 35.7442 22.1064 34.7702 20.34 33.0366C18.5737 31.303 17.5814 28.9517 17.5814 26.5Z" fill="#0F53FF"/>
</svg>
