<svg width="34" height="34" viewBox="0 0 34 34" fill="none" xmlns="http://www.w3.org/2000/svg">
<path d="M2.42857 0H0V31.5714C0 32.2155 0.255867 32.8332 0.711312 33.2887C1.16676 33.7441 1.78447 34 2.42857 34H34V31.5714H2.42857V0Z" fill="black"/>
<path d="M34.0022 8.5H25.5022V10.9286H29.8615L20.6451 20.145L15.4358 14.9236C15.3229 14.8098 15.1886 14.7194 15.0406 14.6578C14.8927 14.5961 14.734 14.5644 14.5737 14.5644C14.4134 14.5644 14.2546 14.5961 14.1067 14.6578C13.9587 14.7194 13.8244 14.8098 13.7115 14.9236L4.85938 23.7879L6.57152 25.5L14.5737 17.4979L19.7829 22.7193C19.8958 22.8331 20.0301 22.9234 20.1781 22.9851C20.3261 23.0467 20.4848 23.0785 20.6451 23.0785C20.8054 23.0785 20.9641 23.0467 21.1121 22.9851C21.26 22.9234 21.3943 22.8331 21.5072 22.7193L31.5737 12.6407V17H34.0022V8.5Z" fill="black"/>
</svg>
