<svg width="54" height="59" viewBox="0 0 54 59" fill="none" xmlns="http://www.w3.org/2000/svg">
<path d="M28.455 59V51.7561L45.9903 34.3609C46.3147 34.0769 46.649 33.8693 46.9931 33.7382C47.3373 33.6071 47.6825 33.5393 48.0289 33.5349C48.4059 33.5349 48.7763 33.6049 49.1402 33.7447C49.5019 33.8868 49.8318 34.0987 50.1299 34.3806L53.1714 37.4748C53.441 37.7982 53.6471 38.1348 53.7896 38.4844C53.9299 38.8318 54 39.1804 54 39.53C54 39.8796 53.9331 40.2314 53.7994 40.5854C53.6657 40.9394 53.4575 41.2781 53.1747 41.6016L35.7183 59H28.455ZM31.3649 56.1024H34.4886L45.8883 44.7154L44.4087 43.0962L42.8469 41.5557L31.3616 52.9886L31.3649 56.1024ZM5.31024 59C3.79553 59 2.53181 58.4952 1.51909 57.4857C0.506363 56.4761 0 55.2164 0 53.7064V5.29361C0 3.78583 0.507458 2.52717 1.52238 1.51761C2.53729 0.508056 3.80101 0.00218519 5.31352 0H31.2367L46.033 14.75V23.2591H42.7449V16.3889H29.5926V3.27778H5.31352C4.80716 3.27778 4.34245 3.48756 3.91938 3.90711C3.49632 4.32667 3.28588 4.78883 3.28807 5.29361V53.7064C3.28807 54.209 3.49851 54.6711 3.91938 55.0929C4.34025 55.5146 4.80387 55.7244 5.31024 55.7222H20.6129V59H5.31024ZM44.4054 43.0962L42.8469 41.5557L45.8883 44.7154L44.4054 43.0962Z" fill="black"/>
</svg>
