<svg width="42" height="42" viewBox="0 0 42 42" fill="none" xmlns="http://www.w3.org/2000/svg">
<path d="M10.5 13.125H21V15.75H10.5V13.125ZM10.5 7.875H26.25V10.5H10.5V7.875ZM10.5 2.625H26.25V5.25H10.5V2.625Z" fill="#0F53FF"/>
<path d="M6.18319 36.75L13.5739 23.6302L23.331 32.1484C23.6259 32.4108 23.9763 32.6034 24.356 32.7117C24.7356 32.82 25.1348 32.8412 25.5239 32.7739C25.9129 32.7065 26.2817 32.5523 26.6029 32.3226C26.924 32.093 27.1892 31.7938 27.3787 31.4475L36.5269 17.7936L34.3468 16.3314L25.1593 30.0444L25.0674 30.1796L15.309 21.6615C15.0141 21.4005 14.6644 21.2091 14.2857 21.1015C13.907 20.9938 13.5089 20.9725 13.1208 21.0393C12.7328 21.1061 12.3647 21.2591 12.0437 21.4872C11.7228 21.7153 11.4572 22.0126 11.2665 22.3571L5.25 33.0527V2.625H2.625V36.75C2.625 37.4462 2.90156 38.1139 3.39384 38.6062C3.88613 39.0984 4.55381 39.375 5.25 39.375H39.375V36.75H6.18319Z" fill="#0F53FF"/>
</svg>
