<svg width="38" height="44" viewBox="0 0 38 44" fill="none" xmlns="http://www.w3.org/2000/svg">
<path d="M19 26.2827L16.1289 23.5619C12.8093 20.4365 8.67786 18.3401 4.22222 17.5205V32.4099C9.73222 33.1383 14.7778 35.2806 19 38.4513C23.2222 35.2806 28.2678 33.1383 33.7778 32.4099V17.5205C29.2178 18.356 25.1433 20.4984 21.8711 23.5619M33.7778 13.1715C35.15 12.9573 36.5644 12.8501 38 12.8501V36.4161C30.6111 36.4161 23.9822 39.3082 19 44C14.0178 39.3082 7.38889 36.4161 0 36.4161V12.8501C1.43556 12.8501 2.85 12.9573 4.22222 13.1715C9.90111 14.0499 14.9889 16.6635 19 20.4341C23.0111 16.6635 28.0989 14.0499 33.7778 13.1715ZM19 8.56543C19.57 8.56543 20.0556 8.35119 20.4989 7.94414C20.9 7.49425 21.1111 7.00151 21.1111 6.42307C21.1111 5.84463 20.9 5.35189 20.4989 4.902C20.0556 4.51637 19.57 4.28071 19 4.28071C18.43 4.28071 17.9444 4.51637 17.5011 4.902C17.1211 5.35189 16.8889 5.86606 16.8889 6.42307C16.8889 6.98008 17.1211 7.49425 17.5011 7.94414C17.9444 8.35119 18.4511 8.56543 19 8.56543ZM23.4756 10.9649C22.2886 12.1694 20.6787 12.8461 19 12.8461C17.3213 12.8461 15.7114 12.1694 14.5244 10.9649C13.3375 9.76031 12.6706 8.12657 12.6706 6.42307C12.6706 4.71956 13.3375 3.08583 14.5244 1.88127C15.1122 1.28484 15.8099 0.811716 16.5778 0.488927C17.3458 0.166138 18.1688 0 19 0C19.8312 0 20.6542 0.166138 21.4222 0.488927C22.1901 0.811716 22.8878 1.28484 23.4756 1.88127C24.0633 2.47771 24.5295 3.18578 24.8476 3.96507C25.1657 4.74435 25.3294 5.57958 25.3294 6.42307C25.3294 7.26656 25.1657 8.10179 24.8476 8.88107C24.5295 9.66035 24.0633 10.3684 23.4756 10.9649Z" fill="#0F53FF"/>
</svg>
