<svg width="27" height="30" viewBox="0 0 27 30" fill="none" xmlns="http://www.w3.org/2000/svg">
<path d="M10.2369 24.9512H11.8684V18.5136C12.5486 18.5136 13.1265 18.279 13.6022 17.8098C14.0779 17.3405 14.3158 16.7698 14.3158 16.0977V11.2695H12.6842V16.0977H11.8684V11.2695H10.2369V16.0977H9.42107V11.2695H7.7895V16.0977C7.7895 16.7698 8.02736 17.3405 8.50307 17.8098C8.97879 18.279 9.55671 18.5136 10.2369 18.5136V24.9512ZM16.7631 24.9512H18.3966V11.2695C17.5082 11.2695 16.7419 11.5847 16.0978 12.215C15.4549 12.8453 15.1335 13.603 15.1335 14.4883V19.3183H16.7631V24.9512ZM0 30V10.0254L13.5 0L27 10.0254V30H0ZM1.92857 28.0977H25.0714V10.9765L13.5 2.41598L1.92857 10.9765V28.0977Z" fill="#0F53FF"/>
</svg>
