<svg width="40" height="37" viewBox="0 0 40 37" fill="none" xmlns="http://www.w3.org/2000/svg">
<path d="M17.3055 23.4H9.50547C8.47112 23.4 7.47914 23.8108 6.74775 24.5422C6.01636 25.2736 5.60547 26.2656 5.60547 27.3V29.9H8.20547V27.3C8.20547 26.9552 8.34243 26.6245 8.58623 26.3807C8.83003 26.1369 9.16069 26 9.50547 26H17.3055C17.6503 26 17.9809 26.1369 18.2247 26.3807C18.4685 26.6245 18.6055 26.9552 18.6055 27.3V29.9H21.2055V27.3C21.2055 26.2656 20.7946 25.2736 20.0632 24.5422C19.3318 23.8108 18.3398 23.4 17.3055 23.4ZM13.4055 22.1C14.4339 22.1 15.4393 21.795 16.2944 21.2236C17.1496 20.6522 17.8161 19.8401 18.2096 18.8899C18.6032 17.9397 18.7062 16.8942 18.5056 15.8855C18.3049 14.8768 17.8097 13.9502 17.0824 13.223C16.3552 12.4958 15.4286 12.0005 14.4199 11.7999C13.4112 11.5992 12.3657 11.7022 11.4155 12.0958C10.4653 12.4894 9.65321 13.1559 9.08183 14.011C8.51044 14.8661 8.20547 15.8715 8.20547 16.9C8.20547 18.2791 8.75332 19.6017 9.72851 20.5769C10.7037 21.5521 12.0263 22.1 13.4055 22.1ZM13.4055 14.3C13.9197 14.3 14.4224 14.4524 14.85 14.7381C15.2775 15.0238 15.6108 15.4299 15.8076 15.905C16.0043 16.3801 16.0558 16.9028 15.9555 17.4072C15.8552 17.9115 15.6076 18.3748 15.2439 18.7384C14.8803 19.102 14.4171 19.3497 13.9127 19.45C13.4084 19.5503 12.8856 19.4988 12.4105 19.302C11.9354 19.1053 11.5293 18.772 11.2436 18.3444C10.958 17.9169 10.8055 17.4142 10.8055 16.9C10.8055 16.2104 11.0794 15.5491 11.567 15.0615C12.0546 14.5739 12.7159 14.3 13.4055 14.3Z" fill="#0F53FF"/>
<path d="M34.2063 22.1V33.8H3.00625V7.79995H18.6063V5.19995H3.00625C2.31669 5.19995 1.65537 5.47388 1.16777 5.96147C0.680178 6.44907 0.40625 7.11039 0.40625 7.79995V33.8C0.40625 34.4895 0.680178 35.1508 1.16777 35.6384C1.65537 36.126 2.31669 36.4 3.00625 36.4H34.2063C34.8958 36.4 35.5571 36.126 36.0447 35.6384C36.5323 35.1508 36.8063 34.4895 36.8063 33.8V22.1H34.2063Z" fill="#0F53FF"/>
<path d="M23.807 22.1H31.607V24.7H23.807V22.1ZM26.407 27.3H31.607V29.9H26.407V27.3ZM39.407 10.4V7.8H36.6757C36.5071 6.98653 36.1841 6.21294 35.7241 5.5211L37.6611 3.5841L35.8229 1.7459L33.8859 3.6829C33.1941 3.22298 32.4205 2.89995 31.607 2.7313V0H29.007V2.7313C28.1936 2.89995 27.42 3.22298 26.7281 3.6829L24.7911 1.7459L22.9529 3.5841L24.8899 5.5211C24.43 6.21294 24.107 6.98653 23.9383 7.8H21.207V10.4H23.9383C24.107 11.2135 24.43 11.9871 24.8899 12.6789L22.9529 14.6159L24.7911 16.4541L26.7281 14.5171C27.42 14.977 28.1936 15.3 29.007 15.4687V18.2H31.607V15.4687C32.4205 15.3 33.1941 14.977 33.8859 14.5171L35.8229 16.4541L37.6611 14.6159L35.7241 12.6789C36.1841 11.9871 36.5071 11.2135 36.6757 10.4H39.407ZM30.307 13C29.5357 13 28.7817 12.7713 28.1403 12.3427C27.499 11.9142 26.9991 11.3051 26.7039 10.5925C26.4087 9.87983 26.3315 9.09567 26.482 8.33915C26.6325 7.58262 27.0039 6.88771 27.5493 6.34228C28.0947 5.79686 28.7897 5.42542 29.5462 5.27494C30.3027 5.12445 31.0869 5.20169 31.7995 5.49687C32.5121 5.79205 33.1212 6.29192 33.5498 6.93328C33.9783 7.57463 34.207 8.32865 34.207 9.1C34.206 10.134 33.7948 11.1254 33.0636 11.8566C32.3324 12.5877 31.3411 12.999 30.307 13Z" fill="#0F53FF"/>
</svg>
