<svg width="52" height="41" viewBox="0 0 52 41" fill="none" xmlns="http://www.w3.org/2000/svg">
<path d="M50.9678 33.635C49.4695 32.1367 47.9712 30.6125 46.447 29.1142C46.2403 28.9075 46.0337 28.675 45.8012 28.4683C45.6833 28.3481 45.5426 28.2525 45.3874 28.1873C45.2321 28.122 45.0654 28.0884 44.897 28.0884C44.7286 28.0884 44.5619 28.122 44.4066 28.1873C44.2514 28.2525 44.1107 28.3481 43.9928 28.4683C43.8718 28.5884 43.7757 28.7313 43.7101 28.8887C43.6445 29.0461 43.6108 29.2149 43.6108 29.3854C43.6108 29.5559 43.6445 29.7248 43.7101 29.8822C43.7757 30.0396 43.8718 30.1824 43.9928 30.3025L46.9379 33.2475H18.6503C17.1293 33.2475 15.6706 32.6433 14.5951 31.5678C13.5196 30.4922 12.9153 29.0335 12.9153 27.5125C12.9153 25.9915 13.5196 24.5328 14.5951 23.4573C15.6706 22.3817 17.1293 21.7775 18.6503 21.7775H26.4003C27.491 21.7775 28.571 21.5627 29.5787 21.1453C30.5864 20.7279 31.5019 20.1161 32.2732 19.3449C33.0444 18.5737 33.6562 17.6581 34.0736 16.6504C34.4909 15.6428 34.7058 14.5628 34.7058 13.4721C34.7058 12.3814 34.4909 11.3014 34.0736 10.2938C33.6562 9.28609 33.0444 8.37051 32.2732 7.59928C31.5019 6.82805 30.5864 6.21628 29.5787 5.79889C28.571 5.38151 27.491 5.16668 26.4003 5.16668H12.7862C12.4661 3.59854 11.5751 2.20512 10.286 1.25655C8.99696 0.307986 7.40158 -0.128143 5.80921 0.0327185C4.21684 0.193581 2.74092 0.939974 1.6676 2.12719C0.59427 3.31441 0 4.85787 0 6.45835C0 8.05882 0.59427 9.60229 1.6676 10.7895C2.74092 11.9767 4.21684 12.7231 5.80921 12.884C7.40158 13.0448 8.99696 12.6087 10.286 11.6601C11.5751 10.7116 12.4661 9.31815 12.7862 7.75001H26.4003C27.9179 7.75001 29.3734 8.35287 30.4465 9.42597C31.5196 10.4991 32.1224 11.9545 32.1224 13.4721C32.1224 14.9897 31.5196 16.4451 30.4465 17.5182C29.3734 18.5913 27.9179 19.1942 26.4003 19.1942H18.6503C17.558 19.1942 16.4763 19.4093 15.4671 19.8274C14.4578 20.2454 13.5408 20.8581 12.7684 21.6306C11.996 22.403 11.3832 23.32 10.9652 24.3292C10.5472 25.3385 10.332 26.4201 10.332 27.5125C10.332 28.6049 10.5472 29.6866 10.9652 30.6958C11.3832 31.705 11.996 32.622 12.7684 33.3945C13.5408 34.1669 14.4578 34.7796 15.4671 35.1977C16.4763 35.6157 17.558 35.8308 18.6503 35.8308H46.9637L44.6387 38.1558C44.4062 38.3625 44.1995 38.595 43.9928 38.8017C43.8718 38.9218 43.7757 39.0646 43.7101 39.222C43.6445 39.3794 43.6108 39.5482 43.6108 39.7188C43.6108 39.8893 43.6445 40.0581 43.7101 40.2155C43.7757 40.3729 43.8718 40.5158 43.9928 40.6358C44.2374 40.8666 44.5608 40.9951 44.897 40.9951C45.2332 40.9951 45.5567 40.8666 45.8012 40.6358L50.322 36.115L50.9678 35.4692C51.0889 35.3491 51.185 35.2062 51.2506 35.0488C51.3162 34.8914 51.3499 34.7226 51.3499 34.5521C51.3499 34.3816 51.3162 34.2128 51.2506 34.0554C51.185 33.898 51.0889 33.7551 50.9678 33.635ZM6.45701 10.3333C5.69061 10.3333 4.94142 10.1061 4.30418 9.68029C3.66694 9.2545 3.17027 8.64931 2.87698 7.94125C2.58369 7.23318 2.50695 6.45405 2.65647 5.70237C2.80599 4.9507 3.17505 4.26024 3.71698 3.71831C4.2589 3.17638 4.94936 2.80732 5.70104 2.6578C6.45272 2.50829 7.23185 2.58502 7.93991 2.87831C8.64798 3.1716 9.25317 3.66827 9.67896 4.30551C10.1048 4.94275 10.332 5.69195 10.332 6.45835C10.332 7.48606 9.92376 8.47168 9.19705 9.19839C8.47035 9.92509 7.48473 10.3333 6.45701 10.3333Z" fill="#0F53FF"/>
</svg>
