<svg width="54" height="62" viewBox="0 0 54 62" fill="none" xmlns="http://www.w3.org/2000/svg">
<path d="M26.5714 0L0 8.85714V35.4286C0 50.1051 11.8949 62 26.5714 62C41.248 62 53.1429 50.1051 53.1429 35.4286V8.85714L26.5714 0ZM48.1607 35.4286C48.1607 47.3511 38.494 57.0179 26.5714 57.0179C14.6489 57.0179 4.98214 47.3511 4.98214 35.4286V12.5937L26.5714 4.98214L48.1607 12.5937V35.4286Z" fill="#0F53FF"/>
<path d="M17.3242 28.4469C17.0933 28.215 16.8189 28.0309 16.5167 27.9054C16.2145 27.7798 15.8904 27.7151 15.5632 27.7151C15.2359 27.7151 14.9119 27.7798 14.6096 27.9054C14.3074 28.0309 14.033 28.215 13.8021 28.4469C13.5702 28.6778 13.3861 28.9522 13.2605 29.2545C13.135 29.5567 13.0703 29.8807 13.0703 30.208C13.0703 30.5352 13.135 30.8593 13.2605 31.1615C13.3861 31.4637 13.5702 31.7381 13.8021 31.969L22.7561 40.923L22.9014 41.0684C23.1198 41.2872 23.3792 41.4608 23.6648 41.5792C23.9504 41.6976 24.2565 41.7586 24.5656 41.7586C24.8748 41.7586 25.1809 41.6976 25.4664 41.5792C25.752 41.4608 26.0114 41.2872 26.2298 41.0684L41.6952 25.603C41.914 25.3846 42.0876 25.1252 42.206 24.8396C42.3245 24.554 42.3854 24.2479 42.3854 23.9388C42.3854 23.6296 42.3245 23.3235 42.206 23.038C42.0876 22.7524 41.914 22.493 41.6952 22.2746L41.5014 22.0809C41.2831 21.8621 41.0237 21.6885 40.7381 21.57C40.4525 21.4516 40.1464 21.3906 39.8373 21.3906C39.5281 21.3906 39.222 21.4516 38.9365 21.57C38.6509 21.6885 38.3915 21.8621 38.1731 22.0809L24.5622 35.6849L17.3242 28.4469Z" fill="#0F53FF"/>
</svg>
