<svg width="47" height="50" viewBox="0 0 47 50" fill="none" xmlns="http://www.w3.org/2000/svg">
<path d="M0 47.0844V3.75104H16.9325C17.1853 2.69299 17.7477 1.80375 18.6198 1.08333C19.4919 0.361111 20.5075 0 21.6667 0C22.8475 0 23.8713 0.361111 24.7379 1.08333C25.6046 1.80194 26.1643 2.69118 26.4171 3.75104H43.3333V21.8752H40.625V6.45937H32.5V12.499H10.8333V6.45937H2.70833V44.376H17.6042V47.0844H0ZM21.6748 7.08229C22.2977 7.08229 22.8168 6.87285 23.2321 6.45396C23.6474 6.03326 23.855 5.51146 23.855 4.88854C23.855 4.26562 23.6438 3.74653 23.2213 3.33125C22.7988 2.91597 22.2778 2.70833 21.6585 2.70833C21.0392 2.70833 20.5201 2.91958 20.1013 3.34208C19.6824 3.76458 19.4747 4.28639 19.4783 4.9075C19.4819 5.52861 19.6923 6.04681 20.1094 6.46208C20.5265 6.87736 21.0483 7.08229 21.6748 7.08229ZM44.1269 49.7927L36.9173 42.6373C36.0976 43.1537 35.2192 43.5726 34.2821 43.894C33.345 44.2153 32.3691 44.376 31.3544 44.376C28.8031 44.376 26.6202 43.4688 24.8056 41.6542C22.991 39.8396 22.0838 37.6567 22.0838 35.1054C22.0838 32.5542 22.991 30.3713 24.8056 28.5567C26.6202 26.7421 28.8031 25.8348 31.3544 25.8348C33.9056 25.8348 36.0885 26.7421 37.9031 28.5567C39.7177 30.3713 40.625 32.5542 40.625 35.1054C40.625 36.1057 40.4815 37.087 40.1944 38.0494C39.9091 39.0099 39.455 39.8829 38.8321 40.6683L46.0417 47.8752L44.1269 49.7927ZM31.3435 41.6677C33.1762 41.6677 34.7299 41.0349 36.0046 39.7692C37.2793 38.5017 37.9167 36.9507 37.9167 35.1162C37.9167 33.2836 37.2838 31.7299 36.0181 30.4552C34.7506 29.1805 33.1997 28.5431 31.3652 28.5431C29.5326 28.5431 27.9789 29.176 26.7042 30.4417C25.4294 31.7092 24.7921 33.2592 24.7921 35.0919C24.7921 36.9281 25.4249 38.4827 26.6906 39.7556C27.9563 41.0285 29.5064 41.6659 31.3408 41.6677" fill="#0F53FF"/>
</svg>
