<svg width="41" height="37" viewBox="0 0 41 37" fill="none" xmlns="http://www.w3.org/2000/svg">
<path d="M10.0139 11.1188V3.53467C10.0139 3.20098 10.0805 2.87058 10.21 2.56241C10.3395 2.25424 10.5292 1.97439 10.7684 1.73889C11.0075 1.5034 11.2913 1.3169 11.6036 1.19011C11.9158 1.06331 12.2503 0.998716 12.5878 1.00002H40L35.6934 8.36635V23.3366C35.6947 23.6707 35.629 24.0017 35.5 24.3105C35.371 24.6192 35.1813 24.8996 34.9418 25.1354C34.7024 25.3711 34.4181 25.5576 34.1052 25.6839C33.7924 25.8102 33.4573 25.8739 33.1194 25.8713H30.5154V33.4554C30.5154 34.1269 30.247 34.7711 29.7686 35.2478C29.2902 35.7244 28.6407 35.9948 27.9615 36H7.84052C7.50213 36 7.16708 35.9338 6.8547 35.8052C6.54231 35.6766 6.25877 35.4881 6.02042 35.2506C5.78207 35.0132 5.59363 34.7314 5.46597 34.4216C5.3383 34.1118 5.27394 33.7801 5.27658 33.4455V18.4951L1 11.1188H10.0139ZM10.0139 11.1188H12.9484M30.5154 22.9604V13.6634C30.5154 12.9902 30.2456 12.3445 29.7651 11.8676C29.2845 11.3907 28.6324 11.1214 27.9515 11.1188H12.9284M30.5455 22.9604V25.8713M15.3821 7.51487H30.7357M13.4892 18.6931C13.9859 18.6931 14.4623 18.8881 14.8135 19.2354C15.1648 19.5826 15.3621 20.0535 15.3621 20.5446C15.3621 21.0356 15.1648 21.5065 14.8135 21.8538C14.4623 22.201 13.9859 22.396 13.4892 22.396C12.9925 22.396 12.5161 22.201 12.1649 21.8538C11.8137 21.5065 11.6163 21.0356 11.6163 20.5446C11.6163 20.0535 11.8137 19.5826 12.1649 19.2354C12.5161 18.8881 12.9925 18.6931 13.4892 18.6931ZM22.2527 18.6931C22.6303 18.6693 23.0062 18.7591 23.3311 18.9507C23.6561 19.1423 23.9147 19.4267 24.0729 19.7664C24.2311 20.1061 24.2816 20.4852 24.2176 20.8539C24.1537 21.2225 23.9783 21.5633 23.7146 21.8314C23.4508 22.0996 23.1111 22.2825 22.7402 22.3561C22.3693 22.4297 21.9845 22.3905 21.6366 22.2437C21.2886 22.0969 20.9938 21.8494 20.7909 21.5337C20.588 21.218 20.4866 20.849 20.5 20.4753C20.5102 19.9979 20.7066 19.5429 21.0481 19.2052C21.3897 18.8676 21.8499 18.6735 22.3328 18.6634L22.2527 18.6931ZM11.4861 25.7822H24.3459C23.9354 27.1546 23.087 28.3589 21.9273 29.2155C20.7675 30.072 19.3587 30.5348 17.911 30.5348C16.4634 30.5348 15.0545 30.072 13.8948 29.2155C12.735 28.3589 11.8866 27.1546 11.4761 25.7822H11.4861Z" stroke="#0F53FF" stroke-width="1.5" stroke-linecap="round" stroke-linejoin="round"/>
</svg>
