<svg width="26" height="33" viewBox="0 0 26 33" fill="none" xmlns="http://www.w3.org/2000/svg">
<path d="M13 32.9982C9.26838 31.8973 6.16881 29.6519 3.70129 26.262C1.23376 22.8721 0 19.0523 0 14.8026V4.82472L13 0L26 4.82472V14.8026C26 19.051 24.7662 22.8702 22.2987 26.2601C19.8312 29.6501 16.7316 31.8948 13 32.9982ZM13 31.0406C16.0024 30.1181 18.5095 28.2964 20.5214 25.5756C22.5333 22.8549 23.7095 19.8173 24.05 16.4631H13V1.96864L1.85714 6.08487V15.5978C1.85714 15.8364 1.8881 16.1248 1.95 16.4631H13V31.0406Z" fill="#0F53FF"/>
</svg>
