<svg width="23" height="19" viewBox="0 0 23 19" fill="none" xmlns="http://www.w3.org/2000/svg">
<path d="M20.6853 0H2.3147C1.0655 0 0 1.02875 0 2.3147V12.0144C0 13.2636 1.02875 14.3291 2.3147 14.3291H10.6917V17.0479H6.65016C6.20926 17.0479 5.80511 17.4153 5.80511 17.893C5.80511 18.3706 6.17252 18.738 6.65016 18.738H16.3498C16.7907 18.738 17.1949 18.3706 17.1949 17.893C17.1949 17.4153 16.8275 17.0479 16.3498 17.0479H12.345V14.3291H20.6853C21.9345 14.3291 23 13.3003 23 12.0144V2.27796C23 1.02875 21.9345 0 20.6853 0ZM21.3466 11.9776C21.3466 12.345 21.0527 12.639 20.6853 12.639H2.3147C1.94728 12.639 1.65335 12.345 1.65335 11.9776V2.27796C1.65335 1.91054 1.94728 1.61661 2.3147 1.61661H20.6853C21.0527 1.61661 21.3466 1.91054 21.3466 2.27796V11.9776Z" fill="#0F53FF"/>
<path d="M5.65845 5.07096H7.1281C7.56899 5.07096 7.97314 4.70354 7.97314 4.22591C7.97314 3.74827 7.60573 3.38086 7.1281 3.38086H5.65845C4.40925 3.38086 3.38049 4.40961 3.38049 5.65881C3.38049 6.90802 4.40925 7.93677 5.65845 7.93677C5.98912 7.93677 6.28305 8.2307 6.28305 8.56137C6.28305 8.89204 5.98912 9.18597 5.65845 9.18597H4.1888C3.7479 9.18597 3.34375 9.55338 3.34375 10.031C3.34375 10.4719 3.71116 10.8761 4.1888 10.8761H5.65845C6.90765 10.8761 7.9364 9.84731 7.9364 8.59811C7.9364 7.34891 6.90765 6.32016 5.65845 6.32016C5.32778 6.32016 5.03385 6.02623 5.03385 5.69556C5.03385 5.36489 5.32778 5.07096 5.65845 5.07096ZM11.4636 5.07096H12.9332C13.3741 5.07096 13.7783 4.70354 13.7783 4.22591C13.7783 3.74827 13.4108 3.38086 12.9332 3.38086H11.4636C10.2144 3.38086 9.1856 4.40961 9.1856 5.65881V8.59811C9.1856 9.84731 10.2144 10.8761 11.4636 10.8761H12.9332C13.3741 10.8761 13.7783 10.5087 13.7783 10.031C13.7783 9.59013 13.4108 9.18597 12.9332 9.18597H11.4636C11.1329 9.18597 10.839 8.89204 10.839 8.56137V7.93677H12.9332C13.3741 7.93677 13.7783 7.56936 13.7783 7.09172C13.7783 6.61409 13.4108 6.24667 12.9332 6.24667H10.839V5.62207C10.839 5.32814 11.1329 5.07096 11.4636 5.07096ZM17.7096 3.4176H16.8645C15.8358 3.4176 14.9907 4.26265 14.9907 5.2914V9.03901C14.9907 10.0678 15.8358 10.9128 16.8645 10.9128H17.7096C18.7383 10.9128 19.5834 10.0678 19.5834 9.03901V5.25466C19.5466 4.22591 18.7383 3.4176 17.7096 3.4176ZM17.8933 9.00227C17.8933 9.11249 17.783 9.22271 17.6728 9.22271H16.8278C16.7176 9.22271 16.6073 9.11249 16.6073 9.00227V5.25466C16.6073 5.14444 16.7176 5.03421 16.8278 5.03421H17.6728C17.783 5.03421 17.8933 5.14444 17.8933 5.25466V9.00227Z" fill="#0F53FF"/>
</svg>
