<svg width="20" height="21" viewBox="0 0 20 21" fill="none" xmlns="http://www.w3.org/2000/svg">
<path d="M13.697 13.9997H6C4.895 13.9997 4 13.0947 4 11.9787C4 10.8627 4.898 9.95172 6.001 10.0017C10.691 10.2157 13.295 11.1477 14.384 11.6517C14.78 11.8357 15 12.2427 15 12.6827C15.0009 12.8548 14.9679 13.0253 14.903 13.1846C14.838 13.3439 14.7423 13.4888 14.6213 13.6111C14.5003 13.7334 14.3564 13.8306 14.1978 13.8973C14.0392 13.964 13.869 13.9988 13.697 13.9997Z" stroke="#0F53FF" stroke-width="1.5" stroke-linecap="round" stroke-linejoin="round"/>
<path d="M15 12.9998L18.94 2.48383C19.15 1.90883 18.79 1.29083 18.153 1.12883C16.519 0.713825 14.808 1.31083 14.27 2.78483C13.644 4.49583 13 7.13083 13 10.9998M13 6.95983C13 6.95983 9.619 5.56583 8.32 6.13983C7.93 6.31183 7.598 6.59683 7.364 6.95983C7 7.52583 7 8.34983 7 9.99983M4 11.9998V14.9998C4 15.9318 4 16.3978 3.848 16.7648C3.74749 17.0076 3.6001 17.2283 3.41428 17.4141C3.22845 17.5999 3.00782 17.7473 2.765 17.8478C2.398 17.9998 1.932 17.9998 1 17.9998M10 13.9998V19.9998M8 19.9998H12" stroke="#0F53FF" stroke-width="1.5" stroke-linecap="round" stroke-linejoin="round"/>
</svg>
