<svg width="23" height="23" viewBox="0 0 23 23" fill="none" xmlns="http://www.w3.org/2000/svg">
<path d="M11.5038 23C9.91428 23 8.41928 22.6984 7.01883 22.0953C5.61924 21.4914 4.40152 20.6719 3.36567 19.6369C2.32981 18.6019 1.50991 17.3854 0.905945 15.9876C0.301982 14.5897 0 13.0951 0 11.5038C0 9.91257 0.301982 8.41757 0.905945 7.01883C1.50906 5.61924 2.32726 4.40152 3.36056 3.36567C4.39385 2.32981 5.61072 1.50991 7.01117 0.905945C8.41161 0.301982 9.90661 0 11.4962 0C13.0857 0 14.5807 0.301982 15.9812 0.905945C17.3808 1.50906 18.5985 2.32769 19.6343 3.36183C20.6702 4.39598 21.4901 5.61285 22.0941 7.01244C22.698 8.41204 23 9.90661 23 11.4962C23 13.0857 22.6984 14.5807 22.0953 15.9812C21.4922 17.3816 20.6727 18.5993 19.6369 19.6343C18.601 20.6693 17.3846 21.4892 15.9876 22.0941C14.5905 22.6989 13.0959 23.0009 11.5038 23ZM11.5 21.7222C14.3537 21.7222 16.7708 20.7319 18.7514 18.7514C20.7319 16.7708 21.7222 14.3537 21.7222 11.5C21.7222 11.3509 21.7209 11.2006 21.7184 11.0489C21.7158 10.8973 21.7065 10.7521 21.6903 10.6132C21.6332 11.1814 21.4075 11.6516 21.0131 12.0239C20.6178 12.3953 20.1335 12.581 19.5602 12.581H16.3159C15.7214 12.581 15.2124 12.3697 14.789 11.9472C14.3656 11.5247 14.1539 11.0166 14.1539 10.4228V9.34311H9.82867V7.18367C9.82867 6.58992 10.0408 6.07967 10.465 5.65289C10.8884 5.22611 11.3974 5.01272 11.9919 5.01272H13.0729V4.02883C13.0729 3.40868 13.2757 2.92057 13.6812 2.5645C14.0866 2.20843 14.5709 2.00313 15.134 1.94861C14.5607 1.72713 13.9729 1.56017 13.3707 1.44772C12.7684 1.33528 12.1449 1.27863 11.5 1.27778C8.6463 1.27778 6.22917 2.26806 4.24861 4.24861C2.26806 6.22917 1.27778 8.6463 1.27778 11.5V11.8693C1.27778 11.9834 1.2863 12.1061 1.30333 12.2373H7.02778C8.23741 12.2373 9.26048 12.656 10.097 13.4933C10.9344 14.3299 11.3531 15.3491 11.3531 16.5511V17.6436H8.10878V21.1319C8.63352 21.321 9.18126 21.4667 9.752 21.5689C10.3227 21.6711 10.9054 21.7222 11.5 21.7222Z" fill="#0F53FF"/>
</svg>
