<svg width="367" height="366" viewBox="0 0 367 366" fill="none" xmlns="http://www.w3.org/2000/svg">
<path d="M186.574 126.885L33.7764 279.861C30.3213 283.316 27.6406 287.308 25.7344 291.835C23.8281 296.362 22.875 301.128 22.875 306.132C22.875 311.136 23.8281 315.901 25.7344 320.429C27.6406 324.956 30.3213 328.888 33.7764 332.224C37.2314 335.56 41.1631 338.181 45.5713 340.087C49.9795 341.993 54.7451 343.006 59.8682 343.125C64.7529 343.125 69.459 342.172 73.9863 340.266C78.5137 338.359 82.5645 335.679 86.1387 332.224L183 235.541V267.888L102.401 348.486C96.6826 354.205 90.1895 358.554 82.9219 361.532C75.6543 364.511 67.9697 366 59.8682 366C51.6475 366 43.9629 364.451 36.8145 361.354C29.666 358.256 23.292 353.907 17.6924 348.308C12.0928 342.708 7.80371 336.394 4.8252 329.364C1.84668 322.335 0.238281 314.591 0 306.132C0 297.911 1.48926 290.227 4.46777 283.078C7.44629 275.93 11.7949 269.437 17.5137 263.599L161.555 119.558C161.078 116.817 160.721 114.077 160.482 111.337C160.244 108.597 160.125 105.797 160.125 102.938C160.125 93.5254 161.316 84.4707 163.699 75.7734C166.082 67.0762 169.537 58.8555 174.064 51.1113C178.592 43.3672 184.013 36.3975 190.327 30.2021C196.642 24.0068 203.611 18.6455 211.236 14.1182C218.861 9.59082 227.022 6.13574 235.72 3.75293C244.417 1.37012 253.531 0.119141 263.062 0C269.496 0 275.394 0.476562 280.755 1.42969C286.116 2.38281 291.358 3.8125 296.481 5.71875C301.604 7.625 306.549 9.88867 311.314 12.5098C316.08 15.1309 321.203 17.9902 326.684 21.0879L256.271 91.5L274.5 109.729L344.912 39.3164C347.771 44.3203 350.452 49.3242 352.954 54.3281C355.456 59.332 357.72 64.5146 359.745 69.876C361.771 75.2373 363.379 80.5986 364.57 85.96C365.762 91.3213 366.357 97.04 366.357 103.116C366.357 110.979 365.404 118.783 363.498 126.527C361.592 134.271 358.792 141.658 355.099 148.688C351.405 155.717 347.116 162.329 342.231 168.524C337.347 174.72 331.688 180.2 325.254 184.966C319.773 182.821 314.174 181.153 308.455 179.962C302.736 178.771 296.898 178.056 290.941 177.817C298.686 174.958 305.774 171.026 312.208 166.022C318.642 161.019 324.122 155.3 328.649 148.866C333.177 142.433 336.751 135.344 339.372 127.6C341.993 119.855 343.244 111.813 343.125 103.474C343.125 94.5381 341.695 85.96 338.836 77.7393L274.5 141.896L224.104 91.5L288.261 27.1641C280.159 24.3047 271.76 22.875 263.062 22.875C251.982 22.875 241.617 24.96 231.967 29.1299C222.316 33.2998 213.857 39.0186 206.59 46.2861C199.322 53.5537 193.604 62.0127 189.434 71.6631C185.264 81.3135 183.119 91.7383 183 102.938C183 106.988 183.357 110.979 184.072 114.911C184.787 118.843 185.621 122.834 186.574 126.885ZM285.938 205.875C297.018 205.875 307.383 207.96 317.033 212.13C326.684 216.3 335.202 222.019 342.589 229.286C349.976 236.554 355.694 245.013 359.745 254.663C363.796 264.313 365.881 274.738 366 285.938C366 297.018 363.915 307.383 359.745 317.033C355.575 326.684 349.856 335.202 342.589 342.589C335.321 349.976 326.862 355.694 317.212 359.745C307.562 363.796 297.137 365.881 285.938 366C274.857 366 264.492 363.915 254.842 359.745C245.191 355.575 236.673 349.856 229.286 342.589C221.899 335.321 216.181 326.862 212.13 317.212C208.079 307.562 205.994 297.137 205.875 285.938C205.875 274.857 207.96 264.492 212.13 254.842C216.3 245.191 222.019 236.673 229.286 229.286C236.554 221.899 245.013 216.181 254.663 212.13C264.313 208.079 274.738 205.994 285.938 205.875ZM228.75 285.938C228.75 293.801 230.239 301.187 233.218 308.098C236.196 315.008 240.247 321.084 245.37 326.326C250.493 331.568 256.569 335.679 263.599 338.657C270.628 341.636 278.074 343.125 285.938 343.125C291.537 343.125 297.018 342.351 302.379 340.802C307.74 339.253 312.744 336.87 317.391 333.653L238.222 254.484C235.124 259.131 232.801 264.135 231.252 269.496C229.703 274.857 228.869 280.338 228.75 285.938ZM333.653 317.391C336.751 312.744 339.074 307.74 340.623 302.379C342.172 297.018 343.006 291.537 343.125 285.938C343.125 278.074 341.636 270.688 338.657 263.777C335.679 256.867 331.568 250.851 326.326 245.728C321.084 240.604 315.008 236.494 308.098 233.396C301.187 230.299 293.801 228.75 285.938 228.75C280.338 228.75 274.857 229.524 269.496 231.073C264.135 232.622 259.131 235.005 254.484 238.222L333.653 317.391Z" fill="black"/>
</svg>
