<svg width="32" height="38" viewBox="0 0 32 38" fill="none" xmlns="http://www.w3.org/2000/svg">
<path d="M29.3333 13.5714H18.6667V2.71429H2.66667V35.2857H29.3333V13.5714ZM28.2293 10.8571L21.3333 3.838V10.8571H28.2293ZM1.33333 0H21.3333L32 10.8571V36.6429C32 37.0028 31.8595 37.348 31.6095 37.6025C31.3594 37.857 31.0203 38 30.6667 38H1.33333C0.979711 38 0.640573 37.857 0.390525 37.6025C0.140476 37.348 0 37.0028 0 36.6429V1.35714C0 0.997206 0.140476 0.652012 0.390525 0.397498C0.640573 0.142984 0.979711 0 1.33333 0ZM8 19H24V21.7143H8V19ZM8 10.8571H14.6667V13.5714H8V10.8571ZM8 27.1429H24V29.8571H8V27.1429Z" fill="#0F53FF"/>
</svg>
