<svg width="48" height="49" viewBox="0 0 48 49" fill="none" xmlns="http://www.w3.org/2000/svg">
<g clip-path="url(#clip0_391_237)">
<g clip-path="url(#clip1_391_237)">
<path opacity="0.2" d="M23.9976 42.7969C33.9352 42.7969 41.9913 34.7409 41.9913 24.8032C41.9913 14.8656 33.9352 6.80957 23.9976 6.80957C14.06 6.80957 6.00391 14.8656 6.00391 24.8032C6.00391 34.7409 14.06 42.7969 23.9976 42.7969Z" fill="#FF8800"/>
<path d="M23.9976 42.7969C33.9352 42.7969 41.9913 34.7409 41.9913 24.8032C41.9913 14.8656 33.9352 6.80957 23.9976 6.80957C14.06 6.80957 6.00391 14.8656 6.00391 24.8032C6.00391 34.7409 14.06 42.7969 23.9976 42.7969Z" stroke="#FF8800" stroke-width="5.81046" stroke-miterlimit="10"/>
<path d="M31.7934 29.3008C31.0029 30.668 29.8667 31.8031 28.4989 32.5923C27.1309 33.3816 25.5795 33.7971 24.0003 33.7971C22.421 33.7971 20.8695 33.3816 19.5017 32.5924C18.1337 31.8033 16.9976 30.668 16.207 29.3009" stroke="#FF8800" stroke-width="5.81046" stroke-linecap="round" stroke-linejoin="round"/>
<path d="M16.5977 21.0545C16.5977 20.6922 16.8914 20.3984 17.2537 20.3984C17.6159 20.3984 17.9097 20.6922 17.9097 21.0545C17.9097 21.4168 17.6159 21.7105 17.2537 21.7105C16.8914 21.7105 16.5977 21.4168 16.5977 21.0545Z" fill="#FF8800" stroke="#FF8800" stroke-width="5.81046"/>
<path d="M30.0898 21.0545C30.0898 20.6922 30.3836 20.3984 30.7458 20.3984C31.1081 20.3984 31.4018 20.6922 31.4018 21.0545C31.4018 21.4168 31.1081 21.7105 30.7458 21.7105C30.3836 21.7105 30.0898 21.4168 30.0898 21.0545Z" fill="#FF8800" stroke="#FF8800" stroke-width="5.81046"/>
</g>
</g>
<defs>
<clipPath id="clip0_391_237">
<rect width="48" height="48.84" fill="white"/>
</clipPath>
<clipPath id="clip1_391_237">
<rect width="48" height="48.84" fill="white"/>
</clipPath>
</defs>
</svg>
