<svg width="30" height="30" viewBox="0 0 30 30" fill="none" xmlns="http://www.w3.org/2000/svg">
<path d="M3.8 6.6C4.54261 6.6 5.2548 6.305 5.7799 5.7799C6.305 5.2548 6.6 4.54261 6.6 3.8C6.6 3.05739 6.305 2.3452 5.7799 1.8201C5.2548 1.295 4.54261 1 3.8 1C3.05739 1 2.3452 1.295 1.8201 1.8201C1.295 2.3452 1 3.05739 1 3.8C1 4.54261 1.295 5.2548 1.8201 5.7799C2.3452 6.305 3.05739 6.6 3.8 6.6ZM5.2 27.6C6.31391 27.6 7.3822 27.1575 8.16985 26.3698C8.9575 25.5822 9.4 24.5139 9.4 23.4C9.4 22.2861 8.9575 21.2178 8.16985 20.4302C7.3822 19.6425 6.31391 19.2 5.2 19.2C4.08609 19.2 3.0178 19.6425 2.23015 20.4302C1.4425 21.2178 1 22.2861 1 23.4C1 24.5139 1.4425 25.5822 2.23015 26.3698C3.0178 27.1575 4.08609 27.6 5.2 27.6ZM24.8 29C25.9139 29 26.9822 28.5575 27.7698 27.7698C28.5575 26.9822 29 25.9139 29 24.8C29 23.6861 28.5575 22.6178 27.7698 21.8302C26.9822 21.0425 25.9139 20.6 24.8 20.6C23.6861 20.6 22.6178 21.0425 21.8302 21.8302C21.0425 22.6178 20.6 23.6861 20.6 24.8C20.6 25.9139 21.0425 26.9822 21.8302 27.7698C22.6178 28.5575 23.6861 29 24.8 29ZM13.6 17.8C15.0852 17.8 16.5096 17.21 17.5598 16.1598C18.61 15.1096 19.2 13.6852 19.2 12.2C19.2 10.7148 18.61 9.29041 17.5598 8.2402C16.5096 7.19 15.0852 6.6 13.6 6.6C12.1148 6.6 10.6904 7.19 9.6402 8.2402C8.59 9.29041 8 10.7148 8 12.2C8 13.6852 8.59 15.1096 9.6402 16.1598C10.6904 17.21 12.1148 17.8 13.6 17.8ZM22 6.6C22.7426 6.6 23.4548 6.305 23.9799 5.7799C24.505 5.2548 24.8 4.54261 24.8 3.8C24.8 3.05739 24.505 2.3452 23.9799 1.8201C23.4548 1.295 22.7426 1 22 1C21.2574 1 20.5452 1.295 20.0201 1.8201C19.495 2.3452 19.2 3.05739 19.2 3.8C19.2 4.54261 19.495 5.2548 20.0201 5.7799C20.5452 6.305 21.2574 6.6 22 6.6Z" stroke="#0F53FF" stroke-linecap="round" stroke-linejoin="round"/>
<path d="M5.89844 5.90039L8.69844 8.70039M19.1984 6.60039L17.7984 8.00039M21.9984 21.6504L17.7984 16.4004M7.99844 19.9004L10.7984 17.1004" stroke="#0F53FF" stroke-linecap="round" stroke-linejoin="round"/>
<path fill-rule="evenodd" clip-rule="evenodd" d="M12.6667 10.3333C12.6667 9.97971 12.8071 9.64057 13.0572 9.39052C13.3072 9.14048 13.6464 9 14 9C14.3536 9 14.6928 9.14048 14.9428 9.39052C15.1929 9.64057 15.3333 9.97971 15.3333 10.3333C15.3333 10.687 15.1929 11.0261 14.9428 11.2761C14.6928 11.5262 14.3536 11.6667 14 11.6667C13.6464 11.6667 13.3072 11.5262 13.0572 11.2761C12.8071 11.0261 12.6667 10.687 12.6667 10.3333ZM12.6667 12.3333C12.2246 12.3333 11.8007 12.5089 11.4882 12.8215C11.1756 13.134 11 13.558 11 14C11 14.2652 11.1054 14.5196 11.2929 14.7071C11.4804 14.8946 11.7348 15 12 15H16C16.2652 15 16.5196 14.8946 16.7071 14.7071C16.8946 14.5196 17 14.2652 17 14C17 13.558 16.8244 13.134 16.5118 12.8215C16.1993 12.5089 15.7754 12.3333 15.3333 12.3333H12.6667Z" fill="#0F53FF"/>
<path d="M7 24.005C7 22.8982 6.104 22 5 22C3.896 22 3 22.8982 3 24.005C3 24.9754 3.688 25.7835 4.6 25.9699V24.6065H4.2V24.005H4.6V23.5038C4.6 23.1168 4.914 22.802 5.3 22.802H5.8V23.4035H5.4C5.29 23.4035 5.2 23.4937 5.2 23.604V24.005H5.8V24.6065H5.2V26C6.21 25.8997 7 25.0456 7 24.005Z" fill="#0F53FF"/>
<path d="M22.9854 3.34086C22.9741 3.38787 22.9243 3.50611 22.8395 3.61866C22.7834 4.85522 21.7334 5.25696 21.0138 4.8424C20.9153 4.69281 21.3692 4.75407 21.5351 4.46773C20.9078 4.1016 20.9577 3.12289 21.0837 3.16278C21.3792 3.61723 21.8556 3.65855 21.9329 3.61723C21.9329 3.51323 21.8942 3.28672 22.1087 3.09725C22.2322 2.9961 22.4903 2.90635 22.7235 3.19555C22.7634 3.22546 22.8208 3.23828 22.9068 3.21691C22.9579 3.187 23.0253 3.20694 22.9904 3.31094L22.9854 3.34086Z" fill="#0F53FF"/>
<path d="M4.1028 3C4.2153 3.0003 4.27239 3.0009 4.32169 3.0023L4.34109 3.003C4.36349 3.0038 4.38559 3.0048 4.41229 3.006C4.51868 3.011 4.59128 3.0278 4.65497 3.0525C4.72097 3.0779 4.77657 3.1123 4.83216 3.1678C4.88303 3.21777 4.92238 3.27824 4.94746 3.34499C4.97216 3.40869 4.98896 3.48129 4.99396 3.58779C4.99516 3.61439 4.99616 3.63648 4.99696 3.65898L4.99756 3.67838C4.99906 3.72758 4.99966 3.78468 4.99986 3.89718L4.99996 3.97178V4.10277C5.0002 4.17571 4.99943 4.24865 4.99766 4.32157L4.99706 4.34097C4.99626 4.36347 4.99526 4.38557 4.99406 4.41217C4.98906 4.51866 4.97206 4.59116 4.94746 4.65496C4.92238 4.72171 4.88303 4.78218 4.83216 4.83216C4.78219 4.88302 4.72172 4.92237 4.65497 4.94745C4.59128 4.97215 4.51868 4.98895 4.41229 4.99395L4.34109 4.99695L4.32169 4.99755C4.27239 4.99895 4.2153 4.99965 4.1028 4.99985L4.0282 4.99995H3.89731C3.82434 5.00021 3.75137 4.99944 3.67842 4.99765L3.65902 4.99705C3.63529 4.99615 3.61155 4.99512 3.58783 4.99395C3.48143 4.98895 3.40884 4.97215 3.34504 4.94745C3.27833 4.92236 3.21789 4.88301 3.16795 4.83216C3.11705 4.78219 3.07766 4.72172 3.05255 4.65496C3.02786 4.59126 3.01106 4.51866 3.00606 4.41217L3.00306 4.34097L3.00256 4.32157C3.00071 4.24865 2.99988 4.17571 3.00006 4.10277V3.89718C2.99978 3.82424 3.00051 3.7513 3.00226 3.67838L3.00296 3.65898C3.00376 3.63648 3.00476 3.61439 3.00596 3.58779C3.01096 3.48129 3.02776 3.40879 3.05245 3.34499C3.07762 3.27821 3.11707 3.21774 3.16805 3.1678C3.21796 3.11695 3.27836 3.07761 3.34504 3.0525C3.40884 3.0278 3.48133 3.011 3.58783 3.006C3.61443 3.0048 3.63662 3.0038 3.65902 3.003L3.67842 3.0024C3.75134 3.00062 3.82427 2.99986 3.89721 3.0001L4.1028 3ZM4.00001 3.49999C3.8674 3.49999 3.74023 3.55267 3.64647 3.64643C3.55271 3.7402 3.50003 3.86737 3.50003 3.99998C3.50003 4.13258 3.55271 4.25975 3.64647 4.35352C3.74023 4.44729 3.8674 4.49996 4.00001 4.49996C4.13261 4.49996 4.25978 4.44729 4.35354 4.35352C4.44731 4.25975 4.49998 4.13258 4.49998 3.99998C4.49998 3.86737 4.44731 3.7402 4.35354 3.64643C4.25978 3.55267 4.13261 3.49999 4.00001 3.49999ZM4.00001 3.69998C4.0394 3.69998 4.07841 3.70773 4.11481 3.7228C4.15121 3.73787 4.18428 3.75996 4.21214 3.78781C4.24 3.81567 4.26211 3.84873 4.27719 3.88513C4.29227 3.92152 4.30003 3.96053 4.30004 3.99993C4.30005 4.03932 4.2923 4.07833 4.27723 4.11473C4.26216 4.15113 4.24006 4.18421 4.21221 4.21207C4.18436 4.23993 4.1513 4.26203 4.1149 4.27711C4.07851 4.2922 4.0395 4.29996 4.00011 4.29997C3.92055 4.29997 3.84424 4.26836 3.78799 4.2121C3.73173 4.15584 3.70012 4.07954 3.70012 3.99998C3.70012 3.92041 3.73173 3.84411 3.78799 3.78785C3.84424 3.73159 3.92055 3.69998 4.00011 3.69998M4.52508 3.34999C4.49193 3.34999 4.46014 3.36316 4.4367 3.3866C4.41326 3.41004 4.40009 3.44184 4.40009 3.47499C4.40009 3.50814 4.41326 3.53993 4.4367 3.56337C4.46014 3.58682 4.49193 3.59999 4.52508 3.59999C4.55823 3.59999 4.59002 3.58682 4.61346 3.56337C4.6369 3.53993 4.65007 3.50814 4.65007 3.47499C4.65007 3.44184 4.6369 3.41004 4.61346 3.3866C4.59002 3.36316 4.55823 3.34999 4.52508 3.34999Z" fill="#0F53FF"/>
<g clip-path="url(#clip0_2274_476)">
<path d="M24.4705 26.5344C24.2226 26.5344 24.0571 26.4173 23.9094 26.3142C23.8044 26.2398 23.7061 26.1692 23.5901 26.1496C23.5348 26.1401 23.4788 26.1355 23.4228 26.1358C23.3244 26.1358 23.2463 26.1506 23.1907 26.1619C23.1553 26.1681 23.1257 26.174 23.1023 26.174C23.0782 26.174 23.0476 26.1673 23.0357 26.1265C23.0253 26.0931 23.0188 26.0615 23.0123 26.0308C22.9957 25.9538 22.9817 25.9065 22.9528 25.9017C22.6426 25.8544 22.4569 25.7829 22.4207 25.6983C22.4178 25.6892 22.4142 25.6796 22.4142 25.6723C22.4121 25.6465 22.4309 25.625 22.4569 25.6202C22.703 25.5796 22.924 25.4485 23.1107 25.2331C23.2557 25.0658 23.3263 24.9042 23.3328 24.8867C23.3328 24.8846 23.3346 24.8846 23.3346 24.8846C23.3702 24.8114 23.3773 24.7492 23.3559 24.6981C23.3159 24.6023 23.184 24.5615 23.094 24.5335C23.0709 24.5273 23.0513 24.5198 23.0346 24.5142C22.9576 24.4835 22.8292 24.4183 22.8461 24.3283C22.8582 24.2633 22.9444 24.2169 23.0151 24.2169C23.0346 24.2166 23.0513 24.2201 23.0651 24.2273C23.1442 24.2633 23.2157 24.2819 23.2769 24.2819C23.3532 24.2819 23.3894 24.2531 23.3986 24.244C23.3967 24.2028 23.3942 24.1616 23.3913 24.1204C23.3726 23.836 23.3513 23.4831 23.4413 23.2808C23.7117 22.6752 24.2857 22.6267 24.4557 22.6267L24.5298 22.625H24.5403C24.7101 22.625 25.284 22.6723 25.5544 23.279C25.6455 23.4813 25.6232 23.8352 25.6044 24.1185L25.6026 24.1325C25.6009 24.1704 25.598 24.2067 25.5963 24.244C25.6055 24.2513 25.6388 24.2792 25.7076 24.28C25.7671 24.2783 25.8321 24.2588 25.9063 24.2252C25.9268 24.2163 25.9489 24.2116 25.9713 24.2115C25.9973 24.2115 26.0234 24.2177 26.0457 24.2252H26.0476C26.1098 24.2485 26.1507 24.2921 26.1507 24.3377C26.1526 24.3804 26.119 24.4454 25.9603 24.5096C25.9436 24.5158 25.924 24.5235 25.9009 24.529C25.8126 24.556 25.6807 24.5988 25.6388 24.6935C25.6157 24.7435 25.6248 24.8077 25.6603 24.8802C25.6603 24.8819 25.6621 24.8819 25.6621 24.8819C25.6723 24.9079 25.9407 25.5173 26.538 25.6167C26.5502 25.6187 26.5612 25.6251 26.5691 25.6347C26.5769 25.6443 26.5811 25.6564 26.5807 25.6688C26.5808 25.6781 26.5787 25.687 26.5742 25.6956C26.538 25.781 26.354 25.8506 26.0419 25.899C26.0132 25.9035 25.9992 25.951 25.9826 26.0281C25.9759 26.0603 25.9682 26.0921 25.9594 26.1238C25.9501 26.1544 25.9305 26.171 25.8969 26.171H25.8926C25.8628 26.1705 25.8333 26.1671 25.8042 26.1608C25.7279 26.1446 25.65 26.1365 25.5719 26.1367C25.516 26.1368 25.4601 26.1415 25.4048 26.1506C25.2896 26.1694 25.1903 26.2408 25.0853 26.3152C24.9357 26.4173 24.7694 26.5344 24.5234 26.5344H24.4705Z" fill="#0F53FF"/>
</g>
<defs>
<clipPath id="clip0_2274_476">
<rect width="5" height="5" fill="white" transform="translate(22 22)"/>
</clipPath>
</defs>
</svg>
