<svg width="33" height="29" viewBox="0 0 33 29" fill="none" xmlns="http://www.w3.org/2000/svg">
<path d="M9.72134 20.0063C8.09702 21.2922 6.23413 22.2367 4.24254 22.784C4.0231 22.8644 3.83351 23.0111 3.69952 23.2042C3.56554 23.3972 3.49366 23.6272 3.49366 23.863C3.49366 24.0987 3.56554 24.3287 3.69952 24.5218C3.83351 24.7148 4.0231 24.8615 4.24254 24.9419C19.9742 31.4616 29.977 21.3837 28.4538 10.2038L31 4.87789H28.0446C24.3618 0.309538 14.5863 0.539104 16.2004 10.2727C16.2004 10.2727 10.9717 11.2139 4.288 4.57946C4.1334 4.42532 3.93828 4.31916 3.72577 4.27353C3.51326 4.22791 3.29225 4.24475 3.08892 4.32205C2.88559 4.39935 2.70846 4.53387 2.5785 4.70968C2.44854 4.8855 2.37121 5.09524 2.35565 5.31407C1.64893 8.24757 2.0026 11.3395 3.35297 14.033C4.70335 16.7266 6.96169 18.8448 9.72134 20.0063Z" stroke="#0F53FF" stroke-width="3" stroke-linecap="round" stroke-linejoin="round"/>
</svg>
