<svg width="53" height="53" viewBox="0 0 53 53" fill="none" xmlns="http://www.w3.org/2000/svg">
<path d="M19.9724 23.0928C19.9724 22.2664 20.1352 21.448 20.4515 20.6845C20.7677 19.921 21.2313 19.2272 21.8157 18.6428C22.4001 18.0584 23.0938 17.5949 23.8574 17.2786C24.6209 16.9623 25.4392 16.7996 26.2657 16.7996C27.0921 16.7996 27.9105 16.9623 28.674 17.2786C29.4375 17.5949 30.1313 18.0584 30.7157 18.6428C31.3001 19.2272 31.7636 19.921 32.0799 20.6845C32.3961 21.448 32.5589 22.2664 32.5589 23.0928V29.4386C32.5589 31.1077 31.8959 32.7084 30.7157 33.8886C29.5355 35.0688 27.9347 35.7318 26.2657 35.7318C24.5966 35.7318 22.9959 35.0688 21.8157 33.8886C20.6355 32.7084 19.9724 31.1077 19.9724 29.4386V23.0928ZM26.2657 20.3016C24.7248 20.3016 23.4745 21.5501 23.4745 23.0928V29.4386C23.4745 30.1788 23.7686 30.8888 24.292 31.4122C24.8155 31.9357 25.5254 32.2297 26.2657 32.2297C27.0059 32.2297 27.7159 31.9357 28.2393 31.4122C28.7628 30.8888 29.0568 30.1788 29.0568 29.4386V23.0911C29.0568 21.5501 27.8066 20.3016 26.2657 20.3016ZM6.54019 22.1718C6.62949 19.4419 9.18952 17.0324 12.2836 17.0324C13.5829 17.0324 14.7823 17.4965 15.6824 17.9763C16.5964 18.4631 17.3564 19.0497 17.8116 19.4822C17.983 19.6391 18.1213 19.8287 18.2186 20.0397C18.316 20.2506 18.3703 20.4789 18.3786 20.7111C18.3868 20.9433 18.3487 21.1749 18.2666 21.3922C18.1844 21.6096 18.0598 21.8084 17.9 21.9771C17.7403 22.1458 17.5485 22.2811 17.336 22.3749C17.1234 22.4688 16.8943 22.5194 16.662 22.5238C16.4296 22.5283 16.1988 22.4864 15.9828 22.4007C15.7668 22.315 15.57 22.1872 15.404 22.0247C14.9874 21.6519 14.5277 21.3303 14.0346 21.0668C13.3955 20.7254 12.7809 20.5345 12.2836 20.5345C10.8915 20.5345 10.0615 21.6272 10.0405 22.2873C10.0265 22.6953 10.1596 23.0403 10.6289 23.4308C11.1682 23.8773 12.0857 24.3185 13.4656 24.702C15.4197 25.2448 16.9589 26.285 17.7556 27.7961C18.5733 29.344 18.442 31.0688 17.6681 32.5589C17.2638 33.3411 16.6743 34.0123 15.9509 34.5141C15.2275 35.0159 14.3922 35.333 13.5181 35.4377C11.5447 35.6863 9.3261 34.9491 6.99546 33.1333C6.81403 32.992 6.66221 32.8163 6.54866 32.6163C6.43512 32.4164 6.36207 32.196 6.3337 31.9678C6.2764 31.5069 6.40453 31.0421 6.6899 30.6757C6.97528 30.3093 7.39453 30.0712 7.85541 30.0139C8.3163 29.9566 8.78108 30.0848 9.14749 30.3701C11.0281 31.8358 12.3344 32.0581 13.0821 31.9636C13.807 31.8725 14.2973 31.4523 14.5617 30.9445C14.8944 30.3001 14.8559 29.801 14.6598 29.4298C14.4444 29.0236 13.8718 28.4492 12.527 28.0763C10.9511 27.6385 9.48194 27.0326 8.38929 26.1221C7.22835 25.1555 6.48416 23.83 6.54019 22.1718ZM34.3923 22.1718C34.4833 19.4419 37.0433 17.0324 40.1357 17.0324C41.4349 17.0324 42.6362 17.4965 43.5362 17.9763C44.3071 18.3848 45.0222 18.8909 45.6637 19.4822C45.835 19.6391 45.9734 19.8287 46.0707 20.0397C46.168 20.2506 46.2224 20.4789 46.2306 20.7111C46.2388 20.9433 46.2008 21.1749 46.1186 21.3922C46.0365 21.6096 45.9119 21.8084 45.7521 21.9771C45.5923 22.1458 45.4006 22.2811 45.188 22.3749C44.9755 22.4688 44.7463 22.5194 44.514 22.5238C44.2817 22.5283 44.0508 22.4864 43.8349 22.4007C43.6189 22.315 43.4221 22.1872 43.256 22.0247C42.84 21.652 42.3809 21.3305 41.8885 21.0668C41.2493 20.7254 40.6347 20.5345 40.1374 20.5345C38.7453 20.5345 37.9136 21.6272 37.8926 22.2873C37.8786 22.6953 38.0117 23.0403 38.4827 23.4308C39.0203 23.8773 39.9378 24.3185 41.3176 24.702C43.2718 25.2448 44.8127 26.285 45.6094 27.7961C46.4254 29.344 46.2958 31.0688 45.5219 32.5589C45.1176 33.3411 44.5281 34.0123 43.8047 34.5141C43.0813 35.0159 42.2461 35.333 41.3719 35.4377C39.3967 35.6863 37.1799 34.9491 34.8475 33.1333C34.4811 32.8477 34.2432 32.4282 34.186 31.9671C34.1289 31.5061 34.2572 31.0412 34.5428 30.6748C34.8285 30.3084 35.2479 30.0705 35.709 30.0133C36.17 29.9562 36.6349 30.0845 37.0013 30.3701C38.8819 31.8358 40.1882 32.0581 40.9342 31.9636C41.6591 31.8725 42.1511 31.4523 42.4138 30.9445C42.7465 30.3001 42.708 29.801 42.5118 29.4298C42.2982 29.0236 41.7239 28.4492 40.3808 28.0763C38.8049 27.6385 37.334 27.0326 36.2414 26.1221C35.0804 25.1555 34.338 23.83 34.3923 22.1718Z" fill="#0F53FF"/>
<path d="M8.75521 0C7.60546 0 6.46697 0.22646 5.40473 0.666451C4.3425 1.10644 3.37734 1.75134 2.56434 2.56434C0.922421 4.20626 0 6.43318 0 8.75521V43.776C0 46.0981 0.922421 48.325 2.56434 49.9669C3.37734 50.7799 4.3425 51.4248 5.40473 51.8648C6.46697 52.3048 7.60546 52.5312 8.75521 52.5312H43.776C46.0981 52.5312 48.325 51.6088 49.9669 49.9669C51.6088 48.325 52.5312 46.0981 52.5312 43.776V8.75521C52.5312 7.60546 52.3048 6.46697 51.8648 5.40473C51.4248 4.3425 50.7799 3.37734 49.9669 2.56434C49.1539 1.75134 48.1887 1.10644 47.1265 0.666451C46.0643 0.22646 44.9258 0 43.776 0H8.75521ZM3.50208 8.75521C3.50208 7.36199 4.05554 6.02584 5.04069 5.04069C6.02584 4.05554 7.36199 3.50208 8.75521 3.50208H43.776C45.1693 3.50208 46.5054 4.05554 47.4906 5.04069C48.4757 6.02584 49.0292 7.36199 49.0292 8.75521V43.776C49.0292 45.1693 48.4757 46.5054 47.4906 47.4906C46.5054 48.4757 45.1693 49.0292 43.776 49.0292H8.75521C7.36199 49.0292 6.02584 48.4757 5.04069 47.4906C4.05554 46.5054 3.50208 45.1693 3.50208 43.776V8.75521Z" fill="#0F53FF"/>
</svg>
