<svg width="22" height="22" viewBox="0 0 22 22" fill="none" xmlns="http://www.w3.org/2000/svg">
<path d="M5.286 17C2.919 17 1 15.104 1 12.765C1 10.426 2.919 8.529 5.286 8.529C5.57067 8.52967 5.84733 8.55633 6.116 8.609M13.381 6.027C13.9936 5.81426 14.6375 5.70575 15.286 5.706C15.94 5.706 16.569 5.815 17.156 6.015M17.156 6.015C16.837 3.194 14.416 1 11.476 1C8.32 1 5.762 3.528 5.761 6.647C5.7607 7.31691 5.8806 7.98144 6.115 8.609C6.66822 8.71671 7.19488 8.93213 7.665 9.243M17.156 6.015C19.393 6.78 21 8.881 21 11.353C21 14.06 19.073 16.323 16.5 16.873" stroke="black" stroke-width="1.5" stroke-linecap="round"/>
<path opacity="0.5" d="M7.5 16C7.5 14.586 7.5 13.879 7.94 13.44C8.379 13 9.086 13 10.5 13H11.5C12.914 13 13.621 13 14.06 13.44C14.5 13.879 14.5 14.586 14.5 16V18C14.5 19.414 14.5 20.121 14.06 20.56C13.621 21 12.914 21 11.5 21H10.5C9.086 21 8.379 21 7.94 20.56C7.5 20.121 7.5 19.414 7.5 18V16Z" stroke="black" stroke-width="1.5"/>
<path opacity="0.5" d="M10 17H12" stroke="black" stroke-width="1.5" stroke-linecap="round" stroke-linejoin="round"/>
</svg>
