<svg width="15" height="13" viewBox="0 0 15 13" fill="none" xmlns="http://www.w3.org/2000/svg">
<path fill-rule="evenodd" clip-rule="evenodd" d="M1.20325 0.043175C1.10659 0.00016997 0.998784 -0.0110679 0.895335 0.0110779C0.791885 0.0332238 0.698126 0.087612 0.627545 0.166419C0.556963 0.245225 0.513197 0.344389 0.502543 0.449644C0.491888 0.5549 0.514894 0.660822 0.568251 0.752175L3.92125 6.50017L0.568251 12.2482C0.514894 12.3395 0.491888 12.4455 0.502543 12.5507C0.513197 12.656 0.556963 12.7551 0.627545 12.8339C0.698126 12.9127 0.791885 12.9671 0.895335 12.9893C0.998784 13.0114 1.10659 13.0002 1.20325 12.9572L14.7033 6.95717C14.7917 6.91792 14.8668 6.85385 14.9196 6.77273C14.9723 6.69161 15.0004 6.59693 15.0004 6.50017C15.0004 6.40342 14.9723 6.30874 14.9196 6.22762C14.8668 6.1465 14.7917 6.08243 14.7033 6.04318L1.20325 0.043175ZM4.84625 6.10017L2.21225 1.58617L13.2703 6.50017L2.21225 11.4142L4.84625 6.90018H9.00025C9.10634 6.90018 9.20808 6.85803 9.28309 6.78302C9.35811 6.708 9.40025 6.60626 9.40025 6.50017C9.40025 6.39409 9.35811 6.29235 9.28309 6.21733C9.20808 6.14232 9.10634 6.10017 9.00025 6.10017H4.84625Z" fill="#0F53FF"/>
</svg>
