<svg width="78" height="91" viewBox="0 0 78 91" fill="none" xmlns="http://www.w3.org/2000/svg">
<path d="M45.2482 9.86354C45.1504 9.81465 35.4634 5.21443 27.7553 4.62777C19.6537 3.99687 11.5358 8.29676 11.452 8.34333L10.3555 6.28766C10.7093 6.09909 19.1555 1.6502 27.9322 2.30438C36.078 2.92829 45.8395 7.56809 46.2516 7.76364L45.2482 9.86354Z" fill="#0F53FF"/>
<path d="M44.4324 8.16357L39.5679 1.4792L40.6424 0.698235L46.7883 9.14286L37.293 13.7745L36.7114 12.5807L44.2472 8.90723L44.7834 8.64586L44.4324 8.16357Z" fill="#0F53FF" stroke="#0F53FF"/>
<path d="M8.01603 17.65C5.43427 18.5843 3.39776 19.4801 2.53072 19.8744L1.95794 18.6757C4.0179 17.7317 12.4832 14.0238 19.648 13.4749C27.2265 12.9227 34.6226 16.2529 36.5036 17.175L35.8773 18.3491C35.0997 17.9698 33.369 17.1761 31.092 16.4292C28.006 15.417 23.8799 14.4786 19.7493 14.8012C15.8268 15.0998 11.4267 16.4156 8.01603 17.65Z" fill="#0F53FF" stroke="#0F53FF"/>
<path d="M7.97563 12.1511L3.11107 18.8354L2.76008 19.3177L3.29626 19.5791L10.8325 23.2528L10.2524 24.4462L0.755218 19.8147L6.90114 11.3701L7.97563 12.1511Z" fill="#0F53FF" stroke="#0F53FF"/>
<path d="M45.4439 88.8307L45.444 88.8307C48.2009 89.4444 51.243 89.7693 54.2409 89.7693C57.5541 89.7693 60.5342 89.3663 62.6246 88.6204L62.6256 88.62C66.8494 87.1029 72.6949 83.1586 75.5711 78.0344L75.5713 78.0341C76.288 76.7553 76.7547 75.055 77.0501 73.1557C77.3465 71.2495 77.4756 69.1078 77.4969 66.9238C77.5397 62.5556 77.1521 57.9784 76.7891 54.701L76.7891 54.7007C76.3386 50.6514 74.8367 46.3346 73.1795 42.8465C72.3498 41.1 71.4763 39.551 70.6673 38.3375C69.8705 37.1421 69.1017 36.2189 68.4709 35.7813L68.4708 35.7813C67.4698 35.0871 66.2037 34.7904 64.9854 34.8222C63.7684 34.8541 62.5477 35.2151 61.6352 35.8992L61.6351 35.8993C61.4924 36.0063 61.3613 36.1343 61.2409 36.2778C60.5019 34.2427 59.0828 32.6553 57.3537 32.1699C56.3931 31.9 55.2553 32.0014 54.1488 32.3494C53.0358 32.6996 51.9122 33.3119 50.9629 34.1187L50.9622 34.1192C50.5544 34.4669 50.2338 34.9489 49.9788 35.4932C49.8971 35.3077 49.8139 35.1251 49.7293 34.9466L49.7289 34.9458C47.9875 31.2914 44.2359 31.1199 43.5273 31.1199V31.1197L43.514 31.1201L43.2509 31.1271L43.2418 31.1273L43.2327 31.1279C42.6059 31.1675 41.3892 31.5014 40.1729 32.1892C38.9486 32.8815 37.6598 33.9686 36.9734 35.5609C36.8244 35.9057 36.7343 36.3233 36.6847 36.7819C35.6955 34.5398 34.6666 32.2916 33.6844 30.2908C32.3836 27.6409 31.1446 25.3823 30.1771 24.1581L30.177 24.158C27.9873 21.3895 25.8263 19.9849 23.385 19.9849V19.9848L23.3744 19.985C22.6675 19.9999 21.9642 20.0913 21.2768 20.2574L20.8408 20.3455C19.4254 20.6086 18.2177 21.4802 17.3243 22.5642C16.43 23.6492 15.8189 24.9839 15.6163 26.2414C15.5443 26.6844 15.6031 27.1722 15.7628 27.7253C15.9227 28.279 16.1925 28.9275 16.5718 29.7035C17.3296 31.2539 18.5604 33.3845 20.3351 36.3993L20.3351 36.3993L20.3422 36.4114C22.4435 39.9803 24.8041 43.9896 26.3958 47.454L26.5115 47.7141C26.0749 47.9531 25.665 48.2967 25.2795 48.7287L25.2782 48.7301C23.9653 50.2126 22.8187 52.9617 22.0424 55.6094C21.6506 56.9457 21.3462 58.2802 21.1598 59.4521C20.9752 60.6126 20.9001 61.6514 20.989 62.3801C21.367 65.4946 22.836 68.9278 24.423 71.8026C26.0102 74.6779 27.7516 77.0591 28.7266 78.0694L29.0864 77.7222L28.7266 78.0694C29.7948 79.176 32.7848 81.5955 36.0703 83.8589C37.7184 84.9942 39.4531 86.0988 41.0724 86.9865C42.6829 87.8693 44.2131 88.5565 45.4439 88.8307ZM24.2911 61.9733L24.2911 61.9733C24.21 61.304 24.316 60.2636 24.5704 59.0364C24.8219 57.8233 25.208 56.4752 25.654 55.2127C26.1008 53.9479 26.6018 52.7857 27.0784 51.939C27.3176 51.5139 27.5409 51.186 27.737 50.9666C27.7541 50.9475 27.7705 50.9297 27.7862 50.9132C28.9815 54.3072 29.8367 57.9004 30.3999 60.7012C30.6937 62.1624 30.9075 63.4048 31.0482 64.2863C31.1186 64.727 31.1707 65.0773 31.2055 65.3195C31.2228 65.4406 31.2359 65.5346 31.2446 65.5992C31.2538 65.667 31.2577 65.6977 31.2576 65.6964L31.3144 66.1939L31.8119 66.1363L34.1236 65.8686L34.6147 65.8117L34.5634 65.32C34.4941 64.6569 34.1439 61.451 33.4931 57.9705C33.1677 56.2306 32.7657 54.4133 32.2834 52.8066C31.8152 51.2469 31.2581 49.8385 30.5941 48.8967C30.2327 47.924 29.842 46.9799 29.4222 46.0642L29.422 46.0638C27.7662 42.4612 25.3632 38.3764 23.2525 34.7884L23.206 34.7094L23.2059 34.7093C22.2364 33.0627 21.154 31.2242 20.3113 29.6868C19.8897 28.9175 19.5323 28.2314 19.2803 27.6865C19.1542 27.4138 19.0579 27.1839 18.9935 27.0011C18.9414 26.8532 18.9193 26.761 18.9114 26.7129C19.041 26.0011 19.4028 25.2734 19.8828 24.6927C20.3828 24.0879 20.959 23.7037 21.4553 23.6119L21.4553 23.6119L21.4623 23.6105L21.9629 23.5104L21.9629 23.5104L21.9679 23.5094C22.4944 23.3984 22.9378 23.3083 23.3897 23.3083C23.772 23.3083 24.2797 23.3719 24.9494 23.7509C25.6307 24.1365 26.4988 24.8595 27.5697 26.2146L27.5697 26.2146C28.3842 27.2448 29.5094 29.2947 30.7533 31.8421C31.9898 34.3744 33.3226 37.354 34.5533 40.2098C35.7836 43.0648 36.9102 45.7921 37.734 47.8185C38.1459 48.8317 38.482 49.6693 38.7175 50.2599C38.8353 50.5552 38.9278 50.7887 38.9921 50.9513L39.0669 51.1409L39.0874 51.1934L39.0932 51.2083C39.0945 51.2117 39.0951 51.2131 39.0951 51.2132L39.2647 51.6602L39.7189 51.5107L41.9259 50.7844L42.3754 50.6364L42.2524 50.1795C41.5097 47.4208 40.8237 44.3529 40.3934 41.8175C40.1781 40.5488 40.0284 39.4226 39.9665 38.5392C39.9356 38.0971 39.9273 37.725 39.9419 37.431C39.9571 37.1246 39.9955 36.9497 40.0289 36.8716C40.3677 36.0873 41.0802 35.485 41.8371 35.0653C42.5846 34.6509 43.2883 34.462 43.5459 34.4387C43.9878 34.4421 45.8672 34.5734 46.724 36.3701L46.7244 36.3709C47.3297 37.6347 47.8632 39.2351 48.249 40.5388C48.441 41.1878 48.5948 41.7577 48.7011 42.1677C48.7542 42.3727 48.7955 42.5374 48.8236 42.6519C48.8523 42.7688 48.8665 42.8295 48.8663 42.8285L48.8662 42.8285L48.8676 42.8341L51.0769 52.2581L52.0636 52.1485L52.1521 42.4708V42.4705C52.1624 41.2508 52.2847 39.8648 52.4821 38.7227C52.5809 38.1508 52.6965 37.6525 52.8215 37.2719C52.8841 37.0815 52.9458 36.9304 53.004 36.8183C53.0655 36.6999 53.1075 36.6555 53.117 36.6474L53.1172 36.6473C53.6579 36.1865 54.3355 35.8086 54.9761 35.5769C55.6399 35.3369 56.169 35.2876 56.4486 35.3671L56.4517 35.368C56.7088 35.4393 57.0808 35.6804 57.4468 36.1567C57.8059 36.6239 58.1363 37.2897 58.3245 38.1511C58.564 39.2579 58.8731 40.5064 59.1216 41.4756C59.246 41.9608 59.3555 42.3771 59.4339 42.6723C59.4731 42.8198 59.5046 42.9372 59.5263 43.0177L59.5512 43.1101L59.5577 43.134L59.5594 43.1402L59.5598 43.1418L59.5599 43.1422L59.56 43.1423L61.2571 49.3837L62.2375 49.2977L62.8218 42.856L62.8219 42.8558C62.9143 41.832 63.08 40.7822 63.2618 39.9465C63.3528 39.5281 63.4462 39.1711 63.534 38.9015C63.5779 38.7664 63.6183 38.6602 63.6534 38.5824C63.6669 38.5525 63.678 38.5304 63.6865 38.5146C63.9104 38.3769 64.377 38.2163 64.9416 38.1709C65.5516 38.1219 66.1526 38.2182 66.5712 38.507C66.6798 38.5827 66.869 38.7694 67.1306 39.0977C67.3839 39.4157 67.6813 39.8358 68.0081 40.345C68.6611 41.3626 69.419 42.7168 70.1625 44.2803C71.6521 47.413 73.0646 51.3458 73.4765 55.0625L73.4765 55.0627C74.0672 60.3699 74.2815 64.9767 74.1335 68.6336C73.9846 72.3154 73.4702 74.9569 72.6622 76.3947L72.6619 76.3951C71.3675 78.7039 69.3487 80.7007 67.251 82.2643C65.1537 83.8275 63.008 84.9351 61.4937 85.4789L61.493 85.4792C59.8289 86.0798 57.189 86.4389 54.2386 86.4389C51.4746 86.4389 48.685 86.1398 46.1643 85.5778L46.1641 85.5778C45.2421 85.3726 43.964 84.7973 42.5049 83.9857C41.0569 83.1801 39.4689 82.1637 37.9378 81.1074C34.8643 78.9867 32.0719 76.7413 31.1224 75.757L30.7626 76.1042L31.1224 75.757C30.3358 74.9417 28.7825 72.8204 27.3408 70.2148C25.8987 67.6085 24.6078 64.5875 24.2911 61.9733Z" fill="#0F53FF" stroke="#0F53FF"/>
</svg>
