<svg width="22" height="16" viewBox="0 0 22 16" fill="none" xmlns="http://www.w3.org/2000/svg">
<path d="M16.5 1H19C19.942 1 20.414 1 20.706 1.293C20.998 1.586 21 2.057 21 3V5.5M15 7L20.5 1.5M5.5 1H3C2.057 1 1.586 1 1.293 1.293C1 1.586 1 2.057 1 3V5.5M7 7L1.5 1.5M14 12C14 12.7956 13.6839 13.5587 13.1213 14.1213C12.5587 14.6839 11.7956 15 11 15C10.2044 15 9.44129 14.6839 8.87868 14.1213C8.31607 13.5587 8 12.7956 8 12C8 11.2044 8.31607 10.4413 8.87868 9.87868C9.44129 9.31607 10.2044 9 11 9C11.7956 9 12.5587 9.31607 13.1213 9.87868C13.6839 10.4413 14 11.2044 14 12Z" stroke="#0F53FF" stroke-width="1.5" stroke-linecap="round" stroke-linejoin="round"/>
</svg>
