<svg width="61" height="61" viewBox="0 0 61 61" fill="none" xmlns="http://www.w3.org/2000/svg">
<path d="M12.8516 30.217V18.8011C12.8856 16.5571 13.3619 14.3419 14.2534 12.2823C15.1449 10.2227 16.4341 8.35932 18.047 6.79883C19.6599 5.23833 21.5649 4.01144 23.6528 3.18844C25.7406 2.36544 27.9704 1.96251 30.2143 2.00274C32.4582 1.96251 34.6879 2.36544 36.7758 3.18844C38.8637 4.01144 40.7687 5.23833 42.3816 6.79883C43.9945 8.35932 45.2837 10.2227 46.1752 12.2823C47.0667 14.3419 47.543 16.5571 47.5769 18.8011V30.217M38.8956 53.0055C41.198 53.0055 43.4062 52.0909 45.0342 50.4628C46.6623 48.8347 47.5769 46.6266 47.5769 44.3242V34.5577M38.8956 53.0055C38.8956 54.4445 38.324 55.8246 37.3064 56.8421C36.2889 57.8597 34.9088 58.4313 33.4698 58.4313H26.9588C25.5198 58.4313 24.1397 57.8597 23.1222 56.8421C22.1046 55.8246 21.533 54.4445 21.533 53.0055C21.533 51.5665 22.1046 50.1864 23.1222 49.1689C24.1397 48.1513 25.5198 47.5797 26.9588 47.5797H33.4698C34.9088 47.5797 36.2889 48.1513 37.3064 49.1689C38.324 50.1864 38.8956 51.5665 38.8956 53.0055ZM6.34066 23.706H10.6813C11.2569 23.706 11.809 23.9347 12.216 24.3417C12.623 24.7487 12.8516 25.3008 12.8516 25.8764V38.8983C12.8516 39.474 12.623 40.026 12.216 40.433C11.809 40.84 11.2569 41.0687 10.6813 41.0687H6.34066C5.18945 41.0687 4.08538 40.6114 3.27135 39.7973C2.45732 38.9833 2 37.8792 2 36.728V28.0467C2 26.8955 2.45732 25.7914 3.27135 24.9774C4.08538 24.1634 5.18945 23.706 6.34066 23.706ZM54.0879 41.0687H49.7473C49.1716 41.0687 48.6196 40.84 48.2126 40.433C47.8056 40.026 47.5769 39.474 47.5769 38.8983V25.8764C47.5769 25.3008 47.8056 24.7487 48.2126 24.3417C48.6196 23.9347 49.1716 23.706 49.7473 23.706H54.0879C55.2391 23.706 56.3432 24.1634 57.1572 24.9774C57.9713 25.7914 58.4286 26.8955 58.4286 28.0467V36.728C58.4286 37.8792 57.9713 38.9833 57.1572 39.7973C56.3432 40.6114 55.2391 41.0687 54.0879 41.0687Z" stroke="#0F53FF" stroke-width="4" stroke-linecap="round" stroke-linejoin="round"/>
</svg>
