<svg width="54" height="54" viewBox="0 0 54 54" fill="none" xmlns="http://www.w3.org/2000/svg">
<path d="M32 2H22C13.8 2 9.7025 2 6.7975 4.035C5.7226 4.78767 4.78767 5.7226 4.035 6.7975C2 9.7 2 13.8 2 22C2 30.2 2 34.2975 4.035 37.2025C4.78767 38.2774 5.7226 39.2123 6.7975 39.965C9.7 42 13.8 42 22 42H32C40.2 42 44.2975 42 47.2025 39.965C48.2774 39.2123 49.2123 38.2774 49.965 37.2025C52 34.3 52 30.2 52 22C52 13.8 52 9.7025 49.965 6.7975C49.2123 5.7226 48.2774 4.78767 47.2025 4.035C44.3 2 40.2 2 32 2Z" stroke="black" stroke-width="3" stroke-linecap="round" stroke-linejoin="round"/>
<path d="M37 17L40.0675 19.6425C41.355 20.755 42 21.31 42 22C42 22.69 41.355 23.245 40.0675 24.3575L37 27M17 17L13.9325 19.6425C12.645 20.755 12 21.31 12 22C12 22.69 12.645 23.245 13.9325 24.3575L17 27M29.5 14.5L24.5 29.5M33.64 52L32.59 50.9525C31.4387 49.8016 30.679 48.3174 30.4188 46.7105C30.1585 45.1035 30.4108 43.4554 31.14 42M19.5 52L20.55 50.9525C21.7013 49.8016 22.461 48.3174 22.7212 46.7105C22.9815 45.1035 22.7292 43.4554 22 42M14.5 52H39.5" stroke="black" stroke-width="3" stroke-linecap="round" stroke-linejoin="round"/>
</svg>
