<svg width="22" height="26" viewBox="0 0 22 26" fill="none" xmlns="http://www.w3.org/2000/svg">
<mask id="path-1-inside-1_852_157" fill="white">
<path d="M13.2 26L13.1149 22.5825H11C7.94249 22.5825 5.34502 21.4855 3.2076 19.2915C1.07018 17.0975 0.000978448 14.4307 6.70017e-07 11.2913C-0.000977108 8.15178 1.06822 5.48554 3.2076 3.29253C5.34698 1.09952 7.94445 0.00200733 11 0C12.5292 0 13.9607 0.294074 15.2944 0.882223C16.6281 1.46937 17.7931 2.27431 18.7895 3.29705C19.7858 4.31978 20.57 5.51515 21.142 6.88315C21.714 8.25316 22 9.72252 22 11.2913C22 12.8259 21.7805 14.2997 21.3415 15.7129C20.9024 17.1261 20.2952 18.4615 19.5199 19.719C18.7445 20.9766 17.8156 22.1359 16.7332 23.1968C15.6508 24.2576 14.4731 25.1915 13.2 25.9985M14.6667 23.1094C16.4022 21.6039 17.8141 19.8415 18.9024 17.8221C19.9907 15.8027 20.5343 13.6258 20.5333 11.2913C20.5333 8.55626 19.6103 6.24181 17.7643 4.34789C15.9182 2.45397 13.6635 1.5065 11 1.5055C8.33653 1.5045 6.08178 2.45196 4.23573 4.34789C2.38969 6.24381 1.46667 8.55827 1.46667 11.2913C1.46667 14.0242 2.38969 16.3392 4.23573 18.2361C6.08178 20.1331 8.33653 21.08 11 21.077H14.6667V23.1094ZM11.0484 18.9257C11.3515 18.9257 11.6072 18.8188 11.8155 18.605C12.0237 18.3912 12.1279 18.1287 12.1279 17.8176C12.1279 17.5065 12.0237 17.244 11.8155 17.0302C11.6072 16.8164 11.3515 16.7091 11.0484 16.708C10.7453 16.708 10.4896 16.8154 10.2813 17.0302C10.0721 17.244 9.96747 17.5065 9.96747 17.8176C9.96747 18.1287 10.0716 18.3912 10.2799 18.605C10.4891 18.8188 10.7453 18.9257 11.0484 18.9257ZM10.4075 14.5221H11.7055C11.7426 13.9048 11.858 13.4165 12.0516 13.0572C12.2452 12.6989 12.7048 12.1469 13.4303 11.4012C13.8527 10.9696 14.1871 10.5285 14.4335 10.0778C14.6789 9.62818 14.8016 9.1123 14.8016 8.53017C14.8016 7.4432 14.4364 6.58958 13.706 5.96931C12.9756 5.34904 12.0922 5.03841 11.0557 5.03741C10.1493 5.03741 9.38178 5.29184 8.75307 5.80069C8.1224 6.30955 7.6604 6.91627 7.36707 7.62085L8.57413 8.1011C8.77164 7.65547 9.06009 7.24949 9.43947 6.88315C9.81982 6.51781 10.3586 6.33515 11.0557 6.33515C11.8849 6.33515 12.4975 6.56649 12.8935 7.02918C13.2895 7.49288 13.4875 7.99873 13.4875 8.54673C13.4875 9.05057 13.3604 9.47663 13.1061 9.8249C12.8529 10.1732 12.5268 10.5521 12.1279 10.9616C11.4229 11.5989 10.9599 12.171 10.7389 12.6778C10.518 13.1847 10.4075 13.7994 10.4075 14.5221Z"/>
</mask>
<path d="M13.2 26L13.1149 22.5825H11C7.94249 22.5825 5.34502 21.4855 3.2076 19.2915C1.07018 17.0975 0.000978448 14.4307 6.70017e-07 11.2913C-0.000977108 8.15178 1.06822 5.48554 3.2076 3.29253C5.34698 1.09952 7.94445 0.00200733 11 0C12.5292 0 13.9607 0.294074 15.2944 0.882223C16.6281 1.46937 17.7931 2.27431 18.7895 3.29705C19.7858 4.31978 20.57 5.51515 21.142 6.88315C21.714 8.25316 22 9.72252 22 11.2913C22 12.8259 21.7805 14.2997 21.3415 15.7129C20.9024 17.1261 20.2952 18.4615 19.5199 19.719C18.7445 20.9766 17.8156 22.1359 16.7332 23.1968C15.6508 24.2576 14.4731 25.1915 13.2 25.9985M14.6667 23.1094C16.4022 21.6039 17.8141 19.8415 18.9024 17.8221C19.9907 15.8027 20.5343 13.6258 20.5333 11.2913C20.5333 8.55626 19.6103 6.24181 17.7643 4.34789C15.9182 2.45397 13.6635 1.5065 11 1.5055C8.33653 1.5045 6.08178 2.45196 4.23573 4.34789C2.38969 6.24381 1.46667 8.55827 1.46667 11.2913C1.46667 14.0242 2.38969 16.3392 4.23573 18.2361C6.08178 20.1331 8.33653 21.08 11 21.077H14.6667V23.1094ZM11.0484 18.9257C11.3515 18.9257 11.6072 18.8188 11.8155 18.605C12.0237 18.3912 12.1279 18.1287 12.1279 17.8176C12.1279 17.5065 12.0237 17.244 11.8155 17.0302C11.6072 16.8164 11.3515 16.7091 11.0484 16.708C10.7453 16.708 10.4896 16.8154 10.2813 17.0302C10.0721 17.244 9.96747 17.5065 9.96747 17.8176C9.96747 18.1287 10.0716 18.3912 10.2799 18.605C10.4891 18.8188 10.7453 18.9257 11.0484 18.9257ZM10.4075 14.5221H11.7055C11.7426 13.9048 11.858 13.4165 12.0516 13.0572C12.2452 12.6989 12.7048 12.1469 13.4303 11.4012C13.8527 10.9696 14.1871 10.5285 14.4335 10.0778C14.6789 9.62818 14.8016 9.1123 14.8016 8.53017C14.8016 7.4432 14.4364 6.58958 13.706 5.96931C12.9756 5.34904 12.0922 5.03841 11.0557 5.03741C10.1493 5.03741 9.38178 5.29184 8.75307 5.80069C8.1224 6.30955 7.6604 6.91627 7.36707 7.62085L8.57413 8.1011C8.77164 7.65547 9.06009 7.24949 9.43947 6.88315C9.81982 6.51781 10.3586 6.33515 11.0557 6.33515C11.8849 6.33515 12.4975 6.56649 12.8935 7.02918C13.2895 7.49288 13.4875 7.99873 13.4875 8.54673C13.4875 9.05057 13.3604 9.47663 13.1061 9.8249C12.8529 10.1732 12.5268 10.5521 12.1279 10.9616C11.4229 11.5989 10.9599 12.171 10.7389 12.6778C10.518 13.1847 10.4075 13.7994 10.4075 14.5221Z" fill="black"/>
<path d="M13.1149 22.5825L14.1146 22.5576L14.0904 21.5825H13.1149V22.5825ZM11 0V-1L10.9993 -1L11 0ZM15.2944 0.882223L14.8909 1.7972L14.8915 1.79746L15.2944 0.882223ZM21.142 6.88315L22.0648 6.49787L22.0646 6.49739L21.142 6.88315ZM14.6667 23.1094H13.6667V25.3007L15.3219 23.8648L14.6667 23.1094ZM20.5333 11.2913H19.5333L19.5333 11.2917L20.5333 11.2913ZM11 21.077V20.077H10.9989L11 21.077ZM14.6667 21.077H15.6667V20.077H14.6667V21.077ZM11.0484 16.708L11.0517 15.708H11.0484V16.708ZM10.2813 17.0302L10.996 17.7297L10.9993 17.7264L10.2813 17.0302ZM10.2799 18.605L9.56358 19.3028L9.56522 19.3045L10.2799 18.605ZM10.4075 14.5221H9.40747V15.5221H10.4075V14.5221ZM11.7055 14.5221V15.5221H12.6471L12.7037 14.5821L11.7055 14.5221ZM12.0516 13.0572L11.1718 12.5818L11.1713 12.5829L12.0516 13.0572ZM13.4303 11.4012L12.7156 10.7017L12.7135 10.7038L13.4303 11.4012ZM14.4335 10.0778L15.3109 10.5576L15.3112 10.5569L14.4335 10.0778ZM11.0557 5.03741L11.0567 4.03741H11.0557V5.03741ZM8.75307 5.80069L9.38101 6.57895L9.38219 6.578L8.75307 5.80069ZM7.36707 7.62085L6.44388 7.2365L6.0534 8.17442L6.99738 8.55L7.36707 7.62085ZM8.57413 8.1011L8.20445 9.03026L9.09848 9.38596L9.48836 8.5063L8.57413 8.1011ZM9.43947 6.88315L8.74674 6.16194L8.74483 6.16379L9.43947 6.88315ZM12.8935 7.02918L13.6539 6.37977L13.6532 6.37895L12.8935 7.02918ZM13.1061 9.8249L12.2984 9.23531L12.2973 9.23679L13.1061 9.8249ZM12.1279 10.9616L12.7985 11.7034L12.822 11.6821L12.8442 11.6594L12.1279 10.9616ZM14.1997 25.9751L14.1146 22.5576L12.1152 22.6074L12.2003 26.0249L14.1997 25.9751ZM13.1149 21.5825H11V23.5825H13.1149V21.5825ZM11 21.5825C8.21279 21.5825 5.87346 20.5949 3.92389 18.5937L2.49132 19.9893C4.81658 22.3761 7.67219 23.5825 11 23.5825V21.5825ZM3.92389 18.5937C1.9733 16.5914 1.0009 14.1771 1 11.2909L-0.999999 11.2916C-0.998943 14.6844 0.167058 17.6035 2.49132 19.9893L3.92389 18.5937ZM1 11.2909C0.999102 8.40531 1.97128 5.9919 3.92341 3.99083L2.49179 2.59423C0.165165 4.97919 -1.00106 7.89826 -0.999999 11.2916L1 11.2909ZM3.92341 3.99083C5.87531 1.98999 8.21519 1.00183 11.0007 1L10.9993 -1C7.6737 -0.997815 4.81865 0.209045 2.49179 2.59423L3.92341 3.99083ZM11 1C12.3973 1 13.6906 1.26786 14.8909 1.7972L15.6979 -0.032756C14.2309 -0.679715 12.6612 -1 11 -1V1ZM14.8915 1.79746C16.1102 2.33399 17.1682 3.06594 18.0732 3.99485L19.5058 2.59924C18.418 1.48268 17.146 0.604747 15.6973 -0.0330101L14.8915 1.79746ZM18.0732 3.99485C18.9784 4.92402 19.694 6.01244 20.2194 7.26891L22.0646 6.49739C21.446 5.01786 20.5933 3.71555 19.5058 2.59924L18.0732 3.99485ZM20.2192 7.26843C20.7374 8.50955 21 9.84718 21 11.2913H23C23 9.59786 22.6906 7.99676 22.0648 6.49787L20.2192 7.26843ZM21 11.2913C21 12.729 20.7946 14.1027 20.3865 15.4162L22.2964 16.0096C22.7664 14.4968 23 12.9227 23 11.2913H21ZM20.3865 15.4162C19.9723 16.7494 19.3999 18.0081 18.6687 19.1942L20.3711 20.2439C21.1905 18.9148 21.8326 17.5027 22.2964 16.0096L20.3865 15.4162ZM18.6687 19.1942C17.9369 20.381 17.0592 21.477 16.0332 22.4826L17.4332 23.9109C18.572 22.7948 19.5521 21.5722 20.3711 20.2439L18.6687 19.1942ZM16.0332 22.4826C15.0007 23.4946 13.8781 24.3847 12.6646 25.1539L13.7354 26.8431C15.0681 25.9984 16.3009 25.0207 17.4332 23.9109L16.0332 22.4826ZM15.3219 23.8648C17.1487 22.2802 18.637 20.4226 19.7827 18.2965L18.0221 17.3477C16.9913 19.2604 15.6557 20.9277 14.0114 22.354L15.3219 23.8648ZM19.7827 18.2965C20.951 16.1286 21.5344 13.7881 21.5333 11.2908L19.5333 11.2917C19.5342 13.4635 19.0303 15.4769 18.0221 17.3477L19.7827 18.2965ZM21.5333 11.2913C21.5333 8.30538 20.5152 5.73753 18.4804 3.64989L17.0482 5.04588C18.7054 6.74609 19.5333 8.80715 19.5333 11.2913H21.5333ZM18.4804 3.64989C16.4447 1.56143 13.9312 0.506605 11.0004 0.505501L10.9996 2.5055C13.3957 2.5064 15.3917 3.34651 17.0482 5.04588L18.4804 3.64989ZM11.0004 0.505501C8.06893 0.504396 5.55503 1.55949 3.51926 3.65027L4.9522 5.04551C6.60853 3.34442 8.60414 2.5046 10.9996 2.5055L11.0004 0.505501ZM3.51926 3.65027C1.48489 5.73961 0.466667 8.30718 0.466667 11.2913H2.46667C2.46667 8.80936 3.29449 6.74801 4.9522 5.04551L3.51926 3.65027ZM0.466667 11.2913C0.466667 14.2753 1.48488 16.8433 3.51908 18.9336L4.95239 17.5387C3.2945 15.8351 2.46667 13.7732 2.46667 11.2913H0.466667ZM3.51908 18.9336C5.55498 21.0256 8.06925 22.0803 11.0011 22.077L10.9989 20.077C8.60382 20.0797 6.60857 19.2405 4.95239 17.5387L3.51908 18.9336ZM11 22.077H14.6667V20.077H11V22.077ZM13.6667 21.077V23.1094H15.6667V21.077H13.6667ZM11.0484 19.9257C11.6165 19.9257 12.132 19.7132 12.5318 19.3028L11.0992 17.9072C11.0896 17.917 11.0836 17.9214 11.0818 17.9226C11.0801 17.9238 11.0803 17.9235 11.0818 17.9229C11.0832 17.9223 11.0828 17.9227 11.079 17.9234C11.0749 17.9242 11.0652 17.9257 11.0484 17.9257V19.9257ZM12.5318 19.3028C12.9303 18.8937 13.1279 18.3771 13.1279 17.8176H11.1279C11.1279 17.8598 11.1212 17.8766 11.1203 17.879C11.1196 17.8807 11.1166 17.8893 11.0992 17.9072L12.5318 19.3028ZM13.1279 17.8176C13.1279 17.2581 12.9303 16.7416 12.5318 16.3324L11.0992 17.728C11.1166 17.7459 11.1196 17.7545 11.1203 17.7562C11.1212 17.7586 11.1279 17.7754 11.1279 17.8176H13.1279ZM12.5318 16.3324C12.1328 15.9229 11.6187 15.7099 11.0517 15.7081L11.0451 17.708C11.0621 17.7081 11.0721 17.7096 11.0764 17.7104C11.0806 17.7113 11.0814 17.7118 11.0803 17.7113C11.0791 17.7108 11.0792 17.7107 11.0812 17.712C11.0833 17.7135 11.0895 17.718 11.0992 17.728L12.5318 16.3324ZM11.0484 15.708C10.4787 15.708 9.9628 15.9222 9.56342 16.3341L10.9993 17.7264C11.009 17.7163 11.015 17.7119 11.0168 17.7107C11.0185 17.7095 11.0182 17.7099 11.0165 17.7106C11.0149 17.7113 11.0151 17.7109 11.0187 17.7102C11.0224 17.7095 11.0319 17.708 11.0484 17.708V15.708ZM9.56669 16.3307C9.16653 16.7396 8.96747 17.2566 8.96747 17.8176H10.9675C10.9675 17.776 10.974 17.7597 10.9749 17.7577C10.9754 17.7564 10.9783 17.7477 10.996 17.7297L9.56669 16.3307ZM8.96747 17.8176C8.96747 18.3771 9.165 18.8937 9.56358 19.3028L10.9962 17.9072C10.9788 17.8893 10.9757 17.8807 10.9751 17.879C10.9741 17.8766 10.9675 17.8598 10.9675 17.8176H8.96747ZM9.56522 19.3045C9.96537 19.7133 10.4804 19.9257 11.0484 19.9257V17.9257C11.0316 17.9257 11.0218 17.9242 11.0176 17.9234C11.0136 17.9226 11.0129 17.9221 11.014 17.9226C11.0152 17.9231 11.015 17.9232 11.013 17.9218C11.0107 17.9203 11.0044 17.9156 10.9945 17.9055L9.56522 19.3045ZM10.4075 15.5221H11.7055V13.5221H10.4075V15.5221ZM12.7037 14.5821C12.7362 14.0421 12.8335 13.7143 12.9319 13.5315L11.1713 12.5829C10.8825 13.1187 10.7491 13.7675 10.7073 14.462L12.7037 14.5821ZM12.9314 13.5326C13.0508 13.3116 13.4164 12.8494 14.147 12.0985L12.7135 10.7038C11.9931 11.4443 11.4396 12.0862 11.1718 12.5818L12.9314 13.5326ZM14.1449 12.1006C14.6205 11.6148 15.0136 11.1012 15.3109 10.5576L13.5561 9.59808C13.3605 9.95574 13.0849 10.3244 12.7156 10.7017L14.1449 12.1006ZM15.3112 10.5569C15.6473 9.94128 15.8016 9.25658 15.8016 8.53017H13.8016C13.8016 8.96801 13.7105 9.31507 13.5557 9.59873L15.3112 10.5569ZM15.8016 8.53017C15.8016 7.19379 15.339 6.04416 14.3533 5.20708L13.0587 6.73155C13.5338 7.135 13.8016 7.69261 13.8016 8.53017H15.8016ZM14.3533 5.20708C13.4271 4.42057 12.3091 4.03862 11.0567 4.03741L11.0548 6.03741C11.8752 6.0382 12.5241 6.27752 13.0587 6.73155L14.3533 5.20708ZM11.0557 4.03741C9.94959 4.03741 8.95218 4.35304 8.12394 5.02339L9.38219 6.578C9.81138 6.23063 10.3491 6.03741 11.0557 6.03741V4.03741ZM8.12512 5.02244C7.37303 5.62927 6.80523 6.36855 6.44388 7.2365L8.29026 8.00519C8.51557 7.46399 8.87178 6.98984 9.38101 6.57895L8.12512 5.02244ZM6.99738 8.55L8.20445 9.03026L8.94382 7.17194L7.73675 6.69169L6.99738 8.55ZM9.48836 8.5063C9.62947 8.18793 9.83984 7.88666 10.1341 7.60251L8.74483 6.16379C8.28034 6.61231 7.91382 7.12301 7.65991 7.6959L9.48836 8.5063ZM10.1322 7.60435C10.2726 7.46953 10.5312 7.33515 11.0557 7.33515V5.33515C10.186 5.33515 9.36709 5.56609 8.74675 6.16195L10.1322 7.60435ZM11.0557 7.33515C11.7038 7.33515 11.9897 7.51111 12.1337 7.67941L13.6532 6.37895C13.0053 5.62188 12.066 5.33515 11.0557 5.33515V7.33515ZM12.133 7.6786C12.3931 7.98308 12.4875 8.26404 12.4875 8.54673H14.4875C14.4875 7.73342 14.1859 7.00268 13.6539 6.37977L12.133 7.6786ZM12.4875 8.54673C12.4875 8.87554 12.4076 9.08581 12.2984 9.23531L13.9138 10.4145C14.3132 9.86744 14.4875 9.2256 14.4875 8.54673H12.4875ZM12.2973 9.23679C12.0797 9.53615 11.7872 9.87818 11.4116 10.2637L12.8442 11.6594C13.2664 11.2259 13.6261 10.8102 13.9149 10.413L12.2973 9.23679ZM11.4572 10.2197C10.712 10.8934 10.1269 11.5793 9.82227 12.2782L11.6556 13.0775C11.7929 12.7626 12.1337 12.3043 12.7985 11.7034L11.4572 10.2197ZM9.82227 12.2782C9.53223 12.9434 9.40747 13.7022 9.40747 14.5221H11.4075C11.4075 13.8967 11.5037 13.4259 11.6556 13.0775L9.82227 12.2782Z" fill="#0F53FF" mask="url(#path-1-inside-1_852_157)"/>
</svg>
