<svg width="33" height="27" viewBox="0 0 33 27" fill="none" xmlns="http://www.w3.org/2000/svg">
<path d="M22.1463 10.3934L14.2263 5.25054C14.1269 5.18593 14.0113 5.14883 13.8919 5.14319C13.7726 5.13756 13.6539 5.16361 13.5485 5.21855C13.4431 5.27349 13.3551 5.35528 13.2937 5.45517C13.2323 5.55505 13.1999 5.6693 13.2 5.78571V16.0714C13.1999 16.1878 13.2322 16.3021 13.2935 16.402C13.3548 16.5019 13.4428 16.5837 13.5482 16.6388C13.6536 16.6937 13.7724 16.7198 13.8918 16.7141C14.0112 16.7085 14.1269 16.6713 14.2263 16.6066L22.1463 11.4637C22.2368 11.4051 22.3111 11.3255 22.3624 11.2321C22.4138 11.1388 22.4406 11.0345 22.4406 10.9286C22.4406 10.8227 22.4138 10.7184 22.3624 10.625C22.3111 10.5316 22.2368 10.4521 22.1463 10.3934ZM14.52 14.8709V6.98625L20.5903 10.9286L14.52 14.8709ZM31.02 0H1.98C1.45487 0 0.951251 0.203188 0.579929 0.564865C0.208607 0.926543 0 1.41708 0 1.92857V19.9286C0 20.4401 0.208607 20.9306 0.579929 21.2923C0.951251 21.654 1.45487 21.8571 1.98 21.8571H31.02C31.5451 21.8571 32.0487 21.654 32.4201 21.2923C32.7914 20.9306 33 20.4401 33 19.9286V1.92857C33 1.41708 32.7914 0.926543 32.4201 0.564865C32.0487 0.203188 31.5451 0 31.02 0ZM31.68 19.9286C31.68 20.0991 31.6105 20.2626 31.4867 20.3831C31.3629 20.5037 31.195 20.5714 31.02 20.5714H1.98C1.80496 20.5714 1.63708 20.5037 1.51331 20.3831C1.38954 20.2626 1.32 20.0991 1.32 19.9286V1.92857C1.32 1.75808 1.38954 1.59456 1.51331 1.474C1.63708 1.35344 1.80496 1.28571 1.98 1.28571H31.02C31.195 1.28571 31.3629 1.35344 31.4867 1.474C31.6105 1.59456 31.68 1.75808 31.68 1.92857V19.9286ZM33 26.3571C33 26.5276 32.9305 26.6912 32.8067 26.8117C32.6829 26.9323 32.515 27 32.34 27H0.66C0.484957 27 0.317084 26.9323 0.19331 26.8117C0.0695356 26.6912 0 26.5276 0 26.3571C0 26.1866 0.0695356 26.0231 0.19331 25.9026C0.317084 25.782 0.484957 25.7143 0.66 25.7143H32.34C32.515 25.7143 32.6829 25.782 32.8067 25.9026C32.9305 26.0231 33 26.1866 33 26.3571Z" fill="#0F53FF"/>
</svg>
