<svg width="56" height="28" viewBox="0 0 56 28" fill="none" xmlns="http://www.w3.org/2000/svg">
<path d="M14 28C10.1117 28 6.80587 26.6401 4.0824 23.9204C1.35893 21.2007 -0.00186475 17.8985 1.91781e-06 14.014C0.00186858 10.1295 1.36267 6.8208 4.0824 4.088C6.80587 1.36267 10.1117 0 14 0H42C45.8883 0 49.1941 1.35987 51.9176 4.0796C54.6411 6.79933 56.0019 10.1015 56 13.986C55.9981 17.8705 54.6373 21.1783 51.9176 23.9092C49.1941 26.6364 45.8883 28 42 28H14ZM14 25.2H42C45.08 25.2 47.7167 24.1033 49.91 21.91C52.1033 19.7167 53.2 17.08 53.2 14C53.2 10.92 52.1033 8.28333 49.91 6.09C47.7167 3.89667 45.08 2.8 42 2.8H14C10.92 2.8 8.28333 3.89667 6.09 6.09C3.89667 8.28333 2.8 10.92 2.8 14C2.8 17.08 3.89667 19.7167 6.09 21.91C8.28333 24.1033 10.92 25.2 14 25.2ZM41.9944 21C43.9357 21 45.5887 20.3205 46.9532 18.9616C48.3177 17.6027 49 15.9507 49 14.0056C49 12.0605 48.3205 10.4076 46.9616 9.0468C45.6027 7.686 43.9507 7.00373 42.0056 7C40.0605 6.99627 38.4076 7.67667 37.0468 9.0412C35.686 10.4057 35.0037 12.0568 35 13.9944C34.9963 15.932 35.6767 17.5849 37.0412 18.9532C38.4057 20.3215 40.0568 21.0037 41.9944 21Z" fill="#0F53FF"/>
</svg>
