<svg width="50" height="50" viewBox="0 0 50 50" fill="none" xmlns="http://www.w3.org/2000/svg">
<rect x="1.5" y="1.5" width="47" height="47" rx="4.5" stroke="black" stroke-width="3"/>
<path d="M0 6C0 2.68629 2.68629 0 6 0H44C47.3137 0 50 2.68629 50 6V11H0V6Z" fill="black"/>
<circle cx="7.5" cy="5.5" r="2.5" fill="white"/>
<circle cx="15.5" cy="5.5" r="2.5" fill="white"/>
<path d="M23.5659 20.8047H26.8618V33.6323C26.8618 35.0913 26.5454 36.313 25.9126 37.2974C25.2798 38.2817 24.4185 39.0244 23.3286 39.5254C22.2476 40.0176 21.0391 40.2637 19.7031 40.2637C18.3232 40.2637 17.0928 40.0176 16.0117 39.5254C14.9307 39.0244 14.0781 38.2817 13.4541 37.2974C12.8389 36.313 12.5312 35.0913 12.5312 33.6323V20.8047H15.8271V33.6323C15.8271 34.5552 15.9854 35.3154 16.3018 35.9131C16.6182 36.502 17.0664 36.937 17.6465 37.2183C18.2266 37.4995 18.9121 37.6401 19.7031 37.6401C20.4941 37.6401 21.1753 37.4995 21.7466 37.2183C22.3267 36.937 22.7749 36.502 23.0913 35.9131C23.4077 35.3154 23.5659 34.5552 23.5659 33.6323V20.8047ZM33.9941 20.8047V40H30.6851V20.8047H33.9941Z" fill="black"/>
</svg>
