<svg width="47" height="44" viewBox="0 0 47 44" fill="none" xmlns="http://www.w3.org/2000/svg">
<path d="M20.3125 28.125H10.9375C9.6943 28.125 8.50201 28.6189 7.62294 29.4979C6.74386 30.377 6.25 31.5693 6.25 32.8125V35.9375H9.375V32.8125C9.375 32.3981 9.53962 32.0007 9.83265 31.7076C10.1257 31.4146 10.5231 31.25 10.9375 31.25H20.3125C20.7269 31.25 21.1243 31.4146 21.4174 31.7076C21.7104 32.0007 21.875 32.3981 21.875 32.8125V35.9375H25V32.8125C25 31.5693 24.5061 30.377 23.6271 29.4979C22.748 28.6189 21.5557 28.125 20.3125 28.125ZM15.625 26.5625C16.8611 26.5625 18.0695 26.1959 19.0973 25.5092C20.1251 24.8224 20.9262 23.8463 21.3992 22.7043C21.8723 21.5622 21.9961 20.3056 21.7549 19.0932C21.5138 17.8808 20.9185 16.7672 20.0444 15.8931C19.1703 15.019 18.0567 14.4238 16.8443 14.1826C15.6319 13.9414 14.3753 14.0652 13.2332 14.5383C12.0912 15.0113 11.1151 15.8124 10.4283 16.8402C9.74156 17.868 9.375 19.0764 9.375 20.3125C9.375 21.9701 10.0335 23.5598 11.2056 24.7319C12.3777 25.904 13.9674 26.5625 15.625 26.5625ZM15.625 17.1875C16.2431 17.1875 16.8473 17.3708 17.3612 17.7142C17.8751 18.0575 18.2756 18.5456 18.5121 19.1166C18.7486 19.6876 18.8105 20.316 18.69 20.9222C18.5694 21.5284 18.2717 22.0852 17.8347 22.5222C17.3977 22.9593 16.8408 23.2569 16.2347 23.3775C15.6285 23.498 15.0001 23.4362 14.4291 23.1996C13.8581 22.9631 13.37 22.5626 13.0267 22.0487C12.6833 21.5348 12.5 20.9306 12.5 20.3125C12.5 19.4837 12.8292 18.6888 13.4153 18.1028C14.0013 17.5167 14.7962 17.1875 15.625 17.1875Z" fill="#0F53FF"/>
<path d="M40.625 26.5625V40.625H3.125V9.375H21.875V6.25H3.125C2.2962 6.25 1.50134 6.57924 0.915291 7.16529C0.32924 7.75134 0 8.5462 0 9.375V40.625C0 41.4538 0.32924 42.2487 0.915291 42.8347C1.50134 43.4208 2.2962 43.75 3.125 43.75H40.625C41.4538 43.75 42.2487 43.4208 42.8347 42.8347C43.4208 42.2487 43.75 41.4538 43.75 40.625V26.5625H40.625Z" fill="#0F53FF"/>
<path d="M28.125 26.5625H37.5V29.6875H28.125V26.5625ZM31.25 32.8125H37.5V35.9375H31.25V32.8125ZM46.875 12.5V9.375H43.5922C43.3895 8.39728 43.0012 7.46748 42.4484 6.63594L44.7766 4.30781L42.5672 2.09844L40.2391 4.42656C39.4075 3.87378 38.4777 3.48552 37.5 3.28281V0H34.375V3.28281C33.3973 3.48552 32.4675 3.87378 31.6359 4.42656L29.3078 2.09844L27.0984 4.30781L29.4266 6.63594C28.8738 7.46748 28.4855 8.39728 28.2828 9.375H25V12.5H28.2828C28.4855 13.4777 28.8738 14.4075 29.4266 15.2391L27.0984 17.5672L29.3078 19.7766L31.6359 17.4484C32.4675 18.0012 33.3973 18.3895 34.375 18.5922V21.875H37.5V18.5922C38.4777 18.3895 39.4075 18.0012 40.2391 17.4484L42.5672 19.7766L44.7766 17.5672L42.4484 15.2391C43.0012 14.4075 43.3895 13.4777 43.5922 12.5H46.875ZM35.9375 15.625C35.0104 15.625 34.1041 15.3501 33.3333 14.835C32.5624 14.3199 31.9616 13.5879 31.6068 12.7313C31.252 11.8748 31.1592 10.9323 31.3401 10.023C31.5209 9.11373 31.9674 8.2785 32.6229 7.62294C33.2785 6.96738 34.1137 6.52094 35.023 6.34007C35.9323 6.1592 36.8748 6.25203 37.7313 6.60681C38.5879 6.9616 39.3199 7.56241 39.835 8.33326C40.3501 9.10412 40.625 10.0104 40.625 10.9375C40.6238 12.1803 40.1295 13.3719 39.2507 14.2507C38.3719 15.1295 37.1803 15.6238 35.9375 15.625Z" fill="#0F53FF"/>
</svg>
