<svg width="24" height="25" viewBox="0 0 24 25" fill="none" xmlns="http://www.w3.org/2000/svg">
<g clip-path="url(#clip0_465_177)">
<path d="M11.9346 12.0139C13.7346 12.0139 15.1346 10.4862 15.1346 8.61117C15.1346 6.73617 13.668 5.27783 11.868 5.27783C10.068 5.27783 8.66797 6.80561 8.66797 8.61117C8.66797 10.4862 10.1346 12.0139 11.9346 12.0139ZM11.868 6.66672C11.9346 6.66672 11.9346 6.66672 11.868 6.66672C12.9346 6.66672 13.8013 7.5695 13.8013 8.68061C13.8013 9.79172 12.9346 10.6251 11.868 10.6251C10.8013 10.6251 10.0013 9.72228 10.0013 8.68061C10.0013 7.5695 10.868 6.66672 11.868 6.66672Z" fill="white"/>
<path d="M21.8 11.5972C20.5333 10.4166 18.8667 9.79162 17.1333 9.86106H16.6C16.4667 10.4166 16.2667 10.9027 16 11.3194C16.4 11.2499 16.7333 11.25 17.1333 11.25C18.4 11.1805 19.6667 11.5972 20.6667 12.3611V17.3611H22V11.8055L21.8 11.5972Z" fill="white"/>
<path d="M15.6013 5.41664C15.9346 4.58331 16.868 4.16664 17.7346 4.51386C18.5346 4.86108 18.9346 5.83331 18.6013 6.73608C18.3346 7.36108 17.7346 7.77775 17.1346 7.77775C17.0013 7.77775 16.8013 7.77775 16.668 7.70831C16.7346 8.05553 16.7346 8.40275 16.7346 8.68053V9.0972C16.868 9.0972 17.0013 9.16664 17.1346 9.16664C18.8013 9.16664 20.1346 7.77775 20.1346 6.11108C20.1346 4.37497 18.8013 2.98608 17.2013 2.98608C16.1346 2.98608 15.2013 3.54164 14.668 4.51386C15.0013 4.7222 15.3346 4.99997 15.6013 5.41664Z" fill="white"/>
<path d="M8 11.3889C7.73333 10.9722 7.53333 10.4861 7.4 9.93053H6.86667C5.13333 9.86108 3.46667 10.4861 2.2 11.5972L2 11.8055V17.3611H3.33333V12.3611C4.4 11.5972 5.6 11.1805 6.86667 11.25C7.26667 11.25 7.66667 11.3194 8 11.3889Z" fill="white"/>
<path d="M6.86521 9.09728C6.99854 9.09728 7.13188 9.09728 7.26521 9.02783V8.61117C7.26521 8.26394 7.26521 7.91672 7.33188 7.63895C7.19854 7.70839 6.99854 7.70839 6.86521 7.70839C5.99854 7.70839 5.26521 6.9445 5.26521 6.04172C5.26521 5.13895 5.99854 4.37506 6.86521 4.37506C7.53188 4.37506 8.13188 4.79172 8.39854 5.41672C8.66521 5.0695 9.06521 4.72228 9.39854 4.4445C8.53188 2.98617 6.73188 2.50006 5.33188 3.40283C3.93188 4.30561 3.46521 6.18061 4.33188 7.63895C4.86521 8.54172 5.79854 9.09728 6.86521 9.09728Z" fill="white"/>
<path d="M17.4013 15.7639L17.268 15.5555C15.9346 14.0277 14.068 13.125 12.068 13.1944C10.068 13.125 8.13464 14.0277 6.8013 15.5555L6.66797 15.7639V21.0416C6.66797 21.6666 7.13464 22.2222 7.8013 22.2222H16.3346C16.9346 22.2222 17.468 21.6666 17.468 21.0416V15.7639H17.4013ZM16.068 20.8333H8.0013V16.25C9.06797 15.1389 10.5346 14.5833 12.068 14.5833C13.5346 14.5139 15.0013 15.1389 16.068 16.25V20.8333Z" fill="white"/>
</g>
<defs>
<clipPath id="clip0_465_177">
<rect width="24" height="25" rx="5" fill="white"/>
</clipPath>
</defs>
</svg>
