<svg width="48" height="49" viewBox="0 0 48 49" fill="none" xmlns="http://www.w3.org/2000/svg">
<g clip-path="url(#clip0_670_237)">
<g clip-path="url(#clip1_670_237)">
<path opacity="0.2" d="M16.2118 30.2717C21.502 30.2717 25.7907 25.983 25.7907 20.6927C25.7907 15.4024 21.502 11.1138 16.2118 11.1138C10.9215 11.1138 6.63281 15.4024 6.63281 20.6927C6.63281 25.983 10.9215 30.2717 16.2118 30.2717Z" fill="#0F9918"/>
<path d="M16.2118 30.2717C21.502 30.2717 25.7907 25.983 25.7907 20.6927C25.7907 15.4024 21.502 11.1138 16.2118 11.1138C10.9215 11.1138 6.63281 15.4024 6.63281 20.6927C6.63281 25.983 10.9215 30.2717 16.2118 30.2717Z" stroke="#0F9918" stroke-width="5.71053" stroke-miterlimit="10"/>
<path d="M28.6289 11.4703C29.9464 11.0991 31.3282 11.0146 32.6811 11.2223C34.034 11.4301 35.3268 11.9254 36.4722 12.6749C37.6176 13.4243 38.5891 14.4105 39.3213 15.567C40.0534 16.7235 40.5293 18.0235 40.7167 19.3795C40.9042 20.7353 40.7988 22.1157 40.4079 23.4275C40.017 24.7393 39.3495 25.9521 38.4504 26.9842C37.5513 28.0163 36.4414 28.8437 35.1956 29.4107C33.9497 29.9778 32.5968 30.2713 31.2281 30.2714" stroke="#0F9918" stroke-width="5.71053" stroke-linecap="round" stroke-linejoin="round"/>
<path d="M2.94531 37.1603C4.44135 35.0323 6.42743 33.2955 8.7359 32.0965C11.0444 30.8975 13.6074 30.2716 16.2087 30.2715C18.8098 30.2713 21.3729 30.8972 23.6815 32.0959C25.99 33.2947 27.9762 35.0314 29.4725 37.1593" stroke="#0F9918" stroke-width="5.71053" stroke-linecap="round" stroke-linejoin="round"/>
<path d="M31.2266 30.2715C33.828 30.2696 36.3917 30.8946 38.7004 32.0936C41.0091 33.2925 42.995 35.0301 44.4897 37.1593" stroke="#0F9918" stroke-width="5.71053" stroke-linecap="round" stroke-linejoin="round"/>
</g>
</g>
<defs>
<clipPath id="clip0_670_237">
<rect width="48" height="48" fill="white"/>
</clipPath>
<clipPath id="clip1_670_237">
<rect width="48" height="48" fill="white"/>
</clipPath>
</defs>
</svg>
