<svg width="94" height="94" viewBox="0 0 94 94" fill="none" xmlns="http://www.w3.org/2000/svg">
<g clip-path="url(#clip0_587_188)">
<path opacity="0.2" d="M44.0625 38.1875C44.0625 41.0924 43.2011 43.9321 41.5872 46.3474C39.9733 48.7628 37.6795 50.6453 34.9957 51.757C32.3119 52.8686 29.3587 53.1595 26.5096 52.5928C23.6605 52.0261 21.0435 50.6272 18.9894 48.5731C16.9353 46.519 15.5364 43.902 14.9697 41.0529C14.403 38.2038 14.6939 35.2506 15.8055 32.5668C16.9172 29.883 18.7997 27.5892 21.2151 25.9753C23.6304 24.3614 26.4701 23.5 29.375 23.5C33.2704 23.5 37.0062 25.0474 39.7606 27.8019C42.5151 30.5563 44.0625 34.2921 44.0625 38.1875Z" fill="#0F53FF"/>
<path d="M55.8137 29.3749C55.8137 28.5958 56.1232 27.8486 56.6741 27.2977C57.225 26.7469 57.9721 26.4374 58.7512 26.4374H91.0637C91.8428 26.4374 92.59 26.7469 93.1409 27.2977C93.6917 27.8486 94.0012 28.5958 94.0012 29.3749C94.0012 30.1539 93.6917 30.9011 93.1409 31.452C92.59 32.0029 91.8428 32.3124 91.0637 32.3124H58.7512C57.9721 32.3124 57.225 32.0029 56.6741 31.452C56.1232 30.9011 55.8137 30.1539 55.8137 29.3749ZM91.0637 44.0624H58.7512C57.9721 44.0624 57.225 44.3719 56.6741 44.9227C56.1232 45.4736 55.8137 46.2208 55.8137 46.9999C55.8137 47.7789 56.1232 48.5261 56.6741 49.077C57.225 49.6279 57.9721 49.9374 58.7512 49.9374H91.0637C91.8428 49.9374 92.59 49.6279 93.1409 49.077C93.6917 48.5261 94.0012 47.7789 94.0012 46.9999C94.0012 46.2208 93.6917 45.4736 93.1409 44.9227C92.59 44.3719 91.8428 44.0624 91.0637 44.0624ZM91.0637 61.6874H67.5637C66.7846 61.6874 66.0375 61.9969 65.4866 62.5477C64.9357 63.0986 64.6262 63.8458 64.6262 64.6249C64.6262 65.4039 64.9357 66.1511 65.4866 66.702C66.0375 67.2529 66.7846 67.5624 67.5637 67.5624H91.0637C91.8428 67.5624 92.59 67.2529 93.1409 66.702C93.6917 66.1511 94.0012 65.4039 94.0012 64.6249C94.0012 63.8458 93.6917 63.0986 93.1409 62.5477C92.59 61.9969 91.8428 61.6874 91.0637 61.6874ZM55.7219 69.7655C55.8179 70.1392 55.8394 70.5282 55.7851 70.9102C55.7308 71.2922 55.6017 71.6597 55.4053 71.9918C55.2089 72.324 54.949 72.6141 54.6404 72.8458C54.3318 73.0774 53.9807 73.246 53.6069 73.3419C53.3675 73.4062 53.1205 73.4383 52.8725 73.4374C52.2211 73.4377 51.5879 73.2214 51.0728 72.8226C50.5577 72.4238 50.1897 71.865 50.0268 71.2342C47.765 62.4438 38.8864 55.8124 29.3725 55.8124C19.8587 55.8124 10.9801 62.4401 8.71824 71.2342C8.52347 71.989 8.03687 72.6354 7.36547 73.0314C6.69408 73.4273 5.89289 73.5403 5.13816 73.3456C4.38343 73.1508 3.73699 72.6642 3.34104 71.9928C2.94509 71.3214 2.83206 70.5202 3.02683 69.7655C5.07941 61.7939 11.0462 55.3387 18.6176 52.1405C15.7023 49.895 13.5629 46.7933 12.4995 43.2704C11.4361 39.7475 11.502 35.9802 12.6881 32.4966C13.8741 29.0131 16.1207 25.9882 19.1129 23.8461C22.1051 21.7041 25.6927 20.5522 29.3725 20.5522C33.0524 20.5522 36.64 21.7041 39.6322 23.8461C42.6243 25.9882 44.871 29.0131 46.057 32.4966C47.2431 35.9802 47.309 39.7475 46.2456 43.2704C45.1822 46.7933 43.0428 49.895 40.1275 52.1405C47.7025 55.3387 53.6693 61.7939 55.7219 69.7655ZM29.3762 49.9374C31.7001 49.9374 33.9719 49.2482 35.9042 47.9571C37.8364 46.666 39.3425 44.8309 40.2318 42.6839C41.1211 40.5369 41.3538 38.1743 40.9004 35.8951C40.4471 33.6158 39.328 31.5221 37.6847 29.8789C36.0415 28.2356 33.9478 27.1165 31.6685 26.6631C29.3892 26.2098 27.0267 26.4425 24.8797 27.3318C22.7326 28.2211 20.8975 29.7271 19.6064 31.6594C18.3153 33.5917 17.6262 35.8634 17.6262 38.1874C17.6262 41.3037 18.8642 44.2923 21.0677 46.4959C23.2713 48.6994 26.2599 49.9374 29.3762 49.9374Z" fill="#0F53FF"/>
</g>
<defs>
<clipPath id="clip0_587_188">
<rect width="94" height="94" fill="white"/>
</clipPath>
</defs>
</svg>
