<svg width="45" height="40" viewBox="0 0 45 40" fill="none" xmlns="http://www.w3.org/2000/svg">
<path d="M1 36.75C1 35.5565 1.47411 34.4119 2.31802 33.568C3.16193 32.7241 4.30653 32.25 5.5 32.25H14.5C15.6935 32.25 16.8381 32.7241 17.682 33.568C18.5259 34.4119 19 35.5565 19 36.75C19 37.3467 18.7629 37.919 18.341 38.341C17.919 38.7629 17.3467 39 16.75 39H3.25C2.65326 39 2.08097 38.7629 1.65901 38.341C1.23705 37.919 1 37.3467 1 36.75Z" stroke="#0F53FF" stroke-width="1.3" stroke-linejoin="round"/>
<path d="M10 27.75C11.864 27.75 13.375 26.239 13.375 24.375C13.375 22.511 11.864 21 10 21C8.13604 21 6.625 22.511 6.625 24.375C6.625 26.239 8.13604 27.75 10 27.75Z" stroke="#0F53FF" stroke-width="1.3"/>
<path d="M14 16.75C14 15.5565 14.4741 14.4119 15.318 13.568C16.1619 12.7241 17.3065 12.25 18.5 12.25H27.5C28.6935 12.25 29.8381 12.7241 30.682 13.568C31.5259 14.4119 32 15.5565 32 16.75C32 17.3467 31.7629 17.919 31.341 18.341C30.919 18.7629 30.3467 19 29.75 19H16.25C15.6533 19 15.081 18.7629 14.659 18.341C14.2371 17.919 14 17.3467 14 16.75Z" stroke="#0F53FF" stroke-width="1.3" stroke-linejoin="round"/>
<path d="M23 7.75C24.864 7.75 26.375 6.23896 26.375 4.375C26.375 2.51104 24.864 1 23 1C21.136 1 19.625 2.51104 19.625 4.375C19.625 6.23896 21.136 7.75 23 7.75Z" stroke="#0F53FF" stroke-width="1.3"/>
<path d="M26 36.75C26 35.5565 26.4741 34.4119 27.318 33.568C28.1619 32.7241 29.3065 32.25 30.5 32.25H39.5C40.6935 32.25 41.8381 32.7241 42.682 33.568C43.5259 34.4119 44 35.5565 44 36.75C44 37.3467 43.7629 37.919 43.341 38.341C42.919 38.7629 42.3467 39 41.75 39H28.25C27.6533 39 27.081 38.7629 26.659 38.341C26.2371 37.919 26 37.3467 26 36.75Z" stroke="#0F53FF" stroke-width="1.3" stroke-linejoin="round"/>
<path d="M35 27.75C36.864 27.75 38.375 26.239 38.375 24.375C38.375 22.511 36.864 21 35 21C33.136 21 31.625 22.511 31.625 24.375C31.625 26.239 33.136 27.75 35 27.75Z" stroke="#0F53FF" stroke-width="1.3"/>
</svg>
