<svg width="66" height="56" viewBox="0 0 66 56" fill="none" xmlns="http://www.w3.org/2000/svg">
<path d="M44.4303 21.1628L28.9009 10.7442C28.6084 10.5478 28.2683 10.435 27.9171 10.418C27.5658 10.4009 27.2166 10.4802 26.9066 10.6474C26.5967 10.8145 26.3376 11.0633 26.1572 11.3671C25.9768 11.6708 25.8818 12.0182 25.8824 12.3721V33.2093C25.8818 33.5632 25.9768 33.9106 26.1572 34.2143C26.3376 34.5181 26.5967 34.7669 26.9066 34.934C27.2166 35.1012 27.5658 35.1805 27.9171 35.1634C28.2683 35.1464 28.6084 35.0336 28.9009 34.8372L44.4303 24.4186C44.6972 24.2404 44.9162 23.9985 45.0677 23.7145C45.2192 23.4304 45.2985 23.1131 45.2985 22.7907C45.2985 22.4683 45.2192 22.151 45.0677 21.8669C44.9162 21.5829 44.6972 21.341 44.4303 21.1628ZM29.7647 29.5595V16.0219L39.8524 22.7907L29.7647 29.5595ZM61.4706 0H4.52941C3.32814 0 2.17606 0.480231 1.32663 1.33505C0.477205 2.18987 0 3.34925 0 4.55814V41.0233C0 42.2322 0.477205 43.3915 1.32663 44.2463C2.17606 45.1012 3.32814 45.5814 4.52941 45.5814H61.4706C62.6719 45.5814 63.8239 45.1012 64.6734 44.2463C65.5228 43.3915 66 42.2322 66 41.0233V4.55814C66 3.34925 65.5228 2.18987 64.6734 1.33505C63.8239 0.480231 62.6719 0 61.4706 0ZM62.1176 41.0233C62.1176 41.196 62.0495 41.3616 61.9281 41.4837C61.8068 41.6058 61.6422 41.6744 61.4706 41.6744H4.52941C4.3578 41.6744 4.19322 41.6058 4.07187 41.4837C3.95052 41.3616 3.88235 41.196 3.88235 41.0233V4.55814C3.88235 4.38544 3.95052 4.21981 4.07187 4.0977C4.19322 3.97558 4.3578 3.90698 4.52941 3.90698H61.4706C61.6422 3.90698 61.8068 3.97558 61.9281 4.0977C62.0495 4.21981 62.1176 4.38544 62.1176 4.55814V41.0233ZM66 54.0465C66 54.5646 65.7955 55.0615 65.4314 55.4278C65.0674 55.7942 64.5737 56 64.0588 56H1.94118C1.42634 56 0.932598 55.7942 0.568557 55.4278C0.204516 55.0615 0 54.5646 0 54.0465C0 53.5284 0.204516 53.0315 0.568557 52.6652C0.932598 52.2988 1.42634 52.093 1.94118 52.093H64.0588C64.5737 52.093 65.0674 52.2988 65.4314 52.6652C65.7955 53.0315 66 53.5284 66 54.0465Z" fill="#0F53FF"/>
</svg>
