<svg width="36" height="31" viewBox="0 0 36 31" fill="none" xmlns="http://www.w3.org/2000/svg">
<path d="M32.7031 5.75H3.95312C3.47656 5.75 3.01952 5.56069 2.68254 5.22371C2.34556 4.88673 2.15625 4.42969 2.15625 3.95312C2.15625 3.47656 2.34556 3.01952 2.68254 2.68254C3.01952 2.34556 3.47656 2.15625 3.95312 2.15625H28.3906C28.6766 2.15625 28.9508 2.04266 29.153 1.84047C29.3552 1.63829 29.4688 1.36406 29.4688 1.07812C29.4688 0.792188 29.3552 0.517963 29.153 0.315775C28.9508 0.113588 28.6766 0 28.3906 0H3.95312C2.90469 0 1.8992 0.416489 1.15784 1.15784C0.416489 1.8992 0 2.90469 0 3.95312V26.9531C0 28.0016 0.416489 29.0071 1.15784 29.7484C1.8992 30.4898 2.90469 30.9062 3.95312 30.9062H32.7031C33.3703 30.9062 34.0102 30.6412 34.4819 30.1694C34.9537 29.6977 35.2188 29.0578 35.2188 28.3906V8.26562C35.2188 7.59844 34.9537 6.95858 34.4819 6.48681C34.0102 6.01504 33.3703 5.75 32.7031 5.75ZM33.0625 28.3906C33.0625 28.4859 33.0246 28.5773 32.9572 28.6447C32.8898 28.7121 32.7984 28.75 32.7031 28.75H3.95312C3.47656 28.75 3.01952 28.5607 2.68254 28.2237C2.34556 27.8867 2.15625 27.4297 2.15625 26.9531V7.4732C2.71219 7.75855 3.32823 7.90702 3.95312 7.90625H32.7031C32.7984 7.90625 32.8898 7.94411 32.9572 8.01151C33.0246 8.0789 33.0625 8.17031 33.0625 8.26562V28.3906ZM28.0312 17.6094C28.0312 17.9648 27.9259 18.3122 27.7284 18.6077C27.531 18.9032 27.2503 19.1335 26.922 19.2695C26.5937 19.4055 26.2324 19.4411 25.8838 19.3717C25.5353 19.3024 25.2151 19.1313 24.9638 18.88C24.7125 18.6287 24.5414 18.3085 24.472 17.9599C24.4027 17.6114 24.4383 17.2501 24.5743 16.9217C24.7103 16.5934 24.9406 16.3128 25.2361 16.1153C25.5316 15.9179 25.879 15.8125 26.2344 15.8125C26.7109 15.8125 27.168 16.0018 27.505 16.3388C27.8419 16.6758 28.0312 17.1328 28.0312 17.6094Z" fill="#0F53FF"/>
</svg>
