<svg width="36" height="30" viewBox="0 0 36 30" fill="none" xmlns="http://www.w3.org/2000/svg">
<mask id="mask0_812_1248" style="mask-type:luminance" maskUnits="userSpaceOnUse" x="0" y="0" width="36" height="30">
<path d="M31.6 2H4.4C3.07452 2 2 3.07452 2 4.4V25.2C2 26.5255 3.07452 27.6 4.4 27.6H31.6C32.9255 27.6 34 26.5255 34 25.2V4.4C34 3.07452 32.9255 2 31.6 2Z" stroke="white" stroke-width="4" stroke-linejoin="round"/>
<path d="M2 4.4C2 3.76348 2.25286 3.15303 2.70294 2.70294C3.15303 2.25286 3.76348 2 4.4 2H31.6C32.2365 2 32.847 2.25286 33.2971 2.70294C33.7471 3.15303 34 3.76348 34 4.4V11.6H2V4.4Z" fill="#555555" stroke="white" stroke-width="4"/>
<path d="M5.19844 6.7999C5.19844 5.91625 5.91478 5.1999 6.79844 5.1999C7.68209 5.1999 8.39844 5.91625 8.39844 6.7999C8.39844 7.68356 7.68209 8.3999 6.79844 8.3999C5.91478 8.3999 5.19844 7.68356 5.19844 6.7999Z" fill="white"/>
<path d="M9.99922 6.7999C9.99922 5.91625 10.7156 5.1999 11.5992 5.1999C12.4829 5.1999 13.1992 5.91625 13.1992 6.7999C13.1992 7.68356 12.4829 8.3999 11.5992 8.3999C10.7156 8.3999 9.99922 7.68356 9.99922 6.7999Z" fill="white"/>
</mask>
<g mask="url(#mask0_812_1248)">
<path d="M-1.19922 -4.3999H37.2008V34.0001H-1.19922V-4.3999Z" fill="black"/>
</g>
</svg>
