<svg width="1935" height="692" viewBox="0 0 1935 692" fill="none" xmlns="http://www.w3.org/2000/svg">
<mask id="mask0_2336_451" style="mask-type:alpha" maskUnits="userSpaceOnUse" x="0" y="0" width="1935" height="692">
<rect width="1935" height="692" fill="#D9D9D9"/>
</mask>
<g mask="url(#mask0_2336_451)">
<rect width="1935" height="692" fill="#FF9A26"/>
<path d="M185 691.5C185 660.994 177.477 630.959 163.096 604.056C148.716 577.152 127.923 554.21 102.558 537.262C77.1938 520.314 48.0409 509.883 17.6822 506.893C-12.6766 503.903 -43.3042 508.446 -71.4878 520.12C-99.6713 531.794 -124.541 550.239 -143.893 573.82C-163.246 597.401 -176.484 625.391 -182.436 655.311C-188.387 685.23 -186.868 716.156 -178.012 745.348C-169.157 774.54 -153.239 801.098 -131.668 822.668L-0.5 691.5H185Z" fill="#9EB9FF"/>
</g>
</svg>
