<svg width="1898" height="729" viewBox="0 0 1898 729" fill="none" xmlns="http://www.w3.org/2000/svg">
<mask id="mask0_2528_453" style="mask-type:alpha" maskUnits="userSpaceOnUse" x="0" y="0" width="1898" height="729">
<rect width="1898" height="729" fill="#D9D9D9"/>
</mask>
<g mask="url(#mask0_2528_453)">
<path d="M1939.73 356.745C1939.73 797.5 1766.68 477.823 1939.73 729.485H0V-23H1655.33C1700.01 2.16728 1939.73 129.542 1939.73 356.745Z" fill="#DCE1F8"/>
<path d="M1240.13 281.892C1115.36 317.879 853.39 90.9587 738 -27H1906.09C1960.14 -27 1978.9 70.2992 1981.52 118.949C1984.15 283.891 1987.82 609.277 1981.52 591.283C1973.66 568.791 1755.22 383.356 1692.74 366.362C1630.26 349.368 1560.15 281.892 1495.13 231.409C1430.11 180.927 1396.09 236.908 1240.13 281.892Z" fill="#C2D5F4"/>
</g>
</svg>
