<svg width="1920" height="780" viewBox="0 0 1920 780" fill="none" xmlns="http://www.w3.org/2000/svg">
<mask id="mask0_2202_574" style="mask-type:alpha" maskUnits="userSpaceOnUse" x="0" y="0" width="1920" height="780">
<rect width="1920" height="780" fill="#D9D9D9"/>
</mask>
<g mask="url(#mask0_2202_574)">
<path d="M1621.29 780.379C1621.2 762.124 1624.98 744.029 1632.41 727.125C1639.84 710.222 1650.77 694.842 1664.59 681.864C1678.4 668.885 1694.83 658.562 1712.93 651.484C1731.03 644.406 1750.45 640.712 1770.07 640.612C1789.7 640.512 1809.16 644.009 1827.32 650.902C1845.49 657.796 1862.02 667.951 1875.96 680.788C1889.91 693.625 1900.99 708.893 1908.59 725.72C1916.18 742.547 1920.14 760.603 1920.23 778.857L1770.76 779.618L1621.29 780.379Z" fill="#E1D9FE"/>
<rect width="1920" height="780" fill="#E9EEF4"/>
<ellipse cx="-82.2132" cy="82.5" rx="182.646" ry="185.5" fill="#E0E7FF"/>
<path d="M1644 778.527C1643.91 760.273 1647.69 742.177 1655.12 725.274C1662.55 708.371 1673.48 692.991 1687.3 680.012C1701.11 667.034 1717.54 656.711 1735.64 649.633C1753.74 642.555 1773.16 638.86 1792.79 638.761C1812.41 638.661 1831.87 642.157 1850.04 649.051C1868.2 655.944 1884.73 666.099 1898.67 678.937C1912.62 691.774 1923.7 707.042 1931.3 723.868C1938.89 740.695 1942.85 758.751 1942.94 777.006L1793.47 777.766L1644 778.527Z" fill="#E1D9FE"/>
</g>
<path d="M1555.09 539.46L1575.01 594.461L1517.42 584.212L1555.09 539.46Z" fill="#1652EC"/>
<path d="M1195.23 169.705L1207.7 204.146L1171.64 197.729L1195.23 169.705Z" fill="#1652EC"/>
<circle cx="1659.29" cy="223.835" r="2.99086" fill="#AFC6FF"/>
<circle cx="1659.29" cy="248.424" r="2.99086" fill="#AFC6FF"/>
<circle cx="1709.13" cy="223.835" r="2.99086" fill="#AFC6FF"/>
<circle cx="1709.13" cy="248.424" r="2.99086" fill="#AFC6FF"/>
<circle cx="1659.29" cy="231.809" r="2.99086" fill="#AFC6FF"/>
<circle cx="1659.29" cy="256.403" r="2.99086" fill="#AFC6FF"/>
<circle cx="1709.13" cy="231.809" r="2.99086" fill="#AFC6FF"/>
<circle cx="1709.13" cy="256.403" r="2.99086" fill="#AFC6FF"/>
<ellipse cx="1659.29" cy="240.118" rx="2.99086" ry="2.65855" fill="#AFC6FF"/>
<ellipse cx="1659.29" cy="264.711" rx="2.99086" ry="2.65855" fill="#AFC6FF"/>
<ellipse cx="1709.13" cy="240.118" rx="2.99086" ry="2.65855" fill="#AFC6FF"/>
<ellipse cx="1709.13" cy="264.711" rx="2.99086" ry="2.65855" fill="#AFC6FF"/>
<circle cx="1669.26" cy="223.835" r="2.99086" fill="#AFC6FF"/>
<circle cx="1669.26" cy="248.424" r="2.99086" fill="#AFC6FF"/>
<circle cx="1719.11" cy="223.835" r="2.99086" fill="#AFC6FF"/>
<circle cx="1719.11" cy="248.424" r="2.99086" fill="#AFC6FF"/>
<circle cx="1669.26" cy="231.809" r="2.99086" fill="#AFC6FF"/>
<circle cx="1669.26" cy="256.403" r="2.99086" fill="#AFC6FF"/>
<circle cx="1719.11" cy="231.809" r="2.99086" fill="#AFC6FF"/>
<circle cx="1719.11" cy="256.403" r="2.99086" fill="#AFC6FF"/>
<ellipse cx="1669.26" cy="240.118" rx="2.99086" ry="2.65855" fill="#AFC6FF"/>
<ellipse cx="1669.26" cy="264.711" rx="2.99086" ry="2.65855" fill="#AFC6FF"/>
<ellipse cx="1719.11" cy="240.118" rx="2.99086" ry="2.65855" fill="#AFC6FF"/>
<ellipse cx="1719.11" cy="264.711" rx="2.99086" ry="2.65855" fill="#AFC6FF"/>
<circle cx="1679.23" cy="223.835" r="2.99086" fill="#AFC6FF"/>
<circle cx="1679.23" cy="248.424" r="2.99086" fill="#AFC6FF"/>
<circle cx="1729.08" cy="223.835" r="2.99086" fill="#AFC6FF"/>
<circle cx="1729.08" cy="248.424" r="2.99086" fill="#AFC6FF"/>
<circle cx="1679.23" cy="231.809" r="2.99086" fill="#AFC6FF"/>
<circle cx="1679.23" cy="256.403" r="2.99086" fill="#AFC6FF"/>
<circle cx="1729.08" cy="231.809" r="2.99086" fill="#AFC6FF"/>
<circle cx="1729.08" cy="256.403" r="2.99086" fill="#AFC6FF"/>
<ellipse cx="1679.23" cy="240.118" rx="2.99086" ry="2.65855" fill="#AFC6FF"/>
<ellipse cx="1679.23" cy="264.711" rx="2.99086" ry="2.65855" fill="#AFC6FF"/>
<ellipse cx="1729.08" cy="240.118" rx="2.99086" ry="2.65855" fill="#AFC6FF"/>
<ellipse cx="1729.08" cy="264.711" rx="2.99086" ry="2.65855" fill="#AFC6FF"/>
<circle cx="1689.19" cy="223.835" r="2.99086" fill="#AFC6FF"/>
<circle cx="1689.19" cy="248.424" r="2.99086" fill="#AFC6FF"/>
<circle cx="1739.04" cy="223.835" r="2.99086" fill="#AFC6FF"/>
<circle cx="1739.04" cy="248.424" r="2.99086" fill="#AFC6FF"/>
<circle cx="1689.19" cy="231.809" r="2.99086" fill="#AFC6FF"/>
<circle cx="1689.19" cy="256.403" r="2.99086" fill="#AFC6FF"/>
<circle cx="1739.04" cy="231.809" r="2.99086" fill="#AFC6FF"/>
<circle cx="1739.04" cy="256.403" r="2.99086" fill="#AFC6FF"/>
<ellipse cx="1689.19" cy="240.118" rx="2.99086" ry="2.65855" fill="#AFC6FF"/>
<ellipse cx="1689.19" cy="264.711" rx="2.99086" ry="2.65855" fill="#AFC6FF"/>
<ellipse cx="1739.04" cy="240.118" rx="2.99086" ry="2.65855" fill="#AFC6FF"/>
<ellipse cx="1739.04" cy="264.711" rx="2.99086" ry="2.65855" fill="#AFC6FF"/>
<circle cx="1699.17" cy="223.835" r="2.99086" fill="#AFC6FF"/>
<circle cx="1699.17" cy="248.424" r="2.99086" fill="#AFC6FF"/>
<circle cx="1749.01" cy="223.835" r="2.99086" fill="#AFC6FF"/>
<circle cx="1749.01" cy="248.424" r="2.99086" fill="#AFC6FF"/>
<circle cx="1699.17" cy="231.809" r="2.99086" fill="#AFC6FF"/>
<circle cx="1699.17" cy="256.403" r="2.99086" fill="#AFC6FF"/>
<circle cx="1749.01" cy="231.809" r="2.99086" fill="#AFC6FF"/>
<circle cx="1749.01" cy="256.403" r="2.99086" fill="#AFC6FF"/>
<ellipse cx="1699.17" cy="240.118" rx="2.99086" ry="2.65855" fill="#AFC6FF"/>
<ellipse cx="1699.17" cy="264.711" rx="2.99086" ry="2.65855" fill="#AFC6FF"/>
<ellipse cx="1749.01" cy="240.118" rx="2.99086" ry="2.65855" fill="#AFC6FF"/>
<ellipse cx="1749.01" cy="264.711" rx="2.99086" ry="2.65855" fill="#AFC6FF"/>
<circle cx="1221.99" cy="432.534" r="2.99086" fill="#AFC6FF"/>
<circle cx="1221.99" cy="457.124" r="2.99086" fill="#AFC6FF"/>
<circle cx="1271.83" cy="432.534" r="2.99086" fill="#AFC6FF"/>
<circle cx="1271.83" cy="457.124" r="2.99086" fill="#AFC6FF"/>
<circle cx="1221.99" cy="440.508" r="2.99086" fill="#AFC6FF"/>
<circle cx="1221.99" cy="465.102" r="2.99086" fill="#AFC6FF"/>
<circle cx="1271.83" cy="440.508" r="2.99086" fill="#AFC6FF"/>
<circle cx="1271.83" cy="465.102" r="2.99086" fill="#AFC6FF"/>
<ellipse cx="1221.99" cy="448.817" rx="2.99086" ry="2.65855" fill="#AFC6FF"/>
<ellipse cx="1221.99" cy="473.41" rx="2.99086" ry="2.65855" fill="#AFC6FF"/>
<ellipse cx="1271.83" cy="448.817" rx="2.99086" ry="2.65855" fill="#AFC6FF"/>
<ellipse cx="1271.83" cy="473.41" rx="2.99086" ry="2.65855" fill="#AFC6FF"/>
<circle cx="1231.96" cy="432.534" r="2.99086" fill="#AFC6FF"/>
<circle cx="1231.96" cy="457.124" r="2.99086" fill="#AFC6FF"/>
<circle cx="1281.81" cy="432.534" r="2.99086" fill="#AFC6FF"/>
<circle cx="1281.81" cy="457.124" r="2.99086" fill="#AFC6FF"/>
<circle cx="1231.96" cy="440.508" r="2.99086" fill="#AFC6FF"/>
<circle cx="1231.96" cy="465.102" r="2.99086" fill="#AFC6FF"/>
<circle cx="1281.81" cy="440.508" r="2.99086" fill="#AFC6FF"/>
<circle cx="1281.81" cy="465.102" r="2.99086" fill="#AFC6FF"/>
<ellipse cx="1231.96" cy="448.817" rx="2.99086" ry="2.65855" fill="#AFC6FF"/>
<ellipse cx="1231.96" cy="473.41" rx="2.99086" ry="2.65855" fill="#AFC6FF"/>
<ellipse cx="1281.81" cy="448.817" rx="2.99086" ry="2.65855" fill="#AFC6FF"/>
<ellipse cx="1281.81" cy="473.41" rx="2.99086" ry="2.65855" fill="#AFC6FF"/>
<circle cx="1241.93" cy="432.534" r="2.99086" fill="#AFC6FF"/>
<circle cx="1241.93" cy="457.124" r="2.99086" fill="#AFC6FF"/>
<circle cx="1291.78" cy="432.534" r="2.99086" fill="#AFC6FF"/>
<circle cx="1291.78" cy="457.124" r="2.99086" fill="#AFC6FF"/>
<circle cx="1241.93" cy="440.508" r="2.99086" fill="#AFC6FF"/>
<circle cx="1241.93" cy="465.102" r="2.99086" fill="#AFC6FF"/>
<circle cx="1291.78" cy="440.508" r="2.99086" fill="#AFC6FF"/>
<circle cx="1291.78" cy="465.102" r="2.99086" fill="#AFC6FF"/>
<ellipse cx="1241.93" cy="448.817" rx="2.99086" ry="2.65855" fill="#AFC6FF"/>
<ellipse cx="1241.93" cy="473.41" rx="2.99086" ry="2.65855" fill="#AFC6FF"/>
<ellipse cx="1291.78" cy="448.817" rx="2.99086" ry="2.65855" fill="#AFC6FF"/>
<ellipse cx="1291.78" cy="473.41" rx="2.99086" ry="2.65855" fill="#AFC6FF"/>
<circle cx="1251.9" cy="432.534" r="2.99086" fill="#AFC6FF"/>
<circle cx="1251.9" cy="457.124" r="2.99086" fill="#AFC6FF"/>
<circle cx="1301.74" cy="432.534" r="2.99086" fill="#AFC6FF"/>
<circle cx="1301.74" cy="457.124" r="2.99086" fill="#AFC6FF"/>
<circle cx="1251.9" cy="440.508" r="2.99086" fill="#AFC6FF"/>
<circle cx="1251.9" cy="465.102" r="2.99086" fill="#AFC6FF"/>
<circle cx="1301.74" cy="440.508" r="2.99086" fill="#AFC6FF"/>
<circle cx="1301.74" cy="465.102" r="2.99086" fill="#AFC6FF"/>
<ellipse cx="1251.9" cy="448.817" rx="2.99086" ry="2.65855" fill="#AFC6FF"/>
<ellipse cx="1251.9" cy="473.41" rx="2.99086" ry="2.65855" fill="#AFC6FF"/>
<ellipse cx="1301.74" cy="448.817" rx="2.99086" ry="2.65855" fill="#AFC6FF"/>
<ellipse cx="1301.74" cy="473.41" rx="2.99086" ry="2.65855" fill="#AFC6FF"/>
<circle cx="1261.87" cy="432.534" r="2.99086" fill="#AFC6FF"/>
<circle cx="1261.87" cy="457.124" r="2.99086" fill="#AFC6FF"/>
<circle cx="1311.72" cy="432.534" r="2.99086" fill="#AFC6FF"/>
<circle cx="1311.72" cy="457.124" r="2.99086" fill="#AFC6FF"/>
<circle cx="1261.87" cy="440.508" r="2.99086" fill="#AFC6FF"/>
<circle cx="1261.87" cy="465.102" r="2.99086" fill="#AFC6FF"/>
<circle cx="1311.72" cy="440.508" r="2.99086" fill="#AFC6FF"/>
<circle cx="1311.72" cy="465.102" r="2.99086" fill="#AFC6FF"/>
<ellipse cx="1261.87" cy="448.817" rx="2.99086" ry="2.65855" fill="#AFC6FF"/>
<ellipse cx="1261.87" cy="473.41" rx="2.99086" ry="2.65855" fill="#AFC6FF"/>
<ellipse cx="1311.72" cy="448.817" rx="2.99086" ry="2.65855" fill="#AFC6FF"/>
<ellipse cx="1311.72" cy="473.41" rx="2.99086" ry="2.65855" fill="#AFC6FF"/>
</svg>
