<svg width="1920" height="445" viewBox="0 0 1920 445" fill="none" xmlns="http://www.w3.org/2000/svg">
<mask id="mask0_2171_509" style="mask-type:alpha" maskUnits="userSpaceOnUse" x="-1" y="0" width="1958" height="431">
<rect x="-0.0078125" y="0.390625" width="1956.69" height="430" fill="url(#paint0_linear_2171_509)"/>
</mask>
<g mask="url(#mask0_2171_509)">
<rect x="14.9922" y="-9.60938" width="1920.68" height="440" fill="url(#paint1_linear_2171_509)"/>
</g>
<path d="M1920 6.39062L2104.65 425.641H1735.34L1920 6.39062Z" fill="#B0C0F9"/>
<path d="M-8.47498 460.234L-160.558 -8.21132L207.825 18.2063L-8.47498 460.234Z" fill="#DB7A70"/>
<ellipse cx="1492.56" cy="317.391" rx="29.7521" ry="30" fill="url(#paint2_linear_2171_509)" fill-opacity="0.33"/>
<ellipse cx="470.08" cy="92.3906" rx="29.7521" ry="30" fill="url(#paint3_linear_2171_509)" fill-opacity="0.33"/>
<ellipse cx="1443.96" cy="289.391" rx="18.843" ry="19" fill="url(#paint4_linear_2171_509)" fill-opacity="0.33"/>
<ellipse cx="421.484" cy="64.3906" rx="18.843" ry="19" fill="url(#paint5_linear_2171_509)" fill-opacity="0.33"/>
<defs>
<linearGradient id="paint0_linear_2171_509" x1="-289.611" y1="270.891" x2="2444.86" y2="249.375" gradientUnits="userSpaceOnUse">
<stop stop-color="#EDEBF6"/>
<stop offset="1" stop-color="#EDEBF6"/>
</linearGradient>
<linearGradient id="paint1_linear_2171_509" x1="14.9922" y1="210.391" x2="1935.67" y2="210.391" gradientUnits="userSpaceOnUse">
<stop stop-color="#EDEBF6"/>
<stop offset="1" stop-color="#E0E7FF"/>
</linearGradient>
<linearGradient id="paint2_linear_2171_509" x1="1492.56" y1="287.391" x2="1492.56" y2="347.391" gradientUnits="userSpaceOnUse">
<stop stop-color="#0F53FF"/>
<stop offset="1" stop-color="#F9F2FC"/>
</linearGradient>
<linearGradient id="paint3_linear_2171_509" x1="470.08" y1="62.3906" x2="470.08" y2="122.391" gradientUnits="userSpaceOnUse">
<stop stop-color="#0F53FF"/>
<stop offset="1" stop-color="#F9F2FC"/>
</linearGradient>
<linearGradient id="paint4_linear_2171_509" x1="1443.96" y1="270.391" x2="1443.96" y2="308.391" gradientUnits="userSpaceOnUse">
<stop stop-color="#0F53FF"/>
<stop offset="1" stop-color="#F9F2FC"/>
</linearGradient>
<linearGradient id="paint5_linear_2171_509" x1="421.484" y1="45.3906" x2="421.484" y2="83.3906" gradientUnits="userSpaceOnUse">
<stop stop-color="#0F53FF"/>
<stop offset="1" stop-color="#F9F2FC"/>
</linearGradient>
</defs>
</svg>
