<svg width="1920" height="416" viewBox="0 0 1920 416" fill="none" xmlns="http://www.w3.org/2000/svg">
<mask id="mask0_2246_458" style="mask-type:alpha" maskUnits="userSpaceOnUse" x="0" y="0" width="1920" height="416">
<rect width="1920" height="416" fill="#D9D9D9"/>
</mask>
<g mask="url(#mask0_2246_458)">
<mask id="mask1_2246_458" style="mask-type:alpha" maskUnits="userSpaceOnUse" x="0" y="0" width="1920" height="445">
<rect width="1920" height="445" fill="#D9D9D9"/>
</mask>
<g mask="url(#mask1_2246_458)">
<mask id="mask2_2246_458" style="mask-type:alpha" maskUnits="userSpaceOnUse" x="0" y="0" width="1957" height="431">
<rect y="0.390625" width="1956.69" height="430" fill="url(#paint0_linear_2246_458)"/>
</mask>
<g mask="url(#mask2_2246_458)">
<rect x="15" y="-9.60938" width="1920.68" height="440" fill="url(#paint1_linear_2246_458)"/>
</g>
<path d="M1920 6.39062L2104.65 425.641H1735.34L1920 6.39062Z" fill="#B0C0F9"/>
<path d="M11.401 430.326L-157.641 -15.8373L241.362 12.7762L11.401 430.326Z" fill="#DB7A70"/>
<ellipse cx="1492.56" cy="317.391" rx="29.7521" ry="30" fill="url(#paint2_linear_2246_458)" fill-opacity="0.33"/>
<ellipse cx="470.08" cy="92.3906" rx="29.7521" ry="30" fill="url(#paint3_linear_2246_458)" fill-opacity="0.33"/>
<ellipse cx="1443.97" cy="289.391" rx="18.843" ry="19" fill="url(#paint4_linear_2246_458)" fill-opacity="0.33"/>
<ellipse cx="421.484" cy="64.3906" rx="18.843" ry="19" fill="url(#paint5_linear_2246_458)" fill-opacity="0.33"/>
</g>
</g>
<defs>
<linearGradient id="paint0_linear_2246_458" x1="-289.603" y1="270.891" x2="2444.87" y2="249.375" gradientUnits="userSpaceOnUse">
<stop stop-color="#EDEBF6"/>
<stop offset="1" stop-color="#EDEBF6"/>
</linearGradient>
<linearGradient id="paint1_linear_2246_458" x1="15" y1="210.391" x2="1935.68" y2="210.391" gradientUnits="userSpaceOnUse">
<stop stop-color="#EDEBF6"/>
<stop offset="1" stop-color="#E0E7FF"/>
</linearGradient>
<linearGradient id="paint2_linear_2246_458" x1="1492.56" y1="287.391" x2="1492.56" y2="347.391" gradientUnits="userSpaceOnUse">
<stop stop-color="#0F53FF"/>
<stop offset="1" stop-color="#F9F2FC"/>
</linearGradient>
<linearGradient id="paint3_linear_2246_458" x1="470.08" y1="62.3906" x2="470.08" y2="122.391" gradientUnits="userSpaceOnUse">
<stop stop-color="#0F53FF"/>
<stop offset="1" stop-color="#F9F2FC"/>
</linearGradient>
<linearGradient id="paint4_linear_2246_458" x1="1443.97" y1="270.391" x2="1443.97" y2="308.391" gradientUnits="userSpaceOnUse">
<stop stop-color="#0F53FF"/>
<stop offset="1" stop-color="#F9F2FC"/>
</linearGradient>
<linearGradient id="paint5_linear_2246_458" x1="421.484" y1="45.3906" x2="421.484" y2="83.3906" gradientUnits="userSpaceOnUse">
<stop stop-color="#0F53FF"/>
<stop offset="1" stop-color="#F9F2FC"/>
</linearGradient>
</defs>
</svg>
