<svg width="1920" height="430" viewBox="0 0 1920 430" fill="none" xmlns="http://www.w3.org/2000/svg">
<mask id="mask0_1662_801" style="mask-type:alpha" maskUnits="userSpaceOnUse" x="-40" y="0" width="2007" height="430">
<rect x="-40" width="2007" height="430" fill="url(#paint0_linear_1662_801)"/>
</mask>
<g mask="url(#mask0_1662_801)">
<rect x="-24.6172" y="-10" width="1970.06" height="440" fill="url(#paint1_linear_1662_801)"/>
</g>
<path d="M1838.72 263.845C1790.37 267.413 1759.64 277.856 1763.94 228.413C1799.46 204.948 1841.96 185.281 1885.5 174.321C2015.37 141.63 1963.95 224.112 1963.95 281.447C1963.95 338.783 1900.04 259.318 1838.72 263.845Z" fill="url(#paint2_linear_1662_801)"/>
<path d="M2050.99 33.8269C2050.89 33.004 2050.15 32.4144 2049.33 32.51L2035.92 34.0684C2035.09 34.164 2034.5 34.9086 2034.6 35.7315C2034.7 36.5544 2035.44 37.1439 2036.26 37.0483L2048.18 35.6631L2049.57 47.5829C2049.66 48.4058 2050.41 48.9954 2051.23 48.8997C2052.05 48.8041 2052.64 48.0595 2052.55 47.2366L2050.99 33.8269ZM1775.33 174.321L1773.88 173.914L1775.33 174.321ZM1838.72 263.845L1838.83 265.34L1838.72 263.845ZM1885.5 174.321L1885.87 175.775L1885.5 174.321ZM1681.42 374.492L1682.58 373.548L1681.42 374.492ZM1480.36 339.939C1479.61 340.29 1479.29 341.183 1479.64 341.934L1485.36 354.16C1485.72 354.911 1486.61 355.234 1487.36 354.883C1488.11 354.532 1488.43 353.639 1488.08 352.888L1482.99 342.02L1493.86 336.933C1494.61 336.582 1494.94 335.689 1494.59 334.938C1494.23 334.188 1493.34 333.865 1492.59 334.216L1480.36 339.939ZM1765.44 228.543C1765.51 227.656 1765.6 226.749 1765.7 225.821L1762.72 225.499C1762.62 226.446 1762.53 227.374 1762.45 228.283L1765.44 228.543ZM1766.39 220.382C1766.64 218.637 1766.93 216.829 1767.25 214.954L1764.29 214.447C1763.97 216.346 1763.68 218.183 1763.42 219.957L1766.39 220.382ZM1768.24 209.547C1768.58 207.8 1768.95 206.002 1769.35 204.151L1766.41 203.522C1766.01 205.39 1765.64 207.207 1765.3 208.973L1768.24 209.547ZM1770.55 198.771C1770.95 197.026 1771.37 195.239 1771.82 193.407L1768.91 192.693C1768.46 194.537 1768.03 196.338 1767.62 198.096L1770.55 198.771ZM1773.17 188.057C1773.62 186.314 1774.08 184.535 1774.57 182.717L1771.67 181.94C1771.18 183.767 1770.71 185.556 1770.26 187.309L1773.17 188.057ZM1776.03 177.39C1776.27 176.511 1776.52 175.624 1776.77 174.728L1773.88 173.914C1773.63 174.813 1773.38 175.705 1773.14 176.588L1776.03 177.39ZM1776.77 174.728C1777.05 173.753 1777.33 172.792 1777.63 171.845L1774.77 170.946C1774.46 171.922 1774.17 172.911 1773.88 173.914L1776.77 174.728ZM1779.55 166.319C1780.26 164.45 1781.02 162.637 1781.82 160.879L1779.1 159.63C1778.26 161.448 1777.48 163.321 1776.74 165.25L1779.55 166.319ZM1784.42 155.672C1785.37 153.925 1786.37 152.237 1787.41 150.605L1784.88 148.989C1783.8 150.682 1782.77 152.432 1781.79 154.24L1784.42 155.672ZM1790.74 145.792C1791.91 144.222 1793.13 142.707 1794.4 141.246L1792.13 139.28C1790.82 140.796 1789.55 142.368 1788.34 143.997L1790.74 145.792ZM1798.4 136.954C1799.79 135.573 1801.22 134.244 1802.69 132.963L1800.72 130.699C1799.2 132.023 1797.72 133.4 1796.28 134.831L1798.4 136.954ZM1807.25 129.26C1808.8 128.081 1810.39 126.946 1812.02 125.855L1810.36 123.361C1808.67 124.485 1807.03 125.654 1805.43 126.872L1807.25 129.26ZM1817 122.728C1818.69 121.733 1820.41 120.777 1822.17 119.857L1820.77 117.2C1818.97 118.142 1817.21 119.123 1815.48 120.145L1817 122.728ZM1827.44 117.252C1829.21 116.425 1831.01 115.63 1832.84 114.864L1831.68 112.097C1829.82 112.877 1827.98 113.688 1826.17 114.533L1827.44 117.252ZM1838.35 112.679C1840.18 111.991 1842.03 111.33 1843.91 110.691L1842.94 107.851C1841.04 108.499 1839.15 109.172 1837.3 109.871L1838.35 112.679ZM1849.56 108.858C1851.43 108.279 1853.33 107.719 1855.24 107.178L1854.42 104.291C1852.49 104.839 1850.57 105.405 1848.67 105.992L1849.56 108.858ZM1860.97 105.624C1862.88 105.127 1864.8 104.646 1866.75 104.177L1866.04 101.261C1864.08 101.733 1862.14 102.219 1860.21 102.721L1860.97 105.624ZM1872.52 102.833C1874.45 102.399 1876.39 101.976 1878.35 101.563L1877.73 98.6279C1875.76 99.0438 1873.81 99.4695 1871.86 99.9066L1872.52 102.833ZM1884.17 100.364C1886.11 99.9742 1888.06 99.5919 1890.02 99.215L1889.45 96.2691C1887.49 96.6472 1885.53 97.0311 1883.58 97.4226L1884.17 100.364ZM1895.87 98.1077C1897.82 97.7452 1899.78 97.3864 1901.74 97.0297L1901.2 94.0781C1899.24 94.4354 1897.28 94.7949 1895.33 95.1584L1895.87 98.1077ZM1907.61 95.9677C1909.57 95.6164 1911.52 95.2658 1913.48 94.9137L1912.95 91.961C1910.99 92.3128 1909.04 92.6637 1907.08 93.015L1907.61 95.9677ZM1919.37 93.8536C1921.32 93.499 1923.28 93.1415 1925.24 92.7796L1924.69 89.8295C1922.74 90.1907 1920.79 90.5475 1918.83 90.9017L1919.37 93.8536ZM1931.12 91.6789C1933.07 91.3064 1935.03 90.9279 1936.99 90.5417L1936.41 87.5986C1934.46 87.9832 1932.51 88.3604 1930.56 88.7317L1931.12 91.6789ZM1942.85 89.357C1944.81 88.9526 1946.76 88.5388 1948.71 88.1141L1948.07 85.183C1946.13 85.6053 1944.19 86.0168 1942.24 86.4192L1942.85 89.357ZM1954.55 86.8006C1956.5 86.3496 1958.44 85.8858 1960.37 85.4075L1959.65 82.4953C1957.73 82.9698 1955.81 83.4301 1953.87 83.878L1954.55 86.8006ZM1966.19 83.9181C1968.12 83.4049 1970.04 82.8753 1971.96 82.3276L1971.13 79.4433C1969.24 79.9855 1967.33 80.51 1965.42 81.0185L1966.19 83.9181ZM1977.72 80.6122C1979.63 80.0192 1981.54 79.4057 1983.43 78.7701L1982.47 75.9265C1980.61 76.5541 1978.73 77.1602 1976.83 77.7465L1977.72 80.6122ZM1989.1 76.7794C1990.99 76.0884 1992.86 75.3728 1994.72 74.6307L1993.6 71.8451C1991.78 72.5758 1989.93 73.281 1988.07 73.9623L1989.1 76.7794ZM2000.26 72.311C2002.11 71.5039 2003.93 70.6676 2005.74 69.8003L2004.44 67.0957C2002.67 67.9473 2000.87 68.7689 1999.06 69.5626L2000.26 72.311ZM2011.11 67.0965C2012.9 66.1567 2014.66 65.1832 2016.39 64.1742L2014.89 61.58C2013.19 62.5678 2011.46 63.5215 2009.71 64.4429L2011.11 67.0965ZM2021.54 61.0349C2023.24 59.9494 2024.91 58.8261 2026.55 57.663L2024.82 55.2143C2023.21 56.3499 2021.58 57.4474 2019.92 58.5087L2021.54 61.0349ZM2031.39 54.059C2032.97 52.8178 2034.53 51.535 2036.06 50.2087L2034.09 47.9437C2032.6 49.2361 2031.09 50.4866 2029.54 51.6972L2031.39 54.059ZM2040.51 46.1382C2041.95 44.7443 2043.37 43.3064 2044.75 41.8226L2042.56 39.7768C2041.21 41.2212 2039.83 42.6212 2038.42 43.9785L2040.51 46.1382ZM2048.75 37.2972C2049.4 36.5201 2050.04 35.7315 2050.68 34.9311L2048.32 33.0689C2047.71 33.848 2047.08 34.6156 2046.45 35.3719L2048.75 37.2972ZM1762.45 228.283C1762.36 229.287 1762.29 230.269 1762.23 231.227L1765.22 231.412C1765.28 230.48 1765.35 229.524 1765.44 228.543L1762.45 228.283ZM1762.04 237.025C1762.04 239.119 1762.13 241.086 1762.29 242.934L1765.28 242.668C1765.12 240.918 1765.04 239.04 1765.04 237.023L1762.04 237.025ZM1763.17 248.796C1763.63 250.897 1764.24 252.807 1764.99 254.537L1767.74 253.343C1767.08 251.811 1766.53 250.088 1766.1 248.15L1763.17 248.796ZM1768.14 259.794C1769.46 261.435 1771 262.806 1772.72 263.94L1774.37 261.436C1772.9 260.466 1771.6 259.301 1770.47 257.907L1768.14 259.794ZM1778.22 266.599C1780.04 267.223 1781.98 267.688 1784.04 268.023L1784.53 265.062C1782.6 264.749 1780.82 264.321 1779.19 263.761L1778.22 266.599ZM1789.91 268.637C1791.79 268.74 1793.74 268.773 1795.77 268.75L1795.73 265.75C1793.76 265.773 1791.87 265.74 1790.08 265.641L1789.91 268.637ZM1801.56 268.556C1803.43 268.457 1805.35 268.326 1807.33 268.172L1807.1 265.181C1805.14 265.334 1803.24 265.463 1801.4 265.56L1801.56 268.556ZM1813.09 267.681C1814.95 267.51 1816.86 267.327 1818.81 267.138L1818.52 264.152C1816.57 264.34 1814.67 264.523 1812.81 264.693L1813.09 267.681ZM1824.53 266.583C1826.41 266.403 1828.31 266.223 1830.26 266.048L1829.99 263.061C1828.04 263.236 1826.12 263.416 1824.25 263.597L1824.53 266.583ZM1835.96 265.561C1836.91 265.485 1837.86 265.411 1838.83 265.34L1838.61 262.349C1837.64 262.42 1836.67 262.494 1835.72 262.571L1835.96 265.561ZM1838.83 265.34C1839.83 265.266 1840.84 265.215 1841.84 265.186L1841.76 262.187C1840.71 262.218 1839.66 262.271 1838.61 262.349L1838.83 265.34ZM1847.88 265.268C1849.89 265.377 1851.9 265.567 1853.91 265.828L1854.3 262.853C1852.22 262.583 1850.14 262.386 1848.05 262.272L1847.88 265.268ZM1859.9 266.814C1861.89 267.206 1863.86 267.66 1865.84 268.17L1866.59 265.266C1864.56 264.743 1862.53 264.275 1860.49 263.871L1859.9 266.814ZM1871.7 269.847C1873.63 270.453 1875.56 271.106 1877.48 271.797L1878.5 268.975C1876.54 268.27 1874.57 267.604 1872.59 266.984L1871.7 269.847ZM1883.2 273.978C1885.09 274.741 1886.98 275.535 1888.84 276.353L1890.05 273.605C1888.15 272.776 1886.24 271.97 1884.32 271.195L1883.2 273.978ZM1894.43 278.887C1896.29 279.761 1898.14 280.651 1899.96 281.551L1901.29 278.86C1899.45 277.953 1897.59 277.054 1895.7 276.17L1894.43 278.887ZM1905.46 284.313C1907.31 285.259 1909.14 286.206 1910.94 287.144L1912.33 284.485C1910.52 283.544 1908.69 282.593 1906.83 281.642L1905.46 284.313ZM1916.4 290.011C1918.27 290.99 1920.1 291.948 1921.88 292.874L1923.26 290.211C1921.48 289.288 1919.66 288.333 1917.8 287.355L1916.4 290.011ZM1927.39 295.68C1929.32 296.639 1931.19 297.543 1933.01 298.374L1934.26 295.647C1932.48 294.832 1930.64 293.943 1928.73 292.994L1927.39 295.68ZM1938.78 300.833C1940.87 301.647 1942.88 302.325 1944.79 302.828L1945.56 299.927C1943.78 299.46 1941.88 298.821 1939.86 298.036L1938.78 300.833ZM1951.23 303.816C1953.68 303.856 1955.94 303.416 1957.93 302.308L1956.46 299.69C1955.05 300.477 1953.34 300.851 1951.28 300.817L1951.23 303.816ZM1962.64 297.24C1963.55 295.493 1964.23 293.399 1964.69 290.943L1961.74 290.387C1961.32 292.632 1960.72 294.433 1959.98 295.859L1962.64 297.24ZM1965.38 284.693C1965.43 283.659 1965.45 282.578 1965.45 281.447H1962.45C1962.45 282.535 1962.43 283.569 1962.38 284.552L1965.38 284.693ZM1965.45 281.447C1965.45 280.483 1965.47 279.51 1965.5 278.53L1962.5 278.443C1962.47 279.45 1962.45 280.452 1962.45 281.447H1965.45ZM1965.81 272.651C1965.97 270.712 1966.16 268.751 1966.39 266.773L1963.41 266.43C1963.17 268.44 1962.98 270.438 1962.82 272.419L1965.81 272.651ZM1967.15 260.904C1967.43 258.959 1967.73 257.004 1968.06 255.042L1965.1 254.557C1964.77 256.534 1964.46 258.509 1964.18 260.477L1967.15 260.904ZM1969.06 249.186C1969.4 247.234 1969.76 245.281 1970.12 243.33L1967.17 242.788C1966.81 244.741 1966.45 246.701 1966.1 248.662L1969.06 249.186ZM1971.2 237.468C1971.56 235.501 1971.92 233.54 1972.26 231.593L1969.31 231.072C1968.96 233.01 1968.61 234.962 1968.25 236.926L1971.2 237.468ZM1973.26 225.697C1973.58 223.703 1973.88 221.726 1974.15 219.773L1971.18 219.364C1970.91 221.29 1970.62 223.243 1970.3 225.219L1973.26 225.697ZM1974.87 213.812C1975.08 211.77 1975.25 209.76 1975.35 207.788L1972.36 207.626C1972.25 209.542 1972.09 211.504 1971.89 213.505L1974.87 213.812ZM1975.49 201.719C1975.46 199.634 1975.34 197.601 1975.13 195.631L1972.15 195.956C1972.35 197.82 1972.46 199.757 1972.49 201.761L1975.49 201.719ZM1974.09 189.59C1973.58 187.528 1972.93 185.555 1972.09 183.686L1969.35 184.908C1970.1 186.594 1970.71 188.395 1971.17 190.303L1974.09 189.59ZM1968.93 178.268C1967.69 176.615 1966.25 175.096 1964.59 173.726L1962.68 176.042C1964.16 177.258 1965.43 178.603 1966.53 180.067L1968.93 178.268ZM1959.35 170.305C1957.6 169.401 1955.68 168.617 1953.59 167.956L1952.68 170.816C1954.63 171.43 1956.39 172.152 1957.98 172.972L1959.35 170.305ZM1947.6 166.491C1945.71 166.147 1943.7 165.882 1941.57 165.699L1941.31 168.688C1943.36 168.864 1945.27 169.117 1947.07 169.443L1947.6 166.491ZM1935.55 165.407C1933.64 165.38 1931.64 165.408 1929.55 165.495L1929.68 168.493C1931.71 168.408 1933.66 168.38 1935.51 168.407L1935.55 165.407ZM1923.53 165.887C1921.58 166.057 1919.56 166.272 1917.46 166.533L1917.83 169.51C1919.89 169.253 1921.88 169.042 1923.79 168.876L1923.53 165.887ZM1911.63 167.352C1909.7 167.651 1907.72 167.987 1905.67 168.359L1906.21 171.31C1908.23 170.943 1910.19 170.612 1912.09 170.316L1911.63 167.352ZM1899.82 169.494C1897.92 169.885 1895.97 170.305 1893.97 170.755L1894.63 173.682C1896.61 173.236 1898.54 172.82 1900.42 172.433L1899.82 169.494ZM1888.14 172.121C1887.15 172.363 1886.15 172.611 1885.13 172.866L1885.87 175.775C1886.87 175.522 1887.87 175.276 1888.85 175.036L1888.14 172.121ZM1885.13 172.866C1884.15 173.114 1883.16 173.367 1882.18 173.624L1882.94 176.526C1883.91 176.272 1884.89 176.021 1885.87 175.775L1885.13 172.866ZM1876.29 175.215C1874.33 175.761 1872.38 176.325 1870.43 176.905L1871.28 179.781C1873.22 179.205 1875.16 178.646 1877.1 178.104L1876.29 175.215ZM1864.59 178.692C1862.66 179.303 1860.72 179.93 1858.79 180.573L1859.74 183.419C1861.65 182.781 1863.57 182.159 1865.5 181.553L1864.59 178.692ZM1853.02 182.546C1851.1 183.219 1849.19 183.906 1847.28 184.609L1848.32 187.424C1850.21 186.727 1852.11 186.044 1854.01 185.377L1853.02 182.546ZM1841.58 186.76C1839.68 187.492 1837.79 188.238 1835.9 188.998L1837.02 191.78C1838.89 191.026 1840.77 190.285 1842.65 189.559L1841.58 186.76ZM1830.26 191.321C1828.39 192.109 1826.52 192.912 1824.66 193.727L1825.87 196.474C1827.71 195.665 1829.57 194.869 1831.43 194.086L1830.26 191.321ZM1819.09 196.216C1817.24 197.06 1815.4 197.917 1813.57 198.786L1814.85 201.497C1816.67 200.634 1818.5 199.784 1820.34 198.946L1819.09 196.216ZM1808.07 201.437C1806.25 202.336 1804.43 203.246 1802.62 204.168L1803.99 206.84C1805.78 205.925 1807.58 205.021 1809.4 204.129L1808.07 201.437ZM1797.21 206.978C1795.41 207.93 1793.62 208.893 1791.84 209.867L1793.28 212.498C1795.05 211.532 1796.82 210.576 1798.61 209.63L1797.21 206.978ZM1786.51 212.835C1784.74 213.84 1782.98 214.855 1781.23 215.881L1782.75 218.468C1784.48 217.45 1786.23 216.442 1787.99 215.445L1786.51 212.835ZM1776 219.005C1774.25 220.063 1772.52 221.131 1770.81 222.209L1772.4 224.749C1774.1 223.68 1775.82 222.62 1777.55 221.57L1776 219.005ZM1765.67 225.491C1764.81 226.046 1763.96 226.602 1763.12 227.161L1764.77 229.664C1765.61 229.11 1766.45 228.557 1767.3 228.007L1765.67 225.491ZM1480.49 342.708C1481.36 343.024 1482.27 343.351 1483.21 343.688L1484.22 340.864C1483.28 340.528 1482.38 340.202 1481.51 339.887L1480.49 342.708ZM1488.85 345.689C1490.65 346.321 1492.54 346.979 1494.5 347.66L1495.49 344.825C1493.52 344.145 1491.64 343.489 1489.85 342.859L1488.85 345.689ZM1500.18 349.61C1502.03 350.24 1503.93 350.885 1505.88 351.544L1506.84 348.701C1504.89 348.044 1502.99 347.399 1501.15 346.771L1500.18 349.61ZM1511.5 353.426C1513.35 354.042 1515.24 354.668 1517.17 355.301L1518.11 352.452C1516.18 351.819 1514.3 351.195 1512.45 350.579L1511.5 353.426ZM1522.88 357.169C1524.74 357.775 1526.63 358.387 1528.55 359.003L1529.47 356.147C1527.55 355.532 1525.67 354.922 1523.8 354.316L1522.88 357.169ZM1534.23 360.82C1536.12 361.421 1538.03 362.023 1539.96 362.628L1540.85 359.765C1538.93 359.162 1537.03 358.56 1535.14 357.961L1534.23 360.82ZM1545.64 364.401C1547.54 364.988 1549.44 365.575 1551.36 366.161L1552.24 363.293C1550.32 362.707 1548.42 362.121 1546.53 361.536L1545.64 364.401ZM1557.08 367.901C1558.98 368.474 1560.89 369.045 1562.8 369.614L1563.66 366.738C1561.75 366.171 1559.84 365.601 1557.95 365.029L1557.08 367.901ZM1568.54 371.307C1570.45 371.866 1572.36 372.422 1574.28 372.973L1575.11 370.09C1573.2 369.54 1571.29 368.986 1569.38 368.428L1568.54 371.307ZM1580.03 374.614C1581.95 375.157 1583.87 375.694 1585.78 376.225L1586.58 373.334C1584.67 372.805 1582.76 372.269 1580.85 371.728L1580.03 374.614ZM1591.56 377.809C1593.49 378.333 1595.41 378.849 1597.32 379.356L1598.09 376.456C1596.18 375.95 1594.27 375.436 1592.34 374.914L1591.56 377.809ZM1603.11 380.87C1605.06 381.373 1607 381.865 1608.92 382.345L1609.65 379.435C1607.73 378.956 1605.8 378.466 1603.86 377.965L1603.11 380.87ZM1614.7 383.767C1616.67 384.243 1618.62 384.706 1620.55 385.154L1621.23 382.232C1619.31 381.786 1617.37 381.325 1615.4 380.851L1614.7 383.767ZM1626.39 386.478C1628.36 386.912 1630.3 387.329 1632.21 387.727L1632.82 384.79C1630.92 384.395 1629 383.981 1627.04 383.549L1626.39 386.478ZM1638.12 388.918C1640.13 389.308 1642.11 389.673 1644.03 390.012L1644.55 387.057C1642.64 386.722 1640.69 386.359 1638.69 385.973L1638.12 388.918ZM1649.94 390.989C1651.98 391.303 1653.95 391.582 1655.86 391.823L1656.24 388.847C1654.36 388.609 1652.41 388.334 1650.4 388.024L1649.94 390.989ZM1661.83 392.472C1663.95 392.661 1665.97 392.791 1667.87 392.857L1667.97 389.858C1666.13 389.795 1664.17 389.668 1662.1 389.484L1661.83 392.472ZM1674.01 392.819C1676.34 392.689 1678.44 392.412 1680.24 391.96L1679.51 389.049C1677.94 389.442 1676.05 389.701 1673.85 389.824L1674.01 392.819ZM1686.19 388.79C1687.85 386.91 1688.19 384.492 1687.4 381.777L1684.52 382.619C1685.1 384.598 1684.76 385.878 1683.94 386.81L1686.19 388.79ZM1684.53 376.146C1683.96 375.313 1683.31 374.447 1682.58 373.548L1680.25 375.435C1680.94 376.282 1681.54 377.085 1682.06 377.845L1684.53 376.146ZM1682.58 373.548C1681.94 372.757 1681.34 371.956 1680.76 371.146L1678.31 372.88C1678.93 373.743 1679.57 374.595 1680.25 375.435L1682.58 373.548ZM1677.64 366.055C1676.71 364.268 1675.92 362.441 1675.26 360.578L1672.43 361.577C1673.14 363.574 1673.99 365.531 1674.98 367.443L1677.64 366.055ZM1673.67 354.821C1673.28 352.881 1673.02 350.905 1672.89 348.894L1669.89 349.093C1670.04 351.231 1670.31 353.34 1670.73 355.414L1673.67 354.821ZM1672.86 342.887C1672.97 340.919 1673.19 338.922 1673.51 336.9L1670.55 336.42C1670.21 338.542 1669.98 340.644 1669.86 342.724L1672.86 342.887ZM1674.76 330.988C1675.25 329.069 1675.84 327.13 1676.52 325.174L1673.68 324.195C1672.98 326.222 1672.37 328.237 1671.85 330.238L1674.76 330.988ZM1678.71 319.489C1679.49 317.659 1680.34 315.816 1681.26 313.964L1678.58 312.626C1677.63 314.53 1676.75 316.427 1675.95 318.316L1678.71 319.489ZM1684.13 308.576C1685.11 306.832 1686.16 305.082 1687.27 303.326L1684.73 301.728C1683.6 303.522 1682.53 305.313 1681.52 307.098L1684.13 308.576ZM1690.64 298.212C1691.78 296.555 1692.97 294.894 1694.21 293.231L1691.81 291.437C1690.55 293.129 1689.33 294.82 1688.17 296.51L1690.64 298.212ZM1697.97 288.376C1699.23 286.799 1700.54 285.221 1701.88 283.643L1699.6 281.696C1698.23 283.296 1696.91 284.899 1695.63 286.501L1697.97 288.376ZM1705.94 279.027C1707.3 277.523 1708.7 276.021 1710.13 274.522L1707.96 272.451C1706.51 273.969 1705.09 275.491 1703.71 277.015L1705.94 279.027ZM1714.43 270.123C1715.87 268.688 1717.34 267.256 1718.84 265.827L1716.77 263.654C1715.26 265.098 1713.77 266.547 1712.31 267.999L1714.43 270.123ZM1723.35 261.63C1724.86 260.261 1726.39 258.896 1727.95 257.537L1725.97 255.276C1724.4 256.649 1722.85 258.028 1721.33 259.411L1723.35 261.63ZM1732.62 253.538C1734.18 252.23 1735.77 250.926 1737.38 249.629L1735.5 247.294C1733.87 248.602 1732.27 249.918 1730.7 251.239L1732.62 253.538ZM1742.21 245.807C1743.83 244.555 1745.46 243.309 1747.12 242.071L1745.32 239.668C1743.65 240.917 1742 242.174 1740.37 243.437L1742.21 245.807ZM1752.09 238.418C1753.75 237.223 1755.42 236.036 1757.11 234.858L1755.4 232.396C1753.69 233.584 1752 234.781 1750.33 235.985L1752.09 238.418ZM1762.2 231.379C1763.05 230.805 1763.91 230.234 1764.77 229.664L1763.12 227.161C1762.25 227.735 1761.38 228.311 1760.52 228.89L1762.2 231.379Z" fill="white"/>
<defs>
<linearGradient id="paint0_linear_1662_801" x1="-40" y1="215" x2="1967" y2="215" gradientUnits="userSpaceOnUse">
<stop stop-color="#ADCEE1"/>
<stop offset="1" stop-color="#50BEFD"/>
</linearGradient>
<linearGradient id="paint1_linear_1662_801" x1="-24.6172" y1="210" x2="1945.44" y2="210" gradientUnits="userSpaceOnUse">
<stop stop-color="#ADCEE1"/>
<stop offset="1" stop-color="#50BEFD"/>
</linearGradient>
<linearGradient id="paint2_linear_1662_801" x1="1481" y1="212.704" x2="2049.5" y2="212.704" gradientUnits="userSpaceOnUse">
<stop stop-color="#ADCEE1"/>
<stop offset="1" stop-color="#50BEFD"/>
</linearGradient>
</defs>
</svg>
