<svg width="1920" height="430" viewBox="0 0 1920 430" fill="none" xmlns="http://www.w3.org/2000/svg">
<mask id="mask0_1866_69" style="mask-type:alpha" maskUnits="userSpaceOnUse" x="-27" y="0" width="1983" height="430">
<rect x="-27" width="1983" height="430" fill="url(#paint0_linear_1866_69)"/>
</mask>
<g mask="url(#mask0_1866_69)">
<rect x="-11.7969" y="-10" width="1946.5" height="440" fill="url(#paint1_linear_1866_69)"/>
</g>
<circle cx="1705" cy="81" r="38" fill="url(#paint2_linear_1866_69)" fill-opacity="0.66"/>
<circle cx="290" cy="331" r="38" fill="url(#paint3_linear_1866_69)" fill-opacity="0.66"/>
<circle cx="1323" cy="207" r="168.5" stroke="white"/>
<circle cx="394.5" cy="196.5" r="66" stroke="white"/>
<circle cx="1436" cy="205" r="168.5" stroke="white"/>
<circle cx="439.5" cy="195.5" r="66" stroke="white"/>
<circle cx="1372" cy="210" r="168.5" stroke="white"/>
<path d="M480.5 197.5C480.5 233.947 450.73 263.5 414 263.5C377.27 263.5 347.5 233.947 347.5 197.5C347.5 161.053 377.27 131.5 414 131.5C450.73 131.5 480.5 161.053 480.5 197.5Z" stroke="white"/>
<circle cx="228" cy="296" r="24" fill="url(#paint4_linear_1866_69)" fill-opacity="0.66"/>
<circle cx="1633" cy="158" r="25" fill="url(#paint5_linear_1866_69)" fill-opacity="0.55"/>
<circle cx="182.5" cy="344.5" r="15.5" fill="url(#paint6_linear_1866_69)" fill-opacity="0.55"/>
<circle cx="1704.5" cy="161.5" r="16.5" fill="url(#paint7_linear_1866_69)" fill-opacity="0.44"/>
<circle cx="227.5" cy="346.5" r="10.5" fill="url(#paint8_linear_1866_69)" fill-opacity="0.44"/>
<circle cx="1855.23" cy="315.228" r="4.22845" fill="#FBD5A9"/>
<circle cx="1855.23" cy="326.504" r="4.22845" fill="#FBD5A9"/>
<ellipse cx="1855.23" cy="338.251" rx="4.22845" ry="3.75862" fill="#FBD5A9"/>
<circle cx="1869.32" cy="315.228" r="4.22845" fill="#FBD5A9"/>
<circle cx="1869.32" cy="326.504" r="4.22845" fill="#FBD5A9"/>
<ellipse cx="1869.32" cy="338.251" rx="4.22845" ry="3.75862" fill="#FBD5A9"/>
<circle cx="1883.42" cy="315.228" r="4.22845" fill="#FBD5A9"/>
<circle cx="1883.42" cy="326.504" r="4.22845" fill="#FBD5A9"/>
<ellipse cx="1883.42" cy="338.251" rx="4.22845" ry="3.75862" fill="#FBD5A9"/>
<circle cx="1897.51" cy="315.228" r="4.22845" fill="#FBD5A9"/>
<circle cx="1897.51" cy="326.504" r="4.22845" fill="#FBD5A9"/>
<ellipse cx="1897.51" cy="338.251" rx="4.22845" ry="3.75862" fill="#FBD5A9"/>
<circle cx="1911.61" cy="315.228" r="4.22845" fill="#FBD5A9"/>
<circle cx="1911.61" cy="326.504" r="4.22845" fill="#FBD5A9"/>
<ellipse cx="1911.61" cy="338.251" rx="4.22845" ry="3.75862" fill="#FBD5A9"/>
<circle cx="1855.23" cy="351.228" r="4.22845" fill="#FBD5A9"/>
<circle cx="1855.23" cy="362.504" r="4.22845" fill="#FBD5A9"/>
<ellipse cx="1855.23" cy="374.251" rx="4.22845" ry="3.75862" fill="#FBD5A9"/>
<circle cx="1869.32" cy="351.228" r="4.22845" fill="#FBD5A9"/>
<circle cx="1869.32" cy="362.504" r="4.22845" fill="#FBD5A9"/>
<ellipse cx="1869.32" cy="374.251" rx="4.22845" ry="3.75862" fill="#FBD5A9"/>
<circle cx="1883.42" cy="351.228" r="4.22845" fill="#FBD5A9"/>
<circle cx="1883.42" cy="362.504" r="4.22845" fill="#FBD5A9"/>
<ellipse cx="1883.42" cy="374.251" rx="4.22845" ry="3.75862" fill="#FBD5A9"/>
<circle cx="1897.51" cy="351.228" r="4.22845" fill="#FBD5A9"/>
<circle cx="1897.51" cy="362.504" r="4.22845" fill="#FBD5A9"/>
<ellipse cx="1897.51" cy="374.251" rx="4.22845" ry="3.75862" fill="#FBD5A9"/>
<circle cx="1911.61" cy="351.228" r="4.22845" fill="#FBD5A9"/>
<circle cx="1911.61" cy="362.504" r="4.22845" fill="#FBD5A9"/>
<ellipse cx="1911.61" cy="374.251" rx="4.22845" ry="3.75862" fill="#FBD5A9"/>
<circle cx="1909.67" cy="337.904" r="4.5" fill="#FBD5A9"/>
<circle cx="1909.67" cy="373.904" r="4.5" fill="#FBD5A9"/>
<circle cx="1923.67" cy="337.904" r="4.5" fill="#FBD5A9"/>
<circle cx="1923.67" cy="373.904" r="4.5" fill="#FBD5A9"/>
<circle cx="1911.67" cy="337.904" r="4.5" fill="#FBD5A9"/>
<circle cx="1911.67" cy="373.904" r="4.5" fill="#FBD5A9"/>
<circle cx="13.705" cy="33.2284" r="4.22845" fill="#FBD5A9"/>
<circle cx="13.705" cy="44.5038" r="4.22845" fill="#FBD5A9"/>
<ellipse cx="13.705" cy="56.2508" rx="4.22845" ry="3.75862" fill="#FBD5A9"/>
<circle cx="27.7988" cy="33.2284" r="4.22845" fill="#FBD5A9"/>
<circle cx="27.7988" cy="44.5038" r="4.22845" fill="#FBD5A9"/>
<ellipse cx="27.7988" cy="56.2508" rx="4.22845" ry="3.75862" fill="#FBD5A9"/>
<circle cx="41.8925" cy="33.2284" r="4.22845" fill="#FBD5A9"/>
<circle cx="41.8925" cy="44.5038" r="4.22845" fill="#FBD5A9"/>
<ellipse cx="41.8925" cy="56.2508" rx="4.22845" ry="3.75862" fill="#FBD5A9"/>
<circle cx="55.9863" cy="33.2284" r="4.22845" fill="#FBD5A9"/>
<circle cx="55.9863" cy="44.5038" r="4.22845" fill="#FBD5A9"/>
<ellipse cx="55.9863" cy="56.2508" rx="4.22845" ry="3.75862" fill="#FBD5A9"/>
<circle cx="-0.388739" cy="33.2284" r="4.22845" fill="#FBD5A9"/>
<circle cx="70.08" cy="33.2284" r="4.22845" fill="#FBD5A9"/>
<circle cx="-0.388739" cy="44.5038" r="4.22845" fill="#FBD5A9"/>
<circle cx="70.08" cy="44.5038" r="4.22845" fill="#FBD5A9"/>
<ellipse cx="-0.388739" cy="56.2508" rx="4.22845" ry="3.75862" fill="#FBD5A9"/>
<ellipse cx="70.08" cy="56.2508" rx="4.22845" ry="3.75862" fill="#FBD5A9"/>
<circle cx="13.705" cy="69.2284" r="4.22845" fill="#FBD5A9"/>
<circle cx="13.705" cy="80.5038" r="4.22845" fill="#FBD5A9"/>
<ellipse cx="13.705" cy="92.2508" rx="4.22845" ry="3.75862" fill="#FBD5A9"/>
<circle cx="27.7988" cy="69.2284" r="4.22845" fill="#FBD5A9"/>
<circle cx="27.7988" cy="80.5038" r="4.22845" fill="#FBD5A9"/>
<ellipse cx="27.7988" cy="92.2508" rx="4.22845" ry="3.75862" fill="#FBD5A9"/>
<circle cx="41.8925" cy="69.2284" r="4.22845" fill="#FBD5A9"/>
<circle cx="41.8925" cy="80.5038" r="4.22845" fill="#FBD5A9"/>
<ellipse cx="41.8925" cy="92.2508" rx="4.22845" ry="3.75862" fill="#FBD5A9"/>
<circle cx="55.9863" cy="69.2284" r="4.22845" fill="#FBD5A9"/>
<circle cx="55.9863" cy="80.5038" r="4.22845" fill="#FBD5A9"/>
<ellipse cx="55.9863" cy="92.2508" rx="4.22845" ry="3.75862" fill="#FBD5A9"/>
<circle cx="-0.388739" cy="69.2284" r="4.22845" fill="#FBD5A9"/>
<circle cx="70.08" cy="69.2284" r="4.22845" fill="#FBD5A9"/>
<circle cx="-0.388739" cy="80.5038" r="4.22845" fill="#FBD5A9"/>
<circle cx="70.08" cy="80.5038" r="4.22845" fill="#FBD5A9"/>
<ellipse cx="-0.388739" cy="92.2508" rx="4.22845" ry="3.75862" fill="#FBD5A9"/>
<ellipse cx="70.08" cy="92.2508" rx="4.22845" ry="3.75862" fill="#FBD5A9"/>
<circle cx="13.7266" cy="55.9043" r="4.5" fill="#FBD5A9"/>
<circle cx="13.7266" cy="91.9043" r="4.5" fill="#FBD5A9"/>
<circle cx="27.7266" cy="55.9043" r="4.5" fill="#FBD5A9"/>
<circle cx="27.7266" cy="91.9043" r="4.5" fill="#FBD5A9"/>
<circle cx="41.7266" cy="55.9043" r="4.5" fill="#FBD5A9"/>
<circle cx="41.7266" cy="91.9043" r="4.5" fill="#FBD5A9"/>
<ellipse cx="56.2266" cy="55.9043" rx="4" ry="4.5" fill="#FBD5A9"/>
<ellipse cx="56.2266" cy="91.9043" rx="4" ry="4.5" fill="#FBD5A9"/>
<circle cx="-0.273438" cy="55.9043" r="4.5" fill="#FBD5A9"/>
<circle cx="-0.273438" cy="91.9043" r="4.5" fill="#FBD5A9"/>
<ellipse cx="70.2266" cy="55.9043" rx="4" ry="4.5" fill="#FBD5A9"/>
<ellipse cx="70.2266" cy="91.9043" rx="4" ry="4.5" fill="#FBD5A9"/>
<defs>
<linearGradient id="paint0_linear_1866_69" x1="-320.496" y1="270.5" x2="2450.73" y2="248.402" gradientUnits="userSpaceOnUse">
<stop stop-color="#EDEBF6"/>
<stop offset="1" stop-color="#EDEBF6"/>
</linearGradient>
<linearGradient id="paint1_linear_1866_69" x1="-11.7969" y1="210" x2="1934.71" y2="210" gradientUnits="userSpaceOnUse">
<stop stop-color="#F17963"/>
<stop offset="1" stop-color="#D5409F"/>
</linearGradient>
<linearGradient id="paint2_linear_1866_69" x1="1705" y1="43" x2="1705" y2="119" gradientUnits="userSpaceOnUse">
<stop stop-color="#D3ACFC"/>
<stop offset="1" stop-color="#F9F2FC"/>
</linearGradient>
<linearGradient id="paint3_linear_1866_69" x1="290" y1="293" x2="290" y2="369" gradientUnits="userSpaceOnUse">
<stop stop-color="#D3ACFC"/>
<stop offset="1" stop-color="#F9F2FC"/>
</linearGradient>
<linearGradient id="paint4_linear_1866_69" x1="228" y1="272" x2="228" y2="320" gradientUnits="userSpaceOnUse">
<stop stop-color="#D3ACFC"/>
<stop offset="1" stop-color="#F9F2FC"/>
</linearGradient>
<linearGradient id="paint5_linear_1866_69" x1="1633" y1="133" x2="1633" y2="183" gradientUnits="userSpaceOnUse">
<stop stop-color="#D3ACFC"/>
<stop offset="1" stop-color="#F9F2FC"/>
</linearGradient>
<linearGradient id="paint6_linear_1866_69" x1="182.5" y1="329" x2="182.5" y2="360" gradientUnits="userSpaceOnUse">
<stop stop-color="#D3ACFC"/>
<stop offset="1" stop-color="#F9F2FC"/>
</linearGradient>
<linearGradient id="paint7_linear_1866_69" x1="1704.5" y1="145" x2="1704.5" y2="178" gradientUnits="userSpaceOnUse">
<stop stop-color="#D3ACFC"/>
<stop offset="1" stop-color="#F9F2FC"/>
</linearGradient>
<linearGradient id="paint8_linear_1866_69" x1="227.5" y1="336" x2="227.5" y2="357" gradientUnits="userSpaceOnUse">
<stop stop-color="#D3ACFC"/>
<stop offset="1" stop-color="#F9F2FC"/>
</linearGradient>
</defs>
</svg>
