<svg xmlns="http://www.w3.org/2000/svg" fill="none" viewBox="0 1.92 1920 430.08" style="max-height: 500px" width="1920" height="430.08">
<mask height="430" width="2007" y="2" x="-35" maskUnits="userSpaceOnUse" style="mask-type:alpha" id="mask0_1649_156">
<rect fill="url(#paint0_linear_1649_156)" height="430" width="2007" y="2" x="-35"/>
</mask>
<g mask="url(#mask0_1649_156)">
<rect fill="url(#paint1_linear_1649_156)" height="440" width="1970.06" y="-8" x="-19.6172"/>
</g>
<path fill="#C87311" d="M1937.49 1.82685C1937.39 1.00396 1936.65 0.4144 1935.83 0.510027L1922.42 2.06836C1921.59 2.16399 1921 2.90859 1921.1 3.73148C1921.2 4.55437 1921.94 5.14394 1922.76 5.04831L1934.68 3.66312L1936.07 15.5829C1936.16 16.4058 1936.91 16.9954 1937.73 16.8997C1938.55 16.8041 1939.14 16.0595 1939.05 15.2366L1937.49 1.82685ZM1661.83 142.321L1663.27 142.728L1661.83 142.321ZM1725.22 231.845L1725.33 233.34L1725.22 231.845ZM1772 142.321L1771.63 140.866L1772 142.321ZM1567.92 342.492L1566.75 343.435L1567.92 342.492ZM1366.86 307.939C1366.11 308.29 1365.79 309.183 1366.14 309.934L1371.86 322.16C1372.22 322.911 1373.11 323.234 1373.86 322.883C1374.61 322.532 1374.93 321.639 1374.58 320.888L1369.49 310.02L1380.36 304.933C1381.11 304.582 1381.44 303.689 1381.09 302.938C1380.73 302.188 1379.84 301.865 1379.09 302.216L1366.86 307.939ZM1366.99 310.708C1367.86 311.024 1368.77 311.351 1369.71 311.688L1370.72 308.864C1369.78 308.528 1368.88 308.202 1368.01 307.887L1366.99 310.708ZM1375.35 313.689C1377.15 314.321 1379.04 314.979 1381 315.66L1381.99 312.825C1380.02 312.145 1378.14 311.489 1376.35 310.859L1375.35 313.689ZM1386.68 317.61C1388.53 318.24 1390.43 318.885 1392.38 319.544L1393.34 316.701C1391.39 316.044 1389.49 315.399 1387.65 314.771L1386.68 317.61ZM1398 321.426C1399.85 322.042 1401.74 322.668 1403.67 323.301L1404.61 320.452C1402.68 319.819 1400.8 319.195 1398.95 318.579L1398 321.426ZM1409.38 325.169C1411.24 325.775 1413.13 326.387 1415.05 327.003L1415.97 324.147C1414.05 323.532 1412.17 322.922 1410.3 322.316L1409.38 325.169ZM1420.73 328.82C1422.62 329.421 1424.53 330.023 1426.46 330.628L1427.35 327.765C1425.43 327.162 1423.53 326.56 1421.64 325.961L1420.73 328.82ZM1432.14 332.401C1434.04 332.988 1435.94 333.575 1437.86 334.161L1438.74 331.293C1436.82 330.707 1434.92 330.121 1433.03 329.536L1432.14 332.401ZM1443.58 335.901C1445.48 336.474 1447.39 337.045 1449.3 337.614L1450.16 334.738C1448.25 334.171 1446.34 333.601 1444.45 333.029L1443.58 335.901ZM1455.04 339.307C1456.95 339.866 1458.86 340.422 1460.78 340.973L1461.61 338.09C1459.7 337.54 1457.79 336.986 1455.88 336.428L1455.04 339.307ZM1466.53 342.614C1468.45 343.157 1470.37 343.694 1472.28 344.225L1473.08 341.334C1471.17 340.805 1469.26 340.269 1467.35 339.728L1466.53 342.614ZM1478.06 345.809C1479.99 346.333 1481.91 346.849 1483.82 347.356L1484.59 344.456C1482.68 343.95 1480.77 343.436 1478.84 342.914L1478.06 345.809ZM1489.61 348.87C1491.56 349.373 1493.5 349.865 1495.42 350.345L1496.15 347.435C1494.23 346.956 1492.3 346.466 1490.36 345.965L1489.61 348.87ZM1501.2 351.767C1503.17 352.243 1505.12 352.706 1507.05 353.154L1507.73 350.232C1505.81 349.786 1503.87 349.325 1501.9 348.851L1501.2 351.767ZM1512.89 354.478C1514.86 354.912 1516.8 355.329 1518.71 355.727L1519.32 352.79C1517.42 352.395 1515.5 351.981 1513.54 351.549L1512.89 354.478ZM1524.62 356.918C1526.63 357.308 1528.61 357.673 1530.53 358.012L1531.05 355.057C1529.14 354.722 1527.19 354.359 1525.19 353.973L1524.62 356.918ZM1536.44 358.989C1538.48 359.303 1540.45 359.582 1542.36 359.823L1542.74 356.847C1540.86 356.609 1538.91 356.334 1536.9 356.024L1536.44 358.989ZM1548.33 360.472C1550.45 360.661 1552.47 360.791 1554.37 360.857L1554.47 357.858C1552.63 357.795 1550.67 357.668 1548.6 357.484L1548.33 360.472ZM1560.51 360.819C1562.84 360.689 1564.94 360.412 1566.74 359.96L1566.01 357.049C1564.44 357.442 1562.55 357.701 1560.35 357.824L1560.51 360.819ZM1572.69 356.79C1574.35 354.91 1574.69 352.492 1573.9 349.777L1571.02 350.619C1571.6 352.598 1571.26 353.878 1570.44 354.81L1572.69 356.79ZM1571.03 344.146C1570.46 343.313 1569.81 342.447 1569.08 341.548L1566.75 343.435C1567.44 344.282 1568.04 345.085 1568.56 345.845L1571.03 344.146ZM1569.08 341.548C1568.47 340.786 1567.88 340.015 1567.33 339.236L1564.88 340.976C1565.47 341.806 1566.1 342.626 1566.75 343.435L1569.08 341.548ZM1564.32 334.39C1563.42 332.694 1562.64 330.962 1561.98 329.196L1559.17 330.239C1559.87 332.132 1560.71 333.987 1561.67 335.802L1564.32 334.39ZM1560.37 323.728C1559.95 321.878 1559.66 319.994 1559.48 318.078L1556.49 318.353C1556.68 320.393 1556.99 322.404 1557.44 324.383L1560.37 323.728ZM1559.3 312.34C1559.35 310.458 1559.5 308.549 1559.76 306.616L1556.79 306.223C1556.52 308.255 1556.35 310.269 1556.3 312.26L1559.3 312.34ZM1560.78 300.95C1561.2 299.108 1561.71 297.247 1562.29 295.369L1559.43 294.473C1558.82 296.423 1558.29 298.361 1557.86 300.285L1560.78 300.95ZM1564.23 289.89C1564.93 288.111 1565.69 286.319 1566.53 284.516L1563.81 283.252C1562.95 285.107 1562.16 286.956 1561.44 288.795L1564.23 289.89ZM1569.13 279.31C1570.02 277.626 1570.98 275.934 1571.99 274.237L1569.41 272.704C1568.37 274.441 1567.4 276.173 1566.48 277.901L1569.13 279.31ZM1575.09 269.26C1576.14 267.648 1577.25 266.033 1578.4 264.414L1575.95 262.678C1574.78 264.326 1573.66 265.974 1572.58 267.619L1575.09 269.26ZM1581.86 259.716C1583.03 258.176 1584.25 256.634 1585.5 255.093L1583.18 253.197C1581.9 254.763 1580.67 256.33 1579.47 257.896L1581.86 259.716ZM1589.27 250.607C1590.54 249.145 1591.84 247.683 1593.17 246.223L1590.95 244.2C1589.6 245.68 1588.29 247.162 1587 248.645L1589.27 250.607ZM1597.21 241.914C1598.54 240.523 1599.91 239.133 1601.31 237.748L1599.19 235.619C1597.78 237.021 1596.4 238.427 1595.04 239.835L1597.21 241.914ZM1605.55 233.632C1606.95 232.299 1608.38 230.969 1609.84 229.644L1607.82 227.426C1606.35 228.765 1604.9 230.109 1603.48 231.456L1605.55 233.632ZM1614.24 225.719C1615.7 224.439 1617.19 223.164 1618.7 221.894L1616.77 219.598C1615.24 220.88 1613.74 222.168 1612.26 223.461L1614.24 225.719ZM1623.24 218.146C1624.76 216.918 1626.29 215.695 1627.85 214.479L1626 212.115C1624.43 213.342 1622.88 214.575 1621.35 215.815L1623.24 218.146ZM1632.52 210.897C1634.08 209.72 1635.66 208.55 1637.25 207.387L1635.49 204.962C1633.88 206.135 1632.28 207.315 1630.71 208.502L1632.52 210.897ZM1642.04 203.962C1643.64 202.835 1645.25 201.716 1646.88 200.605L1645.2 198.125C1643.55 199.245 1641.92 200.373 1640.31 201.509L1642.04 203.962ZM1651.77 197.332C1653.41 196.255 1655.06 195.186 1656.72 194.126L1655.11 191.596C1653.44 192.664 1651.77 193.741 1650.12 194.826L1651.77 197.332ZM1661.71 191.001C1663.38 189.973 1665.06 188.954 1666.75 187.945L1665.22 185.368C1663.51 186.385 1661.82 187.411 1660.14 188.447L1661.71 191.001ZM1671.83 184.965C1673.53 183.987 1675.24 183.017 1676.96 182.058L1675.5 179.438C1673.77 180.404 1672.04 181.381 1670.34 182.366L1671.83 184.965ZM1682.13 179.225C1683.85 178.295 1685.59 177.375 1687.33 176.466L1685.95 173.806C1684.19 174.721 1682.44 175.647 1680.7 176.584L1682.13 179.225ZM1692.58 173.78C1694.33 172.899 1696.09 172.03 1697.86 171.171L1696.55 168.472C1694.77 169.337 1692.99 170.213 1691.23 171.1L1692.58 173.78ZM1703.18 168.635C1704.96 167.804 1706.74 166.985 1708.53 166.178L1707.3 163.443C1705.5 164.256 1703.7 165.081 1701.91 165.917L1703.18 168.635ZM1713.93 163.794C1715.73 163.015 1717.53 162.247 1719.35 161.492L1718.19 158.723C1716.37 159.483 1714.55 160.256 1712.73 161.042L1713.93 163.794ZM1724.8 159.267C1726.63 158.539 1728.46 157.824 1730.29 157.123L1729.22 154.321C1727.37 155.027 1725.53 155.747 1723.69 156.48L1724.8 159.267ZM1735.81 155.061C1737.65 154.387 1739.5 153.728 1741.36 153.082L1740.37 150.249C1738.5 150.899 1736.64 151.564 1734.78 152.243L1735.81 155.061ZM1746.93 151.189C1748.8 150.572 1750.67 149.969 1752.54 149.382L1751.64 146.519C1749.76 147.111 1747.87 147.719 1745.99 148.341L1746.93 151.189ZM1758.17 147.665C1760.06 147.107 1761.94 146.564 1763.83 146.038L1763.03 143.148C1761.12 143.679 1759.22 144.226 1757.32 144.788L1758.17 147.665ZM1769.52 144.505C1770.47 144.258 1771.42 144.014 1772.37 143.775L1771.63 140.866C1770.68 141.107 1769.72 141.353 1768.76 141.602L1769.52 144.505ZM1772.37 143.775C1773.37 143.522 1774.37 143.276 1775.35 143.036L1774.64 140.121C1773.65 140.363 1772.65 140.611 1771.63 140.866L1772.37 143.775ZM1781.13 141.682C1783.11 141.236 1785.04 140.82 1786.92 140.433L1786.32 137.494C1784.42 137.885 1782.47 138.305 1780.47 138.755L1781.13 141.682ZM1792.71 139.31C1794.73 138.943 1796.69 138.612 1798.59 138.316L1798.13 135.352C1796.2 135.651 1794.22 135.987 1792.17 136.359L1792.71 139.31ZM1804.33 137.51C1806.39 137.253 1808.38 137.042 1810.29 136.876L1810.03 133.887C1808.08 134.057 1806.06 134.272 1803.96 134.533L1804.33 137.51ZM1816.18 136.493C1818.21 136.408 1820.16 136.38 1822.01 136.407L1822.05 133.407C1820.14 133.38 1818.14 133.408 1816.05 133.495L1816.18 136.493ZM1827.81 136.688C1829.86 136.864 1831.77 137.117 1833.57 137.443L1834.1 134.491C1832.21 134.147 1830.2 133.882 1828.07 133.699L1827.81 136.688ZM1839.18 138.816C1841.13 139.43 1842.89 140.152 1844.48 140.972L1845.85 138.305C1844.1 137.401 1842.18 136.617 1840.09 135.956L1839.18 138.816ZM1849.18 144.042C1850.66 145.258 1851.93 146.603 1853.03 148.067L1855.43 146.268C1854.19 144.615 1852.75 143.096 1851.09 141.726L1849.18 144.042ZM1855.85 152.908C1856.6 154.594 1857.21 156.395 1857.67 158.303L1860.59 157.59C1860.08 155.528 1859.43 153.555 1858.59 151.686L1855.85 152.908ZM1858.65 163.956C1858.85 165.82 1858.96 167.757 1858.99 169.761L1861.99 169.719C1861.96 167.634 1861.84 165.601 1861.63 163.631L1858.65 163.956ZM1858.86 175.626C1858.75 177.542 1858.59 179.504 1858.39 181.505L1861.37 181.812C1861.58 179.77 1861.75 177.76 1861.85 175.788L1858.86 175.626ZM1857.68 187.364C1857.41 189.29 1857.12 191.243 1856.8 193.219L1859.76 193.697C1860.08 191.703 1860.38 189.726 1860.65 187.772L1857.68 187.364ZM1855.81 199.072C1855.46 201.009 1855.11 202.962 1854.75 204.926L1857.7 205.468C1858.06 203.501 1858.42 201.54 1858.76 199.593L1855.81 199.072ZM1853.67 210.788C1853.31 212.741 1852.95 214.701 1852.6 216.662L1855.56 217.186C1855.9 215.234 1856.26 213.281 1856.62 211.33L1853.67 210.788ZM1851.6 222.557C1851.27 224.534 1850.96 226.509 1850.68 228.477L1853.65 228.904C1853.93 226.959 1854.23 225.004 1854.56 223.042L1851.6 222.557ZM1849.91 234.43C1849.67 236.44 1849.48 238.438 1849.32 240.418L1852.31 240.651C1852.47 238.712 1852.66 236.751 1852.89 234.773L1849.91 234.43ZM1849 246.443C1848.97 247.45 1848.95 248.452 1848.95 249.447H1851.95C1851.95 248.483 1851.97 247.51 1852 246.53L1849 246.443ZM1848.95 249.447C1848.95 250.535 1848.93 251.569 1848.88 252.552L1851.88 252.693C1851.93 251.659 1851.95 250.578 1851.95 249.447H1848.95ZM1848.24 258.387C1847.82 260.632 1847.22 262.433 1846.48 263.859L1849.14 265.24C1850.05 263.493 1850.73 261.399 1851.19 258.943L1848.24 258.387ZM1842.96 267.69C1841.55 268.477 1839.84 268.851 1837.78 268.817L1837.73 271.816C1840.18 271.856 1842.44 271.416 1844.43 270.308L1842.96 267.69ZM1832.06 267.927C1830.28 267.46 1828.38 266.821 1826.36 266.036L1825.28 268.833C1827.37 269.647 1829.38 270.325 1831.29 270.828L1832.06 267.927ZM1820.76 263.647C1818.98 262.832 1817.14 261.943 1815.23 260.994L1813.89 263.68C1815.82 264.639 1817.69 265.543 1819.51 266.374L1820.76 263.647ZM1809.76 258.211C1807.98 257.288 1806.16 256.333 1804.3 255.355L1802.9 258.011C1804.77 258.99 1806.6 259.948 1808.38 260.874L1809.76 258.211ZM1798.83 252.485C1797.02 251.544 1795.19 250.593 1793.33 249.641L1791.96 252.313C1793.81 253.259 1795.64 254.206 1797.44 255.144L1798.83 252.485ZM1787.79 246.86C1785.95 245.953 1784.09 245.054 1782.2 244.17L1780.93 246.887C1782.79 247.761 1784.64 248.651 1786.46 249.551L1787.79 246.86ZM1776.55 241.605C1774.65 240.776 1772.74 239.97 1770.82 239.195L1769.7 241.978C1771.59 242.741 1773.48 243.535 1775.34 244.353L1776.55 241.605ZM1765 236.975C1763.04 236.27 1761.07 235.604 1759.09 234.984L1758.2 237.847C1760.13 238.453 1762.06 239.106 1763.98 239.797L1765 236.975ZM1753.09 233.266C1751.06 232.743 1749.03 232.275 1746.99 231.871L1746.4 234.814C1748.39 235.206 1750.36 235.66 1752.34 236.17L1753.09 233.266ZM1740.8 230.853C1738.72 230.583 1736.64 230.386 1734.55 230.272L1734.38 233.268C1736.39 233.377 1738.4 233.567 1740.41 233.828L1740.8 230.853ZM1728.26 230.187C1727.21 230.218 1726.16 230.271 1725.11 230.349L1725.33 233.34C1726.33 233.266 1727.34 233.215 1728.34 233.186L1728.26 230.187ZM1725.11 230.349C1724.07 230.425 1723.05 230.504 1722.03 230.586L1722.27 233.576C1723.28 233.495 1724.3 233.416 1725.33 233.34L1725.11 230.349ZM1715.93 231.111C1713.86 231.299 1711.83 231.492 1709.84 231.684L1710.13 234.67C1712.12 234.478 1714.14 234.286 1716.2 234.099L1715.93 231.111ZM1703.78 232.272C1701.7 232.472 1699.67 232.664 1697.7 232.839L1697.96 235.827C1699.95 235.651 1701.98 235.459 1704.06 235.258L1703.78 232.272ZM1691.62 233.328C1689.54 233.475 1687.53 233.591 1685.59 233.665L1685.7 236.663C1687.68 236.588 1689.73 236.47 1691.84 236.321L1691.62 233.328ZM1679.55 233.745C1677.46 233.711 1675.48 233.603 1673.61 233.406L1673.3 236.389C1675.27 236.598 1677.34 236.709 1679.5 236.745L1679.55 233.745ZM1667.8 232.393C1665.83 231.882 1664.04 231.214 1662.43 230.364L1661.03 233.015C1662.87 233.992 1664.89 234.738 1667.05 235.297L1667.8 232.393ZM1657.94 227.009C1656.7 225.72 1655.62 224.194 1654.73 222.385L1652.04 223.719C1653.07 225.785 1654.31 227.568 1655.78 229.09L1657.94 227.009ZM1652.79 216.978C1652.36 215.233 1652.04 213.308 1651.83 211.185L1648.84 211.481C1649.07 213.726 1649.41 215.794 1649.88 217.696L1652.79 216.978ZM1651.54 205.242C1651.54 203.359 1651.6 201.357 1651.74 199.228L1648.74 199.038C1648.6 201.226 1648.54 203.296 1648.54 205.252L1651.54 205.242ZM1652.27 193.216C1652.49 191.307 1652.75 189.312 1653.06 187.228L1650.09 186.784C1649.78 188.901 1649.51 190.932 1649.29 192.881L1652.27 193.216ZM1654.05 181.262C1654.39 179.341 1654.77 177.353 1655.19 175.297L1652.25 174.699C1651.83 176.776 1651.44 178.787 1651.09 180.732L1654.05 181.262ZM1656.47 169.309C1656.9 167.394 1657.35 165.424 1657.84 163.399L1654.92 162.698C1654.43 164.738 1653.97 166.723 1653.54 168.655L1656.47 169.309ZM1659.29 157.528C1659.78 155.592 1660.3 153.609 1660.84 151.579L1657.94 150.806C1657.4 152.848 1656.88 154.841 1656.38 156.789L1659.29 157.528ZM1662.43 145.742C1662.7 144.748 1662.98 143.744 1663.27 142.728L1660.38 141.914C1660.1 142.934 1659.81 143.943 1659.54 144.941L1662.43 145.742ZM1663.27 142.728C1663.55 141.753 1663.83 140.792 1664.13 139.845L1661.27 138.946C1660.96 139.922 1660.67 140.911 1660.38 141.914L1663.27 142.728ZM1666.05 134.319C1666.76 132.45 1667.52 130.637 1668.32 128.879L1665.6 127.63C1664.76 129.448 1663.98 131.321 1663.24 133.25L1666.05 134.319ZM1670.92 123.672C1671.87 121.925 1672.87 120.237 1673.91 118.605L1671.38 116.989C1670.3 118.682 1669.27 120.432 1668.29 122.24L1670.92 123.672ZM1677.24 113.792C1678.41 112.222 1679.63 110.707 1680.9 109.246L1678.63 107.28C1677.32 108.796 1676.05 110.368 1674.84 111.997L1677.24 113.792ZM1684.9 104.954C1686.29 103.573 1687.72 102.244 1689.19 100.963L1687.22 98.6988C1685.7 100.023 1684.22 101.4 1682.78 102.831L1684.9 104.954ZM1693.75 97.2605C1695.3 96.0807 1696.89 94.9464 1698.52 93.8547L1696.86 91.3605C1695.17 92.4848 1693.53 93.6544 1691.93 94.8722L1693.75 97.2605ZM1703.5 90.7284C1705.19 89.7335 1706.91 88.7773 1708.67 87.8575L1707.27 85.1998C1705.47 86.1422 1703.71 87.123 1701.98 88.145L1703.5 90.7284ZM1713.94 85.2516C1715.71 84.4248 1717.51 83.6298 1719.34 82.8643L1718.18 80.0966C1716.32 80.877 1714.48 81.6884 1712.67 82.5333L1713.94 85.2516ZM1724.85 80.6788C1726.68 79.9914 1728.53 79.3296 1730.41 78.6911L1729.44 75.8511C1727.54 76.4992 1725.65 77.1717 1723.8 77.8709L1724.85 80.6788ZM1736.06 76.8583C1737.93 76.2786 1739.83 75.7191 1741.74 75.1777L1740.92 72.291C1738.99 72.8386 1737.07 73.405 1735.17 73.9923L1736.06 76.8583ZM1747.47 73.6244C1749.38 73.1272 1751.3 72.6456 1753.25 72.1774L1752.54 69.2609C1750.58 69.733 1748.64 70.2191 1746.71 70.7211L1747.47 73.6244ZM1759.02 70.8335C1760.95 70.3994 1762.89 69.9765 1764.85 69.5629L1764.23 66.6279C1762.26 67.0439 1760.31 67.4695 1758.36 67.9066L1759.02 70.8335ZM1770.67 68.3639C1772.61 67.9742 1774.56 67.5919 1776.52 67.2151L1775.95 64.2691C1773.99 64.6472 1772.03 65.0312 1770.08 65.4226L1770.67 68.3639ZM1782.37 66.1077C1784.32 65.7452 1786.28 65.3864 1788.24 65.0297L1787.7 62.0781C1785.74 62.4354 1783.78 62.7949 1781.83 63.1584L1782.37 66.1077ZM1794.11 63.9677C1796.07 63.6164 1798.02 63.2658 1799.98 62.9137L1799.45 59.961C1797.49 60.3128 1795.54 60.6637 1793.58 61.015L1794.11 63.9677ZM1805.87 61.8536C1807.82 61.499 1809.78 61.1415 1811.74 60.7796L1811.19 57.8295C1809.24 58.1907 1807.29 58.5475 1805.33 58.9017L1805.87 61.8536ZM1817.62 59.6789C1819.57 59.3064 1821.53 58.9279 1823.49 58.5417L1822.91 55.5986C1820.96 55.9832 1819.01 56.3604 1817.06 56.7317L1817.62 59.6789ZM1829.35 57.357C1831.31 56.9526 1833.26 56.5388 1835.21 56.1141L1834.57 53.183C1832.63 53.6053 1830.69 54.0168 1828.74 54.4192L1829.35 57.357ZM1841.05 54.8006C1843 54.3496 1844.94 53.8858 1846.87 53.4075L1846.15 50.4953C1844.23 50.9698 1842.31 51.4301 1840.37 51.878L1841.05 54.8006ZM1852.69 51.9181C1854.62 51.4049 1856.54 50.8753 1858.46 50.3276L1857.63 47.4433C1855.74 47.9855 1853.83 48.51 1851.92 49.0185L1852.69 51.9181ZM1864.22 48.6122C1866.13 48.0192 1868.04 47.4057 1869.93 46.7701L1868.97 43.9265C1867.11 44.5541 1865.23 45.1602 1863.33 45.7465L1864.22 48.6122ZM1875.6 44.7794C1877.49 44.0884 1879.36 43.3728 1881.22 42.6307L1880.1 39.8451C1878.28 40.5758 1876.43 41.281 1874.57 41.9623L1875.6 44.7794ZM1886.76 40.311C1888.61 39.5039 1890.43 38.6676 1892.24 37.8003L1890.94 35.0957C1889.17 35.9473 1887.37 36.7689 1885.56 37.5626L1886.76 40.311ZM1897.61 35.0965C1899.4 34.1567 1901.16 33.1832 1902.89 32.1742L1901.39 29.58C1899.69 30.5678 1897.96 31.5215 1896.21 32.4429L1897.61 35.0965ZM1908.04 29.0349C1909.74 27.9494 1911.41 26.8261 1913.05 25.663L1911.32 23.2143C1909.71 24.3499 1908.08 25.4474 1906.42 26.5087L1908.04 29.0349ZM1917.89 22.059C1919.47 20.8178 1921.03 19.535 1922.56 18.2087L1920.59 15.9437C1919.1 17.2361 1917.59 18.4866 1916.04 19.6972L1917.89 22.059ZM1927.01 14.1382C1928.45 12.7443 1929.87 11.3064 1931.25 9.82256L1929.06 7.77683C1927.71 9.22122 1926.33 10.6212 1924.92 11.9785L1927.01 14.1382ZM1935.25 5.29719C1935.9 4.52015 1936.54 3.73154 1937.18 2.93114L1934.82 1.06886C1934.21 1.84799 1933.58 2.61561 1932.95 3.37194L1935.25 5.29719Z"/>
<path fill="#C87311" d="M-237.489 62.8269C-237.394 62.004 -236.649 61.4144 -235.826 61.51L-222.417 63.0684C-221.594 63.164 -221.004 63.9086 -221.1 64.7315C-221.195 65.5544 -221.94 66.1439 -222.763 66.0483L-234.683 64.6631L-236.068 76.5829C-236.163 77.4058 -236.908 77.9954 -237.731 77.8997C-238.554 77.8041 -239.143 77.0595 -239.048 76.2366L-237.489 62.8269ZM38.1723 203.321L36.7286 203.728L38.1723 203.321ZM-25.2162 292.845L-25.3266 294.34L-25.2162 292.845ZM-25.2162 170.127L-24.8501 168.672L-25.2162 170.127ZM178.867 370.298L180.033 371.241L178.867 370.298ZM333.136 368.939C333.886 369.29 334.21 370.183 333.859 370.934L328.135 383.16C327.784 383.911 326.891 384.234 326.141 383.883C325.39 383.532 325.067 382.639 325.418 381.888L330.506 371.02L319.637 365.933C318.887 365.582 318.563 364.689 318.915 363.938C319.266 363.188 320.159 362.865 320.909 363.216L333.136 368.939ZM333.011 371.708C332.089 372.042 331.143 372.378 330.172 372.715L329.186 369.882C330.145 369.548 331.08 369.217 331.989 368.887L333.011 371.708ZM324.353 374.669C322.469 375.28 320.518 375.895 318.506 376.51L317.629 373.641C319.625 373.031 321.56 372.421 323.427 371.816L324.353 374.669ZM312.636 378.257C310.713 378.815 308.747 379.371 306.742 379.925L305.944 377.033C307.936 376.483 309.89 375.93 311.8 375.376L312.636 378.257ZM300.827 381.521C298.876 382.035 296.896 382.545 294.893 383.05L294.16 380.141C296.153 379.638 298.122 379.131 300.062 378.62L300.827 381.521ZM288.949 384.513C286.984 384.986 285 385.453 283.003 385.911L282.332 382.988C284.319 382.531 286.292 382.067 288.247 381.596L288.949 384.513ZM277.036 387.25C275.049 387.686 273.052 388.112 271.05 388.529L270.439 385.592C272.431 385.177 274.417 384.753 276.394 384.32L277.036 387.25ZM265.053 389.744C263.051 390.138 261.047 390.522 259.046 390.893L258.499 387.943C260.489 387.574 262.482 387.193 264.473 386.8L265.053 389.744ZM253.019 391.974C250.998 392.325 248.982 392.662 246.977 392.983L246.502 390.021C248.494 389.702 250.497 389.367 252.507 389.019L253.019 391.974ZM240.925 393.912C238.888 394.211 236.866 394.491 234.864 394.754L234.475 391.779C236.461 391.519 238.467 391.24 240.49 390.944L240.925 393.912ZM228.797 395.497C226.733 395.731 224.697 395.943 222.693 396.131L222.413 393.145C224.396 392.958 226.413 392.748 228.458 392.516L228.797 395.497ZM216.568 396.637C214.476 396.785 212.427 396.902 210.429 396.988L210.301 393.99C212.269 393.906 214.29 393.79 216.357 393.645L216.568 396.637ZM204.275 397.146C202.145 397.162 200.088 397.134 198.113 397.058L198.228 394.06C200.152 394.134 202.163 394.162 204.252 394.146L204.275 397.146ZM191.96 396.636C189.739 396.407 187.655 396.098 185.731 395.7L186.337 392.762C188.146 393.136 190.128 393.431 192.268 393.652L191.96 396.636ZM179.645 393.923C177.377 393.007 175.449 391.848 173.995 390.387L176.122 388.271C177.206 389.361 178.749 390.326 180.769 391.142L179.645 393.923ZM171.12 383.99C171.019 381.946 171.513 379.739 172.559 377.38L175.301 378.596C174.389 380.654 174.045 382.388 174.116 383.843L171.12 383.99ZM175.73 371.946C176.327 371.105 176.983 370.241 177.701 369.354L180.033 371.241C179.352 372.083 178.734 372.896 178.177 373.681L175.73 371.946ZM177.701 369.354C178.317 368.592 178.903 367.821 179.458 367.042L181.902 368.782C181.31 369.612 180.688 370.432 180.033 371.241L177.701 369.354ZM182.464 362.196C183.368 360.5 184.146 358.768 184.801 357.001L187.614 358.045C186.912 359.938 186.079 361.793 185.11 363.608L182.464 362.196ZM186.418 351.534C186.832 349.684 187.126 347.8 187.302 345.884L190.289 346.159C190.102 348.199 189.789 350.21 189.346 352.189L186.418 351.534ZM187.483 340.146C187.433 338.264 187.279 336.355 187.023 334.422L189.997 334.029C190.266 336.061 190.429 338.075 190.482 340.066L187.483 340.146ZM186.001 328.755C185.583 326.914 185.078 325.053 184.49 323.175L187.353 322.278C187.964 324.229 188.489 326.167 188.926 328.091L186.001 328.755ZM182.555 317.696C181.857 315.917 181.089 314.125 180.251 312.322L182.972 311.058C183.834 312.913 184.627 314.762 185.348 316.601L182.555 317.696ZM177.656 307.115C176.76 305.431 175.807 303.74 174.799 302.043L177.377 300.51C178.41 302.246 179.386 303.979 180.304 305.707L177.656 307.115ZM171.693 297.066C170.639 295.454 169.537 293.839 168.389 292.22L170.835 290.484C172.005 292.132 173.129 293.78 174.204 295.425L171.693 297.066ZM164.928 287.522C163.752 285.982 162.535 284.44 161.279 282.898L163.604 281.003C164.88 282.569 166.117 284.136 167.312 285.702L164.928 287.522ZM157.511 278.413C156.247 276.951 154.947 275.489 153.614 274.029L155.829 272.006C157.18 273.486 158.498 274.967 159.78 276.451L157.511 278.413ZM149.576 269.72C148.239 268.328 146.872 266.939 145.476 265.553L147.59 263.425C149.002 264.827 150.386 266.232 151.739 267.641L149.576 269.72ZM141.237 261.438C139.833 260.105 138.402 258.775 136.947 257.45L138.966 255.231C140.437 256.571 141.883 257.914 143.303 259.262L141.237 261.438ZM132.546 253.525C131.082 252.245 129.595 250.97 128.084 249.7L130.015 247.404C131.54 248.686 133.042 249.974 134.521 251.267L132.546 253.525ZM123.543 245.951C122.028 244.723 120.491 243.501 118.934 242.285L120.781 239.921C122.352 241.148 123.902 242.381 125.432 243.62L123.543 245.951ZM114.267 238.703C112.706 237.526 111.127 236.356 109.531 235.193L111.297 232.768C112.907 233.941 114.499 235.121 116.073 236.307L114.267 238.703ZM104.748 231.768C103.148 230.641 101.531 229.522 99.8989 228.411L101.587 225.931C103.232 227.051 104.862 228.179 106.475 229.315L104.748 231.768ZM95.0094 225.137C93.3743 224.061 91.7243 222.992 90.06 221.932L91.6718 219.402C93.3487 220.47 95.0114 221.547 96.6593 222.632L95.0094 225.137ZM85.0717 218.806C83.4044 217.779 81.7238 216.76 80.0306 215.751L81.5669 213.174C83.2727 214.191 84.9658 215.217 86.6457 216.252L85.0717 218.806ZM74.9499 212.771C73.2529 211.792 71.5442 210.823 69.8242 209.864L71.2854 207.244C73.018 208.21 74.7393 209.186 76.4486 210.172L74.9499 212.771ZM64.6571 207.03C62.9325 206.101 61.1974 205.181 59.4523 204.272L60.8382 201.611C62.596 202.527 64.3437 203.453 66.0807 204.39L64.6571 207.03ZM54.2045 201.586C52.4538 200.705 50.6938 199.836 48.925 198.977L50.2347 196.278C52.0164 197.143 53.7891 198.019 55.5525 198.906L54.2045 201.586ZM43.6017 196.44C41.8262 195.61 40.0424 194.791 38.2509 193.984L39.4832 191.248C41.2878 192.061 43.0845 192.886 44.873 193.723L43.6017 196.44ZM32.8575 191.6C31.058 190.82 29.2515 190.053 27.4382 189.298L28.5912 186.528C30.4178 187.289 32.2377 188.062 34.0503 188.847L32.8575 191.6ZM21.9796 187.072C20.1571 186.345 18.3286 185.63 16.4944 184.929L17.5655 182.127C19.4135 182.833 21.2558 183.553 23.0919 184.286L21.9796 187.072ZM10.9756 182.867C9.13089 182.193 7.28113 181.534 5.42673 180.888L6.41293 178.055C8.28177 178.705 10.1458 179.37 12.0046 180.049L10.9756 182.867ZM-0.14978 178.995C-2.01508 178.378 -3.88452 177.775 -5.75763 177.188L-4.85989 174.325C-2.97174 174.917 -1.08737 175.525 0.792694 176.147L-0.14978 178.995ZM-11.3893 175.47C-13.2736 174.912 -15.161 174.37 -17.0511 173.843L-16.2461 170.953C-14.3402 171.484 -12.4371 172.031 -10.5374 172.594L-11.3893 175.47ZM-22.7354 172.311C-23.6839 172.063 -24.6329 171.82 -25.5824 171.581L-24.8501 168.672C-23.8923 168.913 -22.9352 169.158 -21.9785 169.408L-22.7354 172.311ZM-25.5824 171.581C-26.5608 171.335 -27.5313 171.097 -28.4941 170.868L-27.7989 167.95C-26.8235 168.182 -25.8406 168.423 -24.8501 168.672L-25.5824 171.581ZM-34.1782 169.592C-36.1086 169.186 -38.0062 168.815 -39.8715 168.479L-39.3392 165.526C-37.4446 165.868 -35.5186 166.244 -33.5606 166.656L-34.1782 169.592ZM-45.6088 167.537C-47.5672 167.248 -49.4879 166.999 -51.3716 166.789L-51.0388 163.807C-49.119 164.022 -47.1633 164.275 -45.1711 164.569L-45.6088 167.537ZM-57.1093 166.259C-59.0966 166.115 -61.0401 166.016 -62.9408 165.961L-62.8545 162.963C-60.9089 163.019 -58.9218 163.12 -56.8923 163.267L-57.1093 166.259ZM-68.6656 165.931C-70.651 165.968 -72.5862 166.056 -74.4724 166.194L-74.6903 163.202C-72.7487 163.06 -70.7597 162.97 -68.7221 162.931L-68.6656 165.931ZM-80.2214 166.782C-82.159 167.04 -84.0407 167.353 -85.868 167.719L-86.4572 164.777C-84.5641 164.398 -82.6178 164.074 -80.617 163.808L-80.2214 166.782ZM-91.4548 169.046C-93.347 169.57 -95.1756 170.154 -96.9427 170.798L-97.9686 167.978C-96.1258 167.308 -94.2219 166.699 -92.2548 166.155L-91.4548 169.046ZM-102.24 172.98C-103.998 173.794 -105.689 174.67 -107.316 175.606L-108.812 173.006C-107.108 172.026 -105.339 171.108 -103.5 170.257L-102.24 172.98ZM-112.13 178.677C-113.702 179.784 -115.206 180.952 -116.646 182.178L-118.591 179.893C-117.082 178.609 -115.505 177.384 -113.858 176.224L-112.13 178.677ZM-120.831 186.079C-122.171 187.445 -123.448 188.867 -124.664 190.34L-126.978 188.43C-125.709 186.892 -124.375 185.407 -122.973 183.978L-120.831 186.079ZM-128.134 194.908C-129.227 196.472 -130.263 198.084 -131.246 199.738L-133.825 198.205C-132.806 196.491 -131.73 194.817 -130.593 193.19L-128.134 194.908ZM-134.015 204.783C-134.879 206.488 -135.693 208.231 -136.461 210.006L-139.215 208.815C-138.424 206.987 -137.584 205.189 -136.691 203.428L-134.015 204.783ZM-138.608 215.371C-139.273 217.171 -139.896 218.998 -140.48 220.849L-143.341 219.947C-142.744 218.052 -142.105 216.179 -141.422 214.331L-138.608 215.371ZM-142.1 226.416C-142.599 228.276 -143.061 230.155 -143.491 232.048L-146.417 231.384C-145.979 229.455 -145.507 227.539 -144.998 225.64L-142.1 226.416ZM-144.675 237.732C-145.038 239.632 -145.37 241.542 -145.674 243.46L-148.637 242.989C-148.328 241.043 -147.991 239.102 -147.622 237.17L-144.675 237.732ZM-146.506 249.22C-146.757 251.147 -146.983 253.076 -147.186 255.005L-150.17 254.691C-149.964 252.739 -149.735 250.785 -149.48 248.832L-146.506 249.22ZM-147.732 260.806C-147.894 262.749 -148.035 264.687 -148.158 266.617L-151.152 266.426C-151.028 264.478 -150.886 262.52 -150.722 260.557L-147.732 260.806ZM-148.479 272.448C-148.57 274.409 -148.645 276.357 -148.706 278.287L-151.705 278.192C-151.643 276.248 -151.568 274.285 -151.475 272.308L-148.479 272.448ZM-148.855 284.132C-148.893 286.107 -148.92 288.059 -148.938 289.981L-151.938 289.953C-151.919 288.022 -151.893 286.061 -151.854 284.074L-148.855 284.132ZM-148.97 295.834C-148.974 297.827 -148.972 299.781 -148.969 301.691L-151.969 301.697C-151.972 299.785 -151.974 297.826 -151.97 295.828L-148.97 295.834ZM-148.955 307.555C-148.953 308.534 -148.952 309.499 -148.952 310.447H-151.952C-151.952 309.501 -151.953 308.539 -151.955 307.561L-148.955 307.555ZM-148.952 310.447C-148.952 311.535 -148.928 312.569 -148.882 313.552L-151.879 313.693C-151.927 312.659 -151.952 311.578 -151.952 310.447H-148.952ZM-148.242 319.387C-147.819 321.632 -147.219 323.433 -146.48 324.859L-149.143 326.24C-150.049 324.493 -150.727 322.399 -151.19 319.943L-148.242 319.387ZM-142.961 328.69C-141.552 329.477 -139.84 329.851 -137.781 329.817L-137.731 332.816C-140.178 332.856 -142.444 332.416 -144.425 331.308L-142.961 328.69ZM-132.058 328.927C-130.285 328.46 -128.384 327.821 -126.361 327.036L-125.275 329.833C-127.374 330.647 -129.385 331.325 -131.294 331.828L-132.058 328.927ZM-120.758 324.647C-118.98 323.832 -117.136 322.943 -115.231 321.994L-113.894 324.68C-115.82 325.639 -117.694 326.543 -119.508 327.374L-120.758 324.647ZM-109.764 319.211C-107.984 318.288 -106.162 317.333 -104.3 316.355L-102.905 319.011C-104.768 319.99 -106.596 320.948 -108.384 321.874L-109.764 319.211ZM-98.8257 313.485C-97.0235 312.544 -95.1895 311.593 -93.3274 310.641L-91.9624 313.313C-93.8142 314.259 -95.6398 315.206 -97.4373 316.144L-98.8257 313.485ZM-87.7901 307.86C-85.95 306.953 -84.0859 306.054 -82.2005 305.17L-80.9279 307.887C-82.793 308.761 -84.6391 309.651 -86.464 310.551L-87.7901 307.86ZM-76.547 302.605C-74.6548 301.776 -72.744 300.97 -70.817 300.195L-69.6977 302.978C-71.5937 303.741 -73.4762 304.535 -75.343 305.353L-76.547 302.605ZM-65.0007 297.975C-63.0445 297.27 -61.0739 296.604 -59.0916 295.984L-58.1964 298.847C-60.1347 299.453 -62.0645 300.106 -63.9836 300.797L-65.0007 297.975ZM-53.0864 294.266C-51.0624 293.743 -49.0283 293.275 -46.9866 292.871L-46.4043 295.814C-48.3857 296.206 -50.3634 296.66 -52.3353 297.17L-53.0864 294.266ZM-40.8008 291.853C-38.7209 291.583 -36.6353 291.386 -34.5469 291.272L-34.3834 294.268C-36.3931 294.377 -38.404 294.567 -40.4139 294.828L-40.8008 291.853ZM-28.2552 291.187C-27.2054 291.218 -26.1555 291.271 -25.1058 291.349L-25.3266 294.34C-26.3307 294.266 -27.3359 294.215 -28.3419 294.186L-28.2552 291.187ZM-25.1058 291.349C-24.0724 291.425 -23.0473 291.504 -22.0306 291.586L-22.2713 294.576C-23.2819 294.495 -24.3004 294.416 -25.3266 294.34L-25.1058 291.349ZM-15.9302 292.111C-13.8622 292.299 -11.8329 292.492 -9.84457 292.684L-10.1328 295.67C-12.1184 295.478 -14.1416 295.286 -16.2016 295.099L-15.9302 292.111ZM-3.77649 293.272C-1.69809 293.472 0.328552 293.664 2.30301 293.839L2.03818 296.827C0.0525208 296.651 -1.98285 296.459 -4.06424 296.258L-3.77649 293.272ZM8.37604 294.328C10.4596 294.475 12.472 294.591 14.4116 294.665L14.2972 297.663C12.3181 297.588 10.2725 297.47 8.16473 297.321L8.37604 294.328ZM20.4503 294.745C22.5411 294.711 24.5209 294.603 26.3879 294.406L26.7032 297.389C24.731 297.598 22.6605 297.709 20.4993 297.745L20.4503 294.745ZM32.1963 293.393C34.1728 292.882 35.9616 292.214 37.5655 291.364L38.9703 294.015C37.1258 294.992 35.111 295.738 32.9464 296.297L32.1963 293.393ZM42.058 288.009C43.2993 286.72 44.375 285.194 45.2728 283.385L47.96 284.719C46.9343 286.785 45.6853 288.568 44.219 290.09L42.058 288.009ZM47.2062 277.978C47.6368 276.233 47.9609 274.308 48.1712 272.185L51.1566 272.481C50.9342 274.726 50.5882 276.794 50.1189 278.696L47.2062 277.978ZM48.4564 266.242C48.4628 264.359 48.3997 262.357 48.2648 260.228L51.2588 260.038C51.3975 262.226 51.463 264.296 51.4564 266.252L48.4564 266.242ZM47.7295 254.216C47.5149 252.307 47.2521 250.312 46.94 248.228L49.9069 247.784C50.224 249.901 50.4917 251.932 50.7107 253.881L47.7295 254.216ZM45.9546 242.262C45.61 240.341 45.2289 238.353 44.8105 236.297L47.7503 235.699C48.173 237.776 48.5586 239.787 48.9075 241.732L45.9546 242.262ZM43.5309 230.309C43.1029 228.394 42.646 226.424 42.1598 224.399L45.077 223.698C45.5666 225.738 46.0271 227.723 46.4587 229.655L43.5309 230.309ZM40.7081 218.528C40.2161 216.592 39.6996 214.609 39.1584 212.579L42.0573 211.806C42.6013 213.848 43.1206 215.841 43.6156 217.789L40.7081 218.528ZM37.5714 206.742C37.296 205.748 37.0151 204.744 36.7286 203.728L39.616 202.914C39.9037 203.934 40.1858 204.943 40.4625 205.941L37.5714 206.742ZM36.7286 203.728C36.4537 202.753 36.1675 201.792 35.8701 200.845L38.7325 199.946C39.0387 200.922 39.3333 201.911 39.616 202.914L36.7286 203.728ZM33.9539 195.319C33.2412 193.45 32.4816 191.637 31.6767 189.879L34.4044 188.63C35.2368 190.448 36.0215 192.321 36.757 194.25L33.9539 195.319ZM29.0771 184.672C28.1294 182.925 27.1328 181.237 26.0891 179.605L28.6168 177.989C29.6992 179.682 30.7321 181.432 31.7137 183.24L29.0771 184.672ZM22.7606 174.792C21.5878 173.222 20.3667 171.707 19.0993 170.246L21.3659 168.28C22.6805 169.796 23.9473 171.368 25.1641 172.997L22.7606 174.792ZM15.0972 165.954C13.7141 164.573 12.2848 163.244 10.8114 161.963L12.7793 159.699C14.3035 161.023 15.7835 162.4 17.2167 163.831L15.0972 165.954ZM6.25482 158.26C4.70294 157.081 3.10928 155.946 1.47589 154.855L3.14288 152.361C4.82501 153.485 6.46832 154.654 8.07037 155.872L6.25482 158.26ZM-3.50201 151.728C-5.18747 150.733 -6.90961 149.777 -8.66641 148.857L-7.27484 146.2C-5.47498 147.142 -3.70825 148.123 -1.97696 149.145L-3.50201 151.728ZM-13.9371 146.252C-15.708 145.425 -17.5097 144.63 -19.3404 143.864L-18.183 141.097C-16.3167 141.877 -14.4776 142.688 -12.6679 143.533L-13.9371 146.252ZM-24.8514 141.679C-26.6787 140.991 -28.5312 140.33 -30.4075 139.691L-29.441 136.851C-27.5364 137.499 -25.6538 138.172 -23.7952 138.871L-24.8514 141.679ZM-36.0572 137.858C-37.9312 137.279 -39.8259 136.719 -41.7398 136.178L-40.9232 133.291C-38.9874 133.839 -37.0693 134.405 -35.1706 134.992L-36.0572 137.858ZM-47.4663 134.624C-49.3766 134.127 -51.3037 133.646 -53.246 133.177L-52.5431 130.261C-50.5845 130.733 -48.6398 131.219 -46.7107 131.721L-47.4663 134.624ZM-59.0204 131.834C-60.9501 131.399 -62.893 130.976 -64.8476 130.563L-64.2266 127.628C-62.2607 128.044 -60.3053 128.469 -58.362 128.907L-59.0204 131.834ZM-70.6682 129.364C-72.6086 128.974 -74.5589 128.592 -76.5177 128.215L-75.951 125.269C-73.9852 125.647 -72.0269 126.031 -70.0775 126.423L-70.6682 129.364ZM-82.3743 127.108C-84.3222 126.745 -86.2769 126.386 -88.2373 126.03L-87.7002 123.078C-85.7368 123.435 -83.7781 123.795 -81.8254 124.158L-82.3743 127.108ZM-94.1136 124.968C-96.0671 124.616 -98.0234 124.266 -99.9841 123.914L-99.4539 120.961C-97.4948 121.313 -95.5364 121.664 -93.5827 122.015L-94.1136 124.968ZM-105.866 122.854C-107.822 122.499 -109.781 122.142 -111.74 121.78L-111.195 118.83C-109.24 119.191 -107.285 119.548 -105.331 119.902L-105.866 122.854ZM-117.616 120.679C-119.574 120.306 -121.531 119.928 -123.486 119.542L-122.905 116.599C-120.958 116.983 -119.007 117.36 -117.055 117.732L-117.616 120.679ZM-129.351 118.357C-131.306 117.953 -133.258 117.539 -135.205 117.114L-134.566 114.183C-132.63 114.605 -130.689 115.017 -128.744 115.419L-129.351 118.357ZM-141.05 115.801C-142.997 115.35 -144.938 114.886 -146.872 114.408L-146.152 111.495C-144.233 111.97 -142.307 112.43 -140.373 112.878L-141.05 115.801ZM-152.686 112.918C-154.619 112.405 -156.543 111.875 -158.457 111.328L-157.632 108.443C-155.737 108.986 -153.831 109.51 -151.916 110.019L-152.686 112.918ZM-164.22 109.612C-166.135 109.019 -168.038 108.406 -169.928 107.77L-168.972 104.927C-167.106 105.554 -165.225 106.16 -163.332 106.747L-164.22 109.612ZM-175.601 105.779C-177.488 105.088 -179.361 104.373 -181.217 103.631L-180.103 100.845C-178.275 101.576 -176.43 102.281 -174.57 102.962L-175.601 105.779ZM-186.762 101.311C-188.607 100.504 -190.433 99.6676 -192.24 98.8003L-190.942 96.0957C-189.168 96.9473 -187.373 97.7689 -185.56 98.5626L-186.762 101.311ZM-197.614 96.0965C-199.396 95.1567 -201.157 94.1832 -202.894 93.1742L-201.388 90.58C-199.687 91.5678 -197.962 92.5215 -196.215 93.4429L-197.614 96.0965ZM-208.041 90.0349C-209.736 88.9494 -211.406 87.8261 -213.049 86.663L-211.316 84.2143C-209.712 85.3499 -208.08 86.4474 -206.423 87.5087L-208.041 90.0349ZM-217.89 83.059C-219.475 81.8178 -221.031 80.535 -222.558 79.2087L-220.591 76.9437C-219.103 78.2361 -217.586 79.4866 -216.04 80.6972L-217.89 83.059ZM-227.007 75.1382C-228.453 73.7443 -229.868 72.3064 -231.252 70.8226L-229.057 68.7768C-227.711 70.2212 -226.333 71.6212 -224.925 72.9785L-227.007 75.1382ZM-235.249 66.2972C-235.9 65.5201 -236.542 64.7315 -237.175 63.9311L-234.823 62.0689C-234.206 62.848 -233.581 63.6156 -232.949 64.3719L-235.249 66.2972Z"/>
<defs>
<linearGradient gradientUnits="userSpaceOnUse" y2="217" x2="1972" y1="217" x1="-35" id="paint0_linear_1649_156">
<stop stop-color="#FFD152"/>
<stop stop-color="#CABB93" offset="1"/>
</linearGradient>
<linearGradient gradientUnits="userSpaceOnUse" y2="212" x2="1950.44" y1="212" x1="-19.6172" id="paint1_linear_1649_156">
<stop stop-color="#FFD152"/>
<stop stop-color="#CABB93" offset="1"/>
</linearGradient>
</defs>
</svg>